<svg width="75" height="75" viewBox="0 0 75 75" fill="none" xmlns="http://www.w3.org/2000/svg">
<circle cx="37.5" cy="37.5" r="37.5" fill="#21B4B0"/>
<path d="M33.405 53.5071V56.2928V58.4356V61.2428H41.1407V58.4356V56.2928V53.5071H33.405ZM38.565 58.7292H35.9871V55.9842H38.565V58.7292Z" fill="white"/>
<path d="M33.405 17.1429V19.9501V22.0929V24.8787H41.1407V22.0929V19.9501V17.1429H33.405ZM38.565 22.3672H35.9871V19.6222H38.565V22.3672Z" fill="white"/>
<path d="M56.505 43.0565C58.2085 42.5722 59.4643 41.0229 59.4643 39.1651C59.4643 37.3072 58.2085 35.7558 56.505 35.2737V24.8787H59.2907V17.1429H51.555V19.9501H41.1407V22.0929H51.555V24.8787H54.3621V35.2522C52.6243 35.7129 51.3385 37.2815 51.3385 39.1629C51.3385 41.0444 52.6243 42.6129 54.3621 43.0737V53.5051H51.555V56.2908H41.1407V58.4337H51.555V61.2408H59.2907V53.5051H56.505V43.0565ZM54.135 22.3672V19.6222H56.7128V22.3672H54.135ZM54.0171 39.1651C54.0171 38.4001 54.6364 37.7808 55.4014 37.7808C56.1664 37.7808 56.7857 38.4001 56.7857 39.1651C56.7857 39.9301 56.1664 40.5494 55.4014 40.5494C54.6364 40.5494 54.0171 39.9279 54.0171 39.1651ZM56.7128 55.9844V58.7294H54.135V55.9844H56.7128Z" fill="white"/>
<path d="M22.9907 17.1429H15.255V24.8787H18.0621V35.2415C16.305 35.6894 15 37.2687 15 39.1651C15 41.0615 16.305 42.6408 18.0621 43.0887V53.5072H15.255V61.2429H22.9907V58.4358H33.405V56.2929H22.9907V53.5072H20.205V43.0437C21.8871 42.5465 23.1236 41.0079 23.1236 39.1651C23.1236 37.3222 21.8871 35.7815 20.205 35.2865V24.8787H22.9907V22.0929H33.405V19.9501H22.9907V17.1429ZM20.4193 55.9844V58.7294H17.8414V55.9844H20.4193ZM20.4921 39.1651C20.4921 39.9301 19.8729 40.5494 19.1079 40.5494C18.3429 40.5494 17.7236 39.9301 17.7236 39.1651C17.7236 38.4001 18.3429 37.7808 19.1079 37.7808C19.8729 37.7808 20.4921 38.4001 20.4921 39.1651ZM20.4193 22.3672H17.8414V19.6222H20.4193V22.3672Z" fill="white"/>
<path d="M37.3393 27.2229L26.9614 32.2458V45.7736L37.3414 50.8629L47.5864 45.9065V32.5136L37.3393 27.2229ZM36.0686 47.4129L29.505 44.4322V35.325L36.0686 38.3722V47.4129ZM37.2729 36.2958L31.1464 33.3172L37.2729 30.1029L43.5 33.3515L37.2729 36.2958ZM45.1071 44.4322L38.5436 47.4129V38.3722L45.1071 35.325V44.4322Z" fill="white"/>
</svg>
