<svg width="75" height="75" viewBox="0 0 75 75" fill="none" xmlns="http://www.w3.org/2000/svg">
<circle cx="37.5" cy="37.5" r="37.5" fill="#21B4B0"/>
<path d="M26.0148 29.4301C25.9419 29.0294 25.8713 28.6775 25.8147 28.3234C25.7049 27.6365 25.9051 27.3481 26.5814 27.2303C27.8811 27.0042 29.1799 26.7708 30.484 26.5731C30.8279 26.5209 30.9391 26.3901 30.9246 26.0545C30.9034 25.5684 30.9154 25.0805 30.9204 24.5935C30.9278 23.8767 31.1409 23.6548 31.8468 23.6518C33.2229 23.646 34.5992 23.65 35.9753 23.65C38.7098 23.65 41.4443 23.6566 44.1787 23.6431C44.6004 23.641 44.9292 23.7514 45.2337 24.0525C46.2038 25.0119 47.2076 25.937 48.1638 26.91C48.3628 27.1126 48.5165 27.4634 48.5175 27.7465C48.5377 33.4832 48.5334 39.22 48.5317 44.9569C48.5315 45.6463 48.3238 45.8631 47.6398 45.8736C46.354 45.8933 45.0649 45.8488 43.7829 45.9271C41.9015 46.0419 40.2195 46.9032 38.4771 47.5206C35.3011 48.6461 32.1385 49.8102 28.9698 50.9568C28.2123 51.2309 27.983 51.1262 27.7171 50.3828C26.7316 47.6266 25.7481 44.8697 24.7644 42.1129C24.7222 41.9944 24.6324 41.8607 24.658 41.7576C24.6968 41.6012 24.7883 41.392 24.9118 41.3421C25.0287 41.2948 25.2574 41.3817 25.3605 41.4864C25.4762 41.6039 25.5126 41.8051 25.5727 41.9739C26.5491 44.7131 27.5238 47.4528 28.5232 50.2607C31.411 49.2125 34.2747 48.1731 37.1384 47.1336C37.1304 47.1073 37.1222 47.081 37.1142 47.0547C34.7627 47.4642 32.4113 47.8733 30.06 48.2837C29.5028 48.381 29.2143 48.1975 29.1144 47.6193C28.5749 44.5 28.0447 41.3791 27.5129 38.2586C27.0688 35.6523 26.6271 33.0455 26.1828 30.4392C26.1771 30.4059 26.15 30.3761 26.0922 30.2699C24.7232 30.7425 23.3406 31.2198 21.9166 31.7113C22.522 33.413 23.1108 35.0669 23.6989 36.7212C24.0478 37.7027 24.3903 38.6864 24.7468 39.665C24.851 39.9508 24.8986 40.248 24.5443 40.3046C24.383 40.3303 24.0719 40.1228 24.0101 39.9536C23.0379 37.2883 22.0913 34.6133 21.1492 31.9369C20.9689 31.4247 21.1422 31.1311 21.7252 30.9245C22.985 30.4783 24.2493 30.0447 25.5118 29.6058C25.6624 29.5538 25.8125 29.5009 26.0148 29.4301ZM31.7012 45.0281C37.0754 45.0281 42.386 45.0281 47.6974 45.0281C47.6974 39.3248 47.6974 33.6676 47.6974 27.95C46.9558 27.95 46.2456 27.9504 45.5354 27.9499C44.2078 27.9492 43.9618 27.7064 43.9574 26.3885C43.9554 25.7657 43.9571 25.1429 43.9571 24.5343C39.8201 24.5343 35.7754 24.5343 31.7013 24.5343C31.7013 24.7758 31.7013 24.9724 31.7013 25.169C31.7013 28.3981 31.7013 31.6272 31.701 34.8564C31.701 35.0007 31.7452 35.171 31.6847 35.2828C31.604 35.432 31.4442 35.6271 31.3119 35.6322C31.1888 35.6369 31.0144 35.4397 30.9424 35.2918C30.8781 35.1598 30.9199 34.9737 30.9199 34.8114C30.9193 32.5204 30.9195 30.2293 30.9195 27.9382C30.9195 27.7462 30.9195 27.5541 30.9195 27.3113C29.4504 27.5675 28.0545 27.8108 26.5964 28.0651C27.7016 34.5715 28.7961 41.0131 29.8955 47.4843C32.8246 46.9753 35.68 46.4792 38.5356 45.983C36.3204 45.8762 34.1225 45.8787 31.9246 45.8749C31.0778 45.8734 30.9209 45.7121 30.9202 44.8587C30.9179 42.4233 30.9169 39.9879 30.9223 37.5525C30.9231 37.2274 30.8207 36.7575 31.3226 36.7709C31.8136 36.784 31.6979 37.2513 31.6986 37.5759C31.7033 40.0462 31.7012 42.5163 31.7012 45.0281ZM44.8021 27.0817C45.5974 27.0817 46.3363 27.0817 47.1963 27.0817C46.3696 26.2863 45.6212 25.5664 44.8021 24.7784C44.8021 25.6053 44.8021 26.3164 44.8021 27.0817Z" fill="white" stroke="white" stroke-width="0.25"/>
<path d="M39.7983 33.2678C37.9778 33.2678 36.1572 33.2663 34.3365 33.2693C34.0188 33.2698 33.6621 33.2665 33.6647 32.8515C33.6673 32.4392 34.0281 32.4337 34.3425 32.4337C37.9837 32.4341 41.6249 32.4337 45.2661 32.4346C45.5769 32.4347 45.941 32.433 45.9367 32.856C45.9324 33.2743 45.5752 33.2694 45.2601 33.269C43.4396 33.2667 41.619 33.2678 39.7983 33.2678Z" fill="white" stroke="white" stroke-width="0.25"/>
<path d="M39.8521 41.086C41.6194 41.086 43.3866 41.0853 45.1539 41.0872C45.3134 41.0874 45.4974 41.0583 45.626 41.1269C45.7615 41.1993 45.9266 41.3721 45.9272 41.5018C45.9279 41.6328 45.7666 41.8093 45.6318 41.8831C45.5045 41.9528 45.3194 41.9231 45.1598 41.9232C41.5896 41.9247 38.0194 41.9244 34.4492 41.9243C34.342 41.9243 34.2098 41.9629 34.133 41.9138C33.9577 41.8016 33.8096 41.6461 33.6504 41.5082C33.8076 41.3685 33.9532 41.1283 34.1242 41.1081C34.5998 41.0518 35.0859 41.0862 35.5679 41.0861C36.9961 41.0857 38.4241 41.086 39.8521 41.086Z" fill="white" stroke="white" stroke-width="0.25"/>
<path d="M39.8371 35.3317C41.6247 35.3317 43.4121 35.3314 45.1996 35.3321C45.3424 35.3322 45.5121 35.2922 45.6211 35.3554C45.757 35.4341 45.9238 35.5985 45.9273 35.73C45.9307 35.8549 45.7634 36.0292 45.629 36.1001C45.4992 36.1684 45.3155 36.1407 45.1554 36.1408C41.5805 36.1424 38.0054 36.142 34.4304 36.142C34.3768 36.142 34.3232 36.1412 34.2695 36.1416C33.9629 36.1432 33.6451 36.0963 33.6611 35.71C33.6752 35.3707 33.9652 35.3276 34.2601 35.3285C36.1191 35.3348 37.9781 35.3317 39.8371 35.3317Z" fill="white" stroke="white" stroke-width="0.25"/>
<path d="M39.7828 39.0154C37.9429 39.0154 36.103 39.0126 34.2631 39.0182C33.9734 39.019 33.6765 38.9936 33.6632 38.6453C33.6483 38.2531 33.9676 38.2195 34.2726 38.2257C34.3976 38.2283 34.5227 38.2258 34.6478 38.2258C37.0772 38.2258 39.5065 38.2258 41.936 38.2258C43.0614 38.2258 44.1867 38.2264 45.3121 38.2258C45.6087 38.2256 45.9455 38.2287 45.9389 38.6267C45.9323 39.0166 45.6032 39.0178 45.3026 39.0172C43.4627 39.0135 41.6227 39.0154 39.7828 39.0154Z" fill="white" stroke="white" stroke-width="0.25"/>
<path d="M39.8477 29.5774C41.6159 29.5772 43.3842 29.5771 45.1524 29.5775C45.2953 29.5775 45.4641 29.5348 45.5745 29.5965C45.7235 29.6798 45.9271 29.8481 45.9234 29.9745C45.9197 30.1048 45.7114 30.256 45.5618 30.3453C45.4683 30.4012 45.3177 30.3617 45.1927 30.3617C41.6028 30.362 38.0127 30.362 34.4227 30.3619C34.3512 30.3619 34.2648 30.3879 34.2111 30.3567C34.0182 30.2447 33.6998 30.1338 33.6781 29.9855C33.6285 29.6454 33.9222 29.5745 34.2217 29.5753C36.0969 29.5798 37.9723 29.5776 39.8477 29.5774Z" fill="white" stroke="white" stroke-width="0.25"/>
<path d="M54.0086 17.1502H61.8925C62.1073 17.1502 62.3132 17.0649 62.465 16.9131C62.6169 16.7613 62.7021 16.5553 62.7021 16.3406C62.7021 16.1259 62.6169 15.92 62.465 15.7681C62.3132 15.6163 62.1073 15.531 61.8925 15.531H52.1773C51.9626 15.531 51.7566 15.6163 51.6048 15.7681C51.453 15.92 51.3677 16.1259 51.3677 16.3406V26.0559C51.3677 26.2706 51.453 26.4765 51.6048 26.6283C51.7566 26.7802 51.9626 26.8655 52.1773 26.8655C52.392 26.8655 52.5979 26.7802 52.7498 26.6283C52.9016 26.4765 52.9869 26.2706 52.9869 26.0559V18.4181L53.9762 19.4074C58.5634 23.9946 61.091 30.0942 61.091 36.5807C61.091 43.0673 58.5634 49.1668 53.9762 53.754C50.6413 57.0881 46.4085 59.38 41.7937 60.3503C37.1789 61.3207 32.3816 60.9275 27.9863 59.2189C27.7864 59.1411 27.5638 59.146 27.3675 59.2324C27.1712 59.3188 27.0172 59.4796 26.9395 59.6795C26.8618 59.8794 26.8666 60.102 26.953 60.2984C27.0394 60.4947 27.2003 60.6486 27.4002 60.7264C32.0881 62.5493 37.2051 62.9689 42.1274 61.9338C47.0496 60.8988 51.5643 58.4539 55.121 54.8972C60.0143 50.0056 62.7102 43.498 62.7102 36.5791C62.7102 29.6602 60.0143 23.1542 55.121 18.2626L54.0086 17.1502Z" fill="white" stroke="white" stroke-width="0.5"/>
<path d="M21.4123 46.2959C21.1976 46.2959 20.9917 46.3811 20.8399 46.533C20.688 46.6848 20.6027 46.8907 20.6027 47.1055V54.9424L19.4482 53.7879C14.861 49.2007 12.3334 43.1012 12.3334 36.6146C12.3334 30.1281 14.861 24.0269 19.4482 19.4397C22.7418 16.1557 26.9068 13.8836 31.4508 12.8919C35.9948 11.9002 40.7278 12.2305 45.09 13.8437C45.2882 13.905 45.5023 13.8881 45.6883 13.7964C45.8744 13.7048 46.0182 13.5453 46.0904 13.3509C46.1625 13.1564 46.1575 12.9417 46.0762 12.7509C45.9949 12.5601 45.8437 12.4076 45.6535 12.3249C41.0004 10.6056 35.9523 10.2541 31.1058 11.312C26.2593 12.3699 21.8169 14.793 18.3035 18.2949C13.4102 23.1865 10.7142 29.6941 10.7142 36.613C10.7142 43.5319 13.4102 50.0395 18.3035 54.9311L19.3819 56.0111H11.6971C11.4824 56.0111 11.2764 56.0964 11.1246 56.2482C10.9728 56.4001 10.8875 56.606 10.8875 56.8207C10.8875 57.0354 10.9728 57.2414 11.1246 57.3932C11.2764 57.545 11.4824 57.6303 11.6971 57.6303H21.1792C21.2439 57.6465 21.788 57.5898 21.9467 57.4312C21.9532 57.4247 21.9548 57.4166 21.9613 57.4101C22.0431 57.3352 22.1084 57.2441 22.1533 57.1427C22.1982 57.0413 22.2216 56.9316 22.222 56.8207V47.1055C22.222 46.8907 22.1367 46.6848 21.9848 46.533C21.833 46.3811 21.6271 46.2959 21.4123 46.2959Z" fill="white" stroke="white" stroke-width="0.5"/>
</svg>
