<svg width="75" height="75" viewBox="0 0 75 75" fill="none" xmlns="http://www.w3.org/2000/svg">
<circle cx="37.5" cy="37.5" r="37.5" fill="#21B4B0"/>
<path d="M28.4382 32.8262C30.9652 32.8262 32.8119 30.9923 32.8119 27.8848C32.8119 24.8029 30.9652 22.9435 28.4382 22.9435C25.9354 22.9435 24.0887 24.8029 24.0887 27.8848C24.0887 30.9923 25.9354 32.8262 28.4382 32.8262ZM26.8831 41.0024H30.382L41.9967 23.1727H38.4977L26.8831 41.0024ZM28.4382 30.4065C27.6606 30.4065 27.0046 29.6933 27.0046 27.8848C27.0046 26.0764 27.6606 25.3632 28.4382 25.3632C29.2643 25.3632 29.8718 26.0764 29.8718 27.8848C29.8718 29.6933 29.2643 30.4065 28.4382 30.4065ZM40.4416 41.2316C42.9686 41.2316 44.8153 39.3977 44.8153 36.2903C44.8153 33.2083 42.9686 31.3489 40.4416 31.3489C37.9146 31.3489 36.0922 33.2083 36.0922 36.2903C36.0922 39.3977 37.9146 41.2316 40.4416 41.2316ZM40.4416 38.8119C39.6397 38.8119 39.008 38.0987 39.008 36.2903C39.008 34.4818 39.6397 33.7686 40.4416 33.7686C41.2434 33.7686 41.8752 34.4818 41.8752 36.2903C41.8752 38.0987 41.2434 38.8119 40.4416 38.8119Z" fill="white"/>
<path d="M27.7391 50.7709C28.8982 50.7709 29.8379 49.8435 29.8379 48.6996C29.8379 47.5556 28.8982 46.6283 27.7391 46.6283C26.5799 46.6283 25.6402 47.5556 25.6402 48.6996C25.6402 49.8435 26.5799 50.7709 27.7391 50.7709Z" fill="white"/>
<path d="M58.6598 50.7709C59.819 50.7709 60.7587 49.8435 60.7587 48.6996C60.7587 47.5556 59.819 46.6283 58.6598 46.6283C57.5007 46.6283 56.561 47.5556 56.561 48.6996C56.561 49.8435 57.5007 50.7709 58.6598 50.7709Z" fill="white"/>
<path d="M49.13 43.3075H34.4583V45.0362H49.13V43.3075Z" fill="white"/>
<path d="M21.6913 40.0122H7.01965V41.7409H21.6913V40.0122Z" fill="white"/>
<path d="M67.9602 38.608C67.9427 36.8908 67.2151 35.3076 65.6153 34.7691C63.9913 34.2241 63.7393 33.1297 63.4478 31.845C63.2484 30.9691 62.9963 30.104 62.7969 29.2302C62.7377 28.962 62.6764 28.6268 62.7838 28.4019C64.0834 25.6465 62.4419 23.0209 59.3627 22.9711C58.7776 22.9625 58.1924 22.9711 57.6095 22.9711C56.0907 22.969 54.5742 22.9711 53.0006 22.9711C53.0006 22.5213 53.005 22.2336 53.0006 21.9481C52.9787 19.7616 52.4944 19.2858 50.2831 19.2858C39.5116 19.2858 28.74 19.2858 17.9685 19.2879C16.2284 19.2879 15.6038 19.9086 15.6016 21.6345C15.5994 25.6292 15.5994 29.6217 15.6016 33.6142V36.1232C15.6014 36.3496 15.5538 36.6161 15.6016 36.8185V37.603H17.3533V33.6142H17.3527C17.3549 29.8142 17.3549 26.0142 17.3549 22.212C17.3549 21.8335 17.3549 21.4529 17.3549 21.0657C28.7159 21.0657 39.9126 21.0657 51.243 21.0657C51.243 21.5069 51.243 21.8919 51.243 22.2791C51.243 25.0431 51.243 27.8093 51.243 30.5733V34.1267V35.6861C51.243 35.95 51.1707 36.2463 51.243 36.4755V40.7362C51.1663 41.0282 51.243 41.385 51.243 41.7073C51.2408 43.4288 51.243 45.1504 51.243 46.885C50.9931 46.939 50.8573 46.9931 50.7214 46.9931C45.0255 46.9996 39.3297 47.0104 33.6316 46.978C33.533 46.978 33.4212 46.9455 33.3072 46.8958C32.5029 44.6249 30.3136 42.9963 27.7385 42.9963C25.1349 42.9963 22.928 44.6616 22.1434 46.9715C20.5589 47.0147 18.9744 46.9953 17.4294 46.9953C17.4294 46.2491 17.4294 45.6889 17.4294 45.038C17.8076 45.038 18.1773 45.0371 18.5438 45.0362H20.2188C20.4384 45.0371 20.6578 45.038 20.8767 45.0401C20.9398 45.0408 21.0029 45.0392 21.0652 45.0362H21.9549V44.5704C21.983 44.4696 21.9865 44.35 21.9549 44.2053V43.3075H18.2679C16.8806 43.2982 15.4927 43.3038 14.1052 43.3075H11.8965V45.0362H12.8117C12.9023 45.0425 12.9954 45.0442 13.0901 45.0423C13.2437 45.039 13.3978 45.0377 13.5521 45.0362H14.9915C15.1927 45.0371 15.3958 45.038 15.6018 45.038C15.6018 45.6089 15.5996 46.0047 15.6018 46.3983C15.6106 48.1567 16.1782 48.7255 17.9512 48.732C19.2245 48.7363 20.5022 48.7341 21.8412 48.7341C21.8412 48.7623 21.839 48.7904 21.839 48.8207C21.839 52.0367 24.4798 54.6428 27.7387 54.6428C30.9975 54.6428 33.6406 52.0367 33.6406 48.8207C33.6406 48.8142 33.6384 48.8077 33.6384 48.8012C40.0136 48.8012 46.3933 48.8012 52.7598 48.8012C52.7598 48.8077 52.7598 48.8142 52.7598 48.8207C52.7598 52.0367 55.4006 54.6428 58.6595 54.6428C61.9183 54.6428 64.5613 52.0367 64.5613 48.8207C64.5613 48.7904 64.5591 48.7601 64.5591 48.732C65.3043 48.7276 65.9902 48.7082 66.6696 48.7406C67.5966 48.7817 67.9889 48.4097 67.9802 47.4711C67.9471 44.5167 67.9887 41.5624 67.9602 38.608ZM27.683 52.5564C25.5246 52.5564 23.7748 50.8297 23.7748 48.6995C23.7748 46.5694 25.5246 44.8427 27.683 44.8427C29.8415 44.8427 31.5912 46.5694 31.5912 48.6995C31.5912 50.8297 29.8415 52.5564 27.683 52.5564ZM53.0828 24.7269C55.3594 24.7269 57.606 24.6529 59.8436 24.7613C60.8144 24.8082 61.4684 25.4778 61.4544 26.6152C58.6658 26.6152 55.9147 26.6152 53.0828 26.6152C53.0828 25.9975 53.0828 25.4146 53.0828 24.7269ZM53.0723 28.4021C55.5389 28.4021 57.9371 28.3928 60.3351 28.42C60.5225 28.4222 60.8271 28.6467 60.8738 28.8208C61.3268 30.5114 61.7362 32.2135 62.1819 34.0084C59.0265 34.0084 56.0844 34.0084 53.0723 34.0084C53.0723 32.1398 53.0723 30.3289 53.0723 28.4021ZM58.6597 52.5564C56.5012 52.5564 54.7515 50.8297 54.7515 48.6995C54.7515 46.5694 56.5012 44.8427 58.6597 44.8427C60.8181 44.8427 62.5679 46.5694 62.5679 48.6995C62.5679 50.8297 60.8181 52.5564 58.6597 52.5564ZM64.2589 46.9836C63.4794 44.6679 61.2679 42.9974 58.6597 42.9974C56.0677 42.9974 53.8676 44.6474 53.0751 46.9408C53.0504 46.9364 53.0254 46.9319 53.0006 46.9276C53.0006 45.8395 53.0019 44.7514 53.0002 43.6631C52.9991 42.9978 53.0311 42.3282 53.0173 41.6645V36.4442C53.0175 36.4424 53.0179 36.4407 53.0182 36.4392L53.4249 35.8107C55.0938 35.8107 56.7129 35.81 58.3303 35.8109C59.9735 35.8118 61.6176 35.7806 63.2595 35.8258C64.7399 35.8667 65.6085 36.5367 65.8787 37.7972C65.1 37.7972 64.3279 37.7204 63.5837 37.8288C63.1986 37.8848 62.6282 38.2051 62.5411 38.5152C61.7517 41.3281 63.0386 43.0612 65.9913 43.2844C66.0481 43.2887 66.0996 43.3581 66.155 43.3977C66.1563 44.5714 66.1563 45.7445 66.1563 47.0606C65.532 46.8183 64.8364 47.1759 64.2589 46.9836ZM66.166 41.3794C64.5523 41.6331 64.1776 41.286 64.2975 39.6198C64.8863 39.6198 65.4833 39.6198 66.166 39.6198C66.166 40.2664 66.166 40.8277 66.166 41.3794Z" fill="white"/>
</svg>
