<svg width="75" height="75" viewBox="0 0 75 75" fill="none" xmlns="http://www.w3.org/2000/svg">
<circle cx="37.5" cy="37.5" r="37.5" fill="#21B4B0"/>
<path d="M44.779 18.3447H30.221C29.3111 18.3447 28.4012 19.1636 28.4012 20.1645V22.9032C28.4012 23.5583 28.7925 24.1224 29.3111 24.4409V34.7224C29.3111 35.7233 30.312 36.5422 31.1309 36.5422H43.8691C44.688 36.5422 45.6888 35.7233 45.6888 34.7224V24.4409C46.2075 24.1224 46.5987 23.5583 46.5987 22.9032V20.1645C46.5987 19.1636 45.6888 18.3447 44.779 18.3447ZM43.8691 34.7224H31.1309V24.7138H43.8691V34.7224ZM44.779 22.8941H30.221V20.1645H44.779V22.8941Z" fill="white"/>
<path d="M34.7224 27.5392H40.2774V29.2632H34.7224V27.5392Z" fill="white"/>
<path d="M54.2609 38.4578H39.7029C38.7931 38.4578 37.8832 39.2767 37.8832 40.2776V43.0163C37.8832 43.6714 38.2744 44.2355 38.7931 44.554V54.8355C38.7931 55.8364 39.7939 56.6553 40.6128 56.6553H53.351C54.1699 56.6553 55.1708 55.8364 55.1708 54.8355V44.554C55.6894 44.2355 56.0806 43.6714 56.0806 43.0163V40.2776C56.0806 39.2767 55.1708 38.4578 54.2609 38.4578ZM53.351 54.8355H40.6128V44.8269H53.351V54.8355ZM54.2609 43.0072H39.7029V40.2776H54.2609V43.0072Z" fill="white"/>
<path d="M44.2046 47.6523H49.7596V49.3763H44.2046V47.6523Z" fill="white"/>
<path d="M35.2973 38.4578H20.7393C19.8294 38.4578 18.9196 39.2767 18.9196 40.2776V43.0163C18.9196 43.6714 19.3108 44.2355 19.8294 44.554V54.8355C19.8294 55.8364 20.8303 56.6553 21.6492 56.6553H34.3874C35.2063 56.6553 36.2071 55.8364 36.2071 54.8355V44.554C36.7258 44.2355 37.117 43.6714 37.117 43.0163V40.2776C37.117 39.2767 36.2071 38.4578 35.2973 38.4578ZM34.3874 54.8355H21.6492V44.8269H34.3874V54.8355ZM35.2973 43.0072H20.7393V40.2776H35.2973V43.0072Z" fill="white"/>
<path d="M25.2407 47.6523H30.7957V49.3763H25.2407V47.6523Z" fill="white"/>
<path d="M37.5 7.57874C31.5315 7.57874 25.697 9.34861 20.7344 12.6645C15.7717 15.9805 11.9038 20.6935 9.61976 26.2077C7.33571 31.7219 6.73809 37.7896 7.9025 43.6434C9.0669 49.4973 11.941 54.8744 16.1614 59.0948C20.3818 63.3152 25.7589 66.1893 31.6127 67.3537C37.4666 68.5181 43.5342 67.9205 49.0484 65.6364C54.5626 63.3524 59.2757 59.4844 62.5916 54.5218C65.9076 49.5591 67.6774 43.7247 67.6774 37.7561C67.6774 29.7526 64.498 22.0768 58.8387 16.4175C53.1793 10.7581 45.5036 7.57874 37.5 7.57874ZM11.0948 37.7561C11.0966 31.4111 13.3945 25.2811 17.5641 20.4984L54.7577 57.6921C50.9326 60.9952 46.2398 63.1312 41.2367 63.8464C36.2335 64.5616 31.1302 63.826 26.5328 61.7268C21.9354 59.6277 18.0369 56.2533 15.3004 52.0042C12.5639 47.7552 11.1042 42.8101 11.0948 37.7561ZM57.436 55.0138L20.2423 17.8202C25.3034 13.5915 31.7637 11.4098 38.3523 11.7043C44.9409 11.9989 51.1808 14.7484 55.8443 19.4119C60.5078 24.0754 63.2573 30.3152 63.5519 36.9038C63.8464 43.4924 61.6647 49.9528 57.436 55.0138Z" fill="white"/>
</svg>
