<svg width="75" height="75" viewBox="0 0 75 75" fill="none" xmlns="http://www.w3.org/2000/svg">
<circle cx="37.5" cy="37.5" r="37.5" fill="#21B4B0"/>
<path d="M29.6607 37.8781H28.1786V40.8423H29.6607V37.8781ZM47.4464 40.8423H48.9286V37.8781H47.4464V40.8423ZM29.6607 45.3036H28.1786V46.7857H29.6607V45.3036ZM47.4464 45.3036V46.7857H48.9286V45.3036H47.4464ZM29.6607 33.4465V31.9643H28.1786V33.4465H29.6607ZM47.4464 33.4465H48.9286V31.9643H47.4464V33.4465ZM56.3393 27.5179H57.8214V26.9043L57.3886 26.4685L56.3393 27.5179ZM47.4464 18.625L48.4958 17.5757L48.06 17.1429H47.4464V18.625ZM29.6607 40.8423H47.4464V37.8781H29.6607V40.8423ZM29.6607 46.7857H47.4464V43.8215H29.6607V46.7857ZM29.6607 34.9286H47.4464V31.9643H29.6607V34.9286ZM53.375 58.6429H23.7321V61.6072H53.375V58.6429ZM22.25 57.1607V21.5893H19.2857V57.1607H22.25ZM54.8571 27.5179V57.1607H57.8214V27.5179H54.8571ZM23.7321 20.1072H47.4464V17.1429H23.7321V20.1072ZM46.3971 19.6744L55.2899 28.5672L57.3886 26.4685L48.4958 17.5757L46.3971 19.6744ZM23.7321 58.6429C23.339 58.6429 22.9621 58.4867 22.6841 58.2088C22.4061 57.9308 22.25 57.5538 22.25 57.1607H19.2857C19.2857 58.34 19.7542 59.471 20.588 60.3048C21.4219 61.1387 22.5529 61.6072 23.7321 61.6072V58.6429ZM53.375 61.6072C54.5543 61.6072 55.6852 61.1387 56.5191 60.3048C57.353 59.471 57.8214 58.34 57.8214 57.1607H54.8571C54.8571 57.5538 54.701 57.9308 54.423 58.2088C54.1451 58.4867 53.7681 58.6429 53.375 58.6429V61.6072ZM22.25 21.5893C22.25 21.1962 22.4061 20.8192 22.6841 20.5413C22.9621 20.2633 23.339 20.1072 23.7321 20.1072V17.1429C22.5529 17.1429 21.4219 17.6113 20.588 18.4452C19.7542 19.2791 19.2857 20.41 19.2857 21.5893H22.25ZM28.1786 33.4465V45.3036H31.1428V33.4465H28.1786ZM37.0714 33.4465V45.3036H40.0357V33.4465H37.0714ZM45.9643 33.4465V45.3036H48.9286V33.4465H45.9643ZM28.1786 29H37.0714V26.0357H28.1786V29ZM40.0357 52.7143H48.9286V49.75H40.0357V52.7143Z" fill="white"/>
</svg>
