<svg width="75" height="75" viewBox="0 0 75 75" fill="none" xmlns="http://www.w3.org/2000/svg">
<circle cx="37.5" cy="37.5" r="37.5" fill="#21B4B0"/>
<path d="M54.6268 38.4579H40.0688C39.159 38.4579 38.2491 39.2768 38.2491 40.2776V43.0164C38.2491 43.6715 38.6403 44.2356 39.159 44.554V54.8356C39.159 55.8365 40.1598 56.6554 40.9787 56.6554H53.7169C54.5358 56.6554 55.5367 55.8365 55.5367 54.8356V44.554C56.0553 44.2356 56.4466 43.6715 56.4466 43.0164V40.2776C56.4466 39.2768 55.5367 38.4579 54.6268 38.4579ZM53.7169 54.8356H40.9787V44.827H53.7169V54.8356ZM54.6268 43.0073H40.0688V40.2776H54.6268V43.0073Z" fill="white"/>
<path d="M44.5704 47.6525H50.1255V49.3764H44.5704V47.6525Z" fill="white"/>
<path d="M35.6634 38.4579H21.1055C20.1956 38.4579 19.2857 39.2768 19.2857 40.2776V43.0164C19.2857 43.6715 19.677 44.2356 20.1956 44.554V54.8356C20.1956 55.8365 21.1964 56.6554 22.0153 56.6554H34.7536C35.5724 56.6554 36.5733 55.8365 36.5733 54.8356V44.554C37.0919 44.2356 37.4832 43.6715 37.4832 43.0164V40.2776C37.4832 39.2768 36.5733 38.4579 35.6634 38.4579ZM34.7536 54.8356H22.0153V44.827H34.7536V54.8356ZM35.6634 43.0073H21.1055V40.2776H35.6634V43.0073Z" fill="white"/>
<path d="M25.6067 47.6525H31.1617V49.3764H25.6067V47.6525Z" fill="white"/>
<path d="M20.4767 36.2734C23.7423 36.2734 26.0622 34.4813 26.0554 31.9695C26.0622 30.1915 24.9397 28.9215 22.7898 28.6605V28.5476C24.4022 28.3077 25.5452 27.1859 25.5384 25.5631C25.5452 23.2066 23.4906 21.4286 20.5039 21.4286C17.4968 21.4286 15.3062 23.2348 15.2789 25.803H18.4969C18.5241 24.8152 19.3814 24.152 20.5039 24.152C21.572 24.152 22.3 24.8223 22.2932 25.7889C22.3 26.7908 21.4428 27.4822 20.2046 27.4822H18.8507V29.9657H20.2046C21.6128 29.9657 22.5313 30.6854 22.5177 31.7014C22.5313 32.7244 21.6877 33.437 20.4903 33.437C19.2997 33.437 18.4221 32.7809 18.3881 31.8284H15C15.0272 34.4389 17.2927 36.2734 20.4767 36.2734Z" fill="white"/>
<path d="M32.5682 36.4286C36.2148 36.4356 38.4531 33.6417 38.4599 28.8721C38.4667 24.1308 36.2148 21.4286 32.5682 21.4286C28.9216 21.4286 26.6901 24.1238 26.6833 28.8721C26.6697 33.6275 28.9216 36.4286 32.5682 36.4286ZM32.5682 33.5711C31.1191 33.5711 30.1326 32.0612 30.1462 28.8721C30.153 25.7466 31.1259 24.2649 32.5682 24.2649C34.0173 24.2649 34.9902 25.7466 34.997 28.8721C35.0038 32.0612 34.0241 33.5711 32.5682 33.5711Z" fill="white"/>
<path d="M45.0016 36.4286C48.6482 36.4356 50.8865 33.6417 50.8933 28.8721C50.9001 24.1308 48.6482 21.4286 45.0016 21.4286C41.355 21.4286 39.1235 24.1238 39.1167 28.8721C39.1031 33.6275 41.355 36.4286 45.0016 36.4286ZM45.0016 33.5711C43.5525 33.5711 42.566 32.0612 42.5796 28.8721C42.5864 25.7466 43.5593 24.2649 45.0016 24.2649C46.4507 24.2649 47.4236 25.7466 47.4304 28.8721C47.4372 32.0612 46.4575 33.5711 45.0016 33.5711Z" fill="white"/>
<path d="M55.8498 33.9874H58.5915V30.3044H62.1429V27.461H58.5915V23.771H55.8498V27.461H52.2916V30.3044H55.8498V33.9874Z" fill="white"/>
</svg>
