<svg width="75" height="75" viewBox="0 0 75 75" fill="none" xmlns="http://www.w3.org/2000/svg">
<circle cx="37.5" cy="37.5" r="37.5" fill="#21B4B0"/>
<path d="M39.3256 46.358C39.092 46.6709 38.9249 46.9023 38.7491 47.1294C34.7163 52.2809 29.4277 54.4602 23.0398 53.1187C16.6134 51.7687 12.5506 47.6309 11.0913 41.2259C9.20771 32.9673 14.5991 24.6916 22.8513 22.8851C23.0848 22.8337 23.3227 22.7994 23.5606 22.7716C24.1306 22.7073 24.5827 22.8787 24.7027 23.4937C24.827 24.1259 24.5141 24.4966 23.912 24.6744C22.8427 24.9916 21.737 25.2294 20.7234 25.673C15.3191 28.0409 12.1713 33.5416 12.7456 39.5009C13.277 45.0016 17.5134 49.8187 22.9991 51.1623C28.7848 52.5787 34.907 49.9987 37.8749 44.8537C38.0656 44.5237 38.1063 43.9709 37.9756 43.6109C36.6234 39.8801 36.5827 36.1644 38.0013 32.453C38.207 31.913 38.1277 31.508 37.8384 31.043C36.8999 29.5323 35.7298 28.2401 34.3198 27.1601C33.6577 26.6523 33.497 26.093 33.8441 25.6151C34.2148 25.1051 34.8877 25.0451 35.522 25.6387C36.6448 26.6887 37.6927 27.818 38.762 28.9237C38.957 29.1251 39.1091 29.3694 39.272 29.5837C40.1956 28.5616 41.0013 27.5309 41.9463 26.648C50.267 18.8587 64.0456 22.628 67.2748 33.5587C69.8806 42.3809 64.3863 51.4944 55.4248 53.2087C55.0863 53.273 54.7413 53.3137 54.3963 53.3437C53.7706 53.4016 53.3163 53.1359 53.2584 52.5016C53.2006 51.8823 53.6013 51.5951 54.197 51.4216C55.7227 50.9823 57.3191 50.6566 58.7206 49.9537C63.7263 47.4509 66.6406 41.8066 65.9013 36.3637C65.1191 30.5994 60.9298 26.0073 55.3541 24.7987C46.5384 22.8894 38.3441 29.8794 38.927 38.873C39.1799 42.7837 40.892 46.0066 43.9177 48.5159C44.0613 48.6359 44.2091 48.7494 44.357 48.863C44.8777 49.2702 45.0448 49.7866 44.627 50.318C44.2027 50.8559 43.5941 50.8087 43.1441 50.3801C42.032 49.3194 40.9756 48.2009 39.9041 47.0951C39.7091 46.898 39.5548 46.6559 39.3256 46.358Z" fill="white"/>
<path d="M29.4042 14.7851C28.9264 17.2686 28.4485 19.7543 27.9664 22.2593C30.6257 22.2593 33.1435 22.2593 35.895 22.2593C35.4814 21.7236 35.205 21.3572 34.9221 20.9972C34.4871 20.4422 34.5128 19.9343 35.0571 19.4629C38.3657 16.5936 43.4828 17.1443 46.0971 20.6522C46.2407 20.8429 46.3692 21.0465 46.4957 21.2501C46.8257 21.7772 46.8257 22.2936 46.2792 22.6429C45.72 23.0029 45.2035 22.8529 44.8457 22.2851C44.0443 21.0122 42.9321 20.1379 41.4771 19.7672C39.9514 19.3793 38.4878 19.5336 37.0671 20.4851C37.6028 21.1301 38.1428 21.6851 38.5585 22.3215C38.7771 22.6579 38.9614 23.2193 38.8242 23.5301C38.6935 23.8236 38.13 24.0743 37.7464 24.0872C34.2621 24.2115 30.7735 24.2843 27.2871 24.3615C25.9564 24.3915 25.6264 23.9651 25.8835 22.6579C26.5457 19.2936 27.1778 15.9208 27.8764 12.5651C27.9664 12.1365 28.3157 11.5386 28.6585 11.4465C29.0014 11.3543 29.55 11.7315 29.8928 12.0315C30.4071 12.4815 30.7564 13.3558 31.3007 13.4736C31.8193 13.5872 32.5028 12.9679 33.1092 12.6636C40.2257 9.1022 48.6878 12.4365 51.4307 19.8808C51.495 20.0543 51.5464 20.2343 51.5935 20.4143C51.7435 21.0015 51.5121 21.4301 50.9657 21.6229C50.3892 21.8265 49.9821 21.5243 49.7485 21.0058C49.5857 20.6436 49.4957 20.2493 49.3371 19.8851C46.5042 13.3815 38.2821 11.1336 32.5264 15.2865C31.0842 16.3301 31.0435 16.3258 29.8864 15.0208C29.7985 14.9222 29.7514 14.7893 29.685 14.6715C29.5907 14.7101 29.4985 14.7465 29.4042 14.7851Z" fill="white"/>
<path d="M40.935 55.6857C40.2793 54.895 39.7393 54.34 39.3214 53.7036C39.1007 53.3671 38.91 52.8078 39.045 52.4971C39.1757 52.1993 39.7393 51.9421 40.1228 51.9293C43.6628 51.8136 47.2028 51.7514 50.7428 51.685C51.8786 51.6636 52.2278 52.0193 52.0178 53.14C51.3536 56.695 50.655 60.2436 49.9221 63.7836C49.8557 64.1028 49.4957 64.5207 49.2 64.5893C48.8978 64.66 48.4243 64.4478 48.1736 64.2057C47.6014 63.6571 47.1214 63.0143 46.5793 62.3821C45.6814 62.8428 44.8328 63.3271 43.9436 63.7214C37.1036 66.7621 28.785 63.1107 26.415 56.0436C26.1471 55.2464 26.3057 54.6893 26.8564 54.49C27.4928 54.2586 27.945 54.5586 28.2428 55.4093C30.72 62.4571 39.495 65.1121 45.4821 60.6271C46.6693 59.7378 46.8986 59.7593 47.9036 60.9014C48.0257 61.0386 48.0943 61.2228 48.1886 61.3857C48.2764 61.3471 48.3643 61.3107 48.4521 61.2721C48.9364 58.7864 49.4186 56.3028 49.9157 53.755C47.295 53.755 44.76 53.755 41.9678 53.755C42.3878 54.295 42.6643 54.6571 42.9471 55.015C43.3843 55.5678 43.3693 56.0714 42.8207 56.5493C39.4821 59.455 34.1893 58.8336 31.6843 55.24C31.2043 54.5521 31.23 53.8664 31.7807 53.5686C32.3807 53.245 32.8307 53.4721 33.21 54.0014C34.5 55.795 36.2657 56.6264 38.4578 56.3843C39.2464 56.2986 40.0028 55.9578 40.935 55.6857Z" fill="white"/>
<path d="M35.5926 36.1406C35.3055 36.6249 35.0869 37.1735 34.7162 37.5828C33.9833 38.3885 33.1369 39.0913 32.4019 39.8949C32.1769 40.1413 32.0269 40.5892 32.0633 40.9213C32.1898 42.0571 32.3998 43.1821 32.6033 44.3071C32.7512 45.1256 32.5069 45.7813 31.8469 46.2678C31.2041 46.7392 30.5098 46.7499 29.8133 46.3942C28.7719 45.8606 27.7519 45.2799 26.6933 44.7849C26.4126 44.6542 25.9691 44.6499 25.6883 44.7785C24.6512 45.2585 23.6505 45.8156 22.6391 46.3513C21.9191 46.7349 21.2119 46.7542 20.5326 46.2742C19.8469 45.7899 19.6562 45.1021 19.7891 44.3028C19.9498 43.3321 20.0741 42.3528 20.2969 41.3949C20.4748 40.6385 20.3398 40.0942 19.7183 39.5799C18.9619 38.9542 18.2976 38.2171 17.5905 37.5313C17.0098 36.9678 16.7398 36.3078 16.9948 35.5085C17.2476 34.7221 17.8091 34.2913 18.6255 34.1756C19.6776 34.0278 20.7276 33.8499 21.7841 33.7213C22.3926 33.6485 22.7869 33.4085 23.0398 32.8085C23.4426 31.8549 23.9526 30.9463 24.4005 30.0121C24.7541 29.2728 25.3219 28.8335 26.1405 28.8163C26.9569 28.8035 27.5591 29.1935 27.9255 29.9371C28.4183 30.9399 28.9455 31.9256 29.4019 32.9435C29.6162 33.4213 29.9269 33.6292 30.4155 33.6935C31.5748 33.8499 32.7362 33.9999 33.8869 34.2121C34.8855 34.4006 35.4362 35.1013 35.5926 36.1406ZM19.0091 36.1063C19.8683 36.9721 20.5648 37.7692 21.3598 38.4506C22.3026 39.2585 22.5576 40.1863 22.2769 41.3713C22.0412 42.3678 21.9169 43.3942 21.7069 44.6156C22.5362 44.1871 23.2391 43.9256 23.8219 43.4992C25.4333 42.3249 26.9719 42.3635 28.5748 43.5099C29.1576 43.9256 29.8476 44.1935 30.6748 44.6263C30.5012 43.6513 30.4326 42.9099 30.2333 42.2028C29.7469 40.4735 30.0062 39.0378 31.5555 37.9213C32.2048 37.4542 32.7255 36.8113 33.4476 36.1085C32.1041 35.9092 31.0091 35.7142 29.9055 35.5942C28.9176 35.4871 28.2298 35.0628 27.8141 34.1285C27.3448 33.0785 26.7919 32.0649 26.1833 30.8542C25.5983 32.0328 25.0669 33.0056 24.6255 34.0171C24.1819 35.0349 23.4512 35.5106 22.3583 35.6092C21.2869 35.7078 20.2262 35.9199 19.0091 36.1063Z" fill="white"/>
<path d="M51.349 44.018C51.349 42.3551 51.3683 40.8166 51.3254 39.2801C51.3211 39.0894 51.0211 38.8366 50.8025 38.7359C50.2025 38.4616 49.5318 38.3223 48.9597 38.0073C47.4318 37.1651 46.7633 35.8173 46.9175 34.088C47.0804 32.2387 48.2354 31.1416 49.8147 30.3916C49.9583 30.323 50.1104 30.2544 50.2668 30.2351C51.124 30.1323 51.484 29.6994 51.3875 28.8059C51.3254 28.2273 51.6983 27.8287 52.2961 27.8201C52.9325 27.8094 53.344 28.2251 53.2754 28.8273C53.1704 29.7487 53.6033 30.0487 54.4025 30.2587C55.5425 30.5587 56.4425 31.268 57.1047 32.2516C57.4711 32.7959 57.574 33.338 56.9761 33.7966C56.4811 34.1759 55.9754 34.0344 55.504 33.3809C54.9854 32.663 54.3425 32.1744 53.3097 32.018C53.3097 33.683 53.2968 35.2666 53.3311 36.848C53.3333 36.9916 53.6225 37.1823 53.8133 37.2551C54.2075 37.4051 54.6404 37.4587 55.0347 37.6109C56.8197 38.3009 57.7647 39.6616 57.7711 41.5151C57.7775 43.283 56.6033 44.9094 54.7754 45.6551C54.6533 45.7044 54.5268 45.7687 54.3983 45.7837C53.5475 45.8844 53.1747 46.2937 53.269 47.2044C53.3333 47.8152 52.9197 48.2116 52.279 48.1923C51.6768 48.1751 51.3083 47.783 51.379 47.2023C51.4925 46.2851 51.0533 45.983 50.2454 45.7687C49.0518 45.4537 48.109 44.7144 47.4533 43.6473C47.1125 43.0901 47.0375 42.5309 47.6333 42.0937C48.1004 41.7509 48.6747 41.9459 49.0968 42.5823C49.6111 43.3494 50.2947 43.8251 51.349 44.018ZM51.3018 32.0351C49.7311 32.3137 48.7133 33.4623 48.8397 34.6944C48.9575 35.8516 50.0397 36.7301 51.3018 36.6637C51.3018 35.1444 51.3018 33.623 51.3018 32.0351ZM53.3418 43.958C54.9275 43.7544 55.9368 42.5737 55.789 41.1937C55.6647 40.0473 54.6254 39.2351 53.3418 39.3209C53.3418 40.8444 53.3418 42.3723 53.3418 43.958Z" fill="white"/>
</svg>
