<svg width="75" height="75" viewBox="0 0 75 75" fill="none" xmlns="http://www.w3.org/2000/svg">
<circle cx="37.5" cy="37.5" r="37.5" fill="#21B4B0"/>
<path d="M56.3388 26.8898C56.3284 24.1024 54.6319 22.4322 51.9038 22.4299C46.694 22.4252 41.484 22.4384 36.2744 22.4078C35.8933 22.4056 35.4239 22.2064 35.1486 21.9371C33.5088 20.3335 31.9276 18.668 30.2998 17.0515C28.9904 15.7513 27.0579 15.7526 25.7947 17.0086C24.5044 18.2916 24.5 20.2681 25.7837 21.6526C25.9805 21.8648 26.174 22.0803 26.4945 22.4322C25.0892 22.4322 23.8662 22.4148 22.6438 22.4361C20.6139 22.4712 18.8897 24.0475 18.7228 26.0941C18.6442 27.0582 18.657 28.0302 18.6582 29.0011H18.6427V33.1967H20.2932V32.0297C20.2973 31.9631 20.2991 31.8952 20.2991 31.8266C20.2993 31.6036 20.3001 31.3807 20.3003 31.1575C20.3008 30.4764 20.2955 29.7951 20.2932 29.1138V29.0009H20.2927C20.2904 28.2422 20.292 27.4836 20.3101 26.7255C20.3498 25.055 21.3304 24.1076 22.9638 24.1016C24.472 24.096 25.9815 24.0646 27.4873 24.1238C27.8952 24.1399 28.39 24.3423 28.6789 24.6308C31.535 27.4823 34.3427 30.3841 37.196 33.2384C37.9907 34.0334 38.7862 34.7664 38.5011 36.057C38.4735 36.1825 38.5352 36.3307 38.5644 36.4663C39.1597 39.2308 41.0689 40.6807 43.5441 41.495C45.3727 42.0965 47.2691 42.1015 49.157 41.8225C49.4897 41.7733 49.9484 41.548 50.056 41.2815C50.163 41.0173 49.9907 40.5243 49.7824 40.2615C49.1897 39.5138 49.0143 38.6782 49.0693 37.7617C49.1043 37.1781 49.168 36.5961 49.208 36.0127C49.4578 32.3595 47.2228 29.9542 43.6151 29.9453C43.2813 29.9445 42.865 29.7842 42.6277 29.5504C40.9937 27.9404 39.396 26.2925 37.7906 24.6526C37.6524 24.5114 37.5431 24.3413 37.3541 24.1001C42.2271 24.1001 46.9696 24.0996 51.7119 24.1002C53.8194 24.1006 54.6996 24.9928 54.7015 27.1537C54.7059 32.3943 54.7029 37.6349 54.7029 42.8755C54.7029 43.1739 54.7029 43.4723 54.7029 43.7919C43.1947 43.7919 31.8002 43.7919 20.3003 43.7919C20.3003 43.4219 20.3014 43.0954 20.3001 42.7689C20.2991 42.5459 20.299 42.3228 20.2988 42.0997L20.3149 42.1035V38.7442H18.6527V39.7294C18.6338 39.8059 18.6465 39.9084 18.6527 40.0034V41.6925C18.6485 43.3554 18.6425 45.0182 18.6596 46.6809C18.6886 49.4972 20.3842 51.1921 23.1463 51.1965C26.2447 51.2013 29.3433 51.1976 32.4418 51.1976C32.7338 51.1976 33.0257 51.1976 33.35 51.1976C33.35 52.123 33.35 52.9506 33.35 53.839C31.0906 54.2212 29.6375 55.5641 29.4195 57.4323C29.2805 58.6238 29.5097 58.8966 30.6671 58.8971C35.0542 58.8986 39.4426 58.83 43.8276 58.9267C45.9824 58.9742 45.8312 58.1141 45.3533 56.5668C45.2038 56.0828 44.8609 55.6378 44.5319 55.2382C43.7925 54.3395 42.7632 53.9867 41.6616 53.8412C41.6616 52.952 41.6616 52.1029 41.6616 51.1978C42.012 51.1978 42.3099 51.1978 42.6077 51.1978C45.6788 51.1978 48.7498 51.201 51.8209 51.1968C54.5924 51.1931 56.3286 49.507 56.3391 46.7088C56.3636 40.1028 56.3635 33.4961 56.3388 26.8898ZM34.9222 28.5782C32.3062 25.9246 29.6889 23.2722 27.0824 20.609C26.299 19.8086 26.2678 18.8466 26.963 18.1832C27.5525 17.6207 28.443 17.5496 29.0472 18.1565C31.8274 20.9492 34.5744 23.7761 37.2965 26.5532C36.5715 27.2792 35.8754 27.9765 35.1282 28.7247C35.1318 28.7273 35.0114 28.6687 34.9222 28.5782ZM47.5628 40.2975C45.3255 40.3616 43.0959 40.0491 41.2764 38.2468C41.8442 37.2346 42.6177 36.5746 43.7336 36.4551C45.1305 36.3056 46.3996 35.8933 47.5628 34.6551C47.5628 36.6592 47.5628 38.4336 47.5628 40.2975ZM41.8946 32.2207C43.4718 31.2132 45.3561 31.4673 46.7159 32.9164C46.1675 33.9043 45.3727 34.5569 44.2271 34.6689C42.7279 34.8152 41.4153 35.3317 40.3579 36.5889C39.7809 34.9601 40.4548 33.1403 41.8946 32.2207ZM38.5077 27.9914C39.2985 28.8181 40.1239 29.681 40.9692 30.5645C40.3678 31.188 39.6836 31.8974 39.0024 32.6036C38.1681 31.72 37.3437 30.8472 36.5245 29.9798C37.1514 29.3513 37.8489 28.652 38.5077 27.9914ZM43.8182 57.1628C39.5979 57.1628 35.4601 57.1628 31.2675 57.1628C31.5923 56.1878 32.3278 55.5753 33.3342 55.5654C36.0978 55.538 38.8621 55.5324 41.6257 55.5669C42.6309 55.5795 43.3535 56.1266 43.8182 57.1628ZM35.094 53.8184C35.094 52.95 35.094 52.0879 35.094 51.2137C36.7193 51.2137 38.2762 51.2137 39.8992 51.2137C39.8992 52.0695 39.8992 52.9132 39.8992 53.8184C38.3224 53.8184 36.7272 53.8184 35.094 53.8184ZM54.6995 46.7973C54.6389 48.5407 53.6583 49.5208 51.9418 49.5233C47.0889 49.5305 42.2361 49.5259 37.3832 49.5259C32.8594 49.5259 28.3336 49.4448 23.8124 49.5554C20.9655 49.625 20.0108 48.2094 20.3603 45.5807C31.764 45.5807 43.1775 45.5807 54.7015 45.5807C54.7015 46.0248 54.7128 46.4115 54.6995 46.7973Z" fill="white"/>
<path d="M19.6025 36.988C20.1325 36.988 20.5622 36.5512 20.5622 36.0123C20.5622 35.4735 20.1325 35.0366 19.6025 35.0366C19.0724 35.0366 18.6427 35.4735 18.6427 36.0123C18.6427 36.5512 19.0724 36.988 19.6025 36.988Z" fill="white"/>
<path d="M37.5 48.6692C38.0301 48.6692 38.4598 48.2323 38.4598 47.6935C38.4598 47.1546 38.0301 46.7178 37.5 46.7178C36.97 46.7178 36.5403 47.1546 36.5403 47.6935C36.5403 48.2323 36.97 48.6692 37.5 48.6692Z" fill="white"/>
</svg>
