<svg width="75" height="75" viewBox="0 0 75 75" fill="none" xmlns="http://www.w3.org/2000/svg">
<circle cx="37.5" cy="37.5" r="37.5" fill="#21B4B0"/>
<path d="M26.5499 52.0906C24.0449 52.0906 22.0156 54.122 22.0156 56.6249C22.0156 59.1277 24.0471 61.1591 26.5499 61.1591C29.0549 61.1591 31.0842 59.1299 31.0842 56.6249C31.0842 54.1199 29.0528 52.0906 26.5499 52.0906ZM26.5499 58.7056C25.4013 58.7056 24.4692 57.7734 24.4692 56.6249C24.4692 55.4763 25.4013 54.5441 26.5499 54.5441C27.6985 54.5441 28.6285 55.4784 28.6285 56.627C28.6285 57.7756 27.6985 58.7056 26.5499 58.7056Z" fill="white"/>
<path d="M38.3957 52.0906C35.8907 52.0906 33.8614 54.1199 33.8614 56.6249C33.8614 59.1299 35.8907 61.1591 38.3957 61.1591C40.9007 61.1591 42.93 59.1299 42.93 56.6249C42.93 54.1199 40.9007 52.0906 38.3957 52.0906ZM38.3957 58.7056C37.2471 58.7056 36.315 57.7734 36.315 56.6249C36.315 55.4763 37.2471 54.5441 38.3957 54.5441C39.5442 54.5441 40.4764 55.4763 40.4764 56.6249C40.4764 57.7756 39.5442 58.7056 38.3957 58.7056Z" fill="white"/>
<path d="M50.2414 52.0906C47.7364 52.0906 45.7072 54.1199 45.7072 56.6249C45.7072 59.1299 47.7364 61.1591 50.2414 61.1591C52.7464 61.1591 54.7757 59.1299 54.7757 56.6249C54.7757 54.1199 52.7464 52.0906 50.2414 52.0906ZM50.2414 58.7056C49.0929 58.7056 48.1607 57.7734 48.1607 56.6249C48.1607 55.4763 49.0929 54.5441 50.2414 54.5441C51.39 54.5441 52.3222 55.4763 52.3222 56.6249C52.3222 57.7756 51.3922 58.7056 50.2414 58.7056Z" fill="white"/>
<path d="M57.3943 49.0435C59.145 46.7421 60.48 44.1214 61.3114 41.2692C61.3607 41.1107 61.41 40.9499 61.4464 40.7785C61.9843 38.8071 62.2671 36.7392 62.2671 34.5964C62.2671 21.4371 51.555 10.7249 38.3957 10.7249C38.3893 10.7249 38.3828 10.7249 38.3764 10.7249C38.37 10.7228 38.3635 10.7185 38.3571 10.7142C38.3507 10.7185 38.3421 10.7249 38.3357 10.7292C30.36 10.7485 23.3035 14.7149 18.9793 20.7599H18.975V20.7685C16.1828 24.6771 14.5221 29.4428 14.5221 34.5985C14.5221 36.9128 14.8521 39.1521 15.4885 41.2714C16.3093 44.1235 17.655 46.7442 19.4057 49.0457C15.6964 49.5835 12.8571 52.7785 12.8571 56.6228C12.8571 60.8571 16.2857 64.2857 20.52 64.2857H56.28C60.5035 64.2857 63.9428 60.8571 63.9428 56.6228C63.9428 52.7785 61.0907 49.5835 57.3943 49.0435ZM57.6514 46.5107V41.2714H60.0385C59.4621 43.1314 58.6543 44.8821 57.6514 46.5107ZM61.0414 34.5985C61.0414 36.3257 60.8464 38.0142 60.4671 39.63H57.6514V35.0507H50.4171V34.7078C50.4171 33.7885 50.3657 32.8842 50.2907 31.9885H60.8807C60.9793 32.8478 61.0414 33.7157 61.0414 34.5985ZM60.6278 30.3514H50.1064C49.7185 27.5357 48.9664 24.8635 47.8993 22.4014H57.4435C58.9778 24.7842 60.0793 27.4692 60.6278 30.3514ZM56.2821 20.7599H47.13C45.3707 17.3014 42.9814 14.3249 40.1421 12.0385C46.6993 12.5442 52.4721 15.8464 56.2821 20.7599ZM39.2464 13.0414C41.8243 15.0749 44.0228 17.7064 45.6943 20.7599H39.2464V13.0414ZM39.2464 22.3992H46.5171C47.6485 24.8442 48.4521 27.5185 48.8657 30.3492H39.2464V22.3992ZM31.0157 20.7599C32.7043 17.6742 34.9328 15.0235 37.545 12.9814V20.7599H31.0157ZM37.545 22.3992V30.3492H27.8378C28.2514 27.5185 29.0571 24.8442 30.1907 22.3992H37.545ZM36.5571 12.0428C33.72 14.3314 31.3307 17.3035 29.5735 20.7599H20.505C24.3 15.8699 30.0364 12.5721 36.5571 12.0428ZM19.3435 22.3992H28.8021C27.7371 24.8635 26.9828 27.5357 26.595 30.3492H16.1593C16.71 27.4692 17.8114 24.7842 19.3435 22.3992ZM19.1378 46.5107C18.1328 44.8821 17.325 43.1314 16.7507 41.2714H19.1378V46.5107ZM19.1378 39.63H16.3221C15.9428 38.0142 15.7478 36.3235 15.7478 34.5985C15.7478 33.7157 15.8121 32.8478 15.9107 31.9885H26.415C26.34 32.8842 26.2885 33.7885 26.2885 34.7078V35.0507H19.1378V39.63ZM19.2964 46.755H28.6864H30.0578H30.8421V41.2714V39.63V35.0507H27.5121V34.7078C27.5121 33.7885 27.5657 32.8842 27.645 31.9885H37.545V35.0507H32.5435V39.63V41.2714V46.755H44.2478V41.2714V39.63V35.0507H39.2485V31.9885H49.0607C49.14 32.8842 49.1936 33.7885 49.1936 34.7078V35.0507H45.9493V39.63V41.2714V46.755H46.6478H48.0193H57.495C57.0043 47.5264 56.4793 48.2614 55.9028 48.9578H20.8885C20.3121 48.2614 19.7871 47.5264 19.2964 46.755ZM56.28 63.0621H20.52C16.9693 63.0621 14.0807 60.1735 14.0807 56.6228C14.0807 53.1342 16.8728 50.2821 20.3357 50.1964C20.3978 50.1835 20.4578 50.1835 20.52 50.1835H21.9771H54.81H56.28C56.3421 50.1835 56.3893 50.1835 56.4514 50.1964C59.9271 50.2821 62.7193 53.1342 62.7193 56.6228C62.7193 60.1714 59.8307 63.0621 56.28 63.0621Z" fill="white"/>
</svg>
