<svg width="244" height="58" viewBox="0 0 244 58" fill="none" xmlns="http://www.w3.org/2000/svg">
<path d="M57.053 28.824C57.053 34.074 55.6642 38.9961 53.236 43.236C48.3041 51.8509 39.0857 57.6469 28.5265 57.6469C17.9675 57.6469 8.7489 51.8509 3.81692 43.236C1.3888 38.9961 0 34.074 0 28.824C0 12.905 12.7715 0 28.5265 0C44.2812 0 57.053 12.905 57.053 28.824Z" fill="black"/>
<path d="M46.6027 49.622L46.5583 49.5238C46.5594 49.5566 46.5608 49.5892 46.5617 49.622H46.6027Z" fill="white"/>
<path d="M36.6742 7.7326C36.514 7.7326 36.3798 8.15451 36.3409 8.72545C35.7759 8.76472 35.3583 8.90029 35.3583 9.06223C35.3583 9.22416 35.7759 9.35973 36.3409 9.399C36.3798 9.96994 36.514 10.3918 36.6742 10.3918C36.8345 10.3918 36.9687 9.96994 37.0075 9.399C37.5726 9.35973 37.9901 9.22416 37.9901 9.06223C37.9901 8.90029 37.5726 8.76472 37.0075 8.72545C36.969 8.15451 36.8345 7.7326 36.6742 7.7326Z" fill="white"/>
<path d="M40.1437 16.048C39.8816 16.048 39.6618 16.7384 39.5982 17.6728C38.6735 17.7367 37.9902 17.9589 37.9902 18.224C37.9902 18.4891 38.6735 18.7109 39.5982 18.7751C39.6615 19.7095 39.8813 20.4 40.1437 20.4C40.4061 20.4 40.6257 19.7095 40.6892 18.7751C41.6139 18.7112 42.2973 18.4891 42.2973 18.224C42.2973 17.9591 41.6139 17.737 40.6892 17.6728C40.6259 16.7384 40.4061 16.048 40.1437 16.048Z" fill="white"/>
<path d="M18.2386 15.1141C18.0783 15.1141 17.9441 15.536 17.9053 16.1069C17.3402 16.1462 16.9227 16.2818 16.9227 16.4437C16.9227 16.6056 17.3402 16.7412 17.9053 16.7805C17.9441 17.3514 18.0783 17.7733 18.2386 17.7733C18.3988 17.7733 18.533 17.3514 18.5719 16.7805C19.1369 16.7412 19.5545 16.6056 19.5545 16.4437C19.5545 16.2818 19.1369 16.1462 18.5719 16.1069C18.533 15.536 18.3988 15.1141 18.2386 15.1141Z" fill="white"/>
<path d="M12.1217 24.0674C11.8596 24.0674 11.6397 24.7578 11.5762 25.6922C10.6515 25.7561 9.96814 25.9783 9.96814 26.2434C9.96814 26.5082 10.6515 26.7304 11.5762 26.7946C11.6395 27.7289 11.8593 28.4194 12.1217 28.4194C12.3838 28.4194 12.6036 27.7289 12.6672 26.7946C13.5919 26.7306 14.2752 26.5085 14.2752 26.2434C14.2752 25.9786 13.5919 25.7564 12.6672 25.6922C12.6036 24.7578 12.3841 24.0674 12.1217 24.0674Z" fill="white"/>
<path d="M9.58109 50.3741L6.78619 47.4861C7.65107 48.5137 8.58516 49.4776 9.58109 50.3741Z" fill="#05979D"/>
<path d="M28.5274 28.8239C17.9685 28.8239 8.74872 34.621 3.81787 43.2359C4.68133 44.7429 5.67499 46.1651 6.78495 47.4832C7.49863 46.1364 8.90473 45.2213 10.5227 45.2213C12.204 45.2213 13.6521 46.2101 14.3396 47.6423C14.73 47.4896 15.1523 47.4033 15.596 47.4033C16.2044 47.4033 16.7754 47.5609 17.2735 47.8378C17.7121 47.4122 18.3055 47.1493 18.961 47.1493C19.4801 47.1493 19.9595 47.3147 20.3546 47.5936C20.4772 45.7584 21.9851 44.3075 23.832 44.3075C24.4737 44.3075 25.0722 44.4852 25.5887 44.7896C25.7212 43.9421 26.4459 43.2923 27.323 43.2923C27.4691 43.2923 27.6092 43.3161 27.7454 43.3499L28.5283 39.1315L29.3112 43.3499C29.4473 43.3161 29.5875 43.2923 29.7335 43.2923C30.6106 43.2923 31.3354 43.9421 31.4678 44.7896C31.9844 44.4855 32.5829 44.3075 33.2234 44.3075C35.0717 44.3075 36.5794 45.7584 36.7022 47.5936C37.0973 47.3144 37.5767 47.1493 38.0958 47.1493C38.7511 47.1493 39.3445 47.4122 39.7819 47.8378C40.2811 47.5612 40.8524 47.4033 41.4606 47.4033C41.9042 47.4033 42.3266 47.4896 42.7169 47.6423C43.4045 46.2104 44.8529 45.2213 46.5338 45.2213C48.1507 45.2213 49.5554 46.135 50.2702 47.4807C51.3801 46.1625 52.3738 44.7429 53.2361 43.2359C48.3061 34.621 39.0864 28.8239 28.5274 28.8239Z" fill="url(#paint0_linear_726_2)"/>
<path d="M35.2595 40.311C34.3597 30.4427 31.8417 22.3314 28.5243 18.2245C25.201 22.34 22.6792 30.4731 21.7843 40.3677C21.7292 40.9682 21.6816 41.5747 21.6399 42.1872C21.8498 42.6756 22.2532 43.0579 22.7521 43.2373C23.5123 42.1522 24.3213 41.284 25.1663 40.6618C25.682 40.282 26.2116 39.9948 26.7526 39.8051C26.9077 40.7177 27.6929 41.413 28.6403 41.413C29.4936 41.413 30.2158 40.8495 30.4645 40.0714C30.9241 40.3007 31.3745 40.6007 31.8145 40.9693C32.5435 41.5795 33.2441 42.3752 33.9087 43.3362C34.5759 43.2577 35.1367 42.8321 35.4135 42.2436C35.3682 41.5927 35.3168 40.9476 35.2595 40.311Z" fill="white"/>
<path d="M28.5254 18.2254V41.4097C27.6299 41.3552 26.8995 40.6788 26.7526 39.8049C26.2105 39.9952 25.6812 40.2818 25.1661 40.6625C24.3208 41.2844 23.5115 42.1512 22.7524 43.2371C22.2534 43.0577 21.8498 42.6751 21.6399 42.1873C21.6813 41.5745 21.7295 40.9668 21.7834 40.3667C22.6789 30.4718 25.2001 22.3393 28.5237 18.2231L28.5254 18.2254Z" fill="#E6E7E8"/>
<path d="M28.5272 31.3916C29.7132 31.3916 30.6745 30.4202 30.6745 29.2219C30.6745 28.0236 29.7132 27.0522 28.5272 27.0522C27.3413 27.0522 26.3799 28.0236 26.3799 29.2219C26.3799 30.4202 27.3413 31.3916 28.5272 31.3916Z" fill="black"/>
<path d="M69.9291 12.675V13.5263V31.4431L64.8354 36.6283V13.5263V12.675H69.9291Z" fill="#231F20"/>
<path d="M85.2484 38.4474V43.6329H64.8354L69.9291 38.4474H85.2484Z" fill="#B1B3B6"/>
<path d="M96.255 38.4472L93.6507 43.6327H87.9826L103.302 12.675L113.527 33.3391H107.782L103.302 24.2452L98.7824 33.3391L96.255 38.4472Z" fill="#231F20"/>
<path d="M118.621 43.6327H112.915L110.387 38.4859H116.055L118.621 43.6327Z" fill="#B1B3B6"/>
<path d="M147.095 30.7463C147.095 34.3064 145.87 37.3637 143.342 39.8788C140.853 42.3942 137.789 43.6327 134.304 43.6327C130.819 43.6327 127.793 42.3945 125.304 39.8788C122.815 37.3637 121.589 34.268 121.589 30.7463V12.675H126.683V30.7466C126.683 32.875 127.41 34.6939 128.866 36.1643C130.359 37.7123 132.198 38.4474 134.304 38.4474C136.41 38.4474 138.21 37.6736 139.704 36.1643C141.197 34.6552 142.002 32.8366 142.002 30.7466H147.095V30.7463Z" fill="#231F20"/>
<path d="M179.379 12.675V43.5553V43.594V43.6327L153.911 20.4917V12.675L174.286 31.2109V12.675H179.379Z" fill="#231F20"/>
<path d="M147.32 12.675H142.227V25.5806H147.32V12.675Z" fill="#B1B3B6"/>
<path d="M243.88 12.6752H238.787V20.4147H243.88V12.6752Z" fill="#B1B3B6"/>
<path d="M223.466 35.8928H218.373V43.6324H223.466V35.8928Z" fill="#231F20"/>
<path d="M223.465 43.6338H218.373V43.6711H223.465V43.6338Z" fill="#231F20"/>
<path d="M223.467 23.0632H223.465V12.7108H218.374V23.0632H218.373V30.8027H223.467V30.7824H238.785V30.8036H238.786V38.5425V43.6698H243.879V38.5425V30.8036V30.8027V25.5977H223.467V23.0632Z" fill="#231F20"/>
<path d="M153.911 43.5555V25.5808L159.005 30.2085V43.5555H153.911Z" fill="#B1B3B6"/>
<path d="M189.346 28.0777C189.346 25.2098 190.492 22.6176 192.352 20.7331C194.215 18.846 196.793 17.6769 199.642 17.6769C203.089 17.6769 206.14 19.3891 208.008 22.0186C208.013 22.024 208.018 22.0292 208.021 22.0346L211.617 18.4006C208.81 14.8514 204.49 12.58 199.642 12.58C195.401 12.58 191.563 14.3189 188.787 17.1309C186.015 19.9351 184.304 23.8051 184.304 28.0777C184.304 32.9336 186.513 37.2646 189.971 40.1033L193.578 36.4853C191.012 34.5928 189.346 31.5314 189.346 28.0777Z" fill="#231F20"/>
<path d="M199.644 38.4813C198.959 38.4813 198.293 38.415 197.648 38.2852L193.611 42.33C195.463 43.1305 197.501 43.5759 199.644 43.5759C203.873 43.5759 207.702 41.845 210.478 39.0462L206.913 35.444C205.048 37.323 202.482 38.4813 199.644 38.4813Z" fill="#B1B3B6"/>
<path d="M211.618 18.4008L208.021 22.0348C208.019 22.0293 208.013 22.0242 208.008 22.0187L211.618 18.4008Z" fill="#21B6B2"/>
<defs>
<linearGradient id="paint0_linear_726_2" x1="28.5274" y1="28.8239" x2="28.5274" y2="47.8375" gradientUnits="userSpaceOnUse">
<stop stop-color="white"/>
<stop offset="0.291" stop-color="#D8D9DA"/>
<stop offset="0.5852" stop-color="#B8B9BC"/>
<stop offset="0.8322" stop-color="#A4A6A9"/>
<stop offset="1" stop-color="#9D9FA2"/>
</linearGradient>
</defs>
</svg>
