<svg width="77" height="89" viewBox="0 0 77 89" fill="none" xmlns="http://www.w3.org/2000/svg">
  <path
    d="M25.5499 9.75294e-07C22.19 9.75294e-07 18.9678 1.33472 16.5919 3.71053C14.2161 6.08634 12.8814 9.30863 12.8814 12.6685V26.9586C14.8957 26.2492 17.0177 25.7551 19.2157 25.5081V12.6685C19.2157 10.9886 19.883 9.37743 21.0709 8.18953C22.2589 7.00162 23.87 6.33427 25.5499 6.33427H44.5527V22.1699C44.5527 24.6899 45.5538 27.1066 47.3356 28.8884C49.1175 30.6703 51.5342 31.6713 54.0541 31.6713H69.8898V76.0112C69.8898 77.6911 69.2224 79.3023 68.0345 80.4902C66.8466 81.6781 65.2355 82.3454 63.5555 82.3454H63.0171C63.7392 84.3914 63.7392 86.6337 63.0171 88.6797H63.5555C66.9154 88.6797 70.1377 87.345 72.5135 84.9692C74.8894 82.5934 76.2241 79.3711 76.2241 76.0112V27.9594C76.2218 25.4404 75.2194 23.0253 73.437 21.2451L54.9853 2.78074C54.1026 1.89859 53.0547 1.19897 51.9016 0.721846C50.7484 0.24472 49.5126 -0.00056444 48.2646 9.75294e-07H25.5499ZM68.5786 25.3371H54.0541C53.2142 25.3371 52.4086 25.0034 51.8146 24.4094C51.2207 23.8155 50.887 23.0099 50.887 22.1699V7.64546L68.5786 25.3371ZM35.6594 71.5962C31.1706 74.9528 25.577 76.4846 20.0043 75.8832C14.4316 75.2819 9.29351 72.592 5.6241 68.3551C1.95469 64.1181 0.02634 58.6485 0.227134 53.0471C0.427928 47.4456 2.74296 42.1281 6.70633 38.1648C10.6697 34.2014 15.9872 31.8864 21.5886 31.6856C27.1901 31.4848 32.6597 33.4131 36.8966 37.0825C41.1336 40.7519 43.8234 45.89 44.4248 51.4627C45.0261 57.0354 43.4944 62.629 40.1378 67.1179L56.2901 83.2702C56.8848 83.8641 57.2193 84.6699 57.2199 85.5103C57.2205 86.3508 56.8872 87.157 56.2933 87.7517C55.6994 88.3464 54.8937 88.6809 54.0532 88.6815C53.2128 88.6821 52.4065 88.3488 51.8118 87.7549L35.6594 71.6025V71.5962ZM38.2185 53.8413C38.2185 49.6414 36.5501 45.6135 33.5803 42.6437C30.6106 39.674 26.5827 38.0056 22.3828 38.0056C18.1829 38.0056 14.1551 39.674 11.1853 42.6437C8.21555 45.6135 6.54715 49.6414 6.54715 53.8413C6.54715 58.0411 8.21555 62.069 11.1853 65.0388C14.1551 68.0085 18.1829 69.6769 22.3828 69.6769C26.5827 69.6769 30.6106 68.0085 33.5803 65.0388C36.5501 62.069 38.2185 58.0411 38.2185 53.8413Z"
    fill="black"
  />
</svg>
