<svg width="13" height="12" viewBox="0 0 13 12" fill="none" xmlns="http://www.w3.org/2000/svg">
  <path
    d="M7.21958 9.11871L4.56874 11.7696C4.43318 11.9049 4.24943 11.981 4.05785 11.981C3.86627 11.981 3.68251 11.9049 3.54696 11.7696L0.896117 9.11871C0.825087 9.05252 0.768116 8.97271 0.728602 8.88403C0.689088 8.79534 0.667841 8.69961 0.666128 8.60254C0.664415 8.50547 0.682272 8.40905 0.718633 8.31903C0.754994 8.229 0.809114 8.14723 0.877765 8.07858C0.946416 8.00993 1.02819 7.95581 1.11821 7.91945C1.20823 7.88309 1.30465 7.86523 1.40173 7.86694C1.4988 7.86865 1.59453 7.8899 1.68321 7.92942C1.7719 7.96893 1.85171 8.0259 1.9179 8.09693L3.33489 9.51393V1.13726C3.33489 0.945524 3.41106 0.761637 3.54664 0.626056C3.68222 0.490475 3.86611 0.414307 4.05785 0.414307C4.24959 0.414307 4.43348 0.490475 4.56906 0.626056C4.70464 0.761637 4.78081 0.945524 4.78081 1.13726V9.51393L6.1978 8.09693C6.33485 7.96923 6.51612 7.8997 6.70341 7.90301C6.89071 7.90631 7.06941 7.98219 7.20187 8.11465C7.33433 8.2471 7.4102 8.42581 7.4135 8.6131C7.41681 8.8004 7.34729 8.98166 7.21958 9.11871ZM6.70869 0.414307C6.51695 0.414307 6.33307 0.490475 6.19748 0.626056C6.0619 0.761637 5.98574 0.945524 5.98574 1.13726C5.98574 1.329 6.0619 1.51289 6.19748 1.64847C6.33307 1.78405 6.51695 1.86022 6.70869 1.86022H11.5284C11.7201 1.86022 11.904 1.78405 12.0396 1.64847C12.1752 1.51289 12.2514 1.329 12.2514 1.13726C12.2514 0.945524 12.1752 0.761637 12.0396 0.626056C11.904 0.490475 11.7201 0.414307 11.5284 0.414307H6.70869ZM6.70869 2.82416C6.51695 2.82416 6.33307 2.90033 6.19748 3.03591C6.0619 3.17149 5.98574 3.35538 5.98574 3.54712C5.98574 3.73886 6.0619 3.92275 6.19748 4.05833C6.33307 4.19391 6.51695 4.27008 6.70869 4.27008H9.60052C9.79226 4.27008 9.97615 4.19391 10.1117 4.05833C10.2473 3.92275 10.3235 3.73886 10.3235 3.54712C10.3235 3.35538 10.2473 3.17149 10.1117 3.03591C9.97615 2.90033 9.79226 2.82416 9.60052 2.82416H6.70869ZM6.70869 5.23402C6.51695 5.23402 6.33307 5.31019 6.19748 5.44577C6.0619 5.58135 5.98574 5.76524 5.98574 5.95698C5.98574 6.14872 6.0619 6.3326 6.19748 6.46819C6.33307 6.60377 6.51695 6.67994 6.70869 6.67994H7.67264C7.86438 6.67994 8.04826 6.60377 8.18384 6.46819C8.31942 6.3326 8.39559 6.14872 8.39559 5.95698C8.39559 5.76524 8.31942 5.58135 8.18384 5.44577C8.04826 5.31019 7.86438 5.23402 7.67264 5.23402H6.70869Z"
    fill="#fff"
  />
</svg>
