<svg width="105" height="105" viewBox="0 0 105 105" fill="none" xmlns="http://www.w3.org/2000/svg">
  <path
    d="M52.4999 0.986938C42.3032 0.986938 32.3355 4.01062 23.8572 9.67562C15.3789 15.3406 8.77091 23.3925 4.86879 32.813C0.966674 42.2336 -0.0542978 52.5997 1.93498 62.6005C3.92427 72.6013 8.83446 81.7876 16.0446 88.9978C23.2548 96.208 32.4411 101.118 42.4419 103.107C52.4427 105.097 62.8088 104.076 72.2294 100.174C81.6499 96.2715 89.7018 89.6635 95.3668 81.1852C101.032 72.707 104.055 62.7392 104.055 52.5425C104.055 38.8691 98.6237 25.7558 88.9552 16.0872C79.2867 6.41867 66.1733 0.986938 52.4999 0.986938ZM86.1721 35.2392L43.8321 77.5469L18.8277 52.5425C17.9731 51.6879 17.493 50.5288 17.493 49.3203C17.493 48.1117 17.9731 46.9526 18.8277 46.0981C19.6823 45.2435 20.8413 44.7634 22.0499 44.7634C23.2585 44.7634 24.4176 45.2435 25.2721 46.0981L43.8966 64.7225L79.7921 28.8592C80.2153 28.436 80.7176 28.1004 81.2705 27.8713C81.8234 27.6423 82.4159 27.5245 83.0144 27.5245C83.6128 27.5245 84.2053 27.6423 84.7582 27.8713C85.3111 28.1004 85.8134 28.436 86.2366 28.8592C86.6597 29.2823 86.9954 29.7847 87.2244 30.3375C87.4534 30.8904 87.5713 31.483 87.5713 32.0814C87.5713 32.6798 87.4534 33.2724 87.2244 33.8252C86.9954 34.3781 86.6597 34.8805 86.2366 35.3036L86.1721 35.2392Z"
    fill="black"
  />
</svg>
