<?xml version="1.0" encoding="utf-8"?>
<!-- Generator: Adobe Illustrator 17.0.0, SVG Export Plug-In . SVG Version: 6.00 Build 0)  -->
<!DOCTYPE svg PUBLIC "-//W3C//DTD SVG 1.1//EN" "http://www.w3.org/Graphics/SVG/1.1/DTD/svg11.dtd">
<svg version="1.1" id="Layer_1" xmlns="http://www.w3.org/2000/svg" xmlns:xlink="http://www.w3.org/1999/xlink" x="0px" y="0px"
	 width="288px" height="143px" viewBox="0 0 288 143" enable-background="new 0 0 288 143" xml:space="preserve">
<rect fill="none" width="288" height="143"/>
<g>
	<rect fill="#FFFFFF" width="288" height="143"/>
</g>
<g>
	<rect fill="none" width="288" height="143"/>
</g>
<g>
	<rect fill="#EDEDED" width="288" height="143"/>
</g>
<g>
	<path fill="#FAFAFA" d="M57.38,120.645c0.292-2.1-2.701-3.829-4.949-4.006c-1.072-0.089-2.186,0.077-3.203-0.274
		c-2.202-0.772-3.079-3.578-5.226-4.473c-1.606-0.672-3.457-0.073-5.012,0.702c-1.555,0.776-3.094,1.752-4.836,1.86
		c-1.512,0.096-3.153-0.459-4.478,0.274c-0.986,0.544-1.504,1.671-2.412,2.316c-0.908,0.645-2.05,0.772-3.153,0.845
		s-2.245,0.07-3.25,0.525s-1.836,1.509-1.629,2.586L57.38,120.645z"/>
</g>
<g>
	<path fill="#FAFAFA" d="M241.98,66.445c0.292-2.1-2.7-3.829-4.95-4.006c-1.07-0.089-2.186,0.077-3.202-0.274
		c-2.202-0.772-3.08-3.578-5.226-4.473c-1.606-0.672-3.458-0.073-5.012,0.702c-1.556,0.776-3.094,1.752-4.836,1.86
		c-1.512,0.096-3.154-0.459-4.478,0.274c-0.986,0.544-1.504,1.671-2.412,2.316c-0.908,0.645-2.05,0.772-3.154,0.845
		c-1.102,0.073-2.244,0.07-3.25,0.525c-1.004,0.455-1.834,1.509-1.628,2.586L241.98,66.445z"/>
</g>
<g>
	<path fill="#E0E0E0" d="M82.923,109.07c-1.406-0.769-2.053-0.124-2.566-0.769c-0.513-0.645,1.401-2.312-2.428-3.978
		c0,0-0.257-3.612-5.492-3.72s-3.829,3.612-5.23,4.489s-1.791-0.516-3.192,0.387c-1.401,0.903-0.765,2.694-1.914,2.952
		c-1.15,0.258-2.684-1.156-4.106-0.258s-1.406,1.672-2.053,1.672s-1.914-0.516-2.684,0C52.488,110.36,51.6,111,51.6,111h32.35
		C83.95,111,84.345,109.844,82.923,109.07z"/>
</g>
<g>
	<path fill="#E0E0E0" d="M25.13,91.225c-0.886-0.471-1.288-0.076-1.607-0.471c-0.319-0.395,0.886-1.429-1.545-2.457
		c0,0-0.165-2.219-3.467-2.295c-3.302-0.076-2.416,2.214-3.302,2.771s-1.123-0.319-2.009,0.238s-0.484,1.662-1.211,1.819
		c-0.726,0.157-1.69-0.709-2.576-0.157s-0.886,1.013-1.288,1.013s-1.211-0.314-1.695,0S5.4,92.4,5.4,92.4h20.374
		c0.056-0.239,0.021-0.49-0.097-0.707C25.558,91.477,25.364,91.311,25.13,91.225z"/>
</g>
<g opacity="0.5">
	<path fill="#C4C4C4" d="M174.795,138.715c-3.16-1.717-4.594-0.287-5.745-1.717c-1.151-1.43,3.16-5.156-5.457-8.883
		c0,0-0.575-8.026-12.332-8.308c-11.757-0.282-8.617,8.021-11.777,10.026c-3.16,2.004-4.023-1.143-7.194,0.861
		c-3.17,2.004-1.721,6.017-4.306,6.591s-6.032-2.563-9.192-0.574c-3.16,1.989-3.16,3.726-4.625,3.726c-1.464,0-4.306-1.148-6.032,0
		C106.409,141.585,104.4,143,104.4,143h72.697C177.097,143,177.94,140.437,174.795,138.715z"/>
</g>
<g>
	<path fill="#B0DDDB" d="M256.1,45.8c9.664,0,17.5-7.835,17.5-17.5s-7.836-17.5-17.5-17.5s-17.5,7.835-17.5,17.5
		S246.436,45.8,256.1,45.8z"/>
</g>
<g>
	<path fill="#9BC6C4" d="M258.59,44.043c-3.598-0.01-7.102-1.134-10.038-3.218c-2.934-2.084-5.156-5.026-6.36-8.424
		c-1.202-3.398-1.33-7.085-0.362-10.558c0.966-3.473,2.98-6.561,5.766-8.843c-2.126,1.18-3.982,2.792-5.45,4.732
		s-2.516,4.167-3.076,6.537s-0.62,4.831-0.178,7.225c0.444,2.395,1.38,4.67,2.75,6.681c1.372,2.011,3.146,3.713,5.21,4.996
		c2.064,1.284,4.372,2.122,6.778,2.459s4.856,0.169,7.192-0.497s4.51-1.813,6.378-3.369
		C264.576,43.262,261.608,44.047,258.59,44.043z"/>
</g>
<g>
	<path fill="#F5F5F5" d="M268.722,24.278c0.338-2.077-1.072-4.035-3.148-4.374c-2.078-0.338-4.036,1.071-4.374,3.149
		c-0.338,2.077,1.072,4.035,3.148,4.374C266.426,27.765,268.384,26.355,268.722,24.278z"/>
</g>
<g>
	<path fill="#F5F5F5" d="M270.2,33.6c0,0.514-0.146,1.017-0.422,1.444c-0.274,0.428-0.664,0.761-1.122,0.958
		c-0.456,0.197-0.958,0.248-1.444,0.148c-0.484-0.1-0.93-0.348-1.28-0.712c-0.35-0.364-0.588-0.827-0.684-1.331
		s-0.046-1.027,0.142-1.502c0.19-0.475,0.51-0.881,0.922-1.167c0.41-0.286,0.894-0.438,1.388-0.438c0.664,0,1.298,0.274,1.768,0.762
		C269.936,32.249,270.2,32.91,270.2,33.6z"/>
</g>
<g>
	<path fill="#FFFFFF" d="M272,31c0.356-0.78,0.586-1.58,0.686-2.389c-0.006-0.811-0.144-1.619-0.414-2.411
		c0.206,0.206,0.346,0.436,0.414,0.676c0.478,1.143,0.41,2.349-0.194,3.467C272.392,30.579,272.226,30.802,272,31z"/>
</g>
<g>
	<path fill="#B1B3B6" d="M212.258,45.864l0.058,0.097c0.064,0.108,0.158,0.195,0.272,0.251l0.1,0.049l-0.096,0.057
		c-0.108,0.065-0.196,0.16-0.25,0.274l-0.052,0.1l-0.056-0.097c-0.066-0.108-0.16-0.195-0.274-0.251l-0.1-0.049l0.096-0.057
		c0.108-0.065,0.196-0.159,0.25-0.272L212.258,45.864z"/>
</g>
<g>
	<path fill="#B1B3B6" d="M268.978,44.481l0.058,0.097c0.066,0.108,0.16,0.195,0.274,0.251l0.1,0.049l-0.098,0.059
		c-0.104,0.065-0.188,0.159-0.242,0.271l-0.052,0.1l-0.056-0.097c-0.066-0.108-0.16-0.195-0.272-0.251l-0.1-0.049l0.094-0.057
		c0.108-0.065,0.196-0.159,0.252-0.272L268.978,44.481z"/>
</g>
<g>
	<path fill="#B1B3B6" d="M231.48,52.007l0.074,0.123c0.08,0.141,0.202,0.255,0.348,0.328l0.128,0.064l-0.122,0.074
		c-0.14,0.083-0.254,0.204-0.328,0.349l-0.064,0.128l-0.074-0.123c-0.082-0.141-0.204-0.255-0.35-0.328l-0.128-0.062l0.124-0.075
		c0.14-0.082,0.254-0.203,0.328-0.348L231.48,52.007z"/>
</g>
<g>
	<path fill="#B1B3B6" d="M223.586,34.905l0.074,0.123c0.082,0.141,0.202,0.255,0.348,0.328l0.128,0.064l-0.122,0.074
		c-0.142,0.082-0.256,0.203-0.328,0.348l-0.064,0.13l-0.074-0.123c-0.082-0.141-0.204-0.254-0.348-0.328l-0.13-0.064l0.124-0.074
		c0.14-0.083,0.254-0.204,0.328-0.349L223.586,34.905z"/>
</g>
<g>
	<path fill="#B1B3B6" d="M246.564,46.285l0.058,0.564c0.01,0.136,0.068,0.263,0.164,0.359c0.098,0.085,0.222,0.134,0.35,0.138
		l0.446,0.023l-0.456,0.082c-0.12,0.02-0.23,0.077-0.316,0.164c-0.01,0.009-0.018,0.018-0.026,0.028
		c-0.08,0.092-0.126,0.207-0.136,0.328l-0.05,0.562l-0.056-0.531c-0.01-0.135-0.068-0.261-0.164-0.356l-0.018-0.016
		c-0.09-0.077-0.202-0.124-0.32-0.134l-0.472-0.049l0.44-0.054c0.132-0.012,0.254-0.07,0.346-0.164l0.016-0.018
		c0.08-0.092,0.128-0.207,0.136-0.328L246.564,46.285z"/>
</g>
<g>
	<path fill="#B1B3B6" d="M203.594,35.609l0.056,0.564c0.01,0.135,0.068,0.263,0.164,0.359c0.098,0.085,0.222,0.134,0.352,0.138
		l0.446,0.021l-0.458,0.082c-0.12,0.02-0.23,0.078-0.316,0.164l-0.026,0.029c-0.078,0.092-0.126,0.207-0.136,0.328l-0.042,0.569
		l-0.054-0.528c-0.01-0.134-0.068-0.261-0.164-0.356c-0.006-0.005-0.012-0.01-0.018-0.016c-0.092-0.077-0.206-0.124-0.328-0.134
		l-0.47-0.049l0.442-0.054c0.13-0.012,0.252-0.07,0.346-0.164l0.016-0.016c0.078-0.093,0.126-0.207,0.136-0.328L203.594,35.609z"/>
</g>
<g>
	<path fill="#B1B3B6" d="M232.42,63.151l0.074,0.123c0.082,0.141,0.204,0.255,0.348,0.328l0.128,0.062l-0.122,0.075
		c-0.14,0.082-0.254,0.203-0.328,0.348l-0.064,0.129l-0.074-0.123c-0.08-0.141-0.202-0.256-0.348-0.328l-0.13-0.064l0.124-0.074
		c0.14-0.083,0.254-0.204,0.328-0.349L232.42,63.151z"/>
</g>
<g>
	<path fill="#B1B3B6" d="M258.264,54.92l0.074,0.123c0.082,0.141,0.202,0.255,0.348,0.328l0.128,0.062l-0.122,0.075
		c-0.14,0.082-0.254,0.203-0.328,0.348l-0.064,0.13l-0.074-0.123c-0.082-0.141-0.204-0.255-0.35-0.328l-0.128-0.064l0.124-0.074
		c0.14-0.083,0.254-0.204,0.328-0.349L258.264,54.92z"/>
</g>
<g>
	<path fill="#A6A6A6" d="M116.458,16.664l0.057,0.097c0.065,0.108,0.159,0.195,0.272,0.251l0.1,0.049l-0.095,0.057
		c-0.108,0.065-0.195,0.16-0.251,0.274l-0.051,0.1l-0.057-0.097c-0.065-0.108-0.159-0.195-0.272-0.251l-0.1-0.049l0.095-0.057
		c0.108-0.065,0.195-0.159,0.251-0.272L116.458,16.664z"/>
</g>
<g>
	<path fill="#A6A6A6" d="M173.178,15.281l0.059,0.097c0.065,0.108,0.159,0.195,0.272,0.251l0.1,0.049l-0.097,0.059
		c-0.105,0.066-0.189,0.159-0.243,0.271l-0.051,0.1l-0.057-0.097c-0.065-0.108-0.159-0.195-0.272-0.251l-0.1-0.049l0.095-0.057
		c0.108-0.065,0.195-0.159,0.251-0.272L173.178,15.281z"/>
</g>
<g>
	<path fill="#A6A6A6" d="M135.68,22.807l0.074,0.123c0.081,0.141,0.202,0.255,0.348,0.328l0.13,0.064l-0.123,0.074
		c-0.14,0.083-0.254,0.204-0.328,0.349l-0.064,0.128l-0.074-0.123c-0.082-0.141-0.204-0.255-0.349-0.328l-0.128-0.062l0.123-0.075
		c0.141-0.082,0.255-0.203,0.328-0.348L135.68,22.807z"/>
</g>
<g>
	<path fill="#A6A6A6" d="M127.785,5.705l0.074,0.123c0.083,0.141,0.204,0.255,0.349,0.328l0.128,0.064l-0.123,0.074
		c-0.14,0.082-0.254,0.203-0.328,0.348l-0.064,0.13l-0.074-0.123c-0.082-0.141-0.203-0.255-0.348-0.328l-0.129-0.064l0.123-0.074
		c0.14-0.083,0.254-0.204,0.328-0.349L127.785,5.705z"/>
</g>
<g>
	<path fill="#A6A6A6" d="M159.041,4.2l0.074,0.123c0.083,0.14,0.204,0.254,0.349,0.328l0.13,0.064l-0.123,0.074
		c-0.141,0.082-0.255,0.203-0.328,0.349l-0.064,0.128l-0.074-0.123c-0.083-0.14-0.204-0.254-0.349-0.328l-0.128-0.062l0.123-0.075
		c0.141-0.081,0.255-0.202,0.328-0.348L159.041,4.2z"/>
</g>
<g>
	<path fill="#A6A6A6" d="M150.764,17.085l0.057,0.564c0.01,0.136,0.068,0.263,0.164,0.359c0.098,0.085,0.222,0.134,0.351,0.138
		l0.446,0.023l-0.458,0.082c-0.12,0.02-0.23,0.077-0.315,0.164c-0.009,0.009-0.018,0.018-0.026,0.028
		c-0.079,0.092-0.127,0.207-0.136,0.328l-0.051,0.563l-0.056-0.531c-0.01-0.134-0.068-0.261-0.164-0.356l-0.018-0.016
		c-0.09-0.077-0.202-0.124-0.32-0.134l-0.472-0.049l0.441-0.054c0.131-0.012,0.254-0.07,0.346-0.164l0.016-0.018
		c0.079-0.092,0.127-0.207,0.136-0.328L150.764,17.085z"/>
</g>
<g>
	<path fill="#A6A6A6" d="M107.794,6.409l0.056,0.564c0.01,0.136,0.068,0.263,0.164,0.359c0.098,0.085,0.223,0.134,0.353,0.138
		l0.446,0.021l-0.459,0.082c-0.119,0.02-0.23,0.078-0.315,0.164l-0.026,0.03c-0.079,0.092-0.127,0.207-0.136,0.328l-0.041,0.569
		l-0.054-0.528c-0.01-0.135-0.068-0.261-0.164-0.356c-0.007-0.005-0.013-0.01-0.018-0.016c-0.093-0.077-0.207-0.124-0.328-0.134
		l-0.471-0.049l0.441-0.054c0.131-0.012,0.254-0.07,0.346-0.164l0.016-0.016c0.078-0.093,0.126-0.207,0.136-0.328L107.794,6.409z"/>
</g>
<g>
	<path fill="#A6A6A6" d="M136.62,33.951l0.074,0.123c0.083,0.141,0.204,0.255,0.349,0.328l0.128,0.062l-0.123,0.075
		c-0.141,0.082-0.254,0.203-0.328,0.348l-0.064,0.129l-0.074-0.123c-0.081-0.141-0.202-0.256-0.348-0.328l-0.13-0.064l0.123-0.074
		c0.14-0.083,0.254-0.204,0.328-0.349L136.62,33.951z"/>
</g>
<g>
	<path fill="#A6A6A6" d="M162.464,25.72l0.074,0.123c0.082,0.141,0.203,0.255,0.348,0.328l0.13,0.062l-0.123,0.075
		c-0.141,0.082-0.254,0.203-0.328,0.348l-0.064,0.13l-0.074-0.123c-0.082-0.141-0.204-0.254-0.349-0.328l-0.128-0.064l0.123-0.074
		c0.14-0.083,0.254-0.204,0.328-0.349L162.464,25.72z"/>
</g>
<g>
	<path fill="#9D9FA2" d="M41.978,40.281l0.059,0.097c0.065,0.108,0.159,0.195,0.272,0.251l0.1,0.049l-0.097,0.059
		c-0.105,0.065-0.189,0.159-0.243,0.271l-0.051,0.1l-0.057-0.097c-0.065-0.108-0.159-0.195-0.272-0.251l-0.1-0.049l0.095-0.057
		c0.108-0.065,0.195-0.159,0.251-0.272L41.978,40.281z"/>
</g>
<g>
	<path fill="#9D9FA2" d="M4.48,47.807l0.074,0.123c0.081,0.141,0.202,0.255,0.348,0.328l0.13,0.064l-0.123,0.074
		c-0.14,0.083-0.254,0.204-0.328,0.349l-0.064,0.128L4.443,48.75c-0.082-0.141-0.204-0.255-0.349-0.328L3.966,48.36l0.123-0.075
		c0.141-0.082,0.255-0.203,0.328-0.348L4.48,47.807z"/>
</g>
<g>
	<path fill="#9D9FA2" d="M27.841,29.2l0.074,0.123c0.083,0.14,0.204,0.254,0.349,0.328l0.13,0.064l-0.123,0.074
		c-0.141,0.082-0.255,0.203-0.328,0.349l-0.064,0.128l-0.074-0.123c-0.083-0.14-0.204-0.254-0.349-0.328l-0.128-0.062l0.123-0.075
		c0.141-0.081,0.255-0.202,0.328-0.348L27.841,29.2z"/>
</g>
<g>
	<path fill="#9D9FA2" d="M19.564,42.085l0.057,0.564c0.01,0.136,0.068,0.263,0.164,0.359c0.098,0.085,0.221,0.134,0.351,0.138
		l0.446,0.023l-0.458,0.082c-0.12,0.02-0.23,0.077-0.315,0.164c-0.01,0.009-0.018,0.018-0.026,0.028
		c-0.079,0.092-0.127,0.207-0.136,0.328l-0.051,0.562l-0.056-0.531c-0.01-0.135-0.068-0.261-0.164-0.356l-0.018-0.016
		c-0.09-0.077-0.202-0.124-0.32-0.134l-0.472-0.049l0.441-0.054c0.131-0.012,0.254-0.07,0.346-0.164l0.016-0.018
		c0.079-0.092,0.127-0.207,0.136-0.328L19.564,42.085z"/>
</g>
<g>
	<path fill="#9D9FA2" d="M5.419,58.951l0.074,0.123c0.083,0.141,0.204,0.255,0.349,0.328l0.128,0.062l-0.123,0.075
		c-0.141,0.082-0.255,0.203-0.328,0.348l-0.064,0.129l-0.074-0.123c-0.081-0.141-0.202-0.256-0.348-0.328l-0.13-0.064l0.123-0.074
		c0.14-0.083,0.254-0.204,0.328-0.349L5.419,58.951z"/>
</g>
<g>
	<path fill="#9D9FA2" d="M31.264,50.72l0.074,0.123c0.082,0.141,0.203,0.254,0.348,0.328l0.13,0.062l-0.123,0.075
		c-0.141,0.082-0.254,0.203-0.328,0.348l-0.064,0.13l-0.074-0.123c-0.082-0.141-0.204-0.255-0.349-0.328l-0.128-0.064l0.123-0.074
		c0.14-0.083,0.254-0.204,0.328-0.349L31.264,50.72z"/>
</g>
<g>
	<path fill="#FFFFFF" d="M214.4,87.2c-3.314,0-6,2.686-6,6v10.2c0,3.314,2.686,6,6,6h29.344l6.256,5.3v-5.313
		c3.128-0.206,5.6-2.808,5.6-5.987V93.2c0-3.314-2.686-6-6-6H214.4z"/>
</g>
<g>
	<path d="M211.948,92.86v0.74h-0.346v-1.991h0.762c0.222,0,0.398,0.058,0.528,0.174c0.132,0.116,0.198,0.269,0.198,0.459
		c0,0.195-0.064,0.347-0.192,0.455c-0.128,0.109-0.308,0.163-0.538,0.163H211.948z M211.948,92.583h0.416
		c0.122,0,0.216-0.029,0.282-0.086c0.064-0.058,0.096-0.142,0.096-0.251c0-0.108-0.032-0.193-0.098-0.257
		c-0.066-0.065-0.156-0.098-0.27-0.1h-0.426L211.948,92.583L211.948,92.583z M214.228,93.6c-0.014-0.028-0.026-0.074-0.038-0.138
		c-0.106,0.11-0.234,0.165-0.388,0.165c-0.148,0-0.27-0.042-0.364-0.127c-0.094-0.085-0.14-0.19-0.14-0.314
		c0-0.158,0.058-0.279,0.174-0.362c0.118-0.085,0.286-0.127,0.504-0.127h0.204V92.6c0-0.077-0.022-0.138-0.064-0.183
		c-0.044-0.046-0.108-0.07-0.196-0.07c-0.076,0-0.138,0.019-0.186,0.058c-0.048,0.037-0.072,0.085-0.072,0.143h-0.332
		c0-0.081,0.026-0.157,0.08-0.227c0.054-0.071,0.126-0.127,0.218-0.167c0.094-0.04,0.196-0.06,0.31-0.06
		c0.174,0,0.312,0.044,0.416,0.131c0.102,0.087,0.154,0.209,0.158,0.366v0.667c0,0.133,0.018,0.239,0.056,0.319V93.6L214.228,93.6
		L214.228,93.6z M213.864,93.361c0.066,0,0.126-0.016,0.184-0.048c0.058-0.032,0.102-0.075,0.132-0.128v-0.279H214
		c-0.122,0-0.216,0.021-0.278,0.064s-0.092,0.103-0.092,0.182c0,0.064,0.02,0.115,0.062,0.153
		C213.736,93.342,213.792,93.361,213.864,93.361z M215.356,93.124l0.3-1.003h0.354l-0.588,1.703c-0.09,0.249-0.244,0.373-0.46,0.373
		c-0.048,0-0.1-0.008-0.16-0.025v-0.257l0.064,0.004c0.084,0,0.146-0.016,0.188-0.047c0.044-0.03,0.078-0.081,0.102-0.153
		l0.048-0.127l-0.52-1.472h0.358L215.356,93.124z M216.514,92.121l0.01,0.154c0.104-0.121,0.246-0.182,0.426-0.182
		c0.198,0,0.334,0.076,0.406,0.227c0.108-0.151,0.26-0.227,0.454-0.227c0.164,0,0.286,0.045,0.364,0.135
		c0.08,0.09,0.122,0.223,0.124,0.399v0.972h-0.332v-0.962c0-0.094-0.022-0.163-0.062-0.207c-0.042-0.044-0.11-0.066-0.204-0.066
		c-0.076,0-0.138,0.021-0.186,0.062c-0.048,0.04-0.08,0.093-0.1,0.159l0.002,1.014h-0.332v-0.973
		c-0.006-0.174-0.094-0.261-0.268-0.261c-0.132,0-0.226,0.054-0.282,0.163V93.6h-0.332v-1.479L216.514,92.121L216.514,92.121z
		 M219.29,93.627c-0.21,0-0.382-0.066-0.512-0.198c-0.13-0.133-0.196-0.31-0.196-0.531v-0.041c0-0.148,0.028-0.279,0.084-0.395
		c0.058-0.117,0.138-0.207,0.242-0.272c0.102-0.065,0.218-0.097,0.344-0.097c0.202,0,0.356,0.064,0.466,0.193
		c0.11,0.128,0.166,0.31,0.166,0.545v0.134h-0.968c0.01,0.122,0.052,0.219,0.122,0.29c0.072,0.071,0.162,0.107,0.272,0.107
		c0.152,0,0.276-0.062,0.372-0.185l0.178,0.171c-0.06,0.088-0.138,0.157-0.238,0.206C219.524,93.603,219.414,93.627,219.29,93.627z
		 M219.25,92.36c-0.09,0-0.164,0.032-0.222,0.096c-0.054,0.064-0.09,0.153-0.106,0.267h0.634v-0.025
		c-0.008-0.111-0.038-0.195-0.09-0.252C219.414,92.389,219.342,92.36,219.25,92.36z M220.45,92.121l0.01,0.171
		c0.11-0.132,0.254-0.198,0.432-0.198c0.308,0,0.464,0.176,0.47,0.529v0.978h-0.332v-0.958c0-0.094-0.022-0.163-0.062-0.208
		c-0.04-0.046-0.106-0.068-0.198-0.068c-0.134,0-0.234,0.061-0.3,0.182v1.053h-0.332v-1.479h0.312V92.121z M222.118,91.761v0.36
		h0.26v0.246h-0.26v0.826c0,0.056,0.01,0.098,0.032,0.123s0.064,0.037,0.12,0.037c0.038,0,0.078-0.005,0.116-0.014v0.257
		c-0.074,0.021-0.148,0.032-0.218,0.032c-0.256,0-0.382-0.141-0.382-0.423v-0.838h-0.244v-0.246h0.244v-0.36L222.118,91.761
		L222.118,91.761z M224.626,92.875c0,0.229-0.052,0.412-0.156,0.548c-0.104,0.136-0.244,0.204-0.418,0.204
		c-0.162,0-0.292-0.053-0.39-0.16v0.701h-0.332V92.12h0.306l0.014,0.15c0.098-0.118,0.23-0.178,0.398-0.178
		c0.18,0,0.322,0.067,0.424,0.202c0.102,0.134,0.154,0.32,0.154,0.559V92.875z M224.296,92.847c0-0.148-0.03-0.265-0.09-0.351
		c-0.058-0.087-0.142-0.13-0.252-0.13c-0.134,0-0.232,0.056-0.292,0.168v0.656c0.06,0.115,0.158,0.172,0.296,0.172
		c0.106,0,0.188-0.042,0.248-0.127C224.266,93.149,224.296,93.02,224.296,92.847z M225.684,92.424
		c-0.044-0.007-0.09-0.011-0.136-0.011c-0.152,0-0.256,0.058-0.308,0.175V93.6h-0.332v-1.479h0.316l0.01,0.165
		c0.08-0.129,0.19-0.193,0.332-0.193c0.048,0,0.088,0.006,0.118,0.019V92.424z M225.782,92.847c0-0.145,0.028-0.275,0.086-0.391
		c0.056-0.117,0.138-0.206,0.242-0.268c0.104-0.063,0.222-0.094,0.358-0.094c0.2,0,0.362,0.064,0.486,0.193
		c0.124,0.128,0.192,0.299,0.202,0.511v0.078c0,0.146-0.028,0.276-0.084,0.391c-0.056,0.115-0.136,0.204-0.24,0.267
		s-0.224,0.094-0.362,0.094c-0.208,0-0.376-0.069-0.502-0.208c-0.124-0.14-0.186-0.325-0.186-0.557L225.782,92.847L225.782,92.847z
		 M226.114,92.875c0,0.152,0.032,0.272,0.094,0.358s0.15,0.129,0.262,0.129s0.2-0.044,0.262-0.131s0.094-0.216,0.094-0.384
		c0-0.149-0.032-0.268-0.098-0.355c-0.062-0.087-0.15-0.131-0.26-0.131c-0.108,0-0.194,0.043-0.258,0.13
		C226.146,92.576,226.114,92.704,226.114,92.875z M227.854,91.761v0.36h0.262v0.246h-0.262v0.826c0,0.056,0.012,0.098,0.032,0.123
		c0.024,0.025,0.064,0.037,0.122,0.037c0.038,0,0.076-0.005,0.116-0.014v0.257c-0.076,0.021-0.15,0.032-0.22,0.032
		c-0.254,0-0.382-0.141-0.382-0.423v-0.838h-0.244v-0.246h0.244v-0.36L227.854,91.761L227.854,91.761z M228.266,92.847
		c0-0.145,0.03-0.275,0.088-0.391c0.056-0.117,0.138-0.206,0.242-0.268c0.104-0.063,0.222-0.094,0.358-0.094
		c0.198,0,0.36,0.064,0.484,0.193c0.126,0.128,0.192,0.299,0.204,0.511v0.078c0,0.146-0.028,0.276-0.084,0.391
		c-0.056,0.115-0.136,0.204-0.242,0.267c-0.102,0.063-0.224,0.094-0.36,0.094c-0.208,0-0.376-0.069-0.502-0.208
		c-0.124-0.14-0.188-0.325-0.188-0.557V92.847z M228.6,92.875c0,0.152,0.03,0.272,0.094,0.358c0.062,0.086,0.15,0.129,0.262,0.129
		s0.2-0.044,0.262-0.131s0.094-0.216,0.094-0.384c0-0.149-0.032-0.268-0.098-0.355c-0.064-0.087-0.15-0.131-0.26-0.131
		s-0.196,0.043-0.26,0.13C228.632,92.576,228.6,92.704,228.6,92.875z M230.532,93.362c0.082,0,0.15-0.024,0.206-0.073
		c0.054-0.048,0.084-0.108,0.086-0.179h0.314c-0.004,0.092-0.032,0.178-0.086,0.258c-0.054,0.079-0.126,0.142-0.218,0.189
		c-0.092,0.047-0.192,0.07-0.298,0.07c-0.208,0-0.372-0.067-0.494-0.201c-0.12-0.134-0.18-0.319-0.18-0.555v-0.034
		c0-0.225,0.06-0.405,0.18-0.54c0.12-0.136,0.284-0.204,0.492-0.204c0.176,0,0.318,0.051,0.43,0.154
		c0.11,0.102,0.168,0.237,0.174,0.403h-0.314c-0.002-0.085-0.032-0.155-0.086-0.209c-0.054-0.055-0.124-0.082-0.206-0.082
		c-0.108,0-0.192,0.039-0.25,0.118c-0.058,0.077-0.088,0.195-0.088,0.354v0.053c0,0.16,0.028,0.28,0.086,0.36
		C230.338,93.323,230.422,93.362,230.532,93.362z M231.326,92.847c0-0.145,0.03-0.275,0.086-0.391
		c0.058-0.117,0.138-0.206,0.242-0.268c0.104-0.063,0.224-0.094,0.36-0.094c0.198,0,0.36,0.064,0.484,0.193
		c0.126,0.128,0.192,0.299,0.202,0.511l0.002,0.078c0,0.146-0.028,0.276-0.084,0.391c-0.056,0.115-0.136,0.204-0.242,0.267
		c-0.104,0.063-0.224,0.094-0.36,0.094c-0.208,0-0.376-0.069-0.502-0.208c-0.124-0.14-0.188-0.325-0.188-0.557L231.326,92.847
		L231.326,92.847z M231.658,92.875c0,0.152,0.032,0.272,0.096,0.358c0.062,0.086,0.15,0.129,0.262,0.129s0.198-0.044,0.26-0.131
		c0.064-0.087,0.096-0.216,0.096-0.384c0-0.149-0.034-0.268-0.098-0.355s-0.15-0.131-0.26-0.131s-0.196,0.043-0.26,0.13
		C231.69,92.576,231.658,92.704,231.658,92.875z M233.336,93.6h-0.332v-2.1h0.332V93.6z M213.164,102.708l0.306-1.498h0.344
		l-0.46,1.991h-0.332l-0.378-1.453l-0.386,1.453h-0.334l-0.458-1.991h0.342l0.31,1.496l0.38-1.496h0.29L213.164,102.708z
		 M214.642,103.227c-0.21,0-0.382-0.066-0.514-0.198c-0.13-0.133-0.194-0.31-0.194-0.531v-0.041c0-0.148,0.028-0.279,0.084-0.395
		c0.058-0.117,0.138-0.207,0.24-0.272c0.104-0.065,0.218-0.097,0.346-0.097c0.2,0,0.356,0.064,0.466,0.193
		c0.11,0.128,0.164,0.31,0.164,0.545v0.134h-0.966c0.01,0.122,0.05,0.219,0.122,0.29s0.162,0.107,0.27,0.107
		c0.152,0,0.276-0.062,0.372-0.185l0.18,0.171c-0.06,0.088-0.138,0.157-0.238,0.206
		C214.876,103.203,214.764,103.227,214.642,103.227z M214.602,101.96c-0.092,0-0.166,0.032-0.222,0.096
		c-0.056,0.064-0.09,0.153-0.106,0.267h0.632v-0.025c-0.006-0.111-0.036-0.195-0.088-0.252
		C214.766,101.989,214.694,101.96,214.602,101.96z M216.518,101.882c0.11-0.126,0.246-0.189,0.412-0.189
		c0.316,0,0.476,0.18,0.48,0.54v0.967h-0.332v-0.954c0-0.102-0.022-0.174-0.068-0.216c-0.042-0.043-0.108-0.064-0.194-0.064
		c-0.132,0-0.232,0.059-0.298,0.178v1.057h-0.332v-2.1h0.332L216.518,101.882L216.518,101.882z M218.632,103.2
		c-0.016-0.028-0.028-0.074-0.04-0.138c-0.104,0.11-0.234,0.165-0.388,0.165c-0.148,0-0.27-0.042-0.364-0.127
		c-0.094-0.085-0.14-0.19-0.14-0.314c0-0.158,0.058-0.279,0.176-0.362c0.116-0.085,0.284-0.127,0.502-0.127h0.204V102.2
		c0-0.077-0.022-0.138-0.064-0.183c-0.044-0.046-0.108-0.07-0.196-0.07c-0.076,0-0.138,0.019-0.186,0.058
		c-0.048,0.037-0.072,0.085-0.072,0.143h-0.332c0-0.081,0.026-0.157,0.08-0.227c0.054-0.071,0.126-0.127,0.218-0.167
		c0.094-0.04,0.198-0.06,0.312-0.06c0.172,0,0.31,0.044,0.414,0.131c0.102,0.087,0.156,0.209,0.158,0.366v0.667
		c0,0.133,0.018,0.239,0.056,0.319v0.023L218.632,103.2L218.632,103.2z M218.266,102.961c0.066,0,0.128-0.016,0.184-0.048
		c0.058-0.032,0.102-0.075,0.132-0.128v-0.279h-0.18c-0.122,0-0.214,0.021-0.276,0.064s-0.094,0.103-0.094,0.182
		c0,0.064,0.022,0.115,0.064,0.153C218.138,102.942,218.194,102.961,218.266,102.961z M219.762,102.779l0.312-1.058h0.344
		l-0.512,1.479h-0.29l-0.516-1.479h0.344L219.762,102.779z M221.258,103.227c-0.21,0-0.38-0.066-0.512-0.198
		c-0.13-0.133-0.196-0.31-0.196-0.531v-0.041c0-0.148,0.028-0.279,0.086-0.395c0.056-0.117,0.136-0.207,0.24-0.272
		c0.102-0.065,0.218-0.097,0.344-0.097c0.202,0,0.358,0.064,0.466,0.193c0.112,0.128,0.166,0.31,0.166,0.545v0.134h-0.966
		c0.01,0.122,0.05,0.219,0.122,0.29s0.162,0.107,0.27,0.107c0.152,0,0.276-0.062,0.372-0.185l0.178,0.171
		c-0.058,0.088-0.138,0.157-0.236,0.206C221.492,103.203,221.382,103.227,221.258,103.227z M221.22,101.96
		c-0.092,0-0.166,0.032-0.222,0.096c-0.056,0.064-0.092,0.153-0.106,0.267h0.632v-0.025c-0.008-0.111-0.036-0.195-0.088-0.252
		C221.384,101.989,221.312,101.96,221.22,101.96z M223.186,102.924h0.904v0.276h-1.25v-1.991h0.346V102.924z M224.72,103.2h-0.344
		v-1.991h0.344V103.2z M226.292,102.356h-0.8v0.844h-0.346v-1.991h1.264v0.279h-0.918v0.592h0.8L226.292,102.356L226.292,102.356z
		 M228.15,101.488h-0.62v1.712h-0.344v-1.712h-0.614v-0.279h1.578V101.488z M228.654,102.488h-0.718v-0.268h0.718V102.488z
		 M230.548,102.257c0,0.195-0.032,0.366-0.1,0.514c-0.068,0.147-0.164,0.26-0.29,0.339c-0.126,0.078-0.27,0.118-0.432,0.118
		s-0.306-0.039-0.432-0.118s-0.224-0.192-0.292-0.338c-0.07-0.146-0.104-0.314-0.104-0.504v-0.112c0-0.194,0.034-0.365,0.102-0.514
		c0.07-0.149,0.166-0.262,0.292-0.34c0.124-0.079,0.268-0.119,0.432-0.119c0.162,0,0.304,0.039,0.43,0.118
		c0.126,0.077,0.222,0.19,0.29,0.336c0.07,0.146,0.104,0.316,0.104,0.51V102.257z M230.202,102.153c0-0.221-0.04-0.39-0.124-0.507
		c-0.084-0.118-0.202-0.176-0.354-0.176c-0.15,0-0.268,0.059-0.352,0.176s-0.128,0.282-0.128,0.496v0.115
		c0,0.219,0.042,0.388,0.126,0.507c0.086,0.119,0.204,0.179,0.356,0.179c0.152,0,0.27-0.058,0.352-0.175
		c0.084-0.117,0.124-0.287,0.124-0.511V102.153z M232.04,102.356h-0.8v0.844h-0.346v-1.991h1.264v0.279h-0.918v0.592h0.8
		L232.04,102.356L232.04,102.356z M233.58,102.356h-0.802v0.844h-0.346v-1.991h1.266v0.279h-0.92v0.592h0.802V102.356z
		 M234.292,102.613h-0.286l-0.03-1.404h0.348L234.292,102.613z M233.966,103.043c0-0.052,0.016-0.095,0.05-0.129
		c0.034-0.035,0.08-0.052,0.138-0.052s0.104,0.017,0.138,0.052c0.034,0.034,0.05,0.077,0.05,0.129c0,0.05-0.016,0.092-0.048,0.126
		c-0.034,0.034-0.08,0.051-0.14,0.051s-0.106-0.017-0.14-0.051C233.982,103.135,233.966,103.093,233.966,103.043z"/>
</g>
<g>
	<path fill="#21B6B2" d="M213.122,96.152c-0.02,0.212-0.1,0.378-0.236,0.498c-0.136,0.118-0.318,0.178-0.546,0.178
		c-0.158,0-0.298-0.037-0.42-0.112c-0.12-0.076-0.212-0.183-0.278-0.321c-0.066-0.139-0.1-0.299-0.102-0.483v-0.186
		c0-0.188,0.032-0.353,0.1-0.496c0.066-0.143,0.162-0.253,0.284-0.331c0.126-0.077,0.27-0.116,0.434-0.116
		c0.218,0,0.396,0.06,0.53,0.179c0.134,0.119,0.212,0.288,0.234,0.506h-0.346c-0.016-0.143-0.058-0.246-0.126-0.309
		c-0.066-0.064-0.164-0.096-0.292-0.096c-0.152,0-0.268,0.055-0.348,0.165c-0.08,0.109-0.122,0.27-0.124,0.483v0.176
		c0,0.215,0.038,0.379,0.116,0.492s0.19,0.169,0.338,0.169c0.136,0,0.238-0.03,0.306-0.092c0.07-0.061,0.112-0.163,0.13-0.305h0.346
		V96.152z M213.338,96.047c0-0.145,0.028-0.275,0.086-0.391c0.056-0.117,0.138-0.206,0.242-0.268
		c0.104-0.063,0.222-0.094,0.358-0.094c0.2,0,0.362,0.064,0.484,0.193c0.126,0.128,0.194,0.299,0.204,0.511v0.078
		c0,0.146-0.028,0.276-0.084,0.391c-0.056,0.115-0.136,0.204-0.24,0.267s-0.224,0.094-0.362,0.094c-0.208,0-0.376-0.069-0.502-0.208
		c-0.124-0.14-0.186-0.325-0.186-0.557V96.047z M213.67,96.075c0,0.152,0.03,0.272,0.094,0.358c0.062,0.086,0.15,0.129,0.262,0.129
		s0.2-0.044,0.262-0.131s0.094-0.216,0.094-0.384c0-0.149-0.032-0.268-0.098-0.355c-0.064-0.087-0.15-0.131-0.26-0.131
		c-0.108,0-0.194,0.043-0.258,0.13C213.702,95.776,213.67,95.904,213.67,96.075z M215.306,95.321l0.01,0.154
		c0.104-0.121,0.246-0.182,0.426-0.182c0.198,0,0.334,0.076,0.406,0.227c0.108-0.151,0.26-0.227,0.454-0.227
		c0.164,0,0.284,0.045,0.364,0.135s0.122,0.223,0.122,0.399v0.972h-0.332v-0.962c0-0.094-0.02-0.163-0.06-0.207
		c-0.042-0.044-0.11-0.066-0.204-0.066c-0.076,0-0.138,0.021-0.186,0.062c-0.048,0.04-0.082,0.093-0.1,0.159l0.002,1.014h-0.334
		v-0.973c-0.004-0.174-0.092-0.261-0.266-0.261c-0.132,0-0.228,0.054-0.282,0.163V96.8h-0.334v-1.479L215.306,95.321L215.306,95.321
		z M218.726,96.075c0,0.229-0.052,0.412-0.156,0.548c-0.104,0.136-0.244,0.204-0.418,0.204c-0.164,0-0.292-0.053-0.39-0.16v0.701
		h-0.332V95.32h0.306l0.014,0.15c0.096-0.118,0.23-0.178,0.398-0.178c0.18,0,0.32,0.067,0.422,0.202
		c0.104,0.134,0.156,0.32,0.156,0.559V96.075z M218.394,96.047c0-0.148-0.03-0.265-0.088-0.351c-0.058-0.087-0.142-0.13-0.252-0.13
		c-0.136,0-0.234,0.056-0.292,0.168v0.656c0.06,0.115,0.158,0.172,0.294,0.172c0.106,0,0.19-0.042,0.248-0.127
		C218.364,96.349,218.394,96.22,218.394,96.047z M219.362,96.8h-0.334v-2.1h0.334V96.8z M220.376,96.827
		c-0.21,0-0.382-0.066-0.514-0.198c-0.13-0.133-0.194-0.31-0.194-0.531v-0.041c0-0.148,0.028-0.279,0.084-0.395
		c0.058-0.117,0.138-0.207,0.24-0.272c0.104-0.065,0.218-0.097,0.346-0.097c0.2,0,0.356,0.064,0.466,0.193
		c0.11,0.128,0.164,0.31,0.164,0.545v0.134h-0.966c0.01,0.122,0.05,0.219,0.122,0.29s0.162,0.107,0.27,0.107
		c0.152,0,0.276-0.062,0.372-0.185l0.18,0.171c-0.06,0.088-0.138,0.157-0.238,0.206C220.61,96.803,220.498,96.827,220.376,96.827z
		 M220.336,95.56c-0.092,0-0.166,0.032-0.222,0.096c-0.056,0.064-0.09,0.153-0.106,0.267h0.632v-0.025
		c-0.006-0.111-0.036-0.195-0.088-0.252S220.428,95.56,220.336,95.56z M221.644,94.961v0.36h0.262v0.246h-0.262v0.826
		c0,0.056,0.012,0.098,0.034,0.123s0.062,0.037,0.12,0.037c0.038,0,0.076-0.005,0.116-0.014v0.257
		c-0.076,0.021-0.148,0.032-0.22,0.032c-0.254,0-0.382-0.141-0.382-0.423v-0.838h-0.244v-0.246h0.244v-0.36L221.644,94.961
		L221.644,94.961z M222.812,96.827c-0.21,0-0.382-0.066-0.512-0.198c-0.132-0.133-0.196-0.31-0.196-0.531v-0.041
		c0-0.148,0.028-0.279,0.084-0.395c0.058-0.117,0.138-0.207,0.242-0.272c0.102-0.065,0.216-0.097,0.344-0.097
		c0.202,0,0.356,0.064,0.466,0.193c0.11,0.128,0.166,0.31,0.166,0.545v0.134h-0.968c0.01,0.122,0.052,0.219,0.122,0.29
		c0.072,0.071,0.162,0.107,0.272,0.107c0.152,0,0.276-0.062,0.37-0.185l0.18,0.171c-0.06,0.088-0.138,0.157-0.238,0.206
		C223.046,96.803,222.934,96.827,222.812,96.827z M222.772,95.56c-0.09,0-0.164,0.032-0.222,0.096
		c-0.054,0.064-0.09,0.153-0.106,0.267h0.634v-0.025c-0.008-0.111-0.038-0.195-0.09-0.252
		C222.936,95.589,222.864,95.56,222.772,95.56z M223.602,96.049c0-0.228,0.054-0.411,0.158-0.548
		c0.106-0.139,0.248-0.208,0.426-0.208c0.156,0,0.284,0.055,0.38,0.164V94.7h0.332v2.1h-0.3l-0.016-0.153
		c-0.1,0.12-0.232,0.181-0.398,0.181c-0.174,0-0.314-0.07-0.422-0.209C223.656,96.479,223.602,96.289,223.602,96.049z
		 M223.934,96.078c0,0.15,0.03,0.268,0.086,0.353c0.058,0.084,0.142,0.126,0.248,0.126c0.136,0,0.236-0.061,0.298-0.182v-0.632
		c-0.062-0.119-0.16-0.178-0.296-0.178c-0.106,0-0.19,0.043-0.248,0.129C223.964,95.779,223.934,95.907,223.934,96.078z
		 M226.772,96.398c0-0.059-0.026-0.104-0.074-0.135s-0.13-0.058-0.242-0.082c-0.114-0.024-0.208-0.054-0.284-0.09
		c-0.166-0.08-0.248-0.196-0.248-0.349c0-0.128,0.054-0.234,0.16-0.32c0.108-0.086,0.246-0.128,0.412-0.128
		c0.176,0,0.318,0.044,0.428,0.131c0.108,0.088,0.164,0.201,0.164,0.34h-0.334c0-0.064-0.022-0.117-0.07-0.159
		c-0.048-0.043-0.11-0.064-0.188-0.064c-0.074,0-0.134,0.017-0.18,0.051s-0.068,0.079-0.068,0.135c0,0.051,0.022,0.091,0.064,0.119
		c0.042,0.028,0.13,0.057,0.26,0.086c0.13,0.028,0.232,0.062,0.306,0.103c0.074,0.039,0.13,0.087,0.166,0.142
		s0.054,0.123,0.054,0.202c0,0.133-0.056,0.241-0.166,0.324c-0.11,0.082-0.254,0.123-0.432,0.123c-0.122,0-0.23-0.022-0.324-0.066
		c-0.096-0.044-0.17-0.104-0.222-0.181c-0.054-0.077-0.08-0.159-0.08-0.247h0.324c0.004,0.078,0.034,0.139,0.088,0.182
		c0.054,0.042,0.128,0.063,0.218,0.063c0.086,0,0.154-0.016,0.198-0.049C226.748,96.496,226.772,96.452,226.772,96.398z
		 M228.284,96.655c-0.096,0.115-0.236,0.172-0.414,0.172c-0.162,0-0.282-0.047-0.366-0.141c-0.082-0.094-0.122-0.23-0.122-0.407
		v-0.958h0.332v0.954c0,0.188,0.078,0.282,0.234,0.282c0.16,0,0.27-0.058,0.326-0.174v-1.062h0.332V96.8h-0.314L228.284,96.655z
		 M229.552,96.562c0.084,0,0.152-0.024,0.206-0.073c0.056-0.048,0.084-0.108,0.088-0.179h0.314
		c-0.004,0.092-0.034,0.178-0.086,0.258c-0.054,0.079-0.128,0.142-0.22,0.189s-0.192,0.07-0.298,0.07
		c-0.206,0-0.37-0.067-0.492-0.201s-0.182-0.319-0.182-0.555v-0.034c0-0.225,0.06-0.405,0.18-0.54
		c0.122-0.136,0.286-0.204,0.492-0.204c0.176,0,0.32,0.051,0.43,0.154c0.112,0.102,0.17,0.237,0.176,0.403h-0.314
		c-0.004-0.085-0.032-0.155-0.088-0.209c-0.054-0.055-0.122-0.082-0.206-0.082c-0.108,0-0.19,0.039-0.248,0.118
		c-0.06,0.077-0.088,0.195-0.09,0.354v0.053c0,0.16,0.03,0.28,0.086,0.36C229.358,96.523,229.442,96.562,229.552,96.562z
		 M231.018,96.562c0.082,0,0.152-0.024,0.206-0.073c0.054-0.048,0.084-0.108,0.088-0.179h0.312
		c-0.002,0.092-0.032,0.178-0.086,0.258c-0.054,0.079-0.126,0.142-0.218,0.189c-0.092,0.047-0.192,0.07-0.298,0.07
		c-0.208,0-0.372-0.067-0.492-0.201c-0.122-0.134-0.182-0.319-0.182-0.555v-0.034c0-0.225,0.06-0.405,0.18-0.54
		c0.12-0.136,0.284-0.204,0.492-0.204c0.176,0,0.32,0.051,0.43,0.154c0.112,0.102,0.17,0.237,0.174,0.403h-0.312
		c-0.004-0.085-0.034-0.155-0.088-0.209s-0.122-0.082-0.206-0.082c-0.108,0-0.19,0.039-0.25,0.118
		c-0.058,0.077-0.088,0.195-0.088,0.354v0.053c0,0.16,0.028,0.28,0.086,0.36C230.824,96.523,230.908,96.562,231.018,96.562z
		 M232.528,96.827c-0.212,0-0.382-0.066-0.514-0.198c-0.13-0.133-0.196-0.31-0.196-0.531v-0.041c0-0.148,0.03-0.279,0.086-0.395
		c0.058-0.117,0.138-0.207,0.24-0.272c0.104-0.065,0.218-0.097,0.344-0.097c0.202,0,0.358,0.064,0.468,0.193
		c0.11,0.128,0.164,0.31,0.164,0.545v0.134h-0.966c0.01,0.122,0.05,0.219,0.122,0.29s0.162,0.107,0.27,0.107
		c0.152,0,0.276-0.062,0.372-0.185l0.18,0.171c-0.06,0.088-0.14,0.157-0.238,0.206C232.76,96.803,232.65,96.827,232.528,96.827z
		 M232.488,95.56c-0.092,0-0.166,0.032-0.222,0.096c-0.056,0.064-0.092,0.153-0.106,0.267h0.632v-0.025
		c-0.006-0.111-0.036-0.195-0.088-0.252S232.58,95.56,232.488,95.56z M234.208,96.398c0-0.059-0.024-0.104-0.074-0.135
		c-0.048-0.031-0.128-0.058-0.242-0.082c-0.112-0.024-0.206-0.054-0.282-0.09c-0.166-0.08-0.248-0.196-0.248-0.349
		c0-0.128,0.052-0.234,0.16-0.32s0.244-0.128,0.41-0.128c0.178,0,0.32,0.044,0.428,0.131c0.11,0.088,0.164,0.201,0.164,0.34h-0.332
		c0-0.064-0.024-0.117-0.07-0.159c-0.048-0.043-0.11-0.064-0.19-0.064c-0.072,0-0.132,0.017-0.178,0.051
		c-0.046,0.034-0.068,0.079-0.068,0.135c0,0.051,0.02,0.091,0.064,0.119c0.042,0.028,0.128,0.057,0.26,0.086
		c0.13,0.028,0.232,0.062,0.306,0.103c0.074,0.039,0.13,0.087,0.164,0.142c0.038,0.056,0.056,0.123,0.056,0.202
		c0,0.133-0.056,0.241-0.166,0.324c-0.11,0.082-0.254,0.123-0.434,0.123c-0.12,0-0.228-0.022-0.324-0.066
		c-0.094-0.044-0.168-0.104-0.22-0.181c-0.054-0.077-0.08-0.159-0.08-0.247h0.322c0.006,0.078,0.034,0.139,0.09,0.182
		c0.054,0.042,0.126,0.063,0.216,0.063c0.088,0,0.154-0.016,0.2-0.049C234.186,96.496,234.208,96.452,234.208,96.398z
		 M235.656,96.398c0-0.059-0.026-0.104-0.074-0.135s-0.13-0.058-0.242-0.082c-0.114-0.024-0.208-0.054-0.284-0.09
		c-0.166-0.08-0.248-0.196-0.248-0.349c0-0.128,0.054-0.234,0.16-0.32c0.108-0.086,0.246-0.128,0.412-0.128
		c0.176,0,0.318,0.044,0.428,0.131c0.108,0.088,0.164,0.201,0.164,0.34h-0.334c0-0.064-0.022-0.117-0.07-0.159
		c-0.048-0.043-0.11-0.064-0.188-0.064c-0.074,0-0.134,0.017-0.18,0.051s-0.068,0.079-0.068,0.135c0,0.051,0.022,0.091,0.064,0.119
		c0.042,0.028,0.13,0.057,0.26,0.086c0.13,0.028,0.232,0.062,0.306,0.103c0.074,0.039,0.13,0.087,0.166,0.142
		s0.054,0.123,0.054,0.202c0,0.133-0.056,0.241-0.166,0.324c-0.11,0.082-0.254,0.123-0.432,0.123c-0.122,0-0.23-0.022-0.324-0.066
		c-0.096-0.044-0.17-0.104-0.222-0.181c-0.054-0.077-0.08-0.159-0.08-0.247h0.324c0.004,0.078,0.034,0.139,0.088,0.182
		c0.054,0.042,0.128,0.063,0.218,0.063c0.086,0,0.154-0.016,0.198-0.049C235.632,96.496,235.656,96.452,235.656,96.398z
		 M236.39,96.8v-1.233h-0.226v-0.246h0.226v-0.135c0-0.164,0.046-0.291,0.136-0.38c0.092-0.089,0.218-0.134,0.382-0.134
		c0.06,0,0.122,0.008,0.186,0.025l-0.008,0.26c-0.036-0.007-0.078-0.011-0.126-0.011c-0.16,0-0.238,0.082-0.238,0.245v0.131h0.3
		v0.246h-0.3v1.233h-0.332V96.8z M238.162,96.655c-0.098,0.115-0.236,0.172-0.416,0.172c-0.16,0-0.282-0.047-0.366-0.141
		c-0.082-0.094-0.122-0.23-0.122-0.407v-0.958h0.332v0.954c0,0.188,0.078,0.282,0.234,0.282c0.16,0,0.27-0.058,0.326-0.174v-1.062
		h0.332V96.8h-0.312L238.162,96.655z M239.174,96.8h-0.332v-2.1h0.332V96.8z M239.89,96.8h-0.332v-2.1h0.332V96.8z M240.772,96.324
		l0.3-1.003h0.354l-0.588,1.703c-0.09,0.249-0.244,0.373-0.46,0.373c-0.048,0-0.1-0.008-0.16-0.025v-0.257l0.064,0.004
		c0.084,0,0.146-0.016,0.188-0.047c0.044-0.03,0.078-0.081,0.102-0.153l0.048-0.127l-0.52-1.472h0.358L240.772,96.324z"/>
</g>
<g>
	<g>
		<defs>
			<rect id="SVGID_1_" x="239" y="106.8" width="49" height="36.2"/>
		</defs>
		<clipPath id="SVGID_2_">
			<use xlink:href="#SVGID_1_"  overflow="visible"/>
		</clipPath>
		<g clip-path="url(#SVGID_2_)">
			<g>
				<path fill="#F8F8F8" d="M262.422,110.228c1.534-1.004,3.326-1.542,5.158-1.55h0.03c2.252-0.001,4.47,0.558,6.452,1.625
					c1.984,1.067,3.672,2.61,4.912,4.49c1.242,1.88,1.996,4.039,2.196,6.282c0.202,2.243-0.158,4.502-1.044,6.572
					c-0.886,2.071-2.272,3.889-4.036,5.292c-1.762,1.403-3.844,2.346-6.062,2.746c-2.216,0.4-4.498,0.243-6.638-0.456
					c-2.142-0.699-4.076-1.918-5.63-3.549c-2.202-3.47-2.948-7.668-2.076-11.684C256.558,115.98,258.978,112.47,262.422,110.228z"/>
				<path d="M267.613,136.009c-1.448,0-2.88-0.228-4.256-0.677c-2.151-0.702-4.113-1.939-5.675-3.577l-0.013-0.017
					c-2.231-3.517-2.974-7.695-2.09-11.765c0.886-4.071,3.295-7.564,6.785-9.836c1.555-1.018,3.359-1.56,5.216-1.568h0.03
					c2.266,0,4.513,0.566,6.503,1.638c1.993,1.072,3.705,2.637,4.951,4.526c1.247,1.888,2.012,4.077,2.213,6.332
					c0.203,2.251-0.161,4.542-1.052,6.624c-0.89,2.081-2.297,3.925-4.068,5.334c-1.771,1.409-3.883,2.366-6.11,2.768
					C269.246,135.936,268.427,136.009,267.613,136.009z M257.845,131.614c1.536,1.608,3.464,2.823,5.578,3.513
					c1.354,0.442,2.764,0.666,4.189,0.666c0.801,0,1.608-0.072,2.396-0.214c2.192-0.395,4.271-1.337,6.014-2.724
					c1.743-1.386,3.128-3.202,4.004-5.25c0.877-2.05,1.235-4.305,1.036-6.52c-0.198-2.22-0.951-4.375-2.179-6.232
					c-1.226-1.859-2.911-3.4-4.873-4.455c-1.959-1.055-4.171-1.612-6.398-1.612h-0.033c-1.815,0.008-3.579,0.538-5.099,1.532
					c-3.441,2.241-5.818,5.686-6.692,9.701C254.919,124.03,255.649,128.147,257.845,131.614z"/>
			</g>
			<g>
				<path fill="#FFFFFF" d="M263.586,110.228c0.022-0.016,0.046-0.029,0.068-0.045c-3.578,3.164-5.874,8.032-5.874,13.493
					c-0.012,3.197,0.804,6.343,2.364,9.133c-0.428-0.352-0.836-0.728-1.22-1.128c-2.202-3.469-2.948-7.668-2.076-11.684
					C257.72,115.981,260.142,112.47,263.586,110.228z"/>
			</g>
			<g>
				<path fill="#21B6B2" d="M257.76,131.68c1.554,1.63,3.488,2.848,5.63,3.546c2.14,0.698,4.42,0.854,6.636,0.454
					s4.298-1.343,6.06-2.746s3.148-3.22,4.034-5.29s1.246-4.328,1.044-6.57c-0.2-2.243-0.954-4.401-2.194-6.281
					s-2.926-3.422-4.91-4.49c-1.982-1.067-4.198-1.626-6.45-1.626h-0.03c-1.832,0.008-3.624,0.546-5.158,1.55
					c-2.724,1.777-4.83,4.358-6.02,7.386c1.458-3.839,4.3-6.994,7.964-8.846c3.666-1.852,7.892-2.266,11.848-1.162
					s7.356,3.647,9.532,7.13c2.178,3.483,2.974,7.653,2.234,11.693c-0.742,4.04-2.966,7.656-6.236,10.14s-7.352,3.655-11.442,3.284
					s-7.894-2.257-10.664-5.289c-2.772-3.032-4.308-6.99-4.31-11.097c0-0.031,0-0.062,0-0.093
					C255.336,126.318,256.18,129.198,257.76,131.68z"/>
				<path d="M271.789,140.029c-0.498,0-1.001-0.023-1.497-0.068c-4.127-0.374-7.939-2.265-10.734-5.323
					c-2.796-3.057-4.336-7.024-4.339-11.17v-0.093h0.216c0.008,2.922,0.841,5.771,2.409,8.238c1.536,1.608,3.464,2.821,5.578,3.511
					c1.353,0.442,2.761,0.665,4.185,0.666l0,0c0.802,0,1.608-0.072,2.398-0.215c2.191-0.395,4.27-1.337,6.012-2.724
					s3.126-3.201,4.002-5.248c0.877-2.049,1.235-4.303,1.036-6.518c-0.198-2.217-0.951-4.372-2.177-6.231
					c-1.227-1.859-2.911-3.4-4.871-4.454c-1.96-1.055-4.173-1.613-6.399-1.613h-0.03c-1.815,0.007-3.579,0.537-5.099,1.532
					c-2.724,1.777-4.791,4.313-5.979,7.336l-0.201-0.078c1.471-3.873,4.318-7.035,8.016-8.904c2.305-1.164,4.888-1.78,7.471-1.78
					c1.506,0,3.005,0.205,4.455,0.61c3.991,1.114,7.399,3.663,9.595,7.177c2.197,3.513,2.995,7.693,2.249,11.77
					c-0.749,4.076-2.978,7.701-6.277,10.207C278.945,138.831,275.387,140.029,271.789,140.029z M257.711,131.785
					c0.569,0.962,1.24,1.869,2.007,2.708c2.758,3.019,6.521,4.885,10.594,5.254c0.489,0.044,0.987,0.067,1.478,0.067
					c3.55,0,7.063-1.183,9.889-3.33c3.256-2.473,5.456-6.051,6.195-10.074c0.737-4.024-0.051-8.149-2.22-11.617
					c-2.167-3.468-5.53-5.984-9.469-7.083c-1.432-0.4-2.911-0.602-4.397-0.602c-2.549,0-5.098,0.607-7.373,1.756
					c-1.008,0.509-1.951,1.116-2.82,1.807c0.25-0.185,0.506-0.363,0.768-0.534c1.555-1.018,3.359-1.56,5.216-1.568h0.03
					c2.262,0,4.51,0.567,6.501,1.639c1.991,1.072,3.703,2.637,4.949,4.525c1.246,1.889,2.011,4.078,2.212,6.33
					c0.203,2.251-0.161,4.541-1.052,6.622c-0.89,2.079-2.296,3.923-4.066,5.332c-1.77,1.409-3.882,2.366-6.108,2.768
					c-0.802,0.145-1.622,0.218-2.436,0.218l0,0c-1.447,0-2.877-0.228-4.252-0.676C261.219,134.632,259.267,133.407,257.711,131.785z
					"/>
			</g>
			<g>
				<path fill="#21B6B2" d="M285.762,116.546c1.34,2.898,1.81,6.123,1.352,9.283s-1.826,6.118-3.936,8.515"/>
			</g>
			<g>
				<path d="M283.178,134.559c-0.051,0-0.101-0.018-0.142-0.054c-0.089-0.079-0.098-0.215-0.019-0.304
					c2.088-2.372,3.432-5.278,3.885-8.404s-0.008-6.294-1.334-9.161c-0.05-0.108-0.003-0.236,0.105-0.286
					c0.108-0.05,0.236-0.003,0.286,0.105c1.361,2.944,1.835,6.195,1.37,9.404c-0.465,3.209-1.844,6.192-3.988,8.627
					C283.297,134.535,283.237,134.559,283.178,134.559z"/>
			</g>
			<g>
				<path fill="#B1B3B6" d="M283.714,113.228c0.428,0.538,0.82,1.102,1.178,1.688L283.714,113.228z"/>
			</g>
			<g>
				<path d="M284.892,115.131c-0.073,0-0.144-0.037-0.184-0.103c-0.356-0.584-0.748-1.145-1.162-1.667
					c-0.074-0.093-0.059-0.229,0.034-0.303s0.229-0.059,0.303,0.034c0.426,0.536,0.828,1.111,1.193,1.71
					c0.062,0.102,0.03,0.234-0.072,0.296C284.969,115.121,284.93,115.131,284.892,115.131z"/>
			</g>
			<g>
				<path fill="#FFBE9D" d="M280.516,113.075c-2.548-2.445-6.102-3.511-9.6-3.051c-0.514,0.067-1.06,0.16-1.636,0.286
					c-3.414,0.751-5.394,4.301-5.666,4.506c-0.272,0.206,0.41,2.183,0.41,2.183s-2.73,7.987-2.39,9.216
					c0.34,1.23,4.574,2.594,4.574,2.594l-0.614,2.525l12.968,2.525c0,0,1.092-4.912,2.528-6.893
					c1.436-1.981,2.534-4.212,2.184-8.329C283.076,116.231,281.902,114.41,280.516,113.075z"/>
			</g>
			<g opacity="0.5">
				<g opacity="0.5" enable-background="new    ">
					<path fill="#EB996E" d="M265.858,128.206c2.058,0.124,5.984-1.87,7.48-4.986c0.92-1.884,2.43-3.417,4.298-4.366
						c1.824-0.519,3.73-0.684,5.616-0.484c0.01,0.087,0.02,0.182,0.028,0.264c0.352,4.117-0.75,6.347-2.182,8.328
						c-1.434,1.981-2.528,6.893-2.528,6.893l-12.97-2.525l0.616-2.525c-1.092-0.359-2.154-0.807-3.174-1.339
						C263.906,127.818,264.938,128.149,265.858,128.206z"/>
				</g>
			</g>
			<g>
				<path d="M278.645,133.986l-13.182-2.567l0.617-2.538c-0.649-0.216-4.223-1.456-4.55-2.637c-0.337-1.218,2.159-8.595,2.38-9.245
					c-0.264-0.771-0.648-2.053-0.361-2.269c0.034-0.026,0.147-0.182,0.267-0.347c0.704-0.97,2.572-3.547,5.441-4.179
					c0.548-0.119,1.101-0.216,1.645-0.287c0.532-0.07,1.073-0.105,1.608-0.105c3.07,0,5.94,1.131,8.081,3.186
					c1.677,1.616,2.616,3.511,2.791,5.632c0.338,3.981-0.636,6.237-2.204,8.401c-1.406,1.94-2.499,6.804-2.51,6.853L278.645,133.986
					z M265.725,131.251l12.755,2.484c0.169-0.734,1.188-4.989,2.523-6.831c1.54-2.124,2.497-4.341,2.164-8.256
					c-0.17-2.068-1.087-3.917-2.725-5.495c-2.1-2.015-4.917-3.125-7.931-3.125c-0.526,0-1.057,0.035-1.58,0.104
					c-0.538,0.07-1.085,0.166-1.627,0.284c-2.789,0.614-4.622,3.143-5.313,4.095c-0.175,0.241-0.254,0.349-0.311,0.392
					c-0.102,0.118,0.102,1.063,0.447,2.062l0.012,0.035l-0.012,0.035c-0.941,2.752-2.65,8.205-2.388,9.153
					c0.266,0.963,3.341,2.146,4.503,2.52l0.095,0.031L265.725,131.251z"/>
			</g>
			<g>
				<path d="M267.24,113.859c0,0-0.136,0.136,1.092,0.136c1.228,0,3.346-0.204,4.028,0.411c0.682,0.615,1.776,2.389,1.364,2.389
					s-0.956-0.615-1.364-0.615c-0.322-0.014-0.642-0.059-0.956-0.136c0,0,1.706,1.024,1.092,1.091
					c-0.616,0.067-3.346-0.34-4.096-0.819c-0.748-0.478-1.296-0.819-1.366-1.228C266.966,114.679,266.762,114.407,267.24,113.859z"
					/>
				<path d="M272.328,117.25c-0.877,0-3.277-0.39-3.986-0.843l-0.059-0.038c-0.743-0.474-1.279-0.817-1.355-1.263
					c-0.012-0.073-0.029-0.142-0.045-0.208c-0.077-0.319-0.15-0.621,0.274-1.109l0.007-0.007l0.082,0.076l0.096-0.003
					c-0.004-0.028-0.021-0.044-0.026-0.048c0.012,0.008,0.147,0.079,1.016,0.079c0.229,0,0.489-0.007,0.764-0.015
					c0.318-0.009,0.647-0.018,0.98-0.018c0.853,0,1.892,0.053,2.355,0.471c0.593,0.535,1.618,2.079,1.473,2.456
					c-0.029,0.076-0.097,0.121-0.181,0.121c-0.238,0-0.495-0.166-0.744-0.326c-0.221-0.142-0.449-0.289-0.62-0.289
					c-0.143-0.006-0.285-0.018-0.426-0.036c0.454,0.306,0.842,0.632,0.798,0.832c-0.014,0.062-0.064,0.14-0.225,0.158
					C272.46,117.248,272.399,117.25,272.328,117.25z M267.249,114.017c-0.274,0.35-0.224,0.555-0.157,0.832
					c0.017,0.071,0.035,0.145,0.048,0.223c0.06,0.351,0.563,0.672,1.259,1.117l0.059,0.038c0.668,0.426,3.036,0.809,3.87,0.809
					c0.062,0,0.114-0.002,0.156-0.007c0.013-0.001,0.022-0.003,0.03-0.005c-0.069-0.145-0.581-0.536-1.165-0.887l-0.612-0.367
					l0.693,0.17c0.306,0.075,0.621,0.12,0.935,0.134l0,0c0.231,0,0.486,0.164,0.732,0.323c0.216,0.139,0.439,0.283,0.611,0.291
					c0.031-0.257-0.77-1.613-1.42-2.2c-0.414-0.373-1.46-0.416-2.211-0.416c-0.33,0-0.658,0.009-0.974,0.018
					c-0.278,0.008-0.54,0.015-0.77,0.015C267.657,114.103,267.374,114.063,267.249,114.017z"/>
			</g>
			<g>
				<path d="M264.384,113.813c0.052,0.107,0.322,0.584,0.808,0.524c0.312-0.033,0.604-0.178,0.818-0.409
					c-0.056,0.246-0.08,0.499-0.068,0.751c0,0.546-0.068,0.955-0.408,1.364c-0.34,0.409-1.504,0.955-1.504,0.955
					s-0.408-1.228-0.408-2.183C263.708,114.75,263.966,114.352,264.384,113.813z"/>
				<path d="M263.966,117.148l-0.038-0.115c-0.017-0.051-0.414-1.255-0.414-2.217v-0.053l0.043-0.032
					c0.034-0.026,0.15-0.185,0.271-0.352c0.123-0.169,0.28-0.386,0.471-0.63l0.106-0.137l0.076,0.156
					c0.025,0.051,0.262,0.517,0.698,0.464c0.29-0.031,0.556-0.164,0.752-0.376l0.273-0.295l-0.089,0.392
					c-0.055,0.241-0.077,0.484-0.065,0.722c0,0.568-0.072,1.005-0.433,1.438c-0.351,0.423-1.493,0.961-1.541,0.984L263.966,117.148z
					 M263.73,114.862c0.01,0.75,0.268,1.665,0.365,1.986c0.295-0.146,1.095-0.559,1.356-0.873c0.32-0.386,0.383-0.767,0.383-1.296
					c-0.007-0.155-0.001-0.314,0.018-0.474c-0.191,0.131-0.414,0.214-0.649,0.239c-0.031,0.004-0.063,0.006-0.095,0.006
					c-0.371,0-0.616-0.269-0.736-0.445c-0.146,0.191-0.269,0.361-0.37,0.5C263.865,114.694,263.786,114.802,263.73,114.862z"/>
			</g>
			<g>
				<path fill="#FFBE9D" d="M266.216,115.84c0,0-2.73,1.295-2.868,1.706s0.682,1.979,0.682,1.979"/>
			</g>
			<g>
				<path d="M263.935,119.576c-0.14-0.269-0.834-1.631-0.689-2.064c0.145-0.433,2.461-1.55,2.924-1.769l0.092,0.195
					c-1.321,0.627-2.735,1.413-2.812,1.643c-0.09,0.268,0.366,1.305,0.675,1.895L263.935,119.576z"/>
			</g>
			<g>
				<path d="M263.348,117.55c0,0,4.096,2.525,3.55,2.865s-2.046-0.204-2.458-0.546C264.028,119.528,263.282,118.433,263.348,117.55z
					"/>
				<path d="M266.413,120.631c-0.711,0-1.713-0.405-2.042-0.678c-0.443-0.368-1.2-1.488-1.131-2.41l0.013-0.177l0.151,0.093
					c0.61,0.376,3.65,2.28,3.651,2.868c0,0.076-0.036,0.14-0.101,0.18C266.823,120.589,266.641,120.631,266.413,120.631z
					 M263.454,117.742c0.041,0.802,0.683,1.736,1.055,2.045c0.298,0.247,1.25,0.629,1.905,0.629c0.186,0,0.33-0.031,0.428-0.091
					C266.88,120.055,265.143,118.796,263.454,117.742z"/>
			</g>
			<g>
				<path d="M263.91,121.171c0,0,1.48,0.393,1.96,0.444c0.48,0.051,1.392,0.699,0.982,0.713c-0.408,0.015-1.938-0.677-2.346-0.662
					c-0.41,0.015-1.092,0.033-1.136-0.142C263.284,121.189,263.91,121.171,263.91,121.171z"/>
				<path d="M266.839,122.436c-0.229,0-0.699-0.164-1.195-0.337c-0.437-0.153-0.931-0.325-1.124-0.325
					c-0.13,0.004-0.274,0.009-0.419,0.009c-0.559,0-0.793-0.065-0.835-0.232c-0.025-0.098-0.008-0.191,0.049-0.267
					c0.152-0.202,0.548-0.219,0.592-0.22l0.016-0.001l0.015,0.004c0.015,0.004,1.477,0.391,1.944,0.441
					c0.378,0.04,1.191,0.492,1.182,0.766c-0.001,0.036-0.02,0.155-0.207,0.161L266.839,122.436z M264.503,121.558
					c0.246,0,0.715,0.164,1.212,0.337c0.415,0.145,0.884,0.309,1.094,0.324c-0.146-0.158-0.64-0.464-0.95-0.497
					c-0.461-0.049-1.791-0.398-1.96-0.443c-0.115,0.006-0.345,0.044-0.412,0.134c-0.013,0.017-0.024,0.04-0.012,0.084l0,0
					c0.004,0,0.089,0.07,0.626,0.07C264.242,121.567,264.384,121.562,264.503,121.558
					C264.502,121.558,264.503,121.558,264.503,121.558z"/>
			</g>
			<g>
				<path d="M266.158,129.047c0.166,0.015,0.316,0.026,0.448,0.031c1.496,0.064,3.458-0.049,5.36-0.997
					c0.864-0.473,1.634-1.1,2.27-1.85c-1.982-1.078-4.102-1.88-6.302-2.383c-0.266-0.062-0.496-0.228-0.64-0.46
					c-0.142-0.232-0.188-0.511-0.126-0.777c0.062-0.265,0.228-0.495,0.46-0.638c0.232-0.144,0.51-0.189,0.776-0.127
					c2.48,0.565,4.864,1.484,7.08,2.729c1.5-2.409,2.346-5.622,0.91-8.638c-1.98-4.168-6.158-5.227-7.64-5.476
					c0.172-0.055,0.348-0.104,0.53-0.144c0.568-0.126,1.114-0.218,1.636-0.286c3.496-0.46,7.058,0.606,9.598,3.051
					c1.388,1.335,2.562,3.156,2.766,5.563c0.352,4.117-0.75,6.347-2.184,8.329c-1.432,1.981-2.526,6.893-2.526,6.893l-12.97-2.525
					L266.158,129.047z"/>
			</g>
			<g>
				<path d="M267.613,136.009c-1.448,0-2.88-0.228-4.256-0.677c-2.151-0.702-4.113-1.939-5.675-3.577l-0.013-0.017
					c-2.231-3.517-2.974-7.695-2.09-11.765c0.886-4.071,3.295-7.564,6.785-9.836c1.555-1.018,3.359-1.56,5.216-1.568h0.03
					c2.266,0,4.513,0.566,6.503,1.638c1.993,1.072,3.705,2.637,4.951,4.526c1.247,1.888,2.012,4.077,2.213,6.332
					c0.203,2.251-0.161,4.542-1.052,6.624c-0.89,2.081-2.297,3.925-4.068,5.334c-1.771,1.409-3.883,2.366-6.11,2.768
					C269.246,135.936,268.427,136.009,267.613,136.009z M257.845,131.614c1.536,1.608,3.464,2.823,5.578,3.513
					c1.354,0.442,2.764,0.666,4.189,0.666c0.801,0,1.608-0.072,2.396-0.214c2.192-0.395,4.271-1.337,6.014-2.724
					c1.743-1.386,3.128-3.202,4.004-5.25c0.877-2.05,1.235-4.305,1.036-6.52c-0.198-2.22-0.951-4.375-2.179-6.232
					c-1.226-1.859-2.911-3.4-4.873-4.455c-1.959-1.055-4.171-1.612-6.398-1.612h-0.033c-1.815,0.008-3.579,0.538-5.099,1.532
					c-3.441,2.241-5.818,5.686-6.692,9.701C254.919,124.03,255.649,128.147,257.845,131.614z"/>
			</g>
			<g>
				<path d="M282.89,126.365c-1.34-0.041-2.382-1.622-2.322-3.531c0.058-1.909,1.192-3.423,2.534-3.382
					c1.342,0.041,2.382,1.622,2.324,3.531C285.368,124.891,284.232,126.406,282.89,126.365z"/>
			</g>
			<g>
				<path fill="#B1B3B6" d="M253.926,138.239c0,0,1.402-0.842,1.494-2.243c0.094-1.401-0.092-1.963-0.092-1.963
					s8.88-5.703,27.388,0.653c0,0,2.244,0.28,1.964,1.31s-0.748,1.495-0.748,2.336s1.776,1.959,2.526,2.15
					c0.27,0.067,1.368,0.63,2.728,1.363c-3.14,3.41-6.976,6.106-11.246,7.907c-4.226,1.757-9.016,2.649-14.23,2.649
					c-6.428,0-12.674-1.361-17.648-2.884l0.11-8.478L253.926,138.239z"/>
			</g>
			<g>
				<path fill="#B1B3B6" d="M280.782,148.396c2.17-4.548,4.966-8.603,7.544-8.661c0.346,0,1.09,0.255,2.1,0.689
					C287.754,143.676,284.48,146.383,280.782,148.396z"/>
			</g>
			<g>
				<path d="M282.716,134.686c0,0,2.244,0.28,1.964,1.31s-0.748,1.495-0.748,2.336c0.01,0.173,0.066,0.341,0.164,0.484
					c-4.448-1.341-17.812-4.863-28.716-2.527c0.02-0.097,0.034-0.196,0.04-0.295c0.096-1.403-0.092-1.963-0.092-1.963
					S264.208,128.329,282.716,134.686z"/>
				<path d="M284.096,138.923c-0.01,0-0.021-0.002-0.031-0.005c-3.295-0.993-11.9-3.303-20.622-3.303
					c-2.924,0-5.629,0.262-8.04,0.778c-0.036,0.008-0.073-0.003-0.098-0.029c-0.026-0.026-0.037-0.063-0.03-0.098
					c0.02-0.097,0.033-0.191,0.038-0.28c0.093-1.357-0.085-1.917-0.087-1.922c-0.015-0.047,0.003-0.098,0.044-0.125
					c0.037-0.024,3.774-2.368,11.239-2.368c4.956,0,10.418,1.012,16.231,3.008c0.15,0.02,1.527,0.218,1.947,0.844
					c0.123,0.183,0.155,0.385,0.097,0.599c-0.117,0.429-0.267,0.765-0.399,1.06c-0.186,0.415-0.346,0.774-0.346,1.247
					c0.009,0.149,0.059,0.297,0.145,0.423c0.026,0.038,0.025,0.087-0.002,0.124C284.162,138.907,284.13,138.923,284.096,138.923z
					 M263.443,135.4c8.546,0,16.976,2.209,20.444,3.24c-0.035-0.097-0.056-0.198-0.062-0.303c0-0.526,0.169-0.904,0.364-1.341
					c0.129-0.289,0.275-0.616,0.388-1.029c0.042-0.154,0.02-0.292-0.068-0.423c-0.38-0.567-1.791-0.75-1.805-0.752
					c-0.007-0.001-0.015-0.003-0.022-0.005c-5.795-1.99-11.236-3-16.172-3c-6.854,0-10.526,1.984-11.056,2.293
					c0.049,0.206,0.151,0.798,0.074,1.92c-0.003,0.048-0.008,0.098-0.014,0.149C257.899,135.653,260.566,135.4,263.443,135.4z"/>
			</g>
			<g>
				<path fill="#B1B3B6" d="M284.784,137.562c0.318,0.001,0.626-0.099,0.882-0.285s0.446-0.448,0.544-0.75
					c0.098-0.301,0.098-0.626-0.002-0.926c-0.098-0.301-0.29-0.563-0.546-0.748c-2.592-1.872-8.4-3.457-15.158-4.135
					c-6.674-0.669-12.646-0.289-15.586,0.995c-0.33,0.178-0.582,0.473-0.704,0.828c-0.122,0.354-0.106,0.742,0.042,1.086
					c0.15,0.344,0.424,0.619,0.766,0.77c0.344,0.152,0.73,0.169,1.086,0.049c2.016-0.881,7.152-1.456,14.088-0.761
					c7.018,0.706,11.942,2.309,13.708,3.584C284.158,137.458,284.468,137.561,284.784,137.562z"/>
				<path d="M284.789,137.67L284.789,137.67h-0.005c-0.338-0.001-0.673-0.113-0.944-0.314c-1.753-1.266-6.655-2.859-13.654-3.563
					c-2.042-0.205-4.022-0.308-5.884-0.308c-3.583,0-6.63,0.396-8.15,1.06c-0.4,0.136-0.806,0.113-1.173-0.049
					c-0.369-0.164-0.66-0.457-0.821-0.826c-0.16-0.371-0.176-0.784-0.045-1.164c0.131-0.38,0.399-0.695,0.755-0.887
					c1.97-0.861,5.309-1.333,9.41-1.333c1.985,0,4.084,0.11,6.238,0.326c6.775,0.68,12.604,2.273,15.21,4.155
					c0.273,0.198,0.481,0.482,0.585,0.802c0.108,0.323,0.108,0.667,0.002,0.993c-0.106,0.325-0.307,0.603-0.583,0.803
					C285.454,137.564,285.129,137.67,284.789,137.67z M264.302,133.269c1.869,0,3.856,0.104,5.905,0.309
					c7.039,0.708,11.983,2.32,13.76,3.604c0.235,0.175,0.525,0.271,0.817,0.272l0.004,0.108v-0.108c0.294,0,0.576-0.091,0.814-0.264
					c0.239-0.173,0.413-0.414,0.505-0.696s0.091-0.579-0.002-0.859c-0.09-0.277-0.27-0.523-0.507-0.694
					c-2.578-1.862-8.366-3.438-15.106-4.115c-2.147-0.215-4.239-0.325-6.217-0.325c-4.072,0-7.38,0.466-9.316,1.311
					c-0.3,0.162-0.532,0.435-0.645,0.764c-0.113,0.329-0.099,0.687,0.039,1.008c0.139,0.319,0.392,0.573,0.711,0.715
					c0.317,0.14,0.679,0.156,1.008,0.045C257.611,133.672,260.69,133.269,264.302,133.269z"/>
			</g>
			<g>
				<path d="M273.292,133.581c-0.007,0-0.013,0-0.02-0.001c-0.573-0.053-1.133-0.087-1.663-0.101
					c-0.119-0.003-0.213-0.102-0.21-0.221c0.003-0.117,0.099-0.21,0.215-0.21c0.002,0,0.004,0,0.006,0
					c0.54,0.014,1.11,0.048,1.693,0.103c0.118,0.011,0.205,0.116,0.194,0.235C273.496,133.497,273.402,133.581,273.292,133.581z"/>
			</g>
			<g>
				<path d="M285.242,137.146c-0.033,0-0.066-0.007-0.098-0.024c-3.244-1.657-6.711-2.785-10.305-3.352
					c-0.118-0.019-0.198-0.129-0.179-0.246s0.13-0.198,0.246-0.179c3.639,0.574,7.15,1.716,10.434,3.394
					c0.106,0.054,0.148,0.184,0.094,0.29C285.396,137.104,285.32,137.146,285.242,137.146z"/>
			</g>
			<g>
				<path d="M284.612,139.401c0.518,0.462,1.12,0.822,1.774,1.059c-1.982,1.372-3.972,4.517-5.604,7.936
					c-0.924,0.5-1.872,0.953-2.842,1.355c-0.058,0.025-0.118,0.047-0.182,0.071C280.192,143.877,283.242,140.642,284.612,139.401z"
					/>
			</g>
			<g>
				<path d="M250.44,139.538c0.002-0.014,0.004-0.028,0.008-0.042l2.462-0.89c-1.12,3.967-2.028,7.991-2.72,12.054
					c-0.312-0.076-0.622-0.153-0.93-0.233l1.37-10.159c0.02-0.129,0.012-0.259-0.02-0.385
					C250.576,139.758,250.518,139.641,250.44,139.538z"/>
			</g>
			<g>
				<path fill="#B1B3B6" d="M239.564,144.111c1.176-0.875,4.432-3.064,9.764-4.912c0.158-0.055,0.33-0.069,0.496-0.039
					c0.166,0.029,0.32,0.101,0.452,0.207c0.13,0.106,0.23,0.245,0.292,0.401c0.064,0.157,0.084,0.326,0.062,0.493l-1.37,10.159
					c-2.56-0.664-5.084-1.457-7.562-2.378c-0.702-0.258-1.394-0.543-2.076-0.855l-0.434-2.085c-0.038-0.184-0.022-0.375,0.044-0.55
					C239.298,144.377,239.414,144.224,239.564,144.111z"/>
			</g>
			<g>
				<path fill="#21B6B2" d="M259.348,140.575l-1.778,8.227l-8.702,0.502l0.944-7.326L259.348,140.575z"/>
				<path d="M248.868,149.411c-0.03,0-0.058-0.012-0.079-0.034c-0.022-0.023-0.032-0.055-0.028-0.087l0.944-7.326
					c0.006-0.048,0.043-0.086,0.091-0.093l9.536-1.403c0.035-0.005,0.07,0.007,0.094,0.033s0.034,0.062,0.027,0.096l-1.778,8.227
					c-0.01,0.047-0.051,0.082-0.099,0.085l-8.702,0.502C248.872,149.411,248.87,149.411,248.868,149.411z M249.909,142.072
					l-0.917,7.116l8.49-0.49l1.728-7.994L249.909,142.072z"/>
			</g>
			<g>
				<path d="M259.348,140.575l1.122,1.683l-1.684,8.319l-1.216-1.776L259.348,140.575z"/>
				<path d="M258.786,150.685c-0.035,0-0.069-0.017-0.089-0.047l-1.216-1.776c-0.017-0.024-0.023-0.055-0.016-0.084l1.778-8.227
					c0.009-0.042,0.043-0.075,0.085-0.083c0.043-0.007,0.086,0.01,0.11,0.046l1.122,1.683c0.016,0.024,0.022,0.053,0.016,0.081
					l-1.684,8.319c-0.009,0.043-0.042,0.076-0.084,0.084C258.8,150.684,258.793,150.685,258.786,150.685z M257.685,148.779
					l1.046,1.527l1.625-8.026l-0.956-1.434L257.685,148.779z"/>
			</g>
			<g>
				<path d="M274.868,146.722c-1.238,0-2.244-0.893-2.244-1.994s1.006-1.994,2.244-1.994c1.24,0,2.244,0.893,2.244,1.994
					S276.108,146.722,274.868,146.722z"/>
			</g>
			<g>
				<path d="M269.384,145.974c-1.238,0-2.242-0.893-2.242-1.994s1.004-1.994,2.242-1.994c1.24,0,2.244,0.893,2.244,1.994
					S270.624,145.974,269.384,145.974z"/>
			</g>
		</g>
	</g>
</g>
<g>
	<defs>
		<rect id="SVGID_3_" x="0" y="0" width="80.167" height="69.667"/>
	</defs>
	<clipPath id="SVGID_4_">
		<use xlink:href="#SVGID_3_"  overflow="visible"/>
	</clipPath>
	<g clip-path="url(#SVGID_4_)">
		<g>
			<path fill="#9BC6C4" d="M59.674,42.491c5.757,0.524,7.277,5.687,4.755,9.639c-1.722,2.69-1.786,5.795-1.372,8.021
				c0.014,0.087-0.002,0.176-0.045,0.254c-0.043,0.077-0.111,0.137-0.193,0.171s-0.172,0.039-0.257,0.015s-0.159-0.076-0.211-0.148
				c-0.309-0.439-0.593-0.895-0.85-1.366c-0.042-0.077-0.108-0.138-0.189-0.172s-0.171-0.04-0.255-0.017s-0.158,0.075-0.21,0.146
				c-0.051,0.071-0.077,0.158-0.073,0.245c0.064,1.857-0.124,4.52-1.352,6.808c-0.037,0.069-0.093,0.125-0.162,0.162
				s-0.147,0.051-0.225,0.043c-0.078-0.008-0.151-0.04-0.21-0.091s-0.102-0.118-0.123-0.193c-0.79-2.826-3.587-7.563-3.885-11.381
				c-0.007-0.094-0.048-0.181-0.115-0.247s-0.155-0.105-0.249-0.111s-0.186,0.022-0.261,0.079c-0.074,0.057-0.126,0.139-0.145,0.231
				c-0.116,0.558-0.196,1.124-0.238,1.693c-0.002,0.094-0.037,0.184-0.1,0.254c-0.063,0.07-0.149,0.115-0.242,0.126
				c-0.093,0.011-0.188-0.011-0.265-0.064c-0.078-0.053-0.134-0.132-0.158-0.223C51.318,50.664,52.322,41.824,59.674,42.491z"/>
		</g>
		<g opacity="0.7" enable-background="new    ">
			<path fill="#B0DDDB" d="M59.345,38.235c4.174,0.408,5.313,4.028,3.515,6.771c-1.227,1.868-1.251,4.037-0.935,5.595
				c0.011,0.061,0,0.123-0.031,0.177c-0.031,0.053-0.079,0.095-0.138,0.118c-0.059,0.023-0.124,0.026-0.186,0.009
				c-0.062-0.017-0.116-0.054-0.154-0.105c-0.227-0.309-0.436-0.63-0.626-0.961c-0.031-0.054-0.08-0.097-0.138-0.122
				c-0.059-0.025-0.124-0.029-0.185-0.013c-0.061,0.016-0.114,0.051-0.151,0.101c-0.037,0.049-0.055,0.11-0.051,0.171
				c0.06,1.299-0.056,3.158-0.929,4.748c-0.026,0.048-0.066,0.087-0.116,0.112c-0.05,0.025-0.106,0.035-0.162,0.028
				c-0.056-0.006-0.11-0.029-0.153-0.065s-0.075-0.083-0.091-0.136c-0.593-1.981-2.654-5.312-2.897-7.982
				c-0.006-0.065-0.036-0.127-0.085-0.174c-0.049-0.046-0.113-0.075-0.181-0.079c-0.068-0.005-0.135,0.014-0.188,0.054
				c-0.054,0.039-0.09,0.096-0.103,0.16c-0.08,0.389-0.133,0.784-0.16,1.181c-0.001,0.066-0.026,0.128-0.071,0.177
				c-0.045,0.048-0.107,0.079-0.175,0.086c-0.067,0.007-0.136-0.009-0.193-0.047c-0.057-0.037-0.098-0.093-0.116-0.157
				C53.353,43.885,54.015,37.715,59.345,38.235z"/>
		</g>
		<g>
			<path fill="#B1B3B6" d="M49.696,49.05l-4.595,0.124v-8.54l4.595-0.124V49.05z"/>
		</g>
		<g>
			<path fill="#B1B3B6" d="M49.954,42.61h-5.05c-0.181,0-0.328,0.147-0.328,0.328v0.007c0,0.181,0.147,0.328,0.328,0.328h5.05
				c0.181,0,0.328-0.147,0.328-0.328v-0.007C50.282,42.757,50.135,42.61,49.954,42.61z"/>
		</g>
		<g>
			<path fill="#B1B3B6" d="M49.954,43.942h-5.05c-0.181,0-0.328,0.147-0.328,0.328v0.007c0,0.181,0.147,0.328,0.328,0.328h5.05
				c0.181,0,0.328-0.147,0.328-0.328V44.27C50.282,44.089,50.135,43.942,49.954,43.942z"/>
		</g>
		<g>
			<path fill="#B1B3B6" d="M49.954,45.275h-5.05c-0.181,0-0.328,0.147-0.328,0.328v0.007c0,0.181,0.147,0.328,0.328,0.328h5.05
				c0.181,0,0.328-0.147,0.328-0.328v-0.007C50.282,45.422,50.135,45.275,49.954,45.275z"/>
		</g>
		<g>
			<path fill="#B1B3B6" d="M49.954,46.607h-5.05c-0.181,0-0.328,0.147-0.328,0.328v0.007c0,0.181,0.147,0.328,0.328,0.328h5.05
				c0.181,0,0.328-0.147,0.328-0.328v-0.007C50.282,46.754,50.135,46.607,49.954,46.607z"/>
		</g>
		<g>
			<path fill="#B1B3B6" d="M49.954,47.94h-5.05c-0.181,0-0.328,0.147-0.328,0.328v0.007c0,0.181,0.147,0.328,0.328,0.328h5.05
				c0.181,0,0.328-0.147,0.328-0.328v-0.007C50.282,48.087,50.135,47.94,49.954,47.94z"/>
		</g>
		<g>
			<path fill="#B1B3B6" d="M44.266,50.638l0.835-1.588h4.595l1.005,1.588H44.266z"/>
		</g>
		<g>
			<path fill="#263238" d="M50.055,42.605c0,0.036-1.175,0.062-2.631,0.062s-2.619-0.026-2.619-0.062s1.172-0.062,2.619-0.062
				C48.871,42.543,50.055,42.577,50.055,42.605z"/>
		</g>
		<g>
			<path fill="#263238" d="M49.947,43.275c0,0.034-1.163,0.062-2.593,0.062c-1.431,0-2.593-0.029-2.593-0.062
				s1.16-0.065,2.593-0.065S49.947,43.239,49.947,43.275z"/>
		</g>
		<g>
			<path fill="#263238" d="M50.088,43.942c0,0.034-1.184,0.062-2.646,0.062c-1.462,0-2.648-0.029-2.648-0.062
				s1.196-0.062,2.648-0.062C48.895,43.88,50.088,43.909,50.088,43.942z"/>
		</g>
		<g>
			<path fill="#263238" d="M49.833,44.605c-0.837,0.063-1.676,0.084-2.514,0.062c-0.838,0.022-1.676,0.001-2.512-0.062
				c0-0.033,1.124-0.062,2.512-0.062C48.706,44.543,49.833,44.572,49.833,44.605z"/>
		</g>
		<g>
			<path fill="#263238" d="M50.014,45.287c0,0.036-1.151,0.062-2.572,0.062s-2.574-0.026-2.574-0.062s1.151-0.062,2.574-0.062
				C48.866,45.225,50.014,45.253,50.014,45.287z"/>
		</g>
		<g>
			<path fill="#263238" d="M50.081,45.938c0,0.036-1.167,0.062-2.607,0.062c-1.44,0-2.605-0.026-2.605-0.062
				s1.167-0.062,2.605-0.062C48.911,45.875,50.081,45.904,50.081,45.938z"/>
		</g>
		<g>
			<path fill="#263238" d="M49.933,46.607c0,0.033-1.1,0.062-2.459,0.062s-2.457-0.029-2.457-0.062
				c0.817-0.063,1.637-0.084,2.457-0.062C48.294,46.524,49.115,46.544,49.933,46.607z"/>
		</g>
		<g>
			<path fill="#263238" d="M49.973,47.27c-0.818,0.063-1.639,0.084-2.459,0.062c-0.819,0.022-1.639,0.001-2.457-0.062
				c0-0.033,1.1-0.062,2.457-0.062C48.87,47.208,49.973,47.237,49.973,47.27z"/>
		</g>
		<g>
			<path fill="#263238" d="M49.816,47.923c-0.813,0.062-1.629,0.082-2.445,0.062c-0.815,0.02-1.631-0.001-2.445-0.062
				c0.813-0.062,1.629-0.082,2.445-0.062C48.186,47.841,49.002,47.862,49.816,47.923z"/>
		</g>
		<g>
			<path fill="#263238" d="M49.796,48.602c-0.786,0.062-1.575,0.082-2.364,0.062c-0.788,0.02-1.577-0.001-2.363-0.062
				c0.786-0.061,1.575-0.082,2.363-0.062C48.221,48.52,49.01,48.541,49.796,48.602z"/>
		</g>
		<g>
			<path fill="#B1B3B6" d="M71.721,49.05l-4.593,0.124v-8.54l4.593-0.124V49.05z"/>
		</g>
		<g>
			<path fill="#B1B3B6" d="M71.979,42.61h-5.05c-0.181,0-0.328,0.147-0.328,0.328v0.007c0,0.181,0.147,0.328,0.328,0.328h5.05
				c0.181,0,0.328-0.147,0.328-0.328v-0.007C72.307,42.757,72.16,42.61,71.979,42.61z"/>
		</g>
		<g>
			<path fill="#B1B3B6" d="M71.979,43.942h-5.05c-0.181,0-0.328,0.147-0.328,0.328v0.007c0,0.181,0.147,0.328,0.328,0.328h5.05
				c0.181,0,0.328-0.147,0.328-0.328V44.27C72.307,44.089,72.16,43.942,71.979,43.942z"/>
		</g>
		<g>
			<path fill="#B1B3B6" d="M71.979,45.275h-5.05c-0.181,0-0.328,0.147-0.328,0.328v0.007c0,0.181,0.147,0.328,0.328,0.328h5.05
				c0.181,0,0.328-0.147,0.328-0.328v-0.007C72.307,45.422,72.16,45.275,71.979,45.275z"/>
		</g>
		<g>
			<path fill="#B1B3B6" d="M71.979,46.607h-5.05c-0.181,0-0.328,0.147-0.328,0.328v0.007c0,0.181,0.147,0.328,0.328,0.328h5.05
				c0.181,0,0.328-0.147,0.328-0.328v-0.007C72.307,46.754,72.16,46.607,71.979,46.607z"/>
		</g>
		<g>
			<path fill="#B1B3B6" d="M71.979,47.94h-5.05c-0.181,0-0.328,0.147-0.328,0.328v0.007c0,0.181,0.147,0.328,0.328,0.328h5.05
				c0.181,0,0.328-0.147,0.328-0.328v-0.007C72.307,48.087,72.16,47.94,71.979,47.94z"/>
		</g>
		<g>
			<path fill="#B1B3B6" d="M66.293,50.638l0.835-1.588h4.593l1.007,1.588H66.293z"/>
		</g>
		<g>
			<path fill="#263238" d="M72.08,42.605c0,0.036-1.172,0.062-2.619,0.062s-2.62-0.026-2.62-0.062s1.172-0.062,2.62-0.062
				C70.908,42.543,72.08,42.577,72.08,42.605z"/>
		</g>
		<g>
			<path fill="#263238" d="M71.972,43.275c0,0.034-1.16,0.062-2.593,0.062s-2.593-0.029-2.593-0.062s1.16-0.065,2.593-0.065
				S71.972,43.239,71.972,43.275z"/>
		</g>
		<g>
			<path fill="#263238" d="M72.116,43.942c0,0.034-1.196,0.062-2.648,0.062s-2.648-0.029-2.648-0.062s1.196-0.062,2.648-0.062
				C70.92,43.88,72.116,43.909,72.116,43.942z"/>
		</g>
		<g>
			<path fill="#263238" d="M71.857,44.605c-0.836,0.063-1.674,0.084-2.512,0.062c-0.838,0.022-1.676,0.001-2.512-0.062
				c0-0.033,1.124-0.062,2.512-0.062C70.733,44.543,71.857,44.572,71.857,44.605z"/>
		</g>
		<g>
			<path fill="#263238" d="M72.042,45.287c0,0.036-1.153,0.062-2.574,0.062s-2.574-0.026-2.574-0.062s1.153-0.062,2.574-0.062
				C70.889,45.225,72.042,45.253,72.042,45.287z"/>
		</g>
		<g>
			<path fill="#263238" d="M72.106,45.938c0,0.036-1.165,0.062-2.605,0.062s-2.607-0.026-2.607-0.062s1.167-0.062,2.607-0.062
				C70.941,45.875,72.106,45.904,72.106,45.938z"/>
		</g>
		<g>
			<path fill="#263238" d="M71.958,46.607c0,0.033-1.1,0.062-2.457,0.062c-1.356,0-2.459-0.029-2.459-0.062
				c0.818-0.063,1.639-0.084,2.459-0.062C70.32,46.524,71.141,46.544,71.958,46.607z"/>
		</g>
		<g>
			<path fill="#263238" d="M71.999,47.27c-0.817,0.063-1.637,0.084-2.457,0.062c-0.82,0.022-1.641,0.001-2.459-0.062
				c0-0.033,1.1-0.062,2.459-0.062C70.901,47.208,71.999,47.237,71.999,47.27z"/>
		</g>
		<g>
			<path fill="#263238" d="M71.836,47.923c-0.813,0.062-1.628,0.082-2.442,0.062c-0.816,0.02-1.632-0.001-2.445-0.062
				c0.813-0.062,1.629-0.082,2.445-0.062C70.208,47.841,71.023,47.862,71.836,47.923z"/>
		</g>
		<g>
			<path fill="#263238" d="M71.824,48.602c-0.786,0.062-1.575,0.082-2.364,0.062c-0.788,0.02-1.577,0-2.363-0.062
				c0.786-0.062,1.575-0.082,2.363-0.062C70.249,48.52,71.038,48.541,71.824,48.602z"/>
		</g>
		<g>
			<path fill="#9D9FA2" d="M51.373-11.236l0.074,42.376h-5.361v-42.187c0-0.758,0.101-1.513,0.301-2.244l2.232-8.16
				c0.088-0.321,0.464-0.313,0.569,0.261l1.943,7.952C51.291-12.583,51.372-11.911,51.373-11.236z"/>
		</g>
		<g>
			<path fill="#231F20" d="M51.237-6.102c0,0.034-1.11,0.062-2.483,0.062s-2.486-0.029-2.486-0.062
				c0.827-0.063,1.656-0.084,2.486-0.062C49.582-6.186,50.411-6.165,51.237-6.102z"/>
		</g>
		<g>
			<path fill="#263238" d="M51.267-0.794c0,0.033-1.146,0.062-2.56,0.062s-2.562-0.029-2.562-0.062
				c0.852-0.065,1.707-0.086,2.562-0.065C49.562-0.88,50.416-0.859,51.267-0.794z"/>
		</g>
		<g>
			<path fill="#263238" d="M47.38-1.906c-0.033,0-0.062-0.151-0.062-0.34s0.029-0.34,0.062-0.34c0.034,0,0.062,0.153,0.062,0.34
				C47.443-2.06,47.423-1.906,47.38-1.906z"/>
		</g>
		<g>
			<path fill="#263238" d="M47.904-1.969c0.034,0,0.062-0.124,0.062-0.277s-0.028-0.277-0.062-0.277
				c-0.034,0-0.062,0.124-0.062,0.277S47.87-1.969,47.904-1.969z"/>
		</g>
		<g>
			<path fill="#263238" d="M51.428,12.88c0,0.036-1.179,0.065-2.631,0.065c-1.452,0-2.632-0.029-2.632-0.065
				s1.179-0.062,2.632-0.062C50.249,12.818,51.428,12.846,51.428,12.88z"/>
		</g>
		<g>
			<path fill="#263238" d="M47.405,14.471c-0.033,0-0.062-0.153-0.062-0.342s0.029-0.342,0.062-0.342
				c0.034,0,0.062,0.153,0.062,0.342S47.441,14.471,47.405,14.471z"/>
		</g>
		<g>
			<path fill="#263238" d="M47.811,14.533c-0.036,0-0.062-0.16-0.062-0.359s0.026-0.357,0.062-0.357c0.036,0,0.062,0.16,0.062,0.357
				C47.873,14.37,47.845,14.533,47.811,14.533z"/>
		</g>
		<g>
			<path fill="#263238" d="M49.682,26.099c-0.601,0.062-1.205,0.082-1.808,0.062c-0.604,0.02-1.208-0.001-1.809-0.062
				c0.601-0.063,1.205-0.084,1.809-0.062C48.477,26.015,49.081,26.036,49.682,26.099z"/>
		</g>
		<g>
			<path fill="#263238" d="M46.636-11.459c0-0.014,0.06-0.019,0.093,0.05c0.011,0.02,0.017,0.043,0.017,0.066
				s-0.006,0.046-0.017,0.066c-0.018,0.024-0.044,0.042-0.073,0.052c-0.029,0.01-0.06,0.01-0.09,0.002
				c-0.029-0.009-0.055-0.026-0.075-0.049c-0.019-0.024-0.031-0.053-0.033-0.083c0-0.023,0.005-0.045,0.016-0.065
				c0.011-0.02,0.027-0.037,0.046-0.049c0.065-0.041,0.112,0,0.105,0c-0.007,0-0.031,0.026-0.045,0.057s-0.012,0.05,0.022,0.062
				c0.033,0.012,0.045,0,0.05-0.041C46.658-11.432,46.631-11.459,46.636-11.459z"/>
		</g>
		<g>
			<path fill="#263238" d="M48.751-11.459c0-0.014,0.06-0.019,0.093,0.05c0.011,0.02,0.017,0.043,0.017,0.066
				s-0.006,0.046-0.017,0.066c-0.018,0.024-0.044,0.042-0.073,0.052c-0.029,0.01-0.06,0.01-0.09,0.002
				c-0.029-0.009-0.055-0.026-0.075-0.049c-0.019-0.024-0.031-0.053-0.033-0.083c0-0.023,0.005-0.045,0.016-0.065
				c0.011-0.02,0.027-0.037,0.046-0.049c0.065-0.041,0.113,0,0.105,0c-0.008,0-0.031,0.026-0.046,0.057
				c-0.014,0.031-0.012,0.05,0.022,0.062c0.034,0.012,0.045,0,0.053-0.041C48.778-11.432,48.747-11.459,48.751-11.459z"/>
		</g>
		<g>
			<path fill="#263238" d="M50.866-11.459c0-0.014,0.06-0.019,0.093,0.05c0.011,0.02,0.017,0.043,0.017,0.066
				s-0.006,0.046-0.017,0.066c-0.018,0.025-0.043,0.043-0.072,0.052s-0.06,0.01-0.089,0c-0.03-0.007-0.057-0.024-0.076-0.048
				c-0.02-0.024-0.032-0.053-0.034-0.084c0-0.023,0.005-0.045,0.016-0.065c0.011-0.02,0.027-0.037,0.046-0.049
				c0.067-0.041,0.112,0,0.105,0c-0.007,0-0.031,0.026-0.045,0.057s0,0.05,0.021,0.062c0.022,0.012,0.046,0,0.053-0.041
				C50.892-11.432,50.861-11.459,50.866-11.459z"/>
		</g>
		<g>
			<path fill="#263238" d="M46.636-0.332c0-0.017,0.06-0.022,0.093,0.048c0.011,0.02,0.017,0.043,0.017,0.066
				s-0.006,0.046-0.017,0.066c-0.018,0.024-0.044,0.043-0.073,0.052c-0.029,0.01-0.06,0.01-0.09,0.002
				c-0.029-0.009-0.055-0.026-0.075-0.049C46.471-0.17,46.46-0.2,46.458-0.23c0-0.023,0.006-0.045,0.016-0.065
				c0.011-0.02,0.027-0.037,0.046-0.049c0.065-0.041,0.112,0,0.105,0c-0.007,0-0.031,0.029-0.045,0.057
				c-0.014,0.029-0.012,0.053,0.022,0.062c0.033,0.01,0.045,0,0.05-0.041C46.657-0.307,46.631-0.316,46.636-0.332z"/>
		</g>
		<g>
			<path fill="#263238" d="M48.751-0.332c0-0.017,0.06-0.022,0.093,0.048c0.011,0.02,0.017,0.043,0.017,0.066
				s-0.006,0.046-0.017,0.066C48.826-0.128,48.8-0.109,48.771-0.1c-0.029,0.01-0.06,0.01-0.09,0.002
				c-0.029-0.009-0.055-0.026-0.075-0.049C48.587-0.171,48.575-0.2,48.573-0.23c0-0.023,0.006-0.045,0.017-0.065
				s0.027-0.037,0.046-0.049c0.065-0.041,0.112,0,0.105,0c-0.007,0-0.031,0.029-0.046,0.057c-0.014,0.029-0.012,0.053,0.022,0.062
				c0.033,0.01,0.045,0,0.053-0.041C48.778-0.308,48.747-0.316,48.751-0.332z"/>
		</g>
		<g>
			<path fill="#263238" d="M50.866-0.332c0-0.017,0.06-0.022,0.093,0.048c0.011,0.02,0.017,0.043,0.017,0.066
				s-0.006,0.046-0.017,0.066c-0.018,0.025-0.043,0.043-0.072,0.052s-0.06,0.01-0.089,0c-0.03-0.008-0.057-0.024-0.076-0.048
				c-0.02-0.024-0.032-0.053-0.034-0.084c0-0.023,0.006-0.045,0.016-0.065c0.011-0.02,0.027-0.037,0.046-0.049
				c0.067-0.041,0.112,0,0.105,0c-0.007,0-0.031,0.029-0.045,0.057c-0.014,0.029,0,0.053,0.021,0.062
				c0.022,0.01,0.046,0,0.053-0.041C50.892-0.308,50.861-0.316,50.866-0.332z"/>
		</g>
		<g>
			<path fill="#263238" d="M46.636,11.88c0-0.017,0.06-0.022,0.093,0.048c0.011,0.02,0.017,0.043,0.017,0.066
				s-0.006,0.046-0.017,0.066c-0.018,0.025-0.043,0.044-0.073,0.053c-0.029,0.01-0.061,0.01-0.09,0.002
				c-0.029-0.009-0.055-0.026-0.075-0.05c-0.019-0.024-0.031-0.053-0.033-0.084c0-0.023,0.006-0.045,0.016-0.065
				c0.011-0.02,0.027-0.037,0.046-0.05c0.065-0.041,0.112,0,0.105,0c-0.007,0-0.031,0.026-0.045,0.055s-0.012,0.053,0.022,0.062
				c0.033,0.01,0.045,0,0.05-0.041C46.658,11.901,46.631,11.897,46.636,11.88z"/>
		</g>
		<g>
			<path fill="#263238" d="M48.751,11.88c0-0.017,0.06-0.022,0.093,0.048c0.011,0.02,0.017,0.043,0.017,0.066
				s-0.006,0.046-0.017,0.066c-0.018,0.025-0.043,0.044-0.072,0.054c-0.029,0.01-0.061,0.01-0.09,0.001
				c-0.03-0.009-0.056-0.026-0.075-0.05c-0.019-0.024-0.031-0.053-0.033-0.084c0-0.023,0.006-0.045,0.017-0.065
				c0.011-0.02,0.027-0.037,0.046-0.05c0.065-0.041,0.112,0,0.105,0c-0.007,0-0.031,0.026-0.046,0.055
				c-0.014,0.029-0.012,0.053,0.022,0.062c0.033,0.01,0.045,0,0.053-0.041C48.778,11.901,48.747,11.897,48.751,11.88z"/>
		</g>
		<g>
			<path fill="#263238" d="M50.866,11.88c0-0.017,0.06-0.022,0.093,0.048c0.011,0.02,0.017,0.043,0.017,0.066
				s-0.006,0.046-0.017,0.066c-0.017,0.025-0.042,0.044-0.071,0.054c-0.029,0.01-0.06,0.01-0.089,0.001
				c-0.03-0.008-0.057-0.026-0.076-0.05c-0.02-0.024-0.032-0.053-0.034-0.084c0-0.023,0.006-0.045,0.016-0.065
				c0.011-0.02,0.027-0.037,0.046-0.05c0.067-0.041,0.112,0,0.105,0c-0.007,0-0.031,0.026-0.045,0.055s0,0.053,0.021,0.062
				c0.022,0.01,0.046,0,0.053-0.041C50.892,11.901,50.861,11.897,50.866,11.88z"/>
		</g>
		<g>
			<path fill="#263238" d="M46.636,25.195c0-0.017,0.06-0.021,0.093,0.048c0.011,0.02,0.017,0.043,0.017,0.066
				s-0.006,0.046-0.017,0.066c-0.018,0.024-0.044,0.043-0.073,0.052c-0.029,0.009-0.06,0.01-0.09,0.001
				c-0.029-0.008-0.055-0.026-0.075-0.049c-0.019-0.024-0.031-0.053-0.033-0.083c0-0.023,0.006-0.045,0.016-0.065
				c0.011-0.02,0.027-0.037,0.046-0.05c0.065-0.041,0.112,0,0.105,0c-0.007,0-0.031,0.029-0.045,0.057
				c-0.014,0.029-0.012,0.053,0.022,0.062c0.033,0.01,0.045,0,0.05-0.041C46.658,25.219,46.631,25.212,46.636,25.195z"/>
		</g>
		<g>
			<path fill="#263238" d="M48.751,25.195c0-0.017,0.06-0.021,0.093,0.048c0.011,0.02,0.017,0.043,0.017,0.066
				s-0.006,0.046-0.017,0.066c-0.018,0.024-0.044,0.043-0.073,0.052c-0.029,0.009-0.06,0.01-0.09,0.001
				c-0.029-0.008-0.055-0.026-0.075-0.049c-0.019-0.024-0.031-0.053-0.033-0.083c0-0.023,0.006-0.045,0.017-0.065
				c0.011-0.02,0.027-0.037,0.046-0.05c0.065-0.041,0.112,0,0.105,0c-0.007,0-0.031,0.029-0.046,0.057
				c-0.014,0.029-0.012,0.053,0.022,0.062c0.033,0.01,0.045,0,0.053-0.041C48.778,25.219,48.747,25.212,48.751,25.195z"/>
		</g>
		<g>
			<path fill="#9D9FA2" d="M65.844-11.236L65.767,31.14h5.361v-42.187c-0.001-0.758-0.102-1.513-0.301-2.244l-2.232-8.16
				c-0.088-0.321-0.464-0.313-0.569,0.261l-1.942,7.952C65.923-12.583,65.843-11.911,65.844-11.236z"/>
		</g>
		<g>
			<path fill="#231F20" d="M65.984-6.102c0.826-0.063,1.655-0.084,2.483-0.062c0.829-0.022,1.659-0.001,2.485,0.062
				c0,0.033-1.112,0.062-2.485,0.062S65.984-6.069,65.984-6.102z"/>
		</g>
		<g>
			<path fill="#263238" d="M65.953-0.794c0.852-0.065,1.707-0.086,2.562-0.065c0.854-0.022,1.708,0,2.56,0.065
				c0,0.033-1.146,0.062-2.56,0.062C67.102-0.732,65.953-0.761,65.953-0.794z"/>
		</g>
		<g>
			<path fill="#263238" d="M69.841-1.906c-0.034,0-0.062-0.151-0.062-0.34s0.029-0.34,0.062-0.34s0.062,0.153,0.062,0.34
				C69.903-2.06,69.877-1.906,69.841-1.906z"/>
		</g>
		<g>
			<path fill="#263238" d="M69.317-1.969c0.034,0,0.062-0.124,0.062-0.277s-0.028-0.277-0.062-0.277s-0.062,0.124-0.062,0.277
				S69.283-1.969,69.317-1.969z"/>
		</g>
		<g>
			<path fill="#263238" d="M65.793,12.88c0-0.034,1.182-0.062,2.631-0.062c1.45,0,2.631,0.029,2.631,0.062s-1.179,0.065-2.631,0.065
				C66.973,12.944,65.793,12.916,65.793,12.88z"/>
		</g>
		<g>
			<path fill="#263238" d="M69.817,14.471c-0.034,0-0.062-0.153-0.062-0.342s0.029-0.342,0.062-0.342s0.062,0.153,0.062,0.342
				S69.851,14.471,69.817,14.471z"/>
		</g>
		<g>
			<path fill="#263238" d="M69.413,14.533c-0.036,0-0.062-0.16-0.062-0.359s0.026-0.357,0.062-0.357s0.062,0.16,0.062,0.357
				C69.475,14.37,69.446,14.533,69.413,14.533z"/>
		</g>
		<g>
			<path fill="#263238" d="M67.539,26.099c0.601-0.063,1.205-0.084,1.809-0.062c0.604-0.022,1.209-0.001,1.811,0.062
				c-0.602,0.062-1.207,0.082-1.811,0.062C68.744,26.181,68.14,26.16,67.539,26.099z"/>
		</g>
		<g>
			<path fill="#263238" d="M70.585-11.459c0,0.017-0.012,0.041,0,0.074s0.019,0.048,0.05,0.041c0.031-0.007,0.038-0.026,0.024-0.062
				s-0.043-0.041-0.048-0.057c-0.005-0.017,0.041-0.048,0.105,0c0.019,0.012,0.035,0.029,0.046,0.049
				c0.011,0.02,0.016,0.043,0.016,0.066c-0.002,0.031-0.013,0.06-0.032,0.083c-0.019,0.024-0.046,0.041-0.075,0.048
				c-0.029,0.009-0.061,0.009-0.09,0s-0.055-0.028-0.073-0.053c-0.011-0.02-0.017-0.043-0.017-0.066s0.006-0.046,0.017-0.066
				C70.525-11.485,70.585-11.48,70.585-11.459z"/>
		</g>
		<g>
			<path fill="#263238" d="M68.475-11.459c0,0.017-0.012,0.041,0,0.074s0.017,0.048,0.05,0.041c0.034-0.007,0.038-0.026,0.022-0.062
				c-0.017-0.036-0.041-0.041-0.045-0.057c-0.005-0.017,0.041-0.048,0.105,0c0.019,0.012,0.035,0.029,0.046,0.049
				c0.011,0.02,0.016,0.043,0.016,0.066c-0.002,0.031-0.013,0.06-0.032,0.083c-0.019,0.024-0.046,0.041-0.075,0.048
				c-0.029,0.009-0.061,0.009-0.09,0s-0.055-0.028-0.073-0.053c-0.011-0.02-0.017-0.043-0.017-0.066s0.006-0.046,0.017-0.066
				C68.41-11.485,68.475-11.48,68.475-11.459z"/>
		</g>
		<g>
			<path fill="#263238" d="M66.355-11.459c0,0.017-0.012,0.041,0,0.074s0.017,0.048,0.05,0.041c0.033-0.007,0.038-0.026,0.021-0.062
				s-0.041-0.041-0.045-0.057c-0.005-0.017,0.041-0.048,0.105,0c0.019,0.012,0.035,0.029,0.046,0.049s0.017,0.043,0.016,0.066
				c-0.002,0.03-0.014,0.059-0.033,0.083c-0.019,0.024-0.045,0.041-0.075,0.049c-0.029,0.009-0.06,0.008-0.089-0.002
				s-0.054-0.028-0.073-0.052c-0.011-0.02-0.017-0.043-0.017-0.066s0.006-0.046,0.017-0.066
				C66.295-11.485,66.355-11.48,66.355-11.459z"/>
		</g>
		<g>
			<path fill="#263238" d="M70.585-0.332c0,0.017-0.012,0.038,0,0.072s0.019,0.05,0.05,0.041c0.031-0.01,0.038-0.026,0.024-0.062
				s-0.043-0.041-0.048-0.057c-0.005-0.017,0.041-0.048,0.105,0c0.019,0.012,0.035,0.029,0.046,0.049
				c0.011,0.02,0.017,0.043,0.017,0.065c-0.002,0.031-0.013,0.06-0.032,0.083c-0.019,0.024-0.046,0.04-0.075,0.048
				c-0.029,0.009-0.061,0.009-0.09,0s-0.055-0.028-0.073-0.053c-0.011-0.02-0.017-0.043-0.017-0.066s0.006-0.046,0.017-0.066
				C70.525-0.354,70.585-0.349,70.585-0.332z"/>
		</g>
		<g>
			<path fill="#263238" d="M68.475-0.332c0,0.017-0.012,0.038,0,0.072s0.017,0.05,0.05,0.041c0.034-0.01,0.038-0.026,0.022-0.062
				s-0.041-0.041-0.045-0.057c-0.005-0.017,0.041-0.048,0.105,0c0.019,0.012,0.035,0.029,0.046,0.049
				c0.011,0.02,0.016,0.043,0.016,0.065c-0.002,0.031-0.013,0.06-0.032,0.083c-0.019,0.024-0.046,0.04-0.075,0.048
				c-0.029,0.009-0.061,0.009-0.09,0s-0.055-0.028-0.073-0.053c-0.011-0.02-0.017-0.043-0.017-0.066s0.006-0.046,0.017-0.066
				C68.41-0.354,68.475-0.349,68.475-0.332z"/>
		</g>
		<g>
			<path fill="#263238" d="M66.355-0.332c0,0.017-0.012,0.038,0,0.072s0.017,0.05,0.05,0.041c0.033-0.01,0.038-0.026,0.021-0.062
				s-0.041-0.041-0.045-0.057c-0.005-0.017,0.041-0.048,0.105,0c0.019,0.012,0.035,0.029,0.046,0.049s0.017,0.043,0.016,0.065
				c-0.002,0.03-0.014,0.059-0.033,0.083C66.496-0.117,66.47-0.1,66.44-0.092c-0.029,0.009-0.06,0.008-0.089-0.002
				s-0.054-0.028-0.073-0.052c-0.011-0.02-0.017-0.043-0.017-0.066s0.006-0.046,0.017-0.066C66.295-0.354,66.355-0.349,66.355-0.332
				z"/>
		</g>
		<g>
			<path fill="#263238" d="M70.585,11.88c0,0.017-0.012,0.038,0,0.072c0.012,0.033,0.019,0.05,0.05,0.041
				c0.031-0.01,0.038-0.024,0.024-0.062c-0.014-0.038-0.043-0.038-0.048-0.055c-0.005-0.017,0.041-0.05,0.105,0
				c0.019,0.012,0.035,0.029,0.046,0.05c0.011,0.02,0.017,0.042,0.017,0.065c-0.003,0.03-0.014,0.059-0.033,0.083
				c-0.019,0.024-0.045,0.041-0.075,0.049c-0.029,0.009-0.061,0.008-0.09-0.002s-0.054-0.028-0.073-0.052
				c-0.011-0.02-0.017-0.043-0.017-0.066s0.006-0.046,0.017-0.066C70.525,11.858,70.585,11.863,70.585,11.88z"/>
		</g>
		<g>
			<path fill="#263238" d="M68.475,11.88c0,0.017-0.012,0.038,0,0.072c0.012,0.033,0.017,0.05,0.05,0.041
				c0.034-0.01,0.038-0.024,0.022-0.062c-0.017-0.038-0.041-0.038-0.045-0.055c-0.005-0.017,0.041-0.05,0.105,0
				c0.019,0.012,0.035,0.029,0.046,0.05c0.011,0.02,0.016,0.042,0.016,0.065c-0.002,0.03-0.014,0.059-0.033,0.083
				c-0.019,0.024-0.045,0.041-0.075,0.049c-0.029,0.009-0.061,0.008-0.089-0.002c-0.029-0.01-0.054-0.028-0.073-0.052
				c-0.011-0.02-0.017-0.043-0.017-0.066s0.006-0.046,0.017-0.066C68.41,11.858,68.475,11.863,68.475,11.88z"/>
		</g>
		<g>
			<path fill="#263238" d="M66.355,11.88c0,0.017-0.012,0.038,0,0.072c0.012,0.033,0.017,0.05,0.05,0.041
				c0.033-0.01,0.038-0.024,0.021-0.062c-0.017-0.038-0.041-0.038-0.045-0.055c-0.005-0.017,0.041-0.05,0.105,0
				c0.019,0.012,0.035,0.029,0.046,0.05c0.011,0.02,0.017,0.042,0.016,0.065c-0.002,0.031-0.014,0.06-0.033,0.084
				c-0.019,0.024-0.045,0.042-0.075,0.05c-0.029,0.009-0.061,0.008-0.09-0.002s-0.055-0.028-0.073-0.053
				c-0.011-0.02-0.017-0.043-0.017-0.066s0.006-0.046,0.017-0.066C66.295,11.858,66.355,11.863,66.355,11.88z"/>
		</g>
		<g>
			<path fill="#263238" d="M70.585,25.195c0,0.017-0.012,0.038,0,0.072c0.012,0.033,0.019,0.05,0.05,0.041
				c0.031-0.01,0.038-0.026,0.024-0.062c-0.014-0.036-0.043-0.041-0.048-0.057c-0.005-0.017,0.041-0.048,0.105,0
				c0.019,0.012,0.035,0.029,0.046,0.049c0.011,0.02,0.017,0.043,0.017,0.065c-0.002,0.031-0.013,0.06-0.032,0.083
				c-0.019,0.024-0.046,0.041-0.075,0.048c-0.029,0.009-0.061,0.009-0.09,0s-0.055-0.028-0.073-0.053
				c-0.011-0.02-0.017-0.043-0.017-0.066s0.006-0.046,0.017-0.066C70.525,25.173,70.585,25.178,70.585,25.195z"/>
		</g>
		<g>
			<path fill="#263238" d="M68.475,25.195c0,0.017-0.012,0.038,0,0.072c0.012,0.033,0.017,0.05,0.05,0.041
				c0.034-0.01,0.038-0.026,0.022-0.062c-0.017-0.036-0.041-0.041-0.045-0.057c-0.005-0.017,0.041-0.048,0.105,0
				c0.019,0.012,0.035,0.029,0.046,0.049c0.011,0.02,0.016,0.043,0.016,0.065c-0.002,0.031-0.013,0.06-0.032,0.083
				c-0.019,0.024-0.046,0.041-0.075,0.048c-0.029,0.009-0.061,0.009-0.09,0s-0.055-0.028-0.073-0.053
				c-0.011-0.02-0.017-0.043-0.017-0.066s0.006-0.046,0.017-0.066C68.41,25.173,68.475,25.178,68.475,25.195z"/>
		</g>
		<g>
			<path fill="#263238" d="M75.807,38.412l-0.062,1.787L62.954,42.07l0.055-3.261L75.807,38.412z"/>
		</g>
		<g>
			<path d="M58.506-37.658c0,0-6.399,7.483-6.571,14.444c-0.167,6.768,0,25.482,0,25.482v22.805h13.157v-46.545
				c0,0-0.122-2.753-1.316-6.978C62.666-32.323,58.506-37.658,58.506-37.658z"/>
		</g>
		<g>
			<path fill="#263238" d="M52.686-4.402c0,0,0,0,0,0.026v0.019h-0.014v-0.012h0.014v0.043h-0.019
				c-0.031-0.478-0.053-3.186-0.053-6.437c0-1.799,0.012-3.426,0.017-4.627c0-0.579,0.017-1.053,0.022-1.402
				c0-0.153,0-0.28,0.012-0.38c-0.007-0.044-0.007-0.09,0-0.134c0.009,0.044,0.013,0.089,0.012,0.134c0,0.1,0,0.227,0.012,0.38
				c0,0.349,0,0.823,0.019,1.402c0,1.196,0.012,2.828,0.019,4.627c0,3.251-0.024,5.947-0.053,6.437h-0.019v-0.043h0.031v0.012
				h-0.014v-0.019C52.669-4.392,52.672-4.402,52.686-4.402z"/>
		</g>
		<g>
			<path fill="#263238" d="M64.937-4.325c-0.033,0-0.062-2.907-0.062-6.49s0.029-6.49,0.062-6.49c0.034,0,0.062,2.907,0.062,6.49
				S64.97-4.325,64.937-4.325z"/>
		</g>
		<g>
			<path fill="#263238" d="M65.076-4.325c0,0.034-2.947,0.062-6.581,0.062s-6.579-0.029-6.579-0.062s2.945-0.062,6.579-0.062
				C62.129-4.387,65.076-4.359,65.076-4.325z"/>
		</g>
		<g>
			<path fill="#E0E0E0" d="M53.684,39.074l-12.607-0.39c0,0,0.478-4.148,0.88-4.545c0.588-0.586,10.562-10.875,10.562-10.875
				S54.27,1.16,54.416,0.524c0.146-0.636,2.933-8.746,3.079-8.94c0.146-0.194,0.292-0.636,1.026-0.684s1.172,0.78,1.172,0.78
				s2.835,8.992,2.981,9.724l2.316,22.355c0.038,0.268,10.157,10.765,10.387,11.27c0.23,0.505,0.423,3.385,0.423,3.385
				l-12.588,0.923L53.684,39.074z"/>
		</g>
		<g>
			<path fill="#F5F5F5" d="M62.666,1.127c-0.414-1.536-2.93-9.516-2.93-9.516s-0.438-0.83-1.172-0.782s-0.878,0.49-1.026,0.684
				S54.6-0.181,54.462,0.455c-0.014,0.057-0.041,0.292-0.079,0.672L62.666,1.127L62.666,1.127z"/>
		</g>
		<g>
			<path fill="#F5F5F5" d="M53.935,42.658l-0.105-6.181l0.73-2.318l-0.041-18.788L54.383,1.128h8.284l-0.153,33.051l0.837,2.189
				v9.208h-4.332l-0.069-9.483c-0.001-0.115-0.047-0.225-0.128-0.306c-0.081-0.081-0.192-0.127-0.307-0.127
				c-0.116,0.001-0.226,0.047-0.308,0.129c-0.082,0.082-0.127,0.193-0.127,0.309l0.022,9.478h-4.127L53.935,42.658z"/>
		</g>
		<g>
			<path fill="#263238" d="M41.077,38.684l0.062,1.785L53.93,42.34l-0.055-3.258L41.077,38.684z"/>
		</g>
		<g>
			<path fill="#263238" d="M41.235,37.582c0-0.036,2.799-0.062,6.248-0.062c3.449,0,6.248,0.026,6.248,0.062
				s-2.796,0.062-6.248,0.062C44.031,37.644,41.235,37.603,41.235,37.582z"/>
		</g>
		<g>
			<path fill="#263238" d="M42.221,38.72c-0.061-0.186-0.082-0.382-0.062-0.576c-0.02-0.194,0.001-0.389,0.062-0.574
				c0.062,0.185,0.083,0.381,0.062,0.574C42.304,38.338,42.282,38.535,42.221,38.72z"/>
		</g>
		<g>
			<path fill="#263238" d="M43.242,38.696c-0.083-0.359-0.083-0.732,0-1.091C43.325,37.964,43.325,38.338,43.242,38.696z"/>
		</g>
		<g>
			<path fill="#263238" d="M44.405,38.778c-0.083-0.394-0.083-0.802,0-1.196C44.488,37.976,44.488,38.383,44.405,38.778z"/>
		</g>
		<g>
			<path fill="#263238" d="M45.531,38.823c-0.086-0.413-0.086-0.84,0-1.254C45.614,37.983,45.614,38.409,45.531,38.823z"/>
		</g>
		<g>
			<path fill="#263238" d="M46.586,38.857c-0.083-0.425-0.083-0.862,0-1.287C46.669,37.995,46.669,38.432,46.586,38.857z"/>
		</g>
		<g>
			<path fill="#263238" d="M47.692,38.857c-0.083-0.425-0.083-0.862,0-1.287C47.775,37.995,47.775,38.432,47.692,38.857z"/>
		</g>
		<g>
			<path fill="#263238" d="M48.797,38.857c-0.083-0.425-0.083-0.862,0-1.287C48.88,37.995,48.88,38.432,48.797,38.857z"/>
		</g>
		<g>
			<path fill="#263238" d="M49.902,38.957c-0.083-0.459-0.083-0.929,0-1.388C49.985,38.028,49.985,38.498,49.902,38.957z"/>
		</g>
		<g>
			<path fill="#263238" d="M51.012,38.993c-0.083-0.471-0.083-0.953,0-1.423C51.095,38.04,51.095,38.522,51.012,38.993z"/>
		</g>
		<g>
			<path fill="#263238" d="M52.112,39.113c-0.083-0.511-0.083-1.032,0-1.543C52.195,38.081,52.195,38.602,52.112,39.113z"/>
		</g>
		<g>
			<path fill="#263238" d="M53.217,38.857c0.034,0.109,0.048,0.223,0.043,0.337v0.081v0.081h-0.096V39.16c0-0.146,0-0.292,0-0.445
				c-0.021-0.384-0.001-0.769,0.062-1.148c0.061,0.38,0.082,0.764,0.062,1.148c0,0.153,0,0.299,0,0.445v0.196h-0.124v-0.163
				C53.162,39.079,53.18,38.965,53.217,38.857z"/>
		</g>
		<g>
			<path fill="#231F20" d="M50.062,36.455c0.912,0,1.651-0.739,1.651-1.651s-0.739-1.651-1.651-1.651s-1.651,0.739-1.651,1.651
				S49.15,36.455,50.062,36.455z"/>
		</g>
		<g>
			<path fill="#263238" d="M41.799,36.94c0-0.129,0.421-2.136,0.421-2.136L52.813,23.8l0.155-6.182l-0.45,5.636L42.079,33.933
				c-0.247,0.255-0.41,0.58-0.467,0.931l-0.409,2.742L41.799,36.94z"/>
		</g>
		<g>
			<path fill="#263238" d="M58.385,5.409c0.036,0,0.062,6.76,0.062,15.095c0,8.334-0.026,15.097-0.062,15.097
				c-0.036,0-0.062-6.758-0.062-15.097C58.323,12.164,58.351,5.409,58.385,5.409z"/>
		</g>
		<g>
			<path fill="#B1B3B6" d="M58.263,2.957h-0.584v1.029h0.584V2.957z"/>
		</g>
		<g>
			<path fill="#B1B3B6" d="M59.573,2.957h-0.584v1.029h0.584V2.957z"/>
		</g>
		<g>
			<path fill="#263238" d="M56.155,0.316l0.756,0.797h3.237l0.758-0.761c0,0-0.792-0.799-2.392-0.799
				C57.668-0.443,56.843-0.177,56.155,0.316z"/>
		</g>
		<g>
			<path fill="#263238" d="M62.648,5.105c0,0.036-1.842,0.062-4.112,0.062c-2.27,0-4.115-0.026-4.115-0.062s1.842-0.062,4.115-0.062
				C60.808,5.043,62.648,5.072,62.648,5.105z"/>
		</g>
		<g>
			<path fill="#263238" d="M61.37-3.229c0,0.034-1.244,0.062-2.78,0.062c-1.536,0-2.777-0.029-2.777-0.062s1.244-0.062,2.777-0.062
				C60.123-3.291,61.37-3.263,61.37-3.229z"/>
		</g>
		<g>
			<path fill="#263238" d="M55.124,5.804c0,0.019-0.031,0.033-0.043,0.074s0,0.074,0.048,0.079c0.048,0.005,0.062-0.029,0.055-0.074
				c-0.007-0.045-0.036-0.06-0.034-0.077s0.06-0.031,0.112,0.036c0.014,0.021,0.024,0.044,0.027,0.069
				c0.003,0.025,0.001,0.05-0.008,0.074c-0.014,0.03-0.037,0.055-0.066,0.071c-0.028,0.017-0.061,0.025-0.094,0.023
				c-0.033-0.002-0.065-0.013-0.091-0.033s-0.047-0.047-0.058-0.078c-0.006-0.025-0.006-0.05,0-0.075
				c0.006-0.025,0.018-0.047,0.036-0.066C55.079,5.765,55.129,5.789,55.124,5.804z"/>
		</g>
		<g>
			<path fill="#263238" d="M55.952,5.804c0,0.019-0.031,0.033-0.043,0.074s0,0.074,0.048,0.079c0.048,0.005,0.062-0.029,0.055-0.074
				c-0.007-0.045-0.036-0.06-0.033-0.077s0.06-0.031,0.112,0.036c0.014,0.021,0.024,0.044,0.027,0.069
				c0.003,0.025,0.001,0.05-0.008,0.074c-0.014,0.03-0.036,0.056-0.065,0.073s-0.062,0.025-0.095,0.023
				c-0.033-0.001-0.066-0.012-0.092-0.032c-0.027-0.02-0.046-0.048-0.056-0.08c-0.007-0.025-0.007-0.051,0-0.075
				c0.006-0.025,0.019-0.047,0.036-0.066C55.894,5.765,55.957,5.789,55.952,5.804z"/>
		</g>
		<g>
			<path fill="#263238" d="M56.848,5.804c0,0.019-0.031,0.033-0.043,0.074s0,0.074,0.048,0.079c0.048,0.005,0.062-0.029,0.055-0.074
				c-0.007-0.045-0.036-0.06-0.033-0.077s0.06-0.031,0.112,0.036c0.014,0.021,0.024,0.044,0.027,0.069
				c0.003,0.025,0.001,0.05-0.008,0.074c-0.014,0.03-0.036,0.056-0.065,0.073s-0.062,0.025-0.095,0.023
				c-0.033-0.001-0.066-0.012-0.092-0.032c-0.027-0.02-0.046-0.048-0.056-0.08c-0.007-0.025-0.007-0.051-0.001-0.075
				c0.006-0.025,0.019-0.047,0.036-0.066C56.791,5.765,56.853,5.789,56.848,5.804z"/>
		</g>
		<g>
			<path fill="#263238" d="M57.746,5.804c0,0.019-0.031,0.033-0.043,0.074s0,0.074,0.048,0.079c0.048,0.005,0.062-0.029,0.055-0.074
				c-0.007-0.045-0.036-0.06-0.034-0.077s0.06-0.031,0.112,0.036c0.014,0.021,0.024,0.044,0.027,0.069
				c0.003,0.025,0.001,0.05-0.008,0.074c-0.014,0.03-0.036,0.056-0.065,0.073s-0.062,0.025-0.095,0.023
				C57.71,6.08,57.677,6.069,57.65,6.049s-0.046-0.048-0.056-0.08c-0.007-0.025-0.007-0.051-0.001-0.075
				c0.006-0.025,0.019-0.047,0.037-0.066C57.689,5.765,57.751,5.789,57.746,5.804z"/>
		</g>
		<g>
			<path fill="#263238" d="M62.516,27.152c0,0.036-1.796,0.062-4.012,0.062c-2.215,0-4.012-0.026-4.012-0.062
				s1.794-0.062,4.012-0.062S62.516,27.118,62.516,27.152z"/>
		</g>
		<g>
			<path fill="#263238" d="M62.595,12.916c0,0.034-1.813,0.062-4.05,0.062s-4.05-0.029-4.05-0.062s1.813-0.062,4.05-0.062
				C60.781,12.853,62.595,12.88,62.595,12.916z"/>
		</g>
		<g>
			<path fill="#263238" d="M62.595,20.597c0,0.033-1.792,0.062-4.002,0.062S54.6,20.618,54.6,20.597c0-0.022,1.792-0.062,4-0.062
				S62.595,20.552,62.595,20.597z"/>
		</g>
		<g>
			<path fill="#263238" d="M57.973,36.534c-0.693,0.062-1.39,0.082-2.086,0.062c-0.697,0.02-1.394-0.001-2.088-0.062
				c0.694-0.063,1.392-0.084,2.088-0.062C56.583,36.45,57.279,36.471,57.973,36.534z"/>
		</g>
		<g>
			<path fill="#263238" d="M58.002,38.232c-0.671,0.065-1.345,0.086-2.019,0.065c-0.673,0.022-1.346,0-2.017-0.065
				c0.67-0.062,1.344-0.082,2.017-0.062C56.657,38.15,57.331,38.171,58.002,38.232z"/>
		</g>
		<g>
			<path fill="#263238" d="M58.086,39.687c-0.689,0.063-1.382,0.084-2.074,0.062c-0.692,0.022-1.385,0.001-2.074-0.062
				c0.689-0.062,1.382-0.082,2.074-0.062C56.704,39.604,57.396,39.625,58.086,39.687z"/>
		</g>
		<g>
			<path fill="#263238" d="M58.028,41.251c-0.675,0.062-1.353,0.082-2.031,0.062c-0.678,0.02-1.356-0.001-2.031-0.062
				c0.675-0.063,1.353-0.084,2.031-0.062C56.675,41.167,57.353,41.188,58.028,41.251z"/>
		</g>
		<g>
			<path fill="#263238" d="M58.028,42.679c-0.675,0.062-1.353,0.082-2.031,0.062c-0.678,0.02-1.356-0.001-2.031-0.062
				c0.675-0.062,1.353-0.082,2.031-0.062C56.675,42.597,57.353,42.618,58.028,42.679z"/>
		</g>
		<g>
			<path fill="#263238" d="M58.028,44.108c-0.675,0.063-1.353,0.084-2.031,0.062c-0.678,0.022-1.356,0.001-2.031-0.062
				c0.675-0.062,1.353-0.082,2.031-0.062C56.675,44.025,57.353,44.046,58.028,44.108z"/>
		</g>
		<g>
			<path fill="#263238" d="M63.171,36.534c-0.694,0.062-1.392,0.082-2.088,0.062c-0.696,0.02-1.393-0.001-2.086-0.062
				c0.693-0.063,1.39-0.084,2.086-0.062C61.78,36.45,62.477,36.471,63.171,36.534z"/>
		</g>
		<g>
			<path fill="#263238" d="M63.198,38.232c-0.67,0.065-1.344,0.086-2.017,0.065c-0.673,0.022-1.347,0-2.017-0.065
				c0.67-0.062,1.344-0.082,2.017-0.062C61.854,38.15,62.527,38.171,63.198,38.232z"/>
		</g>
		<g>
			<path fill="#263238" d="M63.281,39.687c-0.689,0.063-1.38,0.084-2.072,0.062c-0.692,0.022-1.385,0.001-2.074-0.062
				c0.69-0.062,1.382-0.082,2.074-0.062C61.901,39.604,62.593,39.625,63.281,39.687z"/>
		</g>
		<g>
			<path fill="#263238" d="M63.226,41.251c-0.675,0.062-1.353,0.082-2.031,0.062c-0.678,0.02-1.356-0.001-2.031-0.062
				c0.675-0.063,1.353-0.084,2.031-0.062C61.873,41.167,62.551,41.188,63.226,41.251z"/>
		</g>
		<g>
			<path fill="#263238" d="M63.226,42.679c-0.675,0.062-1.353,0.082-2.031,0.062c-0.678,0.02-1.356-0.001-2.031-0.062
				c0.675-0.062,1.353-0.082,2.031-0.062C61.873,42.597,62.551,42.618,63.226,42.679z"/>
		</g>
		<g>
			<path fill="#263238" d="M63.226,44.108c-0.675,0.063-1.353,0.084-2.031,0.062c-0.678,0.022-1.356,0.001-2.031-0.062
				c0.675-0.062,1.353-0.082,2.031-0.062C61.873,44.025,62.551,44.046,63.226,44.108z"/>
		</g>
		<g>
			<path fill="#FFFFFF" d="M58.863,0.007c0.019,0.029-0.206,0.199-0.5,0.378c-0.17,0.126-0.362,0.218-0.567,0.273
				c-0.019-0.031,0.206-0.199,0.5-0.378C58.465,0.153,58.658,0.06,58.863,0.007z"/>
		</g>
		<g>
			<path fill="#FFFFFF" d="M59.253,0.043c0.029,0.033-0.175,0.194-0.438,0.354c-0.151,0.117-0.326,0.198-0.512,0.239
				c-0.017-0.031,0.184-0.184,0.447-0.344C58.903,0.181,59.073,0.097,59.253,0.043z"/>
		</g>
		<g>
			<path fill="#263238" d="M54.406,0.622c0.036,0,0.088,7.488,0.122,16.722c0.033,9.234,0.029,16.726,0,16.726
				s-0.089-7.485-0.12-16.724C54.378,8.107,54.373,0.622,54.406,0.622z"/>
		</g>
		<g>
			<path fill="#263238" d="M62.516,33.993c-0.036,0-0.029-7.043,0.012-15.729s0.103-15.729,0.139-15.729
				c0.036,0,0.029,7.04-0.014,15.729C62.609,26.953,62.549,33.993,62.516,33.993z"/>
		</g>
		<g>
			<path fill="#263238" d="M75.651,37.594c0,0.033-2.796,0.062-6.248,0.062c-3.452,0-6.248-0.029-6.248-0.062
				c0-0.034,2.796-0.062,6.248-0.062C72.855,37.531,75.651,37.558,75.651,37.594z"/>
		</g>
		<g>
			<path fill="#263238" d="M74.663,38.744c-0.06-0.186-0.082-0.382-0.062-0.577c-0.02-0.194,0.002-0.389,0.062-0.574
				c0.061,0.185,0.082,0.38,0.062,0.574C74.745,38.362,74.724,38.558,74.663,38.744z"/>
		</g>
		<g>
			<path fill="#263238" d="M73.642,38.72c-0.061-0.175-0.082-0.361-0.062-0.545c-0.019-0.185,0.002-0.372,0.062-0.548
				c0.062,0.176,0.083,0.363,0.062,0.548C73.725,38.359,73.704,38.546,73.642,38.72z"/>
		</g>
		<g>
			<path fill="#263238" d="M72.482,38.79c-0.083-0.394-0.083-0.802,0-1.196C72.565,37.988,72.565,38.395,72.482,38.79z"/>
		</g>
		<g>
			<path fill="#263238" d="M71.345,38.847c-0.083-0.414-0.083-0.84,0-1.253C71.428,38.007,71.428,38.433,71.345,38.847z"/>
		</g>
		<g>
			<path fill="#263238" d="M70.298,38.881c-0.083-0.425-0.083-0.862,0-1.287C70.381,38.019,70.381,38.456,70.298,38.881z"/>
		</g>
		<g>
			<path fill="#263238" d="M69.193,38.881c-0.083-0.425-0.083-0.862,0-1.287C69.276,38.019,69.276,38.456,69.193,38.881z"/>
		</g>
		<g>
			<path fill="#263238" d="M68.087,38.881c-0.083-0.425-0.083-0.862,0-1.287C68.17,38.019,68.17,38.456,68.087,38.881z"/>
		</g>
		<g>
			<path fill="#263238" d="M66.982,39.137c-0.083-0.511-0.083-1.032,0-1.543C67.065,38.105,67.065,38.626,66.982,39.137z"/>
		</g>
		<g>
			<path fill="#263238" d="M65.877,39.227c-0.083-0.541-0.083-1.092,0-1.634C65.96,38.135,65.96,38.686,65.877,39.227z"/>
		</g>
		<g>
			<path fill="#263238" d="M64.556,39.337c-0.083-0.578-0.083-1.165,0-1.744C64.639,38.172,64.639,38.759,64.556,39.337z"/>
		</g>
		<g>
			<path fill="#263238" d="M75.109,36.625l-0.189-1.481L64.526,24.14l-0.117-5.988l0.598,5.638l10.021,10.681
				c0.249,0.254,0.412,0.579,0.467,0.931l0.22,1.789L75.109,36.625z"/>
		</g>
		<g>
			<path fill="#231F20" d="M69.193,34.804h-4.784v1.289h4.784V34.804z"/>
		</g>
		<g>
			<path fill="#FFFFFF" d="M52.997-4.837c-0.033,0-0.062-2.658-0.062-5.937c0-3.28,0.029-5.935,0.062-5.935
				c0.033,0,0.062,2.658,0.062,5.935S53.031-4.837,52.997-4.837z"/>
		</g>
		<g>
			<path fill="#FFFFFF" d="M53.882-8.576c-0.063-0.596-0.084-1.195-0.062-1.794c-0.022-0.603-0.001-1.206,0.062-1.806
				c0.062,0.597,0.082,1.197,0.062,1.797C53.965-9.778,53.944-9.175,53.882-8.576z"/>
		</g>
		<g>
			<path fill="#FFFFFF" d="M54.904-9.82c-0.064-0.214-0.086-0.438-0.065-0.66c-0.021-0.222,0.001-0.446,0.065-0.66
				C54.987-10.704,54.987-10.256,54.904-9.82z"/>
		</g>
		<g>
			<path fill="#FFFFFF" d="M52.486,11.138c-0.036,0-0.065-3.134-0.065-6.997s0.026-6.988,0.065-6.988c0.038,0,0.062,3.134,0.062,7
				S52.519,11.138,52.486,11.138z"/>
		</g>
	</g>
</g>
</svg>
