<?xml version="1.0" encoding="utf-8"?>
<!-- Generator: Adobe Illustrator 17.0.0, SVG Export Plug-In . SVG Version: 6.00 Build 0)  -->
<!DOCTYPE svg PUBLIC "-//W3C//DTD SVG 1.1//EN" "http://www.w3.org/Graphics/SVG/1.1/DTD/svg11.dtd">
<svg version="1.1" id="Layer_1" xmlns="http://www.w3.org/2000/svg" xmlns:xlink="http://www.w3.org/1999/xlink" x="0px" y="0px"
	 width="288px" height="144px" viewBox="0 0 288 144" enable-background="new 0 0 288 144" xml:space="preserve">
<g>
	<path fill="none" d="M0,0.904h288v143H0V0.904z"/>
	<path fill="#EDEDED" d="M0,0h288v143.904H0V0z"/>
	<path fill="#21B6B2" d="M156.649,71.699l-0.508,0.513c0-0.001-0.001-0.001-0.001-0.002L156.649,71.699z"/>
	<path fill="#FAFAFA" d="M256.38,62.749c0.293-2.1-2.7-3.829-4.949-4.006c-1.072-0.089-2.186,0.077-3.203-0.274
		c-2.202-0.772-3.079-3.578-5.226-4.473c-1.606-0.672-3.457-0.073-5.012,0.702c-1.555,0.776-3.094,1.752-4.836,1.86
		c-1.512,0.097-3.153-0.459-4.478,0.274c-0.986,0.544-1.504,1.671-2.412,2.316c-0.908,0.645-2.05,0.772-3.153,0.845
		c-1.103,0.073-2.245,0.069-3.25,0.525c-1.006,0.455-1.836,1.509-1.629,2.586L256.38,62.749z"/>
	<path fill="#E0E0E0" d="M281.923,51.174c-1.406-0.769-2.053-0.124-2.566-0.769s1.401-2.312-2.428-3.979c0,0-0.256-3.612-5.491-3.72
		c-5.235-0.108-3.829,3.612-5.23,4.489c-1.401,0.877-1.791-0.516-3.193,0.387c-1.401,0.903-0.764,2.694-1.914,2.952
		c-1.15,0.258-2.684-1.156-4.106-0.258s-1.406,1.672-2.053,1.672s-1.914-0.516-2.684,0c-0.77,0.516-1.658,1.156-1.658,1.156h32.35
		C282.95,53.104,283.345,51.948,281.923,51.174z"/>
	<path fill="#E0E0E0" d="M224.13,33.329c-0.886-0.471-1.288-0.076-1.607-0.471c-0.32-0.395,0.886-1.429-1.546-2.457
		c0,0-0.165-2.219-3.467-2.295s-2.416,2.214-3.302,2.771c-0.886,0.557-1.123-0.319-2.009,0.238c-0.886,0.557-0.484,1.662-1.21,1.819
		c-0.727,0.157-1.69-0.709-2.576-0.157c-0.886,0.552-0.886,1.013-1.288,1.013c-0.402,0-1.211-0.314-1.695,0
		c-0.484,0.314-1.03,0.714-1.03,0.714h20.374c0.056-0.239,0.021-0.49-0.097-0.707C224.558,33.581,224.364,33.415,224.13,33.329z"/>
	<path fill="#C4C4C4" fill-opacity="0.5" d="M84.995,54.019c-3.16-1.717-4.594-0.287-5.745-1.717
		c-1.151-1.43,3.16-5.156-5.457-8.883c0,0-0.576-8.027-12.332-8.308c-11.757-0.282-8.617,8.021-11.777,10.025
		c-3.16,2.004-4.023-1.143-7.194,0.861c-3.17,2.004-1.721,6.017-4.306,6.591c-2.585,0.574-6.032-2.563-9.193-0.574
		s-3.16,3.726-4.625,3.726c-1.464,0-4.306-1.148-6.032,0c-1.726,1.148-3.736,2.563-3.736,2.563h72.697
		C87.297,58.304,88.14,55.741,84.995,54.019z"/>
	<path d="M27.928,69.29h1.196v74.065h-1.196V69.29z"/>
	<path d="M15.228,69.235h1.196v74.033h-1.196V69.235z"/>
	<path d="M15.692,69.29h13.432v0.926H15.692V69.29z"/>
	<path d="M15.228,85.598h13.896v0.926H15.228V85.598z"/>
	<path d="M15.358,122.255h13.766v0.925H15.358V122.255z"/>
	<path d="M15.948,105.218l12.844,17.6l-0.748,0.546l-12.844-17.6L15.948,105.218z"/>
	<path d="M16.079,86.381l12.951,18.9l-0.764,0.523L15.315,86.905L16.079,86.381z"/>
	<path d="M16.082,123.069l12.951,18.9l-0.764,0.523l-12.951-18.899L16.082,123.069z"/>
	<path d="M15.937,69.853l12.804,15.33l-0.711,0.593l-12.804-15.33L15.937,69.853z"/>
	<path d="M15.228,104.87h13.896v0.925H15.228V104.87z"/>
	<path d="M23.18,143.282c0.041,0,0.075-16.456,0.075-36.749c0-20.294-0.035-36.756-0.075-36.756c-0.041,0-0.076,16.453-0.076,36.756
		C23.105,126.834,23.137,143.282,23.18,143.282z"/>
	<path d="M22.646,143.267c0.041,0,0.076-16.334,0.076-36.476c0-20.143-0.035-36.48-0.076-36.48c-0.041,0-0.075,16.329-0.075,36.48
		C22.57,126.942,22.602,143.267,22.646,143.267z"/>
	<path d="M20.095,143.302c0.044,0,0.076-16.34,0.076-36.494c0-20.154-0.032-36.497-0.076-36.497c-0.044,0-0.075,16.337-0.075,36.497
		C20.019,126.968,20.054,143.302,20.095,143.302z"/>
	<path d="M18.185,143.267c0.041,0,0.076-16.334,0.076-36.476c0-20.143-0.035-36.48-0.076-36.48c-0.041,0-0.075,16.329-0.075,36.48
		C18.109,126.942,18.135,143.267,18.185,143.267z"/>
	<path d="M18.185,76.012c0.631,0.101,1.273,0.101,1.904,0C19.459,75.911,18.816,75.911,18.185,76.012L18.185,76.012z"/>
	<path d="M18.185,74.412c0.631,0.101,1.273,0.101,1.904,0C19.459,74.312,18.816,74.312,18.185,74.412L18.185,74.412z"/>
	<path d="M18.185,72.813c0.631,0.101,1.273,0.101,1.904,0C19.459,72.713,18.816,72.713,18.185,72.813L18.185,72.813z"/>
	<path d="M18.185,71.214c0.631,0.101,1.273,0.101,1.904,0C19.459,71.114,18.816,71.114,18.185,71.214L18.185,71.214z"/>
	<path d="M18.185,77.814c0.631,0.101,1.273,0.101,1.904,0C19.459,77.713,18.816,77.713,18.185,77.814L18.185,77.814z"/>
	<path d="M18.185,79.616c0.631,0.101,1.273,0.101,1.904,0C19.459,79.516,18.816,79.516,18.185,79.616L18.185,79.616z"/>
	<path d="M18.185,81.419c0.631,0.101,1.273,0.101,1.904,0C19.459,81.318,18.816,81.318,18.185,81.419L18.185,81.419z"/>
	<path d="M18.185,83.221c0.631,0.101,1.273,0.101,1.904,0C19.459,83.117,18.816,83.117,18.185,83.221z"/>
	<path d="M18.185,85.021c0.63,0.104,1.274,0.104,1.904,0C19.459,84.92,18.816,84.92,18.185,85.021L18.185,85.021z"/>
	<path d="M18.185,86.823c0.631,0.101,1.273,0.101,1.904,0C19.459,86.722,18.816,86.722,18.185,86.823L18.185,86.823z"/>
	<path d="M18.185,88.625c0.631,0.101,1.273,0.101,1.904,0C19.459,88.525,18.816,88.525,18.185,88.625L18.185,88.625z"/>
	<path d="M18.185,90.428c0.631,0.101,1.273,0.101,1.904,0C19.459,90.327,18.816,90.327,18.185,90.428L18.185,90.428z"/>
	<path d="M18.185,92.23c0.631,0.101,1.273,0.101,1.904,0C19.459,92.129,18.816,92.129,18.185,92.23L18.185,92.23z"/>
	<path d="M18.185,94.041c0.631,0.101,1.273,0.101,1.904,0C19.459,93.94,18.816,93.94,18.185,94.041L18.185,94.041z"/>
	<path d="M18.185,95.834c0.631,0.101,1.273,0.101,1.904,0C19.459,95.734,18.816,95.734,18.185,95.834L18.185,95.834z"/>
	<path d="M18.185,97.637c0.631,0.101,1.273,0.101,1.904,0C19.459,97.536,18.816,97.536,18.185,97.637L18.185,97.637z"/>
	<path d="M18.185,99.439c0.631,0.101,1.273,0.101,1.904,0C19.459,99.339,18.816,99.339,18.185,99.439L18.185,99.439z"/>
	<path d="M18.185,101.242c0.631,0.1,1.273,0.1,1.904,0C19.459,101.141,18.816,101.141,18.185,101.242L18.185,101.242z"/>
	<path d="M18.185,103.038c0.631,0.101,1.273,0.101,1.904,0C19.459,102.937,18.816,102.937,18.185,103.038L18.185,103.038z"/>
	<path d="M18.185,104.846c0.631,0.101,1.273,0.101,1.904,0C19.459,104.746,18.816,104.746,18.185,104.846L18.185,104.846z"/>
	<path d="M18.185,106.649c0.631,0.1,1.273,0.1,1.904,0C19.459,106.548,18.816,106.548,18.185,106.649L18.185,106.649z"/>
	<path d="M18.185,108.451c0.631,0.101,1.273,0.101,1.904,0C19.459,108.351,18.816,108.351,18.185,108.451L18.185,108.451z"/>
	<path d="M18.185,110.253c0.631,0.101,1.273,0.101,1.904,0C19.459,110.153,18.816,110.153,18.185,110.253L18.185,110.253z"/>
	<path d="M18.185,112.056c0.631,0.1,1.273,0.1,1.904,0C19.459,111.955,18.816,111.955,18.185,112.056L18.185,112.056z"/>
	<path d="M18.185,113.858c0.631,0.101,1.273,0.101,1.904,0C19.459,113.758,18.816,113.758,18.185,113.858L18.185,113.858z"/>
	<path d="M18.185,115.66c0.631,0.101,1.273,0.101,1.904,0C19.459,115.56,18.816,115.56,18.185,115.66L18.185,115.66z"/>
	<path d="M18.185,117.463c0.631,0.1,1.273,0.1,1.904,0C19.459,117.362,18.816,117.362,18.185,117.463L18.185,117.463z"/>
	<path d="M18.185,119.265c0.631,0.101,1.273,0.101,1.904,0C19.459,119.164,18.816,119.164,18.185,119.265L18.185,119.265z"/>
	<path d="M18.185,121.067c0.631,0.101,1.273,0.101,1.904,0C19.459,120.967,18.816,120.967,18.185,121.067L18.185,121.067z"/>
	<path d="M18.185,122.87c0.631,0.1,1.273,0.1,1.904,0C19.459,122.769,18.816,122.769,18.185,122.87L18.185,122.87z"/>
	<path d="M18.185,124.672c0.631,0.101,1.273,0.101,1.904,0C19.459,124.571,18.816,124.571,18.185,124.672L18.185,124.672z"/>
	<path d="M18.185,126.475c0.631,0.1,1.273,0.1,1.904,0C19.459,126.374,18.816,126.374,18.185,126.475L18.185,126.475z"/>
	<path d="M18.185,128.289c0.631,0.1,1.273,0.1,1.904,0C19.459,128.184,18.816,128.184,18.185,128.289z"/>
	<path d="M18.185,130.076c0.63,0.105,1.274,0.105,1.904,0C19.459,129.976,18.816,129.976,18.185,130.076L18.185,130.076z"/>
	<path d="M18.185,131.879c0.631,0.1,1.273,0.1,1.904,0C19.459,131.778,18.816,131.778,18.185,131.879L18.185,131.879z"/>
	<path d="M18.185,133.681c0.631,0.101,1.273,0.101,1.904,0C19.459,133.581,18.816,133.581,18.185,133.681L18.185,133.681z"/>
	<path d="M18.185,135.483c0.631,0.101,1.273,0.101,1.904,0C19.459,135.383,18.816,135.383,18.185,135.483L18.185,135.483z"/>
	<path d="M18.185,137.286c0.631,0.1,1.273,0.1,1.904,0C19.459,137.185,18.816,137.185,18.185,137.286L18.185,137.286z"/>
	<path d="M18.185,139.088c0.631,0.101,1.273,0.101,1.904,0C19.459,138.987,18.816,138.987,18.185,139.088L18.185,139.088z"/>
	<path d="M18.185,140.891c0.631,0.1,1.273,0.1,1.904,0C19.459,140.79,18.816,140.79,18.185,140.891L18.185,140.891z"/>
	<path d="M18.185,142.693c0.631,0.1,1.273,0.1,1.904,0C19.459,142.592,18.816,142.592,18.185,142.693L18.185,142.693z"/>
	<path d="M28.526,106.689c0.03,0.004,0.06,0.004,0.09,0h0.261l1.013,0.015l3.741,0.023l12.48,0.023l-0.076-0.075v2.595l0.076-0.076
		l-12.48,0.023l-3.741,0.026h-1.013h-0.261h-0.09c0.03,0.004,0.06,0.004,0.09,0h0.261l1.013,0.015l3.741,0.023l12.48,0.023h0.075
		v-2.745h-0.075l-12.48,0.023l-3.741,0.023h-1.013h-0.261C28.581,106.628,28.551,106.656,28.526,106.689L28.526,106.689z"/>
	<path d="M29.098,109.133l0.046-0.035l0.131-0.119l0.499-0.467l1.86-1.776l-0.073-0.035c-0.038,0.725-0.081,1.55-0.131,2.461v0.136
		l0.102-0.095l2.542-2.453l-0.107-0.046c0,0.789,0.023,1.616,0.035,2.475v0.16l0.116-0.11l2.554-2.473l-0.125-0.049
		c0.014,0.769,0.032,1.587,0.047,2.42v0.171l0.125-0.119l1.21-1.16l1.289-1.248l-0.128-0.056v2.613l0.125-0.117l2.586-2.435
		l-0.116-0.049c0,0.906,0,1.77,0,2.592v0.157l0.11-0.111l2.583-2.612l-0.09-0.038c0,0.961,0,1.797,0,2.517v0.127l0.072-0.104
		c0.557-0.801,0.993-1.434,1.297-1.872l0.334-0.493l0.084-0.128l0.026-0.047c0,0,0,0-0.035,0.038l-0.093,0.125l-0.354,0.482
		l-1.324,1.849l0.073,0.023c0-0.72,0-1.556,0-2.517v-0.127l-0.09,0.09l-2.612,2.583l0.11,0.046c0-0.821,0-1.686,0-2.592v-0.194
		l-0.116,0.11l-2.592,2.424l0.125,0.055c0-0.792,0-1.601,0-2.429v-0.16l-0.128,0.122l-1.292,1.251l-1.207,1.161l0.128,0.052
		c-0.017-0.83-0.035-1.649-0.049-2.418v-0.168l-0.122,0.119l-2.551,2.476l0.119,0.049c-0.015-0.871-0.032-1.686-0.046-2.473v-0.151
		l-0.107,0.105l-2.528,2.467l0.09,0.04c0.041-0.908,0.075-1.741,0.107-2.458v-0.11l-0.078,0.075l-1.831,1.806l-0.485,0.484
		l-0.122,0.128C29.109,109.104,29.095,109.133,29.098,109.133z"/>
	<path d="M28.245,86.524h0.09h0.264l1.013,0.014l3.738,0.023l12.48,0.023l-0.076-0.075v2.598l0.076-0.076l-12.48,0.023l-3.741,0.023
		l-1.025,0.029H28.32c-0.03-0.004-0.06-0.004-0.09,0h0.09h0.264l1.01,0.014l3.741,0.023l12.48,0.023h0.076v-2.746h-0.076
		l-12.48,0.023l-3.738,0.023l-1.013,0.015H28.32C28.294,86.494,28.268,86.508,28.245,86.524L28.245,86.524z"/>
	<path d="M28.816,88.953c0,0,0.017,0,0.046-0.038l0.131-0.116l0.499-0.467l1.86-1.776l-0.073-0.035
		c-0.038,0.726-0.081,1.55-0.131,2.461v0.136l0.099-0.096l2.545-2.452l-0.11-0.046c0,0.789,0.023,1.617,0.035,2.476v0.16l0.116-0.11
		c0.807-0.784,1.666-1.611,2.557-2.473l-0.128-0.052c0.017,0.772,0.032,1.59,0.049,2.421v0.174L36.438,89l1.207-1.161l1.289-1.248
		l-0.128-0.055v2.612l0.122-0.119l2.586-2.432l-0.116-0.049c0,0.906,0,1.769,0,2.592v0.154l0.107-0.107l2.583-2.612l-0.09-0.038
		c0,0.958,0,1.794,0,2.516v0.128l0.073-0.104l1.295-1.872c0.142-0.209,0.255-0.374,0.334-0.493l0.084-0.128
		c0.02-0.029,0.029-0.046,0.026-0.046c-0.003,0,0,0-0.035,0.038c-0.035,0.038-0.055,0.073-0.093,0.122l-0.351,0.485l-1.326,1.849
		l0.073,0.023c0-0.723,0-1.559,0.014-2.516v-0.128l-0.09,0.09l-2.612,2.583l0.11,0.047c0-0.822,0-1.686,0-2.592v-0.16l-0.119,0.11
		l-2.589,2.424l0.122,0.055c0-0.793,0-1.603,0-2.429v-0.177l-0.128,0.122l-1.289,1.251l-1.207,1.161l0.128,0.052
		c-0.017-0.83-0.035-1.648-0.052-2.421v-0.168l-0.122,0.119l-2.548,2.476L33.811,89c0-0.871-0.029-1.686-0.043-2.473v-0.151
		L33.66,86.48l-2.531,2.467l0.093,0.041c0.038-0.908,0.076-1.741,0.107-2.458v-0.11l-0.075,0.075L29.42,88.3l-0.482,0.485
		l-0.122,0.125C28.815,88.924,28.815,88.939,28.816,88.953z"/>
	<path fill="#B1B3B6" d="M49.654,142.412l-4.595,0.124v-8.54l4.595-0.124V142.412z"/>
	<path fill="#B1B3B6" d="M49.913,135.972h-5.05c-0.181,0-0.328,0.147-0.328,0.328v0.007c0,0.181,0.147,0.328,0.328,0.328h5.05
		c0.181,0,0.328-0.147,0.328-0.328V136.3C50.241,136.119,50.094,135.972,49.913,135.972z"/>
	<path fill="#B1B3B6" d="M49.913,137.304h-5.05c-0.181,0-0.328,0.147-0.328,0.328v0.007c0,0.181,0.147,0.328,0.328,0.328h5.05
		c0.181,0,0.328-0.147,0.328-0.328v-0.007C50.241,137.451,50.094,137.304,49.913,137.304z"/>
	<path fill="#B1B3B6" d="M49.913,138.637h-5.05c-0.181,0-0.328,0.147-0.328,0.328v0.007c0,0.181,0.147,0.328,0.328,0.328h5.05
		c0.181,0,0.328-0.147,0.328-0.328v-0.007C50.241,138.784,50.094,138.637,49.913,138.637z"/>
	<path fill="#B1B3B6" d="M49.913,139.969h-5.05c-0.181,0-0.328,0.147-0.328,0.328v0.007c0,0.181,0.147,0.328,0.328,0.328h5.05
		c0.181,0,0.328-0.147,0.328-0.328v-0.007C50.241,140.116,50.094,139.969,49.913,139.969z"/>
	<path fill="#B1B3B6" d="M49.913,141.302h-5.05c-0.181,0-0.328,0.147-0.328,0.328v0.007c0,0.181,0.147,0.328,0.328,0.328h5.05
		c0.181,0,0.328-0.147,0.328-0.328v-0.007C50.241,141.449,50.094,141.302,49.913,141.302z"/>
	<path fill="#B1B3B6" d="M44.224,144l0.835-1.588h4.595L50.659,144H44.224z"/>
	<path fill="#263238" d="M50.013,135.967c0,0.036-1.175,0.062-2.631,0.062c-1.457,0-2.619-0.026-2.619-0.062
		c0-0.036,1.172-0.062,2.619-0.062S50.013,135.938,50.013,135.967z"/>
	<path fill="#263238" d="M49.905,136.637c0,0.034-1.163,0.062-2.593,0.062s-2.593-0.028-2.593-0.062c0-0.033,1.16-0.065,2.593-0.065
		S49.905,136.601,49.905,136.637z"/>
	<path fill="#263238" d="M50.046,137.305c0,0.033-1.184,0.062-2.646,0.062c-1.462,0-2.648-0.029-2.648-0.062
		c0-0.034,1.196-0.063,2.648-0.063S50.046,137.271,50.046,137.305z"/>
	<path fill="#263238" d="M49.791,137.967c-0.836,0.063-1.676,0.084-2.514,0.062c-0.838,0.022-1.676,0.001-2.512-0.062
		c0-0.033,1.124-0.062,2.512-0.062C48.664,137.905,49.791,137.934,49.791,137.967z"/>
	<path fill="#263238" d="M49.972,138.649c0,0.036-1.151,0.062-2.572,0.062c-1.421,0-2.574-0.026-2.574-0.062
		c0-0.036,1.151-0.062,2.574-0.062C48.824,138.587,49.972,138.615,49.972,138.649z"/>
	<path fill="#263238" d="M50.039,139.3c0,0.036-1.167,0.062-2.607,0.062c-1.44,0-2.605-0.026-2.605-0.062
		c0-0.036,1.167-0.063,2.605-0.063C48.869,139.237,50.039,139.266,50.039,139.3z"/>
	<path fill="#263238" d="M49.891,139.969c0,0.034-1.1,0.063-2.459,0.063s-2.457-0.029-2.457-0.063
		c0.817-0.063,1.637-0.083,2.457-0.062C48.252,139.886,49.073,139.906,49.891,139.969L49.891,139.969z"/>
	<path fill="#263238" d="M49.932,140.632c-0.818,0.063-1.639,0.084-2.459,0.062c-0.819,0.022-1.639,0.001-2.457-0.062
		c0-0.034,1.1-0.062,2.457-0.062S49.932,140.598,49.932,140.632z"/>
	<path fill="#263238" d="M49.774,141.285c-0.813,0.062-1.629,0.083-2.445,0.062c-0.816,0.021-1.631,0-2.445-0.062
		c0.813-0.061,1.629-0.082,2.445-0.062C48.145,141.203,48.961,141.224,49.774,141.285L49.774,141.285z"/>
	<path fill="#263238" d="M49.754,141.964c-0.786,0.062-1.575,0.083-2.363,0.063c-0.788,0.02-1.577-0.001-2.363-0.063
		c0.786-0.061,1.575-0.082,2.363-0.062C48.179,141.882,48.968,141.903,49.754,141.964z"/>
	<path fill="#B1B3B6" d="M71.679,142.412l-4.593,0.124v-8.54l4.593-0.124V142.412z"/>
	<path fill="#B1B3B6" d="M71.938,135.972h-5.05c-0.181,0-0.328,0.147-0.328,0.328v0.007c0,0.181,0.147,0.328,0.328,0.328h5.05
		c0.181,0,0.328-0.147,0.328-0.328V136.3C72.265,136.119,72.119,135.972,71.938,135.972z"/>
	<path fill="#B1B3B6" d="M71.938,137.304h-5.05c-0.181,0-0.328,0.147-0.328,0.328v0.007c0,0.181,0.147,0.328,0.328,0.328h5.05
		c0.181,0,0.328-0.147,0.328-0.328v-0.007C72.265,137.451,72.119,137.304,71.938,137.304z"/>
	<path fill="#B1B3B6" d="M71.938,138.637h-5.05c-0.181,0-0.328,0.147-0.328,0.328v0.007c0,0.181,0.147,0.328,0.328,0.328h5.05
		c0.181,0,0.328-0.147,0.328-0.328v-0.007C72.265,138.784,72.119,138.637,71.938,138.637z"/>
	<path fill="#B1B3B6" d="M71.938,139.969h-5.05c-0.181,0-0.328,0.147-0.328,0.328v0.007c0,0.181,0.147,0.328,0.328,0.328h5.05
		c0.181,0,0.328-0.147,0.328-0.328v-0.007C72.265,140.116,72.119,139.969,71.938,139.969z"/>
	<path fill="#B1B3B6" d="M71.938,141.302h-5.05c-0.181,0-0.328,0.147-0.328,0.328v0.007c0,0.181,0.147,0.328,0.328,0.328h5.05
		c0.181,0,0.328-0.147,0.328-0.328v-0.007C72.265,141.449,72.119,141.302,71.938,141.302z"/>
	<path fill="#B1B3B6" d="M66.251,144l0.835-1.588h4.593L72.686,144H66.251z"/>
	<path fill="#263238" d="M72.038,135.967c0,0.036-1.172,0.062-2.619,0.062c-1.447,0-2.619-0.026-2.619-0.062
		c0-0.036,1.172-0.062,2.619-0.062C70.866,135.905,72.038,135.938,72.038,135.967z"/>
	<path fill="#263238" d="M71.93,136.637c0,0.034-1.16,0.062-2.593,0.062s-2.593-0.028-2.593-0.062c0-0.033,1.16-0.065,2.593-0.065
		S71.93,136.601,71.93,136.637z"/>
	<path fill="#263238" d="M72.074,137.305c0,0.033-1.196,0.062-2.648,0.062c-1.452,0-2.648-0.029-2.648-0.062
		c0-0.034,1.196-0.063,2.648-0.063C70.878,137.242,72.074,137.271,72.074,137.305z"/>
	<path fill="#263238" d="M71.816,137.967c-0.836,0.063-1.674,0.084-2.512,0.062c-0.838,0.022-1.676,0.001-2.512-0.062
		c0-0.033,1.124-0.062,2.512-0.062C70.691,137.905,71.816,137.934,71.816,137.967z"/>
	<path fill="#263238" d="M72,138.649c0,0.036-1.153,0.062-2.574,0.062c-1.421,0-2.574-0.026-2.574-0.062
		c0-0.036,1.153-0.062,2.574-0.062C70.847,138.587,72,138.615,72,138.649z"/>
	<path fill="#263238" d="M72.065,139.3c0,0.036-1.165,0.062-2.605,0.062c-1.44,0-2.608-0.026-2.608-0.062
		c0-0.036,1.167-0.063,2.608-0.063C70.9,139.237,72.065,139.266,72.065,139.3z"/>
	<path fill="#263238" d="M71.916,139.969c0,0.034-1.1,0.063-2.457,0.063S67,140.003,67,139.969c0.818-0.063,1.639-0.083,2.459-0.062
		C70.279,139.886,71.099,139.906,71.916,139.969L71.916,139.969z"/>
	<path fill="#263238" d="M71.957,140.632c-0.817,0.063-1.637,0.084-2.457,0.062c-0.82,0.022-1.641,0.001-2.459-0.062
		c0-0.034,1.1-0.062,2.459-0.062C70.859,140.57,71.957,140.598,71.957,140.632z"/>
	<path fill="#263238" d="M71.794,141.285c-0.813,0.062-1.628,0.083-2.442,0.062c-0.815,0.021-1.632,0-2.445-0.062
		c0.813-0.061,1.629-0.082,2.445-0.062C70.166,141.203,70.981,141.224,71.794,141.285L71.794,141.285z"/>
	<path fill="#263238" d="M71.782,141.964c-0.786,0.062-1.575,0.083-2.364,0.063c-0.788,0.02-1.577-0.001-2.364-0.063
		c0.786-0.061,1.575-0.082,2.364-0.062C70.207,141.882,70.996,141.903,71.782,141.964L71.782,141.964z"/>
	<path fill="#9D9FA2" d="M51.331,82.126l0.074,42.375h-5.361V82.315c0-0.758,0.101-1.513,0.302-2.244l2.232-8.16
		c0.089-0.321,0.464-0.313,0.569,0.261l1.943,7.952C51.249,80.779,51.33,81.451,51.331,82.126L51.331,82.126z"/>
	<path fill="#231F20" d="M51.195,87.26c0,0.033-1.11,0.062-2.483,0.062c-1.373,0-2.486-0.029-2.486-0.062
		c0.827-0.063,1.656-0.084,2.486-0.062C49.54,87.176,50.369,87.197,51.195,87.26z"/>
	<path fill="#263238" d="M51.226,92.568c0,0.034-1.146,0.062-2.56,0.062c-1.414,0-2.562-0.029-2.562-0.062
		c0.852-0.065,1.708-0.086,2.562-0.065C49.52,92.482,50.374,92.503,51.226,92.568L51.226,92.568z"/>
	<path fill="#263238" d="M47.339,91.456c-0.034,0-0.062-0.151-0.062-0.34c0-0.189,0.029-0.34,0.062-0.34s0.062,0.153,0.062,0.34
		S47.382,91.456,47.339,91.456z"/>
	<path fill="#263238" d="M47.862,91.393c0.034,0,0.062-0.124,0.062-0.278c0-0.153-0.028-0.277-0.062-0.277
		c-0.034,0-0.062,0.124-0.062,0.277C47.8,91.269,47.828,91.393,47.862,91.393z"/>
	<path fill="#263238" d="M51.386,106.242c0,0.035-1.179,0.064-2.631,0.064c-1.452,0-2.632-0.029-2.632-0.064
		c0-0.036,1.179-0.063,2.632-0.063C50.207,106.179,51.386,106.208,51.386,106.242z"/>
	<path fill="#263238" d="M47.363,107.833c-0.034,0-0.062-0.154-0.062-0.343c0-0.189,0.029-0.342,0.062-0.342
		s0.062,0.153,0.062,0.342C47.425,107.679,47.399,107.833,47.363,107.833z"/>
	<path fill="#263238" d="M47.769,107.895c-0.036,0-0.062-0.161-0.062-0.359c0-0.199,0.026-0.357,0.062-0.357
		s0.062,0.161,0.062,0.357C47.831,107.732,47.803,107.895,47.769,107.895z"/>
	<path fill="#263238" d="M49.64,119.461c-0.601,0.062-1.205,0.082-1.808,0.062c-0.604,0.02-1.208,0-1.809-0.062
		c0.601-0.063,1.205-0.084,1.809-0.062C48.435,119.377,49.04,119.398,49.64,119.461L49.64,119.461z"/>
	<path fill="#263238" d="M51.255,81.573c0,0.034-1.153,0.062-2.576,0.062c-1.423,0-2.579-0.029-2.579-0.062s1.155-0.062,2.579-0.062
		C50.102,81.511,51.255,81.54,51.255,81.573z"/>
	<path fill="#263238" d="M46.594,81.903c0-0.014,0.06-0.019,0.093,0.05c0.011,0.02,0.017,0.043,0.017,0.066
		c0,0.023-0.006,0.046-0.017,0.066c-0.018,0.024-0.044,0.043-0.073,0.052c-0.029,0.01-0.06,0.01-0.09,0.002
		c-0.029-0.009-0.055-0.026-0.075-0.049c-0.019-0.024-0.031-0.053-0.033-0.083c0-0.023,0.005-0.045,0.016-0.065
		c0.011-0.02,0.027-0.037,0.046-0.049c0.065-0.041,0.112,0,0.105,0c-0.007,0-0.031,0.026-0.045,0.057
		c-0.014,0.031-0.012,0.05,0.021,0.062c0.034,0.012,0.045,0,0.05-0.041C46.616,81.93,46.59,81.903,46.594,81.903z"/>
	<path fill="#263238" d="M48.709,81.903c0-0.014,0.06-0.019,0.093,0.05c0.011,0.02,0.016,0.043,0.016,0.066
		c0,0.023-0.006,0.046-0.016,0.066c-0.019,0.024-0.044,0.043-0.073,0.052c-0.029,0.01-0.06,0.01-0.089,0.002
		c-0.029-0.009-0.055-0.026-0.075-0.049c-0.019-0.024-0.031-0.053-0.033-0.083c0-0.023,0.005-0.045,0.016-0.065
		c0.011-0.02,0.027-0.037,0.046-0.049c0.065-0.041,0.113,0,0.105,0c-0.007,0-0.031,0.026-0.045,0.057
		c-0.014,0.031-0.012,0.05,0.022,0.062c0.034,0.012,0.045,0,0.053-0.041C48.736,81.93,48.704,81.903,48.709,81.903z"/>
	<path fill="#263238" d="M50.824,81.903c0-0.014,0.06-0.019,0.093,0.05c0.011,0.02,0.017,0.043,0.017,0.066
		c0,0.023-0.006,0.046-0.017,0.066c-0.018,0.024-0.043,0.043-0.072,0.052c-0.029,0.009-0.06,0.01-0.089,0
		c-0.03-0.008-0.057-0.024-0.076-0.048c-0.02-0.024-0.031-0.053-0.034-0.084c0-0.023,0.005-0.045,0.016-0.065
		c0.011-0.02,0.027-0.037,0.046-0.049c0.067-0.041,0.112,0,0.105,0c-0.007,0-0.031,0.026-0.045,0.057
		c-0.014,0.031,0,0.05,0.021,0.062c0.021,0.012,0.045,0,0.053-0.041C50.85,81.93,50.819,81.903,50.824,81.903z"/>
	<path fill="#263238" d="M46.594,93.03c0-0.017,0.06-0.021,0.093,0.048c0.011,0.02,0.017,0.043,0.017,0.066
		c0,0.023-0.006,0.046-0.017,0.066c-0.018,0.024-0.044,0.043-0.073,0.052c-0.029,0.009-0.06,0.01-0.09,0.002
		c-0.029-0.009-0.055-0.026-0.075-0.05c-0.019-0.024-0.031-0.053-0.033-0.083c0-0.023,0.006-0.045,0.016-0.065
		c0.011-0.02,0.027-0.037,0.046-0.049c0.065-0.041,0.112,0,0.105,0c-0.007,0-0.031,0.029-0.045,0.058
		c-0.014,0.029-0.012,0.053,0.021,0.062c0.034,0.01,0.045,0,0.05-0.041C46.616,93.054,46.59,93.046,46.594,93.03z"/>
	<path fill="#263238" d="M48.709,93.03c0-0.017,0.06-0.021,0.093,0.048c0.011,0.02,0.017,0.043,0.017,0.066
		c0,0.023-0.006,0.046-0.017,0.066c-0.018,0.024-0.044,0.043-0.073,0.052c-0.029,0.009-0.06,0.01-0.089,0.002
		c-0.029-0.009-0.055-0.026-0.075-0.05c-0.019-0.024-0.031-0.053-0.033-0.083c0-0.023,0.006-0.045,0.016-0.065
		c0.011-0.02,0.027-0.037,0.046-0.049c0.065-0.041,0.113,0,0.105,0c-0.007,0-0.031,0.029-0.045,0.058
		c-0.014,0.029-0.012,0.053,0.022,0.062c0.034,0.01,0.045,0,0.053-0.041C48.736,93.054,48.704,93.046,48.709,93.03z"/>
	<path fill="#263238" d="M50.824,93.03c0-0.017,0.06-0.021,0.093,0.048c0.011,0.02,0.017,0.043,0.017,0.066
		c0,0.023-0.006,0.046-0.017,0.066c-0.018,0.025-0.043,0.043-0.072,0.052c-0.029,0.009-0.06,0.009-0.089,0
		c-0.03-0.007-0.057-0.024-0.076-0.048c-0.02-0.024-0.031-0.053-0.034-0.084c0-0.023,0.006-0.045,0.016-0.065
		c0.011-0.02,0.027-0.037,0.046-0.049c0.067-0.041,0.112,0,0.105,0c-0.007,0-0.031,0.029-0.045,0.058
		c-0.014,0.029,0,0.053,0.021,0.062c0.021,0.01,0.045,0,0.053-0.041C50.85,93.054,50.819,93.046,50.824,93.03z"/>
	<path fill="#263238" d="M46.594,105.242c0-0.017,0.06-0.022,0.093,0.048c0.011,0.02,0.017,0.043,0.017,0.065
		c0,0.023-0.006,0.046-0.017,0.066c-0.018,0.025-0.043,0.044-0.073,0.054c-0.029,0.01-0.061,0.01-0.09,0.001
		c-0.029-0.008-0.056-0.026-0.075-0.05c-0.019-0.024-0.031-0.053-0.033-0.084c0-0.022,0.006-0.045,0.016-0.065
		c0.011-0.02,0.027-0.037,0.046-0.05c0.065-0.04,0.112,0,0.105,0c-0.007,0-0.031,0.027-0.045,0.056
		c-0.014,0.028-0.012,0.052,0.021,0.062c0.034,0.009,0.045,0,0.05-0.041C46.616,105.263,46.59,105.259,46.594,105.242z"/>
	<path fill="#263238" d="M48.709,105.242c0-0.017,0.06-0.022,0.093,0.048c0.011,0.02,0.017,0.043,0.017,0.065
		c0,0.023-0.006,0.046-0.017,0.066c-0.018,0.025-0.043,0.044-0.072,0.054c-0.029,0.01-0.061,0.01-0.09,0.001
		c-0.029-0.008-0.056-0.026-0.075-0.05c-0.019-0.024-0.031-0.053-0.033-0.084c0-0.022,0.006-0.045,0.016-0.065
		c0.011-0.02,0.027-0.037,0.046-0.05c0.065-0.04,0.113,0,0.105,0c-0.007,0-0.031,0.027-0.045,0.056
		c-0.014,0.028-0.012,0.052,0.022,0.062c0.034,0.009,0.045,0,0.053-0.041C48.736,105.263,48.704,105.259,48.709,105.242z"/>
	<path fill="#263238" d="M50.824,105.242c0-0.017,0.06-0.022,0.093,0.048c0.011,0.02,0.017,0.043,0.017,0.065
		c0,0.023-0.006,0.046-0.017,0.066c-0.017,0.025-0.042,0.044-0.071,0.054c-0.029,0.01-0.06,0.01-0.089,0.001
		c-0.03-0.008-0.056-0.025-0.076-0.049c-0.02-0.024-0.032-0.054-0.034-0.085c0-0.022,0.006-0.045,0.016-0.065
		c0.011-0.02,0.027-0.037,0.046-0.05c0.067-0.04,0.112,0,0.105,0c-0.007,0-0.031,0.027-0.045,0.056
		c-0.014,0.028,0,0.052,0.021,0.062c0.021,0.009,0.045,0,0.053-0.041C50.85,105.263,50.819,105.259,50.824,105.242z"/>
	<path fill="#263238" d="M46.594,118.557c0-0.017,0.06-0.022,0.093,0.048c0.011,0.02,0.017,0.042,0.017,0.065
		s-0.006,0.046-0.017,0.066c-0.018,0.025-0.044,0.043-0.073,0.052c-0.029,0.01-0.06,0.01-0.09,0.002
		c-0.029-0.009-0.055-0.026-0.075-0.05c-0.019-0.023-0.031-0.052-0.033-0.083c0-0.023,0.006-0.045,0.016-0.065
		c0.011-0.02,0.027-0.037,0.046-0.05c0.065-0.04,0.112,0,0.105,0c-0.007,0-0.031,0.029-0.045,0.058
		c-0.014,0.029-0.012,0.052,0.021,0.062c0.034,0.01,0.045,0,0.05-0.041C46.616,118.581,46.59,118.574,46.594,118.557z"/>
	<path fill="#263238" d="M48.709,118.557c0-0.017,0.06-0.022,0.093,0.048c0.011,0.02,0.017,0.042,0.017,0.065
		s-0.006,0.046-0.017,0.066c-0.018,0.025-0.044,0.043-0.073,0.052c-0.029,0.01-0.06,0.01-0.089,0.002
		c-0.029-0.009-0.055-0.026-0.075-0.05c-0.019-0.023-0.031-0.052-0.033-0.083c0-0.023,0.006-0.045,0.016-0.065
		c0.011-0.02,0.027-0.037,0.046-0.05c0.065-0.04,0.113,0,0.105,0c-0.007,0-0.031,0.029-0.045,0.058
		c-0.014,0.029-0.012,0.052,0.022,0.062c0.034,0.01,0.045,0,0.053-0.041C48.736,118.581,48.704,118.574,48.709,118.557z"/>
	<path fill="#9D9FA2" d="M65.802,82.126l-0.076,42.375h5.361V82.315c-0.001-0.758-0.102-1.513-0.301-2.244l-2.232-8.16
		c-0.088-0.321-0.464-0.313-0.569,0.261l-1.942,7.952C65.881,80.779,65.801,81.451,65.802,82.126L65.802,82.126z"/>
	<path fill="#231F20" d="M65.942,87.26c0.826-0.063,1.655-0.084,2.483-0.062c0.829-0.022,1.659-0.001,2.486,0.062
		c0,0.034-1.112,0.062-2.486,0.062S65.942,87.293,65.942,87.26z"/>
	<path fill="#263238" d="M65.912,92.568c0.852-0.065,1.708-0.086,2.562-0.065c0.854-0.022,1.708,0,2.56,0.065
		c0,0.034-1.146,0.062-2.56,0.062C67.06,92.63,65.912,92.601,65.912,92.568z"/>
	<path fill="#263238" d="M69.799,91.456c-0.034,0-0.062-0.151-0.062-0.34c0-0.189,0.029-0.34,0.062-0.34s0.062,0.153,0.062,0.34
		S69.835,91.456,69.799,91.456z"/>
	<path fill="#263238" d="M69.276,91.393c0.034,0,0.062-0.124,0.062-0.278c0-0.153-0.028-0.277-0.062-0.277
		c-0.034,0-0.062,0.124-0.062,0.277C69.213,91.269,69.241,91.393,69.276,91.393z"/>
	<path fill="#263238" d="M65.751,106.242c0-0.034,1.182-0.063,2.631-0.063c1.45,0,2.631,0.029,2.631,0.063
		c0,0.033-1.179,0.064-2.631,0.064C66.931,106.306,65.751,106.277,65.751,106.242z"/>
	<path fill="#263238" d="M69.775,107.833c-0.034,0-0.062-0.154-0.062-0.343c0-0.189,0.029-0.342,0.062-0.342
		s0.062,0.153,0.062,0.342C69.837,107.679,69.809,107.833,69.775,107.833z"/>
	<path fill="#263238" d="M69.371,107.895c-0.036,0-0.062-0.161-0.062-0.359c0-0.199,0.026-0.357,0.062-0.357
		c0.036,0,0.062,0.161,0.062,0.357C69.433,107.732,69.404,107.895,69.371,107.895z"/>
	<path fill="#263238" d="M67.498,119.461c0.601-0.063,1.205-0.084,1.809-0.062c0.604-0.022,1.209-0.001,1.811,0.062
		c-0.602,0.062-1.207,0.082-1.811,0.062C68.702,119.543,68.098,119.523,67.498,119.461L67.498,119.461z"/>
	<path fill="#263238" d="M65.883,81.573c0-0.034,1.155-0.062,2.579-0.062s2.576,0.029,2.576,0.062s-1.153,0.062-2.576,0.062
		S65.883,81.607,65.883,81.573z"/>
	<path fill="#263238" d="M70.543,81.904c0,0.017-0.012,0.041,0,0.074c0.012,0.034,0.019,0.048,0.05,0.041
		c0.031-0.007,0.038-0.026,0.024-0.062c-0.014-0.036-0.043-0.041-0.048-0.057c-0.005-0.017,0.041-0.048,0.105,0
		c0.019,0.012,0.035,0.029,0.046,0.049c0.011,0.02,0.016,0.043,0.016,0.065c-0.002,0.031-0.013,0.06-0.032,0.083
		c-0.019,0.024-0.046,0.04-0.075,0.048c-0.029,0.01-0.061,0.01-0.09,0c-0.029-0.009-0.055-0.028-0.073-0.053
		c-0.011-0.02-0.017-0.043-0.017-0.066c0-0.023,0.006-0.046,0.017-0.066C70.483,81.877,70.543,81.882,70.543,81.904z"/>
	<path fill="#263238" d="M68.433,81.904c0,0.017-0.012,0.041,0,0.074c0.012,0.034,0.017,0.048,0.05,0.041
		c0.034-0.007,0.038-0.026,0.021-0.062c-0.017-0.036-0.041-0.041-0.045-0.057c-0.005-0.017,0.041-0.048,0.105,0
		c0.019,0.012,0.035,0.029,0.046,0.049c0.011,0.02,0.016,0.043,0.016,0.065c-0.002,0.031-0.013,0.06-0.032,0.083
		c-0.019,0.024-0.046,0.04-0.075,0.048c-0.029,0.01-0.061,0.01-0.09,0c-0.029-0.009-0.055-0.028-0.073-0.053
		c-0.011-0.02-0.017-0.043-0.017-0.066c0-0.023,0.006-0.046,0.017-0.066C68.368,81.877,68.433,81.882,68.433,81.904z"/>
	<path fill="#263238" d="M66.313,81.904c0,0.017-0.012,0.041,0,0.074c0.012,0.034,0.017,0.048,0.05,0.041
		c0.034-0.007,0.038-0.026,0.021-0.062c-0.017-0.036-0.041-0.041-0.045-0.057c-0.005-0.017,0.041-0.048,0.105,0
		c0.019,0.012,0.035,0.029,0.046,0.049c0.011,0.02,0.016,0.043,0.016,0.065c-0.002,0.03-0.014,0.059-0.033,0.083
		c-0.019,0.024-0.045,0.041-0.075,0.05c-0.029,0.009-0.061,0.008-0.09-0.002c-0.029-0.01-0.054-0.028-0.073-0.052
		c-0.011-0.02-0.017-0.043-0.017-0.066c0-0.023,0.006-0.046,0.017-0.066C66.253,81.877,66.313,81.882,66.313,81.904z"/>
	<path fill="#263238" d="M70.543,93.029c0,0.017-0.012,0.038,0,0.072c0.012,0.034,0.019,0.05,0.05,0.041
		c0.031-0.01,0.038-0.026,0.024-0.062c-0.014-0.036-0.043-0.041-0.048-0.057c-0.005-0.017,0.041-0.048,0.105,0
		c0.019,0.012,0.035,0.029,0.046,0.049c0.011,0.02,0.017,0.043,0.017,0.065c-0.002,0.031-0.013,0.06-0.032,0.083
		c-0.019,0.024-0.046,0.041-0.075,0.048c-0.029,0.009-0.061,0.009-0.09,0c-0.029-0.009-0.055-0.028-0.073-0.053
		c-0.011-0.02-0.017-0.043-0.017-0.066c0-0.023,0.006-0.046,0.017-0.066C70.483,93.008,70.543,93.013,70.543,93.029z"/>
	<path fill="#263238" d="M68.433,93.029c0,0.017-0.012,0.038,0,0.072c0.012,0.034,0.017,0.05,0.05,0.041
		c0.034-0.01,0.038-0.026,0.021-0.062c-0.017-0.036-0.041-0.041-0.045-0.057c-0.005-0.017,0.041-0.048,0.105,0
		c0.019,0.012,0.035,0.029,0.046,0.049c0.011,0.02,0.017,0.043,0.017,0.065c-0.002,0.031-0.013,0.06-0.032,0.083
		c-0.019,0.024-0.046,0.041-0.075,0.048c-0.029,0.009-0.061,0.009-0.09,0c-0.029-0.009-0.055-0.028-0.073-0.053
		c-0.011-0.02-0.017-0.043-0.017-0.066c0-0.023,0.006-0.046,0.017-0.066C68.368,93.008,68.433,93.013,68.433,93.029z"/>
	<path fill="#263238" d="M66.313,93.029c0,0.017-0.012,0.038,0,0.072c0.012,0.034,0.017,0.05,0.05,0.041
		c0.034-0.01,0.038-0.026,0.021-0.062c-0.017-0.036-0.041-0.041-0.045-0.057c-0.005-0.017,0.041-0.048,0.105,0
		c0.019,0.012,0.035,0.029,0.046,0.049c0.011,0.02,0.017,0.043,0.016,0.065c-0.002,0.03-0.014,0.059-0.033,0.083
		c-0.019,0.024-0.045,0.041-0.075,0.049c-0.029,0.008-0.061,0.008-0.09-0.002c-0.029-0.01-0.054-0.028-0.073-0.052
		c-0.011-0.02-0.017-0.043-0.017-0.066c0-0.023,0.006-0.046,0.017-0.066C66.253,93.008,66.313,93.013,66.313,93.029z"/>
	<path fill="#263238" d="M70.543,105.242c0,0.016-0.012,0.038,0,0.071c0.012,0.034,0.019,0.051,0.05,0.041
		c0.031-0.009,0.038-0.024,0.024-0.062c-0.014-0.038-0.043-0.038-0.048-0.055c-0.005-0.017,0.041-0.05,0.105,0
		c0.019,0.012,0.035,0.029,0.046,0.049c0.011,0.02,0.017,0.043,0.017,0.066c-0.003,0.03-0.014,0.059-0.033,0.083
		c-0.019,0.024-0.045,0.041-0.075,0.049c-0.029,0.009-0.06,0.008-0.09-0.001c-0.029-0.01-0.054-0.028-0.073-0.052
		c-0.011-0.021-0.017-0.043-0.017-0.066c0-0.023,0.006-0.046,0.017-0.066C70.483,105.22,70.543,105.225,70.543,105.242z"/>
	<path fill="#263238" d="M68.433,105.242c0,0.016-0.012,0.038,0,0.071c0.012,0.034,0.017,0.051,0.05,0.041
		c0.034-0.009,0.038-0.024,0.021-0.062c-0.017-0.038-0.041-0.038-0.045-0.055c-0.005-0.017,0.041-0.05,0.105,0
		c0.019,0.012,0.035,0.029,0.046,0.049c0.011,0.02,0.017,0.043,0.017,0.066c-0.003,0.03-0.014,0.059-0.033,0.083
		c-0.019,0.024-0.045,0.041-0.075,0.049c-0.029,0.009-0.061,0.008-0.09-0.001c-0.029-0.01-0.054-0.028-0.073-0.052
		c-0.011-0.021-0.017-0.043-0.017-0.066c0-0.023,0.006-0.046,0.017-0.066C68.368,105.22,68.433,105.225,68.433,105.242z"/>
	<path fill="#263238" d="M66.313,105.242c0,0.016-0.012,0.038,0,0.071c0.012,0.034,0.017,0.051,0.05,0.041
		c0.034-0.009,0.038-0.024,0.021-0.062c-0.017-0.038-0.041-0.038-0.045-0.055c-0.005-0.017,0.041-0.05,0.105,0
		c0.019,0.012,0.035,0.029,0.046,0.049c0.011,0.02,0.017,0.043,0.016,0.066c-0.002,0.03-0.014,0.06-0.033,0.084
		c-0.019,0.024-0.045,0.041-0.075,0.05c-0.029,0.009-0.061,0.008-0.09-0.002c-0.029-0.01-0.055-0.028-0.073-0.053
		c-0.011-0.021-0.017-0.043-0.017-0.066c0-0.023,0.006-0.046,0.017-0.066C66.253,105.22,66.313,105.225,66.313,105.242z"/>
	<path fill="#263238" d="M70.543,118.557c0,0.017-0.012,0.038,0,0.072c0.012,0.033,0.019,0.05,0.05,0.04
		c0.031-0.009,0.038-0.026,0.024-0.062c-0.014-0.036-0.043-0.041-0.048-0.057c-0.005-0.017,0.041-0.048,0.105,0
		c0.019,0.012,0.035,0.029,0.046,0.049c0.011,0.02,0.017,0.043,0.017,0.065c-0.002,0.031-0.013,0.06-0.032,0.084
		c-0.019,0.024-0.046,0.04-0.075,0.048c-0.029,0.009-0.061,0.009-0.09,0c-0.029-0.009-0.055-0.028-0.073-0.053
		c-0.011-0.02-0.017-0.042-0.017-0.065c0-0.023,0.006-0.046,0.017-0.066C70.483,118.535,70.543,118.54,70.543,118.557z"/>
	<path fill="#263238" d="M68.433,118.557c0,0.017-0.012,0.038,0,0.072c0.012,0.033,0.017,0.05,0.05,0.04
		c0.034-0.009,0.038-0.026,0.021-0.062c-0.017-0.036-0.041-0.041-0.045-0.057c-0.005-0.017,0.041-0.048,0.105,0
		c0.019,0.012,0.035,0.029,0.046,0.049c0.011,0.02,0.017,0.043,0.017,0.065c-0.002,0.031-0.013,0.06-0.032,0.084
		c-0.019,0.024-0.046,0.04-0.075,0.048c-0.029,0.009-0.061,0.009-0.09,0c-0.029-0.009-0.055-0.028-0.073-0.053
		c-0.011-0.02-0.017-0.042-0.017-0.065c0-0.023,0.006-0.046,0.017-0.066C68.368,118.535,68.433,118.54,68.433,118.557z"/>
	<path fill="#263238" d="M75.765,131.774l-0.062,1.787l-12.791,1.87l0.055-3.26L75.765,131.774z"/>
	<path d="M58.465,55.704c0,0-6.399,7.483-6.571,14.444c-0.167,6.768,0,25.482,0,25.482v22.805H65.05V71.89
		c0,0-0.122-2.753-1.316-6.978C62.625,61.039,58.465,55.704,58.465,55.704z"/>
	<path fill="#263238" d="M52.644,88.96c0,0,0,0,0,0.026v0.019H52.63v-0.012h0.014v0.043h-0.019
		c-0.031-0.478-0.053-3.186-0.053-6.437c0-1.799,0.012-3.426,0.017-4.627c0-0.579,0.017-1.053,0.021-1.402
		c0-0.153,0-0.28,0.012-0.38c-0.007-0.044-0.007-0.09,0-0.134c0.009,0.044,0.013,0.089,0.012,0.134c0,0.101,0,0.227,0.012,0.38
		c0,0.349,0,0.823,0.019,1.402c0,1.196,0.012,2.828,0.019,4.627c0,3.251-0.024,5.947-0.053,6.437h-0.019v-0.043h0.031v0.012H52.63
		v-0.019C52.628,88.97,52.63,88.96,52.644,88.96z"/>
	<path fill="#263238" d="M64.895,89.037c-0.034,0-0.062-2.906-0.062-6.49c0-3.583,0.029-6.49,0.062-6.49s0.062,2.907,0.062,6.49
		C64.957,86.13,64.928,89.037,64.895,89.037z"/>
	<path fill="#263238" d="M65.033,89.037c0,0.033-2.947,0.062-6.581,0.062c-3.634,0-6.579-0.029-6.579-0.062
		c0-0.034,2.945-0.062,6.579-0.062C62.086,88.975,65.033,89.004,65.033,89.037z"/>
	<path fill="#E0E0E0" d="M53.642,132.436l-12.607-0.39c0,0,0.478-4.148,0.88-4.545c0.589-0.586,10.562-10.875,10.562-10.875
		s1.751-22.104,1.897-22.74c0.146-0.636,2.933-8.746,3.079-8.94c0.146-0.194,0.292-0.636,1.026-0.684
		c0.734-0.048,1.172,0.78,1.172,0.78s2.835,8.992,2.981,9.724l2.316,22.356c0.038,0.267,10.157,10.764,10.387,11.269
		c0.23,0.505,0.423,3.385,0.423,3.385L63.17,132.7L53.642,132.436z"/>
	<path fill="#F5F5F5" d="M62.624,94.489c-0.414-1.536-2.93-9.516-2.93-9.516s-0.438-0.83-1.172-0.782
		c-0.734,0.048-0.878,0.49-1.026,0.684c-0.148,0.194-2.938,8.306-3.076,8.942c-0.014,0.058-0.041,0.292-0.079,0.672H62.624z"/>
	<path fill="#F5F5F5" d="M53.893,136.02l-0.105-6.181l0.73-2.318l-0.041-18.789l-0.136-14.243h8.284l-0.153,33.051l0.837,2.189
		v9.207h-4.332l-0.069-9.483c-0.001-0.115-0.047-0.225-0.128-0.306c-0.082-0.081-0.192-0.127-0.307-0.127l0,0
		c-0.116,0.001-0.226,0.047-0.308,0.129c-0.082,0.083-0.127,0.194-0.127,0.309l0.022,9.478h-4.127L53.893,136.02z"/>
	<path fill="#263238" d="M41.035,132.047l0.062,1.784l12.791,1.871l-0.055-3.258L41.035,132.047z"/>
	<path fill="#263238" d="M41.193,130.944c0-0.036,2.799-0.062,6.248-0.062s6.248,0.026,6.248,0.062c0,0.036-2.796,0.062-6.248,0.062
		C43.989,131.006,41.193,130.965,41.193,130.944z"/>
	<path fill="#263238" d="M42.179,132.082c-0.061-0.186-0.082-0.382-0.062-0.576c-0.02-0.194,0.001-0.389,0.062-0.574
		c0.062,0.184,0.083,0.38,0.062,0.574C42.262,131.7,42.241,131.897,42.179,132.082L42.179,132.082z"/>
	<path fill="#263238" d="M43.2,132.058c-0.083-0.359-0.083-0.732,0-1.091C43.283,131.326,43.283,131.699,43.2,132.058L43.2,132.058z
		"/>
	<path fill="#263238" d="M44.363,132.14c-0.083-0.395-0.083-0.802,0-1.196C44.446,131.338,44.446,131.745,44.363,132.14
		L44.363,132.14z"/>
	<path fill="#263238" d="M45.489,132.185c-0.086-0.413-0.086-0.84,0-1.253C45.572,131.345,45.572,131.771,45.489,132.185z"/>
	<path fill="#263238" d="M46.544,132.219c-0.083-0.425-0.083-0.862,0-1.287C46.627,131.357,46.627,131.794,46.544,132.219
		L46.544,132.219z"/>
	<path fill="#263238" d="M47.65,132.219c-0.083-0.425-0.083-0.862,0-1.287C47.733,131.357,47.733,131.794,47.65,132.219
		L47.65,132.219z"/>
	<path fill="#263238" d="M48.755,132.219c-0.083-0.425-0.083-0.862,0-1.287C48.838,131.357,48.838,131.794,48.755,132.219
		L48.755,132.219z"/>
	<path fill="#263238" d="M49.86,132.319c-0.083-0.459-0.083-0.929,0-1.387C49.943,131.39,49.943,131.86,49.86,132.319z"/>
	<path fill="#263238" d="M50.97,132.355c-0.083-0.471-0.083-0.953,0-1.423C51.053,131.402,51.053,131.884,50.97,132.355z"/>
	<path fill="#263238" d="M52.07,132.475c-0.083-0.511-0.083-1.032,0-1.543C52.153,131.443,52.153,131.964,52.07,132.475
		L52.07,132.475z"/>
	<path fill="#263238" d="M53.175,132.219c0.034,0.109,0.048,0.223,0.043,0.337v0.081v0.082h-0.096v-0.196c0-0.146,0-0.292,0-0.445
		c-0.021-0.384-0.001-0.769,0.062-1.149c0.061,0.38,0.082,0.765,0.062,1.149c0,0.153,0,0.299,0,0.445v0.196h-0.124v-0.163
		C53.12,132.441,53.138,132.327,53.175,132.219L53.175,132.219z"/>
	<path fill="#231F20" d="M50.02,129.817c0.912,0,1.651-0.739,1.651-1.651c0-0.911-0.739-1.65-1.651-1.65
		c-0.912,0-1.651,0.739-1.651,1.65C48.37,129.078,49.109,129.817,50.02,129.817z"/>
	<path fill="#263238" d="M41.757,130.302c0-0.129,0.421-2.136,0.421-2.136l10.593-11.004l0.155-6.181l-0.45,5.636l-10.439,10.678
		c-0.247,0.256-0.41,0.58-0.466,0.931l-0.409,2.742L41.757,130.302z"/>
	<path fill="#263238" d="M58.343,98.771c0.036,0,0.062,6.76,0.062,15.095c0,8.334-0.026,15.097-0.062,15.097
		c-0.036,0-0.062-6.758-0.062-15.097S58.309,98.771,58.343,98.771z"/>
	<path fill="#B1B3B6" d="M58.221,96.319h-0.584v1.029h0.584V96.319z"/>
	<path fill="#B1B3B6" d="M59.531,96.319h-0.584v1.029h0.584V96.319z"/>
	<path fill="#263238" d="M56.113,93.678l0.756,0.797h3.237l0.758-0.761c0,0-0.792-0.799-2.392-0.799
		C57.626,92.919,56.801,93.185,56.113,93.678L56.113,93.678z"/>
	<path fill="#263238" d="M62.606,98.467c0,0.036-1.842,0.062-4.112,0.062s-4.115-0.026-4.115-0.062c0-0.036,1.842-0.062,4.115-0.062
		C60.766,98.405,62.606,98.434,62.606,98.467z"/>
	<path fill="#263238" d="M61.328,90.133c0,0.034-1.244,0.062-2.78,0.062c-1.536,0-2.777-0.029-2.777-0.062s1.244-0.062,2.777-0.062
		C60.082,90.071,61.328,90.099,61.328,90.133z"/>
	<path fill="#263238" d="M55.082,99.166c0,0.019-0.031,0.034-0.043,0.074c-0.012,0.041,0,0.074,0.048,0.079
		c0.048,0.005,0.062-0.029,0.055-0.074c-0.007-0.046-0.036-0.06-0.034-0.077c0.002-0.017,0.06-0.031,0.112,0.036
		c0.014,0.021,0.024,0.045,0.027,0.069c0.003,0.025,0.001,0.05-0.008,0.074c-0.014,0.03-0.037,0.055-0.066,0.071
		c-0.028,0.017-0.061,0.025-0.094,0.023c-0.033-0.002-0.065-0.013-0.091-0.033c-0.026-0.02-0.046-0.047-0.057-0.078
		c-0.006-0.025-0.006-0.05,0-0.075c0.006-0.025,0.019-0.047,0.036-0.066C55.037,99.127,55.087,99.151,55.082,99.166z"/>
	<path fill="#263238" d="M55.91,99.166c0,0.019-0.031,0.034-0.043,0.074c-0.012,0.041,0,0.074,0.048,0.079
		c0.048,0.005,0.062-0.029,0.055-0.074c-0.007-0.046-0.036-0.06-0.034-0.077c0.002-0.017,0.06-0.031,0.112,0.036
		c0.014,0.021,0.024,0.045,0.027,0.069c0.003,0.025,0.001,0.05-0.008,0.074c-0.014,0.031-0.036,0.056-0.065,0.073
		c-0.029,0.017-0.062,0.025-0.095,0.023c-0.033-0.001-0.066-0.012-0.092-0.032c-0.027-0.02-0.046-0.048-0.056-0.08
		c-0.007-0.025-0.007-0.051-0.001-0.075c0.006-0.025,0.019-0.047,0.036-0.066C55.852,99.127,55.914,99.151,55.91,99.166z"/>
	<path fill="#263238" d="M56.807,99.166c0,0.019-0.031,0.034-0.043,0.074c-0.012,0.041,0,0.074,0.048,0.079
		c0.048,0.005,0.062-0.029,0.055-0.074c-0.007-0.046-0.036-0.06-0.034-0.077c0.002-0.017,0.06-0.031,0.112,0.036
		c0.014,0.021,0.024,0.045,0.027,0.069c0.003,0.025,0.001,0.05-0.008,0.074c-0.014,0.031-0.036,0.056-0.065,0.073
		c-0.029,0.017-0.062,0.025-0.095,0.023c-0.033-0.001-0.066-0.012-0.092-0.032c-0.027-0.02-0.046-0.048-0.056-0.08
		c-0.007-0.025-0.007-0.051,0-0.075c0.006-0.025,0.019-0.047,0.036-0.066C56.749,99.127,56.811,99.151,56.807,99.166z"/>
	<path fill="#263238" d="M57.704,99.166c0,0.019-0.031,0.034-0.043,0.074c-0.012,0.041,0,0.074,0.048,0.079
		c0.048,0.005,0.062-0.029,0.055-0.074c-0.007-0.046-0.036-0.06-0.034-0.077c0.002-0.017,0.06-0.031,0.112,0.036
		c0.014,0.021,0.024,0.045,0.027,0.069c0.003,0.025,0.001,0.05-0.008,0.074c-0.014,0.031-0.036,0.056-0.065,0.073
		c-0.029,0.017-0.062,0.025-0.095,0.023c-0.033-0.001-0.066-0.012-0.093-0.032c-0.027-0.02-0.046-0.048-0.056-0.08
		c-0.007-0.025-0.007-0.051-0.001-0.075c0.006-0.025,0.019-0.047,0.037-0.066C57.647,99.127,57.709,99.151,57.704,99.166z"/>
	<path fill="#263238" d="M62.474,120.514c0,0.035-1.796,0.062-4.012,0.062c-2.215,0-4.012-0.027-4.012-0.062
		c0-0.036,1.794-0.063,4.012-0.063C60.68,120.451,62.474,120.48,62.474,120.514z"/>
	<path fill="#263238" d="M62.553,106.278c0,0.033-1.813,0.062-4.05,0.062c-2.237,0-4.05-0.029-4.05-0.062
		c0-0.034,1.813-0.062,4.05-0.062C60.739,106.216,62.553,106.242,62.553,106.278z"/>
	<path fill="#263238" d="M62.553,113.959c0,0.033-1.792,0.062-4.002,0.062s-3.993-0.041-3.993-0.062c0-0.022,1.792-0.062,4-0.062
		S62.553,113.913,62.553,113.959z"/>
	<path fill="#263238" d="M57.931,129.896c-0.693,0.061-1.39,0.082-2.086,0.062c-0.697,0.02-1.394-0.001-2.088-0.062
		c0.694-0.063,1.392-0.084,2.088-0.062C56.541,129.812,57.238,129.833,57.931,129.896z"/>
	<path fill="#263238" d="M57.96,131.594c-0.671,0.065-1.345,0.086-2.019,0.065c-0.673,0.021-1.346,0-2.017-0.065
		c0.67-0.061,1.344-0.082,2.017-0.062C56.615,131.512,57.289,131.533,57.96,131.594L57.96,131.594z"/>
	<path fill="#263238" d="M58.044,133.049c-0.689,0.063-1.382,0.084-2.074,0.062c-0.692,0.022-1.385,0.001-2.074-0.062
		c0.689-0.062,1.382-0.083,2.074-0.062C56.662,132.966,57.355,132.987,58.044,133.049z"/>
	<path fill="#263238" d="M57.986,134.613c-0.675,0.062-1.353,0.083-2.031,0.062c-0.678,0.021-1.356,0-2.031-0.062
		c0.675-0.063,1.353-0.084,2.031-0.062C56.633,134.529,57.311,134.55,57.986,134.613L57.986,134.613z"/>
	<path fill="#263238" d="M57.986,136.042c-0.675,0.061-1.353,0.082-2.031,0.062c-0.678,0.02-1.356-0.001-2.031-0.062
		c0.675-0.062,1.353-0.083,2.031-0.063C56.633,135.959,57.311,135.98,57.986,136.042L57.986,136.042z"/>
	<path fill="#263238" d="M57.986,137.47c-0.675,0.063-1.353,0.083-2.031,0.062c-0.678,0.021-1.356,0.001-2.031-0.062
		c0.675-0.062,1.353-0.083,2.031-0.063C56.633,137.387,57.311,137.408,57.986,137.47L57.986,137.47z"/>
	<path fill="#263238" d="M63.129,129.896c-0.694,0.061-1.392,0.082-2.088,0.062c-0.696,0.02-1.392-0.001-2.086-0.062
		c0.693-0.063,1.39-0.084,2.086-0.062C61.738,129.812,62.435,129.833,63.129,129.896L63.129,129.896z"/>
	<path fill="#263238" d="M63.156,131.594c-0.67,0.065-1.344,0.086-2.017,0.065c-0.673,0.021-1.346,0-2.017-0.065
		c0.67-0.061,1.344-0.082,2.017-0.062C61.812,131.512,62.485,131.533,63.156,131.594z"/>
	<path fill="#263238" d="M63.239,133.049c-0.689,0.063-1.38,0.084-2.072,0.062c-0.692,0.022-1.385,0.001-2.074-0.062
		c0.689-0.062,1.382-0.083,2.074-0.062C61.859,132.967,62.551,132.987,63.239,133.049L63.239,133.049z"/>
	<path fill="#263238" d="M63.184,134.613c-0.675,0.062-1.353,0.083-2.031,0.062c-0.678,0.021-1.356,0-2.031-0.062
		c0.675-0.063,1.353-0.084,2.031-0.062C61.831,134.529,62.509,134.55,63.184,134.613L63.184,134.613z"/>
	<path fill="#263238" d="M63.184,136.042c-0.675,0.061-1.353,0.082-2.031,0.062c-0.678,0.02-1.356-0.001-2.031-0.062
		c0.675-0.062,1.353-0.083,2.031-0.063C61.831,135.959,62.509,135.98,63.184,136.042z"/>
	<path fill="#263238" d="M63.184,137.47c-0.675,0.063-1.353,0.083-2.031,0.062c-0.678,0.021-1.356,0.001-2.031-0.062
		c0.675-0.062,1.353-0.083,2.031-0.063C61.831,137.387,62.509,137.408,63.184,137.47L63.184,137.47z"/>
	<path fill="#FFFFFF" d="M58.821,93.369c0.019,0.029-0.206,0.199-0.5,0.378c-0.17,0.126-0.362,0.218-0.567,0.273
		c-0.019-0.031,0.206-0.198,0.5-0.378C58.424,93.515,58.616,93.422,58.821,93.369L58.821,93.369z"/>
	<path fill="#FFFFFF" d="M59.211,93.405c0.029,0.034-0.175,0.194-0.438,0.354c-0.151,0.117-0.326,0.198-0.512,0.239
		c-0.017-0.031,0.184-0.184,0.447-0.344C58.86,93.543,59.03,93.459,59.211,93.405z"/>
	<path fill="#263238" d="M54.364,93.984c0.036,0,0.089,7.488,0.122,16.722c0.034,9.233,0.029,16.726,0,16.726
		c-0.029,0-0.089-7.485-0.12-16.724C54.336,101.469,54.331,93.984,54.364,93.984z"/>
	<path fill="#263238" d="M62.474,127.355c-0.036,0-0.029-7.043,0.012-15.729c0.041-8.686,0.103-15.728,0.139-15.728
		c0.036,0,0.029,7.04-0.014,15.728C62.567,120.315,62.507,127.355,62.474,127.355z"/>
	<path fill="#263238" d="M75.61,130.955c0,0.034-2.797,0.063-6.249,0.063c-3.452,0-6.248-0.029-6.248-0.063
		c0-0.033,2.797-0.062,6.248-0.062C72.813,130.893,75.61,130.92,75.61,130.955z"/>
	<path fill="#263238" d="M74.621,132.106c-0.06-0.186-0.082-0.382-0.062-0.576c-0.02-0.194,0.002-0.39,0.062-0.574
		c0.061,0.184,0.082,0.38,0.062,0.574C74.703,131.724,74.682,131.92,74.621,132.106z"/>
	<path fill="#263238" d="M73.6,132.082c-0.061-0.175-0.082-0.361-0.062-0.545c-0.019-0.185,0.002-0.372,0.062-0.548
		c0.062,0.176,0.083,0.363,0.062,0.548C73.684,131.721,73.662,131.907,73.6,132.082z"/>
	<path fill="#263238" d="M72.44,132.152c-0.083-0.395-0.083-0.802,0-1.196C72.523,131.35,72.523,131.757,72.44,132.152z"/>
	<path fill="#263238" d="M71.304,132.209c-0.083-0.414-0.083-0.84,0-1.253C71.387,131.369,71.387,131.795,71.304,132.209z"/>
	<path fill="#263238" d="M70.256,132.243c-0.083-0.425-0.083-0.863,0-1.287C70.339,131.38,70.339,131.818,70.256,132.243z"/>
	<path fill="#263238" d="M69.151,132.243c-0.083-0.425-0.083-0.863,0-1.287C69.234,131.38,69.234,131.818,69.151,132.243z"/>
	<path fill="#263238" d="M68.045,132.243c-0.083-0.425-0.083-0.863,0-1.287C68.128,131.38,68.128,131.818,68.045,132.243z"/>
	<path fill="#263238" d="M66.94,132.498c-0.083-0.51-0.083-1.032,0-1.542C67.023,131.466,67.023,131.988,66.94,132.498z"/>
	<path fill="#263238" d="M65.835,132.589c-0.083-0.541-0.083-1.092,0-1.633C65.918,131.497,65.918,132.048,65.835,132.589
		L65.835,132.589z"/>
	<path fill="#263238" d="M64.515,132.699c-0.083-0.578-0.083-1.165,0-1.743C64.598,131.534,64.598,132.121,64.515,132.699z"/>
	<path fill="#263238" d="M75.066,129.987l-0.189-1.481l-10.394-11.004l-0.117-5.988l0.598,5.639l10.021,10.681
		c0.249,0.254,0.412,0.579,0.466,0.93l0.22,1.79L75.066,129.987z"/>
	<path fill="#231F20" d="M69.151,128.166h-4.784v1.29h4.784V128.166z"/>
	<path fill="#263238" d="M58.929,74.686c0-0.014,0.06-0.05,0.144,0c0.024,0.019,0.043,0.043,0.056,0.07
		c0.013,0.027,0.019,0.058,0.018,0.088c-0.005,0.039-0.021,0.076-0.046,0.106c-0.025,0.03-0.058,0.052-0.096,0.064
		c-0.037,0.012-0.077,0.012-0.115,0.002c-0.038-0.011-0.071-0.032-0.097-0.061c-0.018-0.024-0.03-0.053-0.035-0.083
		c-0.005-0.03-0.003-0.061,0.007-0.09c0.031-0.098,0.108-0.108,0.11-0.091s-0.026,0.048-0.024,0.108
		c0.002,0.06,0.041,0.122,0.117,0.096c0.015-0.004,0.028-0.011,0.04-0.022c0.011-0.011,0.019-0.024,0.024-0.039
		c0.004-0.015,0.005-0.03,0.001-0.045c-0.003-0.015-0.011-0.029-0.021-0.04C58.977,74.71,58.931,74.703,58.929,74.686z"/>
	<path fill="#263238" d="M58.929,71.301c0-0.014,0.06-0.05,0.144,0c0.023,0.019,0.042,0.043,0.055,0.07
		c0.013,0.027,0.019,0.057,0.019,0.087c-0.004,0.039-0.02,0.076-0.045,0.106c-0.025,0.03-0.058,0.053-0.096,0.065
		c-0.037,0.012-0.078,0.013-0.115,0.002s-0.072-0.032-0.098-0.061c-0.018-0.024-0.03-0.053-0.035-0.083s-0.003-0.061,0.007-0.09
		c0.031-0.098,0.108-0.108,0.11-0.091c0.002,0.017-0.026,0.048-0.024,0.108s0.041,0.12,0.117,0.096
		c0.015-0.004,0.028-0.011,0.04-0.022c0.011-0.011,0.019-0.024,0.024-0.039c0.004-0.015,0.005-0.03,0.001-0.045
		c-0.003-0.015-0.011-0.029-0.021-0.04C58.977,71.325,58.931,71.318,58.929,71.301z"/>
	<path fill="#263238" d="M58.929,67.914c0-0.014,0.06-0.05,0.144,0c0.024,0.018,0.043,0.042,0.056,0.07
		c0.013,0.027,0.019,0.057,0.018,0.088c-0.004,0.039-0.019,0.076-0.044,0.107c-0.025,0.03-0.059,0.052-0.097,0.063
		c-0.034,0.013-0.07,0.016-0.105,0.009c-0.035-0.007-0.068-0.025-0.093-0.05c-0.026-0.025-0.043-0.058-0.05-0.093
		c-0.007-0.035-0.004-0.072,0.009-0.105c0.031-0.096,0.108-0.105,0.11-0.091c0.002,0.014-0.026,0.05-0.024,0.108
		c0.002,0.057,0.041,0.122,0.117,0.098c0.077-0.024,0.079-0.096,0.043-0.148C58.976,67.916,58.931,67.933,58.929,67.914z"/>
	<path fill="#263238" d="M58.929,64.529c0-0.014,0.06-0.05,0.144,0.012c0.024,0.019,0.043,0.043,0.056,0.07
		c0.013,0.028,0.019,0.058,0.018,0.088c-0.004,0.039-0.019,0.076-0.044,0.107c-0.025,0.03-0.059,0.052-0.097,0.063
		c-0.037,0.013-0.078,0.014-0.116,0.004c-0.038-0.011-0.072-0.033-0.097-0.063c-0.018-0.024-0.03-0.053-0.035-0.083
		c-0.005-0.03-0.003-0.061,0.007-0.09c0.031-0.098,0.108-0.105,0.11-0.091c0.002,0.014-0.026,0.048-0.024,0.108
		s0.041,0.122,0.117,0.096c0.015-0.004,0.028-0.011,0.04-0.022c0.011-0.011,0.019-0.024,0.024-0.039
		c0.004-0.015,0.005-0.03,0.001-0.045c-0.003-0.015-0.011-0.029-0.021-0.04C58.977,64.553,58.931,64.546,58.929,64.529z"/>
	<path fill="#263238" d="M58.929,61.144c0-0.014,0.06-0.05,0.144,0c0.024,0.019,0.043,0.044,0.056,0.071
		c0.013,0.028,0.019,0.058,0.019,0.089c-0.005,0.039-0.021,0.076-0.046,0.105c-0.025,0.03-0.058,0.052-0.096,0.064
		c-0.037,0.012-0.077,0.012-0.115,0.002c-0.038-0.011-0.071-0.032-0.097-0.061c-0.018-0.024-0.03-0.053-0.035-0.083
		s-0.003-0.061,0.007-0.09c0.031-0.098,0.108-0.108,0.11-0.091c0.002,0.017-0.026,0.048-0.024,0.108
		c0.002,0.06,0.041,0.12,0.117,0.096c0.015-0.004,0.028-0.011,0.04-0.022c0.011-0.011,0.019-0.024,0.024-0.039
		c0.004-0.015,0.005-0.03,0.001-0.045c-0.003-0.015-0.011-0.029-0.021-0.04C58.977,61.168,58.931,61.161,58.929,61.144z"/>
	<path fill="#263238" d="M58.929,57.757c0,0,0.06-0.048,0.144,0.012c0.024,0.019,0.043,0.043,0.056,0.07
		c0.013,0.027,0.019,0.057,0.019,0.088c-0.004,0.04-0.019,0.077-0.045,0.108c-0.025,0.031-0.059,0.053-0.097,0.065
		c-0.037,0.013-0.078,0.014-0.116,0.003c-0.038-0.011-0.072-0.033-0.097-0.063c-0.018-0.024-0.03-0.053-0.035-0.083
		s-0.003-0.061,0.007-0.09c0.031-0.098,0.108-0.108,0.11-0.091c0.002,0.017-0.026,0.048-0.024,0.108s0.041,0.12,0.117,0.096
		c0.077-0.024,0.079-0.096,0.043-0.148C58.974,57.778,58.931,57.776,58.929,57.757z"/>
	<path fill="#FFFFFF" d="M55.288,61.474c-0.055,0.125-0.12,0.244-0.194,0.359c-0.134,0.225-0.316,0.557-0.529,0.974
		c-0.213,0.416-0.45,0.921-0.687,1.493c-0.237,0.572-0.457,1.215-0.655,1.899c-0.199,0.684-0.34,1.352-0.447,1.959
		c-0.108,0.608-0.172,1.163-0.208,1.629c-0.036,0.466-0.06,0.847-0.065,1.108c0.001,0.136-0.008,0.272-0.026,0.407
		c-0.02-0.135-0.028-0.271-0.024-0.407c0-0.263,0-0.644,0.026-1.112c0.034-0.551,0.095-1.099,0.184-1.643
		c0.111-0.666,0.257-1.324,0.44-1.974c0.188-0.65,0.411-1.289,0.67-1.914c0.214-0.508,0.454-1.006,0.718-1.49
		c0.225-0.414,0.421-0.739,0.567-0.957C55.125,61.688,55.202,61.577,55.288,61.474L55.288,61.474z"/>
	<path fill="#FFFFFF" d="M56.4,59.503c0.029,0.017-0.043,0.21-0.165,0.433c-0.122,0.222-0.239,0.39-0.275,0.373
		c-0.036-0.017,0.043-0.21,0.165-0.433C56.247,59.654,56.369,59.486,56.4,59.503z"/>
	<path fill="#FFFFFF" d="M52.956,88.525c-0.034,0-0.062-2.658-0.062-5.937s0.029-5.935,0.062-5.935c0.033,0,0.062,2.658,0.062,5.935
		S52.989,88.525,52.956,88.525z"/>
	<path fill="#FFFFFF" d="M53.84,84.786c-0.063-0.596-0.084-1.195-0.062-1.794c-0.022-0.603-0.001-1.206,0.062-1.806
		c0.062,0.597,0.082,1.197,0.062,1.797C53.923,83.584,53.902,84.187,53.84,84.786L53.84,84.786z"/>
	<path fill="#FFFFFF" d="M54.862,83.542c-0.064-0.214-0.086-0.438-0.065-0.66c-0.021-0.222,0.001-0.446,0.065-0.66
		C54.945,82.658,54.945,83.106,54.862,83.542L54.862,83.542z"/>
	<path fill="#FFFFFF" d="M52.443,104.5c-0.036,0-0.065-3.134-0.065-6.997c0-3.864,0.026-6.988,0.065-6.988s0.062,3.134,0.062,7
		C52.506,101.381,52.477,104.5,52.443,104.5z"/>
	<g>
		<defs>
			<rect id="SVGID_1_" x="239" y="107.704" width="49" height="36.2"/>
		</defs>
		<clipPath id="SVGID_2_">
			<use xlink:href="#SVGID_1_"  overflow="visible"/>
		</clipPath>
		<g clip-path="url(#SVGID_2_)">
			<path fill="#F8F8F8" d="M262.423,111.132c1.533-1.004,3.324-1.542,5.157-1.55h0.029c2.253-0.001,4.47,0.558,6.454,1.625
				c1.983,1.067,3.671,2.61,4.911,4.49c1.241,1.88,1.995,4.039,2.196,6.282c0.201,2.244-0.157,4.502-1.044,6.572
				c-0.887,2.071-2.273,3.889-4.036,5.292c-1.762,1.403-3.845,2.347-6.061,2.746c-2.217,0.4-4.498,0.243-6.64-0.456
				c-2.141-0.699-4.075-1.918-5.629-3.548c-2.203-3.47-2.949-7.668-2.076-11.685C256.557,116.884,258.978,113.374,262.423,111.132z"
				/>
			<path d="M267.58,109.474L267.58,109.474h0.029l0,0c2.271-0.001,4.506,0.562,6.505,1.638c1.999,1.076,3.7,2.631,4.951,4.526
				c1.25,1.895,2.01,4.07,2.213,6.331c0.203,2.262-0.159,4.538-1.053,6.625c-0.893,2.087-2.291,3.919-4.067,5.333
				s-3.876,2.365-6.11,2.768s-4.534,0.245-6.692-0.459c-2.158-0.705-4.108-1.934-5.674-3.577l-0.007-0.008l-0.006-0.009
				c-2.218-3.493-2.969-7.721-2.09-11.765c0.879-4.043,3.317-7.578,6.785-9.835C263.915,110.026,265.726,109.482,267.58,109.474z
				 M274.012,111.302c-1.968-1.059-4.168-1.613-6.403-1.612h-0.028c-1.812,0.007-3.583,0.539-5.099,1.532l0,0
				c-3.421,2.227-5.826,5.713-6.693,9.701c-0.866,3.985-0.127,8.151,2.056,11.595c1.541,1.614,3.457,2.821,5.578,3.513
				c2.124,0.693,4.388,0.849,6.587,0.452c2.199-0.396,4.265-1.332,6.014-2.724c1.748-1.392,3.124-3.196,4.003-5.25
				c0.88-2.054,1.236-4.295,1.036-6.52c-0.199-2.226-0.947-4.368-2.178-6.233C277.654,113.891,275.98,112.36,274.012,111.302z"/>
			<path fill="#FFFFFF" d="M263.585,111.132c0.024-0.017,0.047-0.03,0.069-0.046c-3.578,3.164-5.874,8.032-5.874,13.494
				c-0.012,3.197,0.803,6.343,2.365,9.132c-0.429-0.351-0.836-0.728-1.221-1.128c-2.203-3.469-2.949-7.667-2.076-11.684
				C257.72,116.884,260.141,113.374,263.585,111.132z"/>
			<path fill="#21B6B2" d="M257.76,132.584c1.554,1.63,3.488,2.848,5.629,3.547c2.141,0.698,4.421,0.854,6.637,0.454
				s4.298-1.343,6.06-2.746s3.148-3.22,4.034-5.29c0.887-2.07,1.245-4.328,1.045-6.571c-0.201-2.243-0.955-4.4-2.195-6.28
				c-1.24-1.88-2.927-3.423-4.909-4.49c-1.983-1.067-4.2-1.626-6.452-1.626h-0.029c-1.832,0.007-3.624,0.546-5.157,1.55
				c-2.726,1.777-4.83,4.358-6.022,7.386c1.459-3.839,4.3-6.994,7.966-8.846c3.666-1.852,7.891-2.266,11.847-1.162
				c3.956,1.104,7.356,3.648,9.533,7.13c2.176,3.483,2.973,7.654,2.232,11.693c-0.741,4.04-2.965,7.657-6.235,10.141
				c-3.271,2.483-7.352,3.655-11.442,3.284s-7.894-2.257-10.665-5.289c-2.77-3.032-4.307-6.99-4.309-11.097c0-0.031,0-0.062,0-0.092
				C255.336,127.222,256.179,130.102,257.76,132.584z"/>
			<path d="M276.185,108.614c-3.93-1.097-8.128-0.685-11.77,1.154c-0.998,0.504-1.934,1.106-2.798,1.792
				c0.243-0.18,0.492-0.353,0.747-0.518c1.551-1.016,3.362-1.56,5.216-1.568l0,0h0.029c2.27,0,4.504,0.563,6.503,1.639
				c1.998,1.076,3.698,2.631,4.948,4.526c1.249,1.894,2.01,4.069,2.212,6.33c0.202,2.26-0.159,4.536-1.053,6.622
				c-0.893,2.087-2.29,3.919-4.066,5.332c-1.776,1.414-3.874,2.365-6.108,2.768c-2.233,0.403-4.532,0.246-6.69-0.458
				c-2.142-0.699-4.079-1.914-5.64-3.539c0.569,0.96,1.238,1.867,2.002,2.702c2.752,3.012,6.531,4.886,10.594,5.255
				c4.064,0.368,8.118-0.796,11.367-3.263c3.25-2.468,5.459-6.061,6.195-10.074c0.736-4.013-0.055-8.157-2.218-11.617
				C283.493,112.238,280.115,109.711,276.185,108.614z M276.243,108.406c3.982,1.112,7.404,3.672,9.595,7.177
				c2.191,3.506,2.992,7.704,2.247,11.77c-0.746,4.066-2.984,7.706-6.276,10.206c-3.292,2.501-7.4,3.68-11.517,3.306
				c-4.117-0.373-7.946-2.272-10.734-5.323c-2.789-3.052-4.336-7.036-4.338-11.17v-0.092l0.215-0.001
				c0.008,2.919,0.844,5.776,2.41,8.239c1.541,1.613,3.457,2.819,5.577,3.51c2.124,0.693,4.387,0.848,6.585,0.451
				c2.199-0.397,4.264-1.333,6.012-2.724c1.748-1.392,3.123-3.195,4.002-5.249c0.879-2.053,1.235-4.293,1.036-6.518
				s-0.947-4.366-2.177-6.231c-1.23-1.865-2.904-3.395-4.871-4.454c-1.967-1.059-4.166-1.613-6.4-1.613h-0.029
				c-1.811,0.007-3.582,0.539-5.098,1.532h-0.001c-2.706,1.765-4.797,4.329-5.98,7.335l-0.201-0.077
				c1.468-3.865,4.328-7.04,8.018-8.904C268.008,107.712,272.261,107.295,276.243,108.406z"/>
			<path fill="#21B6B2" d="M285.762,117.45c1.341,2.898,1.811,6.123,1.352,9.283c-0.459,3.16-1.826,6.118-3.935,8.515"/>
			<path d="M285.671,117.254c0.108-0.05,0.236-0.003,0.286,0.105c1.359,2.936,1.835,6.203,1.37,9.404l0,0
				c-0.465,3.202-1.85,6.199-3.987,8.627c-0.079,0.089-0.215,0.098-0.304,0.019c-0.089-0.078-0.098-0.214-0.019-0.304
				c2.081-2.365,3.431-5.285,3.884-8.403c0.452-3.119-0.012-6.302-1.335-9.162C285.516,117.432,285.563,117.304,285.671,117.254z"/>
			<path fill="#B1B3B6" d="M283.713,114.132c0.428,0.538,0.822,1.101,1.179,1.688L283.713,114.132z"/>
			<path d="M283.579,113.963c0.094-0.074,0.229-0.059,0.303,0.035c0.433,0.544,0.832,1.116,1.195,1.71
				c0.061,0.101,0.029,0.234-0.072,0.296c-0.102,0.062-0.235,0.03-0.296-0.072c-0.353-0.579-0.742-1.135-1.164-1.666
				C283.471,114.173,283.486,114.037,283.579,113.963z"/>
			<path fill="#FFBE9D" d="M280.515,113.979c-2.547-2.445-6.102-3.511-9.599-3.051c-0.515,0.067-1.06,0.16-1.637,0.285
				c-3.413,0.752-5.392,4.301-5.665,4.507c-0.273,0.205,0.409,2.183,0.409,2.183s-2.729,7.986-2.389,9.216
				c0.341,1.23,4.574,2.594,4.574,2.594l-0.615,2.526l12.97,2.525c0,0,1.091-4.912,2.527-6.893c1.435-1.982,2.534-4.212,2.183-8.329
				C283.076,117.135,281.901,115.314,280.515,113.979z"/>
			<g opacity="0.5">
				<path opacity="0.5" fill="#EB996E" enable-background="new    " d="M265.859,129.109c2.058,0.124,5.984-1.87,7.479-4.986
					c0.92-1.884,2.43-3.417,4.299-4.366c1.823-0.52,3.729-0.684,5.614-0.484c0.011,0.087,0.022,0.182,0.029,0.264
					c0.352,4.117-0.749,6.347-2.183,8.328c-1.433,1.981-2.527,6.893-2.527,6.893l-12.969-2.525l0.615-2.525
					c-1.093-0.359-2.154-0.807-3.173-1.339C263.905,128.722,264.939,129.053,265.859,129.109z"/>
			</g>
			<path d="M270.903,110.822c3.526-0.465,7.114,0.61,9.687,3.08c1.399,1.348,2.591,3.192,2.79,5.632
				c0.177,2.069-0.011,3.671-0.426,5.006c-0.415,1.335-1.055,2.398-1.777,3.394c-0.706,0.975-1.333,2.682-1.786,4.158
				c-0.225,0.736-0.406,1.41-0.531,1.9c-0.062,0.245-0.11,0.445-0.143,0.582c-0.016,0.069-0.028,0.122-0.037,0.159
				c-0.004,0.018-0.007,0.032-0.009,0.041l-0.003,0.014c0,0,0,0-0.105-0.024l0.105,0.024l-0.023,0.102l-13.183-2.567l0.618-2.538
				c-0.025-0.008-0.055-0.018-0.089-0.03c-0.117-0.04-0.285-0.098-0.487-0.172c-0.403-0.148-0.946-0.358-1.499-0.607
				c-0.553-0.248-1.12-0.537-1.573-0.843c-0.226-0.153-0.426-0.312-0.581-0.474c-0.155-0.162-0.271-0.333-0.32-0.511
				c-0.049-0.176-0.04-0.455,0.002-0.791c0.042-0.341,0.122-0.757,0.226-1.22c0.209-0.925,0.519-2.041,0.839-3.117
				c0.32-1.077,0.651-2.114,0.902-2.883c0.125-0.384,0.231-0.701,0.305-0.922c0.037-0.111,0.066-0.197,0.086-0.256
				c0.007-0.023,0.014-0.041,0.019-0.056c-0.005-0.013-0.011-0.03-0.018-0.051c-0.018-0.055-0.044-0.133-0.074-0.228
				c-0.06-0.19-0.137-0.445-0.206-0.708c-0.068-0.261-0.13-0.533-0.156-0.755c-0.013-0.11-0.018-0.214-0.01-0.299
				c0.008-0.077,0.03-0.173,0.103-0.228c0,0,0,0,0.001,0l0.001-0.001c0-0.001,0.002-0.002,0.003-0.003
				c0.003-0.003,0.007-0.007,0.012-0.012c0.009-0.01,0.021-0.024,0.035-0.042c0.029-0.035,0.065-0.082,0.108-0.141
				c0.032-0.044,0.068-0.093,0.108-0.148c0.066-0.092,0.144-0.199,0.231-0.316c0.278-0.375,0.661-0.866,1.143-1.373
				c0.962-1.015,2.329-2.107,4.065-2.489l0,0C269.836,110.983,270.385,110.889,270.903,110.822z M264.023,117.903
				c0.102,0.035,0.102,0.035,0.102,0.035l-0.007,0.023c-0.006,0.015-0.013,0.038-0.023,0.067c-0.02,0.059-0.049,0.145-0.086,0.255
				c-0.074,0.221-0.179,0.537-0.304,0.921c-0.251,0.767-0.581,1.803-0.9,2.877c-0.32,1.074-0.628,2.185-0.836,3.104
				c-0.103,0.459-0.181,0.868-0.222,1.199c-0.043,0.337-0.045,0.576-0.009,0.707c0.036,0.13,0.127,0.27,0.269,0.419
				c0.141,0.147,0.328,0.297,0.546,0.445c0.437,0.296,0.992,0.578,1.54,0.825c0.548,0.246,1.085,0.454,1.485,0.6
				c0.201,0.074,0.367,0.131,0.482,0.171c0.058,0.02,0.104,0.035,0.134,0.045c0.016,0.005,0.028,0.009,0.036,0.012l0.008,0.002
				l0.003,0.001l0,0c0,0,0,0-0.033,0.103l0.033-0.103l0.096,0.031l-0.612,2.513l12.756,2.484c0.007-0.032,0.016-0.07,0.027-0.114
				c0.032-0.139,0.081-0.339,0.143-0.586c0.125-0.492,0.307-1.17,0.534-1.91c0.452-1.475,1.088-3.214,1.818-4.221
				c0.713-0.985,1.34-2.028,1.745-3.332c0.406-1.305,0.592-2.877,0.418-4.924v-0.001c-0.194-2.374-1.353-4.172-2.726-5.494
				c-2.522-2.421-6.043-3.478-9.509-3.022c-0.512,0.067-1.055,0.159-1.629,0.284c-1.676,0.369-3.006,1.427-3.955,2.427
				c-0.473,0.499-0.85,0.982-1.126,1.353c-0.087,0.117-0.162,0.221-0.228,0.312c-0.04,0.055-0.077,0.106-0.11,0.151
				c-0.044,0.06-0.082,0.11-0.114,0.15c-0.03,0.037-0.061,0.072-0.09,0.094h0.001c0,0-0.013,0.016-0.02,0.078
				c-0.006,0.062-0.003,0.147,0.01,0.251c0.025,0.207,0.083,0.468,0.151,0.727c0.067,0.257,0.143,0.509,0.203,0.697
				c0.029,0.093,0.055,0.171,0.073,0.225c0.009,0.027,0.016,0.048,0.021,0.063l0.005,0.016l0.002,0.004v0.001L264.023,117.903z
				 M264.023,117.903l0.102-0.035l0.012,0.035l-0.012,0.035L264.023,117.903z"/>
			<path d="M267.24,114.763c0,0-0.136,0.137,1.092,0.137s3.346-0.204,4.028,0.411c0.682,0.615,1.775,2.388,1.364,2.388
				s-0.955-0.614-1.364-0.614c-0.322-0.014-0.642-0.06-0.955-0.137c0,0,1.706,1.024,1.091,1.092
				c-0.615,0.067-3.345-0.341-4.095-0.819c-0.749-0.479-1.297-0.819-1.366-1.228C266.966,115.584,266.762,115.311,267.24,114.763z"
				/>
			<path d="M267.24,114.763c-0.076-0.076-0.076-0.076-0.076-0.076l-0.001,0.001l0,0l-0.002,0.002
				c-0.001,0.001-0.002,0.002-0.003,0.004l0,0c-0.25,0.286-0.334,0.515-0.334,0.736c0,0.106,0.019,0.206,0.041,0.3
				c0.007,0.026,0.013,0.052,0.019,0.078c0.017,0.067,0.032,0.132,0.044,0.203c0.042,0.245,0.223,0.454,0.466,0.653
				c0.233,0.191,0.542,0.388,0.891,0.611c0.019,0.012,0.038,0.024,0.058,0.037c0.202,0.128,0.526,0.247,0.898,0.352
				c0.376,0.106,0.81,0.2,1.239,0.277c0.429,0.077,0.854,0.137,1.211,0.174c0.354,0.036,0.65,0.05,0.817,0.032
				c0.082-0.009,0.184-0.039,0.219-0.138c0.017-0.046,0.011-0.092-0.001-0.128c-0.011-0.036-0.031-0.071-0.053-0.102
				c-0.084-0.121-0.253-0.265-0.427-0.396c-0.104-0.079-0.215-0.157-0.319-0.228c0.142,0.019,0.285,0.031,0.428,0.037h0.002h0.003
				c0.077,0,0.17,0.03,0.279,0.085c0.109,0.054,0.223,0.128,0.344,0.206l0.002,0.001c0.117,0.076,0.241,0.155,0.362,0.216
				c0.12,0.06,0.249,0.107,0.377,0.107c0.046,0,0.094-0.013,0.132-0.048c0.038-0.035,0.055-0.079,0.062-0.12
				c0.012-0.076-0.006-0.168-0.035-0.259c-0.059-0.187-0.184-0.437-0.338-0.699c-0.31-0.525-0.761-1.132-1.113-1.45
				c-0.192-0.173-0.474-0.28-0.794-0.349c-0.323-0.07-0.697-0.102-1.084-0.115c-0.483-0.016-0.999-0.002-1.465,0.01
				c-0.275,0.008-0.534,0.015-0.757,0.015c-0.615,0-0.874-0.035-0.977-0.064c-0.025-0.007-0.036-0.013-0.039-0.015l0,0
				c0,0,0.01,0.007,0.018,0.023c0.012,0.023,0.012,0.049,0.004,0.069c-0.003,0.009-0.007,0.016-0.011,0.021
				c-0.002,0.003-0.003,0.005-0.005,0.008h-0.001l-0.157-0.147L267.24,114.763z M271.349,117.04l-0.614-0.368l0.695,0.171
				c0.306,0.076,0.618,0.12,0.932,0.134c0.127,0,0.254,0.047,0.374,0.107s0.243,0.14,0.36,0.215l0.003,0.002
				c0.121,0.078,0.235,0.151,0.344,0.206c0.102,0.051,0.189,0.08,0.263,0.084c0.001-0.027-0.006-0.075-0.029-0.146
				c-0.051-0.164-0.166-0.396-0.318-0.655c-0.305-0.515-0.742-1.102-1.072-1.399c-0.149-0.135-0.388-0.233-0.695-0.299
				c-0.304-0.065-0.664-0.097-1.045-0.11c-0.479-0.016-0.978-0.002-1.438,0.01c-0.278,0.008-0.541,0.015-0.777,0.015
				c-0.614,0-0.901-0.033-1.036-0.072c-0.016-0.005-0.032-0.01-0.046-0.015c-0.168,0.215-0.21,0.373-0.21,0.51
				c0,0.081,0.014,0.161,0.035,0.251c0.005,0.022,0.011,0.045,0.017,0.07c0.017,0.069,0.035,0.145,0.049,0.224
				c0.028,0.164,0.155,0.33,0.39,0.523c0.222,0.182,0.521,0.373,0.876,0.599c0.017,0.011,0.034,0.022,0.052,0.033
				c0.173,0.111,0.471,0.222,0.841,0.326c0.366,0.104,0.794,0.197,1.218,0.273c0.424,0.076,0.844,0.135,1.195,0.171
				c0.355,0.036,0.63,0.048,0.771,0.033c0.012-0.002,0.021-0.003,0.029-0.005c-0.004-0.007-0.01-0.016-0.017-0.026
				c-0.062-0.089-0.205-0.215-0.38-0.347c-0.172-0.13-0.364-0.259-0.513-0.355c-0.075-0.048-0.138-0.088-0.183-0.116
				c-0.023-0.014-0.04-0.025-0.053-0.032l-0.013-0.009l-0.004-0.002L271.349,117.04z M272.522,117.951
				C272.522,117.951,272.522,117.951,272.522,117.951L272.522,117.951z"/>
			<path d="M264.383,114.717c0.053,0.108,0.322,0.584,0.808,0.524c0.313-0.033,0.604-0.178,0.819-0.409
				c-0.057,0.246-0.08,0.499-0.068,0.751c0,0.546-0.069,0.956-0.409,1.365c-0.34,0.409-1.503,0.955-1.503,0.955
				s-0.409-1.228-0.409-2.183C263.708,115.654,263.965,115.256,264.383,114.717z"/>
			<path d="M266.206,114.464l-0.091,0.392c-0.054,0.237-0.076,0.48-0.065,0.722l0.001,0.003v0.003c0,0.556-0.071,0.996-0.435,1.433
				c-0.094,0.114-0.24,0.231-0.399,0.342c-0.161,0.111-0.341,0.219-0.51,0.314c-0.168,0.095-0.325,0.177-0.441,0.235
				c-0.057,0.029-0.105,0.052-0.138,0.068c-0.016,0.008-0.029,0.014-0.038,0.018l-0.01,0.005L264.078,118l-0.001,0.001
				c0,0,0,0-0.046-0.098c-0.102,0.034-0.102,0.034-0.102,0.034l-0.001-0.001l-0.001-0.003l-0.003-0.011
				c-0.003-0.009-0.008-0.023-0.014-0.041c-0.011-0.036-0.027-0.088-0.046-0.154c-0.039-0.132-0.091-0.317-0.143-0.532
				c-0.103-0.429-0.207-0.985-0.207-1.475v-0.054l0.043-0.032c0.008-0.006,0.032-0.032,0.077-0.089
				c0.041-0.053,0.093-0.124,0.157-0.212c0.013-0.017,0.025-0.034,0.038-0.052c0.122-0.168,0.279-0.384,0.47-0.629l0.105-0.136
				l0.076,0.154c0.024,0.048,0.097,0.181,0.219,0.293c0.12,0.112,0.278,0.197,0.479,0.172l0.002-0.001
				c0.288-0.03,0.554-0.163,0.751-0.375L266.206,114.464z M264.031,117.903l-0.102,0.034l0.038,0.115l0.11-0.051L264.031,117.903z
				 M264.096,117.752c0.022-0.011,0.046-0.023,0.073-0.037c0.114-0.057,0.268-0.137,0.433-0.23c0.165-0.093,0.339-0.197,0.492-0.304
				c0.155-0.107,0.281-0.211,0.357-0.302c0.316-0.381,0.384-0.759,0.384-1.293c-0.007-0.159-0.002-0.319,0.017-0.477
				c-0.191,0.132-0.414,0.215-0.648,0.24c-0.284,0.034-0.503-0.089-0.652-0.228c-0.076-0.07-0.136-0.146-0.18-0.211
				c-0.145,0.19-0.268,0.359-0.369,0.498c-0.013,0.018-0.025,0.035-0.037,0.052c-0.064,0.087-0.118,0.161-0.162,0.218
				c-0.026,0.032-0.051,0.063-0.075,0.088c0.007,0.454,0.103,0.969,0.202,1.379c0.051,0.211,0.101,0.392,0.139,0.521
				C264.08,117.698,264.088,117.727,264.096,117.752z"/>
			<path fill="#FFBE9D" d="M266.215,116.744c0,0-2.729,1.296-2.867,1.707c-0.138,0.411,0.682,1.979,0.682,1.979"/>
			<path d="M266.169,116.647c0,0,0,0,0.047,0.097c0.046,0.098,0.046,0.098,0.046,0.098l-0.008,0.003l-0.023,0.011
				c-0.019,0.01-0.049,0.024-0.086,0.042c-0.075,0.036-0.182,0.088-0.31,0.152c-0.258,0.127-0.602,0.301-0.95,0.488
				c-0.349,0.187-0.7,0.386-0.971,0.563c-0.136,0.088-0.25,0.17-0.333,0.24c-0.041,0.036-0.073,0.067-0.096,0.093
				c-0.024,0.028-0.032,0.044-0.034,0.051c-0.01,0.029-0.014,0.08-0.006,0.157c0.009,0.074,0.028,0.163,0.055,0.262
				c0.056,0.199,0.144,0.429,0.237,0.649c0.093,0.219,0.19,0.426,0.265,0.578c0.037,0.077,0.068,0.139,0.09,0.182
				c0.011,0.022,0.019,0.039,0.025,0.05l0.007,0.013l0.002,0.003v0.001l-0.095,0.05c-0.096,0.05-0.096,0.05-0.096,0.05v-0.001
				l-0.002-0.004l-0.007-0.013c-0.006-0.012-0.015-0.029-0.026-0.051c-0.023-0.045-0.054-0.108-0.092-0.185
				c-0.075-0.155-0.175-0.365-0.269-0.589c-0.095-0.224-0.187-0.463-0.246-0.674c-0.03-0.106-0.052-0.207-0.062-0.297
				c-0.01-0.088-0.009-0.176,0.015-0.25 M266.169,116.647L266.169,116.647z M266.169,116.647l-0.002,0.001L266.169,116.647z
				 M266.167,116.648l-0.006,0.003L266.167,116.648z M266.161,116.651l-0.023,0.011L266.161,116.651z M266.138,116.662
				c-0.02,0.009-0.049,0.024-0.087,0.042L266.138,116.662z M266.051,116.704c-0.075,0.036-0.182,0.088-0.312,0.153L266.051,116.704z
				 M265.739,116.857c-0.258,0.128-0.605,0.303-0.956,0.491L265.739,116.857z M264.783,117.348
				c-0.351,0.188-0.708,0.391-0.987,0.572L264.783,117.348z M263.796,117.92c-0.139,0.091-0.262,0.178-0.354,0.257L263.796,117.92z
				 M263.442,118.177c-0.047,0.04-0.088,0.079-0.12,0.117L263.442,118.177z M263.322,118.294c-0.032,0.036-0.06,0.078-0.076,0.122
				L263.322,118.294z"/>
			<path d="M263.348,118.455c0,0,4.096,2.525,3.55,2.865c-0.546,0.34-2.047-0.204-2.458-0.546
				C264.029,120.432,263.281,119.337,263.348,118.455z"/>
			<path d="M263.405,118.363l-0.056,0.091C263.405,118.363,263.405,118.363,263.405,118.363l0.012,0.007l0.035,0.021
				c0.03,0.019,0.073,0.046,0.129,0.081c0.111,0.07,0.269,0.17,0.458,0.292c0.376,0.242,0.872,0.569,1.351,0.907
				c0.479,0.338,0.944,0.689,1.257,0.978c0.155,0.144,0.28,0.279,0.348,0.395c0.034,0.057,0.061,0.122,0.061,0.187
				c0,0.075-0.036,0.139-0.101,0.18c-0.163,0.102-0.386,0.131-0.617,0.123c-0.235-0.009-0.495-0.058-0.748-0.128
				c-0.5-0.137-0.996-0.364-1.218-0.549c-0.22-0.183-0.517-0.554-0.752-0.989c-0.234-0.435-0.415-0.951-0.379-1.422l0.014-0.176
				L263.405,118.363z M263.454,118.647c0.019,0.364,0.163,0.761,0.356,1.119c0.226,0.418,0.507,0.765,0.699,0.925
				c0.189,0.157,0.649,0.373,1.138,0.508c0.243,0.066,0.486,0.111,0.699,0.119c0.215,0.008,0.385-0.022,0.494-0.089
				c0-0.011-0.007-0.035-0.03-0.076c-0.052-0.087-0.157-0.205-0.309-0.346c-0.302-0.279-0.758-0.623-1.235-0.96
				c-0.476-0.335-0.97-0.661-1.344-0.902c-0.188-0.121-0.345-0.221-0.456-0.29C263.462,118.652,263.458,118.65,263.454,118.647z"/>
			<path d="M263.911,122.074c0,0,1.479,0.393,1.959,0.444c0.48,0.051,1.392,0.699,0.982,0.713c-0.409,0.015-1.937-0.676-2.347-0.662
				c-0.409,0.015-1.091,0.033-1.135-0.142C263.283,122.093,263.911,122.074,263.911,122.074z"/>
			<path d="M263.939,121.971l-0.028,0.104l-0.003-0.108l0.015-0.001L263.939,121.971z M263.266,122.454
				c-0.031-0.121,0.003-0.223,0.074-0.297c0.065-0.068,0.156-0.109,0.235-0.134c0.082-0.026,0.165-0.04,0.226-0.047
				c0.031-0.004,0.057-0.006,0.076-0.007c0.009-0.001,0.017-0.001,0.022-0.002h0.006h0.002l0,0h0.001c0,0,0,0,0.003,0.108
				l0.028-0.104l0.016,0.004l0.048,0.012c0.041,0.011,0.1,0.027,0.173,0.046c0.146,0.037,0.346,0.088,0.56,0.14
				c0.432,0.105,0.914,0.214,1.146,0.238c0.137,0.015,0.296,0.07,0.447,0.141c0.153,0.071,0.305,0.16,0.429,0.249
				c0.062,0.045,0.118,0.09,0.164,0.134c0.045,0.042,0.086,0.088,0.111,0.134c0.023,0.04,0.054,0.118,0.003,0.191
				c-0.045,0.065-0.124,0.077-0.18,0.079c-0.064,0.003-0.143-0.009-0.227-0.027c-0.086-0.018-0.184-0.045-0.289-0.077
				c-0.21-0.063-0.454-0.148-0.695-0.232l-0.001-0.001c-0.243-0.085-0.483-0.168-0.688-0.23c-0.102-0.031-0.194-0.056-0.271-0.072
				c-0.08-0.017-0.138-0.024-0.176-0.023c-0.203,0.007-0.482,0.016-0.715,0c-0.116-0.008-0.228-0.022-0.316-0.048
				c-0.044-0.013-0.087-0.031-0.124-0.056C263.317,122.548,263.28,122.51,263.266,122.454z M263.899,122.183
				c-0.002,0-0.005,0-0.008,0.001c-0.015,0.001-0.037,0.002-0.064,0.006c-0.054,0.006-0.122,0.018-0.186,0.038
				c-0.067,0.021-0.117,0.048-0.145,0.078c-0.021,0.021-0.032,0.046-0.023,0.087c0.001,0.001,0.002,0.002,0.003,0.003
				c0.011,0.007,0.031,0.017,0.063,0.026c0.065,0.019,0.158,0.032,0.269,0.04c0.221,0.015,0.489,0.007,0.694,0
				c0.064-0.002,0.144,0.009,0.228,0.027c0.086,0.018,0.184,0.045,0.289,0.077c0.209,0.063,0.453,0.148,0.694,0.232l0.002,0.001
				c0.243,0.085,0.482,0.168,0.687,0.23c0.102,0.031,0.194,0.056,0.272,0.072c0.053,0.012,0.097,0.019,0.131,0.022
				c-0.009-0.01-0.019-0.02-0.031-0.032c-0.037-0.035-0.086-0.074-0.142-0.115c-0.113-0.081-0.253-0.164-0.394-0.229
				c-0.142-0.066-0.276-0.11-0.379-0.121c-0.249-0.027-0.746-0.14-1.174-0.244c-0.216-0.052-0.416-0.103-0.562-0.141
				c-0.074-0.019-0.133-0.034-0.175-0.045l-0.048-0.013H263.899z M266.85,123.183c-0.001,0-0.001-0.001-0.001-0.002
				C266.849,123.182,266.85,123.183,266.85,123.183z M263.475,122.401L263.475,122.401z"/>
			<path d="M266.157,129.951c0.166,0.015,0.317,0.026,0.45,0.031c1.495,0.064,3.456-0.049,5.359-0.997
				c0.864-0.473,1.633-1.1,2.271-1.85c-1.983-1.078-4.104-1.88-6.304-2.383c-0.265-0.063-0.495-0.228-0.638-0.46
				c-0.144-0.232-0.189-0.511-0.127-0.777c0.063-0.265,0.228-0.495,0.46-0.638c0.232-0.144,0.511-0.189,0.776-0.127
				c2.479,0.566,4.864,1.485,7.081,2.729c1.499-2.408,2.345-5.621,0.909-8.638c-1.981-4.168-6.158-5.226-7.64-5.476
				c0.172-0.054,0.349-0.103,0.529-0.143c0.569-0.126,1.115-0.219,1.637-0.286c3.497-0.46,7.057,0.606,9.599,3.051
				c1.386,1.335,2.561,3.156,2.765,5.563c0.351,4.117-0.75,6.348-2.183,8.329c-1.434,1.981-2.527,6.893-2.527,6.893l-12.97-2.525
				L266.157,129.951z"/>
			<path d="M267.58,109.474L267.58,109.474h0.029l0,0c2.271-0.001,4.506,0.562,6.505,1.638c1.999,1.076,3.7,2.631,4.951,4.526
				c1.25,1.895,2.01,4.07,2.213,6.331c0.203,2.262-0.159,4.538-1.053,6.625c-0.893,2.087-2.291,3.919-4.067,5.333
				s-3.876,2.365-6.11,2.768s-4.534,0.245-6.692-0.459c-2.158-0.705-4.108-1.934-5.674-3.577l-0.007-0.008l-0.006-0.009
				c-2.218-3.493-2.969-7.721-2.09-11.765c0.879-4.043,3.317-7.578,6.785-9.835C263.915,110.026,265.726,109.482,267.58,109.474z
				 M274.012,111.302c-1.968-1.059-4.168-1.613-6.403-1.612h-0.028c-1.812,0.007-3.583,0.539-5.099,1.532l0,0
				c-3.421,2.227-5.826,5.713-6.693,9.701c-0.866,3.985-0.127,8.151,2.056,11.595c1.541,1.614,3.457,2.821,5.578,3.513
				c2.124,0.693,4.388,0.849,6.587,0.452c2.199-0.396,4.265-1.332,6.014-2.724c1.748-1.392,3.124-3.196,4.003-5.25
				c0.88-2.054,1.236-4.295,1.036-6.52c-0.199-2.226-0.947-4.368-2.178-6.233C277.654,113.891,275.98,112.36,274.012,111.302z"/>
			<path d="M282.891,127.269c-1.342-0.041-2.382-1.622-2.324-3.531c0.058-1.909,1.193-3.424,2.535-3.383
				c1.342,0.041,2.382,1.622,2.324,3.531C285.368,125.795,284.233,127.31,282.891,127.269z"/>
			<path fill="#B1B3B6" d="M253.925,139.143c0,0,1.403-0.842,1.496-2.243c0.093-1.401-0.093-1.963-0.093-1.963
				s8.88-5.703,27.389,0.653c0,0,2.243,0.28,1.963,1.31s-0.748,1.495-0.748,2.336c0,0.84,1.776,1.959,2.525,2.15
				c0.271,0.068,1.368,0.63,2.729,1.363c-3.14,3.41-6.975,6.106-11.247,7.906c-4.226,1.758-9.014,2.649-14.23,2.649
				c-6.427,0-12.673-1.361-17.647-2.883l0.11-8.478L253.925,139.143z"/>
			<path fill="#B1B3B6" d="M280.783,149.3c2.168-4.548,4.965-8.603,7.543-8.661c0.347,0,1.091,0.254,2.101,0.689
				C287.754,144.58,284.48,147.287,280.783,149.3z"/>
			<path d="M282.717,135.59c0,0,2.243,0.28,1.962,1.31c-0.28,1.029-0.747,1.495-0.747,2.336c0.009,0.173,0.066,0.34,0.164,0.484
				c-4.449-1.341-17.813-4.863-28.716-2.527c0.02-0.098,0.034-0.196,0.04-0.295c0.095-1.403-0.092-1.963-0.092-1.963
				S264.207,129.233,282.717,135.59z"/>
			<path d="M255.453,134.985c0.002,0.011,0.005,0.023,0.008,0.037c0.017,0.078,0.038,0.195,0.056,0.356
				c0.036,0.323,0.059,0.82,0.011,1.527c-0.003,0.05-0.008,0.1-0.015,0.149c5.429-1.133,11.445-0.833,16.661-0.083
				c5.084,0.73,9.414,1.89,11.712,2.573c-0.035-0.097-0.056-0.199-0.061-0.303c0-0.002-0.001-0.004-0.001-0.006
				c0-0.442,0.124-0.785,0.278-1.139c0.028-0.066,0.058-0.131,0.087-0.198c0.133-0.296,0.275-0.614,0.387-1.027
				c0.057-0.211-0.011-0.384-0.161-0.534c-0.155-0.155-0.392-0.28-0.65-0.378c-0.255-0.096-0.521-0.162-0.724-0.204
				c-0.101-0.021-0.186-0.035-0.245-0.045c-0.03-0.005-0.053-0.008-0.069-0.01c-0.008-0.001-0.014-0.002-0.018-0.003h-0.004h-0.001
				l0,0c-0.008-0.001-0.015-0.003-0.022-0.005c-9.24-3.174-16.07-3.335-20.586-2.707c-2.258,0.315-3.938,0.826-5.052,1.259
				c-0.558,0.216-0.973,0.412-1.249,0.554c-0.138,0.071-0.241,0.128-0.309,0.168C255.474,134.973,255.463,134.979,255.453,134.985z
				 M282.742,135.484c-9.265-3.18-16.125-3.345-20.675-2.712c-2.276,0.317-3.972,0.833-5.101,1.271
				c-0.565,0.219-0.987,0.418-1.27,0.563c-0.141,0.073-0.247,0.132-0.318,0.173c-0.035,0.021-0.062,0.037-0.08,0.048
				c-0.009,0.005-0.016,0.01-0.021,0.012l-0.005,0.004l-0.002,0.001l0,0c0,0,0,0,0.058,0.091l-0.058-0.091
				c-0.042,0.027-0.06,0.078-0.044,0.125 M255.226,134.969L255.226,134.969l0.001,0.004c0.001,0.003,0.003,0.009,0.005,0.017
				c0.004,0.016,0.011,0.042,0.018,0.077c0.016,0.071,0.036,0.181,0.053,0.335c0.034,0.309,0.057,0.793,0.01,1.489
				c-0.006,0.094-0.019,0.187-0.038,0.28c-0.007,0.035,0.004,0.072,0.03,0.098s0.063,0.036,0.098,0.029
				c5.434-1.164,11.486-0.869,16.741-0.114c5.252,0.755,9.7,1.969,11.921,2.639c0.044,0.013,0.091-0.003,0.118-0.04
				c0.027-0.037,0.028-0.087,0.002-0.124c-0.086-0.127-0.136-0.274-0.145-0.427c0-0.396,0.11-0.706,0.26-1.051
				c0.027-0.062,0.055-0.125,0.084-0.191c0.133-0.297,0.283-0.632,0.4-1.062c0.082-0.303-0.025-0.552-0.216-0.744
				c-0.187-0.187-0.458-0.325-0.726-0.426c-0.271-0.102-0.548-0.171-0.757-0.214c-0.105-0.022-0.193-0.037-0.255-0.047
				c-0.031-0.005-0.056-0.008-0.073-0.011c-0.006,0-0.011-0.001-0.015-0.002"/>
			<path fill="#B1B3B6" d="M284.785,138.466c0.316,0.001,0.625-0.099,0.881-0.285c0.256-0.186,0.447-0.449,0.544-0.75
				c0.098-0.301,0.097-0.626-0.002-0.926c-0.098-0.301-0.29-0.563-0.547-0.748c-2.59-1.872-8.399-3.457-15.158-4.135
				c-6.673-0.67-12.645-0.289-15.585,0.995c-0.33,0.178-0.581,0.473-0.704,0.828c-0.122,0.354-0.107,0.741,0.043,1.085
				c0.149,0.344,0.423,0.619,0.765,0.771c0.343,0.151,0.731,0.169,1.086,0.049c2.015-0.881,7.153-1.456,14.088-0.761
				c7.019,0.706,11.942,2.309,13.708,3.584C284.159,138.362,284.467,138.465,284.785,138.466z"/>
			<path d="M261.304,131.28c2.702-0.173,5.869-0.1,9.211,0.235l-0.011,0.107l0.011-0.107c3.384,0.34,6.531,0.907,9.159,1.623
				c2.625,0.716,4.74,1.585,6.051,2.532l-0.063,0.087l0.063-0.087l0,0c0.275,0.198,0.48,0.479,0.586,0.801
				c0.106,0.323,0.107,0.671,0.002,0.994l0,0c-0.105,0.322-0.309,0.604-0.583,0.803c-0.275,0.2-0.606,0.307-0.945,0.306l0,0
				c-0.34-0.001-0.671-0.111-0.944-0.314v0.001l0.063-0.088l-0.064,0.087h0.001c-0.868-0.626-2.525-1.341-4.85-1.988
				c-2.322-0.647-5.301-1.223-8.806-1.575l0.011-0.108l-0.011,0.108l0,0c-3.462-0.347-6.474-0.377-8.87-0.211
				c-2.4,0.167-4.173,0.53-5.164,0.963l-0.004,0.002l-0.005,0.001c-0.38,0.129-0.795,0.11-1.163-0.052
				c-0.367-0.163-0.66-0.458-0.821-0.826l0,0c-0.16-0.369-0.176-0.784-0.045-1.164l0,0c0.131-0.38,0.4-0.697,0.754-0.887
				l0.004-0.003l0.004-0.001C256.362,131.869,258.605,131.452,261.304,131.28z M254.316,133.48c0.114-0.327,0.345-0.6,0.649-0.766
				L254.316,133.48z M254.965,132.714c1.453-0.633,3.665-1.048,6.353-1.219c2.688-0.172,5.843-0.1,9.175,0.234
				c3.374,0.339,6.51,0.904,9.124,1.617c2.617,0.714,4.702,1.574,5.982,2.499l0,0c0.238,0.171,0.416,0.414,0.507,0.694
				c0.092,0.279,0.092,0.58,0.002,0.859c-0.09,0.28-0.267,0.523-0.505,0.696c-0.238,0.172-0.524,0.265-0.818,0.264
				c-0.294-0.001-0.58-0.096-0.816-0.271l-0.002-0.001c-0.899-0.649-2.586-1.373-4.918-2.022c-2.336-0.65-5.327-1.228-8.842-1.582
				l0,0c-3.473-0.348-6.497-0.378-8.907-0.211c-2.404,0.167-4.205,0.531-5.231,0.978c-0.328,0.11-0.686,0.094-1.003-0.047
				c-0.318-0.14-0.571-0.396-0.71-0.714 M254.356,134.488c-0.139-0.319-0.153-0.679-0.04-1.008L254.356,134.488z"/>
			<path d="M271.399,134.162c0.003-0.119,0.102-0.213,0.22-0.21c0.572,0.014,1.142,0.051,1.692,0.103
				c0.119,0.011,0.206,0.116,0.195,0.234c-0.011,0.119-0.116,0.206-0.235,0.195c-0.541-0.051-1.102-0.087-1.663-0.102
				C271.489,134.379,271.395,134.28,271.399,134.162z"/>
			<path d="M274.659,134.429c0.018-0.118,0.129-0.198,0.246-0.18c3.636,0.574,7.157,1.719,10.435,3.394
				c0.106,0.054,0.148,0.184,0.093,0.29c-0.054,0.106-0.184,0.148-0.289,0.094c-3.237-1.654-6.715-2.785-10.306-3.352
				C274.721,134.657,274.64,134.546,274.659,134.429z"/>
			<path d="M284.612,140.306c0.519,0.462,1.121,0.821,1.774,1.058c-1.983,1.372-3.971,4.518-5.603,7.936
				c-0.924,0.5-1.873,0.953-2.844,1.355c-0.058,0.026-0.118,0.048-0.182,0.071C280.192,144.781,283.243,141.546,284.612,140.306z"/>
			<path d="M250.44,140.442c0.002-0.015,0.005-0.029,0.009-0.042l2.461-0.89c-1.121,3.967-2.029,7.991-2.72,12.055
				c-0.313-0.077-0.622-0.153-0.929-0.233l1.37-10.159c0.019-0.129,0.011-0.259-0.021-0.385
				C250.577,140.662,250.519,140.544,250.44,140.442z"/>
			<path fill="#B1B3B6" d="M239.564,145.016c1.177-0.875,4.431-3.064,9.764-4.912c0.159-0.055,0.329-0.069,0.495-0.04
				c0.166,0.03,0.322,0.101,0.452,0.208c0.131,0.106,0.232,0.244,0.294,0.401c0.062,0.156,0.083,0.326,0.061,0.493l-1.37,10.159
				c-2.559-0.664-5.083-1.458-7.562-2.378c-0.701-0.258-1.393-0.543-2.076-0.855l-0.433-2.085c-0.039-0.184-0.024-0.375,0.043-0.55
				C239.298,145.281,239.413,145.128,239.564,145.016z"/>
			<path fill="#21B6B2" d="M259.348,141.479l-1.777,8.226l-8.704,0.503l0.944-7.327L259.348,141.479z"/>
			<path d="M259.427,141.405c0.024,0.026,0.034,0.062,0.027,0.097l-1.778,8.226c-0.01,0.047-0.051,0.082-0.099,0.085l-8.703,0.502
				c-0.032,0.002-0.063-0.011-0.085-0.034s-0.032-0.055-0.028-0.087l0.944-7.326c0.006-0.048,0.043-0.086,0.091-0.093l9.537-1.403
				C259.368,141.367,259.403,141.379,259.427,141.405z M249.908,142.976l-0.917,7.117l8.492-0.49l1.727-7.995L249.908,142.976z"/>
			<path d="M259.348,141.479l1.121,1.683l-1.683,8.319l-1.215-1.776L259.348,141.479z"/>
			<path d="M259.328,141.373c0.043-0.008,0.086,0.01,0.11,0.046l1.121,1.683c0.016,0.024,0.022,0.053,0.016,0.081l-1.683,8.319
				c-0.009,0.043-0.042,0.076-0.084,0.085c-0.043,0.008-0.086-0.009-0.111-0.045l-1.215-1.776c-0.017-0.024-0.022-0.054-0.016-0.083
				l1.777-8.227C259.252,141.414,259.286,141.381,259.328,141.373z M259.4,141.75l-1.714,7.933l1.045,1.527l1.624-8.026
				L259.4,141.75z"/>
			<path d="M274.868,147.626c-1.239,0-2.243-0.892-2.243-1.994c0-1.101,1.004-1.994,2.243-1.994c1.239,0,2.243,0.893,2.243,1.994
				C277.111,146.734,276.107,147.626,274.868,147.626z"/>
			<path d="M269.385,146.878c-1.239,0-2.243-0.892-2.243-1.994c0-1.101,1.004-1.993,2.243-1.993c1.239,0,2.243,0.892,2.243,1.993
				C271.628,145.986,270.624,146.878,269.385,146.878z"/>
		</g>
	</g>
</g>
<path fill="#FFFFFF" d="M231.309,88.774c-3.43,0-6.21,2.781-6.21,6.21v7.66c0,3.43,2.781,6.21,6.21,6.21h12.475l5.954,5.045v-5.007
	v-0.083h-0.489c3.073-0.374,5.453-2.991,5.453-6.165v-7.66c0-3.43-2.78-6.21-6.21-6.21H231.309z"/>
<path d="M230.24,95.813h-0.357v-2.06h0.357V95.813z"/>
<path d="M230.966,94.282l0.01,0.177c0.113-0.137,0.262-0.205,0.446-0.205c0.319,0,0.481,0.183,0.487,0.548v1.012h-0.344v-0.992
	c0-0.097-0.021-0.169-0.064-0.215c-0.042-0.047-0.11-0.071-0.205-0.071c-0.139,0-0.242,0.063-0.31,0.188v1.09h-0.344v-1.531H230.966
	z"/>
<path d="M232.626,95.813h-0.344v-1.531h0.344V95.813z M232.261,93.884c0-0.053,0.017-0.097,0.05-0.132
	c0.034-0.035,0.082-0.052,0.144-0.052c0.062,0,0.11,0.017,0.144,0.052c0.034,0.035,0.051,0.079,0.051,0.132
	c0,0.052-0.017,0.095-0.051,0.13c-0.034,0.034-0.082,0.051-0.144,0.051c-0.062,0-0.11-0.017-0.144-0.051
	C232.277,93.979,232.261,93.936,232.261,93.884z"/>
<path d="M233.433,93.91v0.372h0.27v0.255h-0.27v0.855c0,0.058,0.011,0.101,0.034,0.127c0.024,0.025,0.065,0.038,0.125,0.038
	c0.04,0,0.08-0.005,0.12-0.014v0.266c-0.078,0.022-0.154,0.033-0.226,0.033c-0.264,0-0.396-0.146-0.396-0.437v-0.867h-0.252v-0.255
	h0.252V93.91H233.433z"/>
<path d="M234.333,95.813h-0.344v-1.531h0.344V95.813z M233.968,93.884c0-0.053,0.017-0.097,0.05-0.132
	c0.034-0.035,0.082-0.052,0.144-0.052s0.11,0.017,0.144,0.052c0.034,0.035,0.051,0.079,0.051,0.132c0,0.052-0.017,0.095-0.051,0.13
	c-0.034,0.034-0.082,0.051-0.144,0.051s-0.11-0.017-0.144-0.051C233.984,93.979,233.968,93.936,233.968,93.884z"/>
<path d="M235.623,95.813c-0.015-0.029-0.028-0.077-0.04-0.143c-0.109,0.114-0.243,0.171-0.402,0.171
	c-0.154,0-0.279-0.044-0.376-0.132c-0.097-0.088-0.146-0.196-0.146-0.325c0-0.163,0.06-0.288,0.181-0.375
	c0.122-0.088,0.295-0.132,0.521-0.132h0.211v-0.1c0-0.079-0.022-0.142-0.067-0.19c-0.044-0.048-0.112-0.072-0.202-0.072
	c-0.078,0-0.142,0.02-0.192,0.059c-0.05,0.039-0.075,0.088-0.075,0.149h-0.344c0-0.084,0.028-0.162,0.083-0.235
	c0.056-0.074,0.131-0.131,0.226-0.173c0.096-0.042,0.203-0.062,0.321-0.062c0.179,0,0.322,0.045,0.429,0.136
	c0.107,0.09,0.161,0.216,0.164,0.379v0.691c0,0.138,0.019,0.248,0.058,0.33v0.024H235.623z M235.245,95.565
	c0.068,0,0.132-0.016,0.191-0.05c0.06-0.033,0.106-0.077,0.136-0.133v-0.289h-0.185c-0.127,0-0.223,0.022-0.287,0.067
	s-0.096,0.107-0.096,0.188c0,0.066,0.022,0.119,0.065,0.158C235.113,95.546,235.172,95.565,235.245,95.565z"/>
<path d="M236.707,93.91v0.372h0.27v0.255h-0.27v0.855c0,0.058,0.011,0.101,0.034,0.127c0.024,0.025,0.065,0.038,0.125,0.038
	c0.04,0,0.08-0.005,0.12-0.014v0.266c-0.078,0.022-0.154,0.033-0.226,0.033c-0.264,0-0.396-0.146-0.396-0.437v-0.867h-0.252v-0.255
	h0.252V93.91H236.707z"/>
<path d="M237.607,95.813h-0.344v-1.531h0.344V95.813z M237.242,93.884c0-0.053,0.017-0.097,0.05-0.132
	c0.034-0.035,0.082-0.052,0.144-0.052c0.062,0,0.11,0.017,0.144,0.052c0.034,0.035,0.051,0.079,0.051,0.132
	c0,0.052-0.017,0.095-0.051,0.13c-0.034,0.034-0.082,0.051-0.144,0.051c-0.062,0-0.11-0.017-0.144-0.051
	C237.259,93.979,237.242,93.936,237.242,93.884z"/>
<path d="M238.302,94.282l0.01,0.177c0.113-0.137,0.262-0.205,0.446-0.205c0.319,0,0.481,0.183,0.487,0.548v1.012h-0.344v-0.992
	c0-0.097-0.021-0.169-0.064-0.215c-0.042-0.047-0.11-0.071-0.205-0.071c-0.139,0-0.242,0.063-0.31,0.188v1.09h-0.344v-1.531H238.302
	z"/>
<path d="M239.536,95.036c0-0.238,0.056-0.427,0.167-0.569c0.112-0.142,0.261-0.214,0.446-0.214c0.175,0,0.312,0.061,0.412,0.183
	l0.016-0.154h0.31v1.484c0,0.201-0.063,0.359-0.188,0.475c-0.125,0.116-0.293,0.174-0.505,0.174c-0.112,0-0.222-0.024-0.33-0.071
	c-0.107-0.046-0.188-0.107-0.243-0.183l0.163-0.207c0.106,0.125,0.236,0.188,0.391,0.188c0.114,0,0.204-0.031,0.27-0.093
	c0.066-0.061,0.099-0.152,0.099-0.272v-0.103c-0.099,0.11-0.231,0.166-0.396,0.166c-0.179,0-0.326-0.071-0.44-0.214
	C239.593,95.485,239.536,95.288,239.536,95.036z M239.879,95.066c0,0.154,0.031,0.275,0.093,0.364
	c0.063,0.088,0.15,0.132,0.262,0.132c0.139,0,0.242-0.059,0.308-0.178v-0.674c-0.065-0.116-0.167-0.174-0.306-0.174
	c-0.113,0-0.201,0.045-0.265,0.134C239.91,94.759,239.879,94.891,239.879,95.066z"/>
<path d="M230.458,98.879c0.086,0,0.157-0.025,0.214-0.075c0.057-0.05,0.087-0.112,0.091-0.185h0.324
	c-0.004,0.095-0.033,0.184-0.089,0.267c-0.056,0.082-0.131,0.147-0.226,0.195s-0.198,0.072-0.308,0.072
	c-0.214,0-0.384-0.069-0.509-0.208c-0.125-0.139-0.188-0.33-0.188-0.575v-0.035c0-0.233,0.062-0.419,0.187-0.559
	c0.125-0.141,0.294-0.211,0.509-0.211c0.182,0,0.33,0.053,0.444,0.16c0.115,0.106,0.175,0.245,0.181,0.417h-0.324
	c-0.004-0.088-0.034-0.16-0.091-0.217c-0.056-0.057-0.127-0.085-0.214-0.085c-0.111,0-0.197,0.041-0.258,0.122
	c-0.06,0.08-0.091,0.202-0.092,0.367v0.055c0,0.166,0.03,0.29,0.089,0.372C230.258,98.838,230.345,98.879,230.458,98.879z"/>
<path d="M232.274,98.975c-0.101,0.119-0.244,0.178-0.43,0.178c-0.166,0-0.292-0.049-0.378-0.146
	c-0.085-0.097-0.127-0.238-0.127-0.422v-0.992h0.344v0.988c0,0.194,0.081,0.292,0.242,0.292c0.167,0,0.28-0.06,0.338-0.18v-1.1
	h0.344v1.531h-0.324L232.274,98.975z"/>
<path d="M233.815,98.709c0-0.061-0.025-0.108-0.076-0.14c-0.05-0.032-0.133-0.06-0.25-0.085c-0.117-0.025-0.215-0.056-0.293-0.093
	c-0.172-0.083-0.258-0.203-0.258-0.361c0-0.132,0.056-0.242,0.167-0.331c0.111-0.089,0.253-0.133,0.425-0.133
	c0.183,0,0.331,0.045,0.443,0.136c0.113,0.091,0.17,0.208,0.17,0.352h-0.344c0-0.066-0.025-0.121-0.074-0.164
	c-0.049-0.044-0.114-0.067-0.195-0.067c-0.075,0-0.137,0.017-0.185,0.052c-0.047,0.035-0.071,0.082-0.071,0.14
	c0,0.053,0.022,0.094,0.067,0.123c0.044,0.029,0.134,0.059,0.269,0.089c0.135,0.029,0.241,0.065,0.317,0.106
	c0.077,0.041,0.134,0.09,0.171,0.147c0.038,0.058,0.057,0.127,0.057,0.209c0,0.138-0.057,0.25-0.171,0.335
	c-0.114,0.085-0.264,0.127-0.449,0.127c-0.125,0-0.237-0.023-0.335-0.068c-0.098-0.045-0.175-0.108-0.229-0.187
	c-0.055-0.079-0.082-0.165-0.082-0.256h0.334c0.005,0.081,0.035,0.144,0.092,0.188c0.057,0.043,0.132,0.065,0.225,0.065
	c0.091,0,0.159-0.017,0.207-0.051C233.791,98.81,233.815,98.765,233.815,98.709z"/>
<path d="M234.885,97.222v0.372h0.27v0.255h-0.27v0.855c0,0.058,0.011,0.101,0.034,0.127c0.024,0.025,0.065,0.038,0.125,0.038
	c0.04,0,0.08-0.005,0.12-0.014v0.266c-0.078,0.022-0.154,0.033-0.226,0.033c-0.264,0-0.396-0.146-0.396-0.437v-0.867h-0.252v-0.255
	h0.252v-0.372H234.885z"/>
<path d="M235.312,98.346c0-0.15,0.03-0.285,0.089-0.405c0.059-0.121,0.143-0.213,0.25-0.277c0.108-0.065,0.231-0.098,0.371-0.098
	c0.207,0,0.374,0.067,0.502,0.2c0.129,0.133,0.199,0.309,0.209,0.529l0.001,0.081c0,0.151-0.029,0.286-0.088,0.405
	c-0.058,0.119-0.141,0.211-0.249,0.276c-0.108,0.065-0.232,0.098-0.374,0.098c-0.216,0-0.389-0.072-0.519-0.215
	c-0.129-0.144-0.194-0.336-0.194-0.576V98.346z M235.656,98.375c0,0.158,0.033,0.281,0.098,0.371
	c0.065,0.089,0.156,0.133,0.272,0.133s0.206-0.045,0.27-0.136c0.065-0.091,0.098-0.223,0.098-0.398c0-0.155-0.034-0.277-0.1-0.368
	c-0.066-0.091-0.156-0.136-0.27-0.136c-0.112,0-0.201,0.045-0.267,0.134C235.689,98.065,235.656,98.198,235.656,98.375z"/>
<path d="M237.35,97.594l0.01,0.16c0.108-0.125,0.255-0.188,0.442-0.188c0.205,0,0.345,0.078,0.42,0.235
	c0.111-0.157,0.268-0.235,0.47-0.235c0.169,0,0.294,0.047,0.376,0.14c0.083,0.093,0.125,0.231,0.127,0.413v1.006h-0.344v-0.996
	c0-0.097-0.021-0.168-0.064-0.214c-0.042-0.045-0.113-0.068-0.211-0.068c-0.078,0-0.142,0.021-0.192,0.064
	c-0.049,0.042-0.083,0.096-0.103,0.164l0.001,1.05h-0.344v-1.008c-0.005-0.18-0.097-0.27-0.276-0.27
	c-0.138,0-0.235,0.056-0.293,0.168v1.109h-0.344v-1.531H237.35z"/>
<path d="M240.222,99.154c-0.218,0-0.395-0.068-0.531-0.205c-0.135-0.138-0.202-0.321-0.202-0.549v-0.042
	c0-0.153,0.029-0.289,0.088-0.409c0.059-0.121,0.142-0.215,0.249-0.282c0.107-0.067,0.225-0.1,0.357-0.1
	c0.209,0,0.369,0.067,0.483,0.2c0.114,0.133,0.171,0.321,0.171,0.565v0.139h-1.001c0.01,0.126,0.052,0.226,0.126,0.3
	c0.075,0.074,0.168,0.11,0.28,0.11c0.158,0,0.286-0.064,0.385-0.191l0.185,0.177c-0.061,0.091-0.143,0.163-0.246,0.214
	C240.464,99.129,240.35,99.154,240.222,99.154z M240.181,97.842c-0.094,0-0.171,0.033-0.229,0.099
	c-0.058,0.066-0.094,0.158-0.11,0.276h0.655v-0.025c-0.008-0.115-0.038-0.202-0.092-0.26
	C240.351,97.871,240.277,97.842,240.181,97.842z"/>
<path d="M241.906,97.908c-0.045-0.008-0.092-0.011-0.14-0.011c-0.158,0-0.264,0.06-0.318,0.181v1.047h-0.344v-1.531h0.328
	l0.008,0.171c0.083-0.133,0.198-0.2,0.345-0.2c0.049,0,0.09,0.007,0.122,0.02L241.906,97.908z"/>
<path d="M244.186,98.375c0,0.237-0.054,0.426-0.161,0.567c-0.108,0.141-0.252,0.211-0.433,0.211c-0.168,0-0.302-0.055-0.403-0.166
	v0.726h-0.344v-2.12h0.317l0.014,0.156c0.101-0.123,0.238-0.184,0.412-0.184c0.187,0,0.333,0.07,0.439,0.209
	c0.107,0.139,0.16,0.332,0.16,0.579V98.375z M243.844,98.346c0-0.153-0.031-0.274-0.092-0.364c-0.06-0.09-0.147-0.134-0.26-0.134
	c-0.141,0-0.242,0.058-0.303,0.174v0.679c0.062,0.119,0.164,0.178,0.306,0.178c0.109,0,0.195-0.044,0.256-0.132
	C243.813,98.659,243.844,98.525,243.844,98.346z"/>
<path d="M245.28,97.908c-0.045-0.008-0.092-0.011-0.14-0.011c-0.158,0-0.264,0.06-0.318,0.181v1.047h-0.344v-1.531h0.328
	l0.008,0.171c0.083-0.133,0.198-0.2,0.345-0.2c0.049,0,0.09,0.007,0.122,0.02L245.28,97.908z"/>
<path d="M245.382,98.346c0-0.15,0.03-0.285,0.089-0.405c0.059-0.121,0.143-0.213,0.25-0.277c0.108-0.065,0.231-0.098,0.371-0.098
	c0.207,0,0.374,0.067,0.502,0.2c0.129,0.133,0.199,0.309,0.21,0.529l0.001,0.081c0,0.151-0.029,0.286-0.088,0.405
	c-0.058,0.119-0.141,0.211-0.249,0.276c-0.107,0.065-0.232,0.098-0.373,0.098c-0.216,0-0.389-0.072-0.519-0.215
	c-0.129-0.144-0.194-0.336-0.194-0.576V98.346z M245.726,98.375c0,0.158,0.033,0.281,0.098,0.371
	c0.065,0.089,0.156,0.133,0.272,0.133c0.116,0,0.206-0.045,0.27-0.136c0.065-0.091,0.098-0.223,0.098-0.398
	c0-0.155-0.034-0.277-0.1-0.368c-0.066-0.091-0.156-0.136-0.27-0.136c-0.112,0-0.201,0.045-0.267,0.134
	C245.759,98.065,245.726,98.198,245.726,98.375z"/>
<path d="M247.188,99.125v-1.276h-0.234v-0.255h0.234v-0.105c0.001-0.12,0.026-0.223,0.076-0.309c0.05-0.086,0.121-0.15,0.212-0.194
	c0.092-0.043,0.201-0.065,0.33-0.065c0.076,0,0.148,0.008,0.217,0.024c0.07,0.016,0.142,0.036,0.217,0.061l-0.052,0.284
	c-0.13-0.045-0.249-0.068-0.356-0.068c-0.105,0-0.181,0.023-0.228,0.069c-0.047,0.045-0.071,0.114-0.071,0.205v0.096h0.301v0.255
	h-0.301v1.276H247.188z M248.402,99.125h-0.344v-1.531h0.344V99.125z"/>
<path d="M249.149,99.125h-0.344v-2.174h0.344V99.125z"/>
<path d="M250.199,99.154c-0.218,0-0.395-0.068-0.531-0.205c-0.135-0.138-0.202-0.321-0.202-0.549v-0.042
	c0-0.153,0.029-0.289,0.088-0.409c0.059-0.121,0.142-0.215,0.249-0.282c0.107-0.067,0.225-0.1,0.357-0.1
	c0.208,0,0.369,0.067,0.483,0.2c0.114,0.133,0.171,0.321,0.171,0.565v0.139h-1.001c0.01,0.126,0.052,0.226,0.126,0.3
	c0.075,0.074,0.168,0.11,0.28,0.11c0.158,0,0.286-0.064,0.385-0.191l0.185,0.177c-0.061,0.091-0.143,0.163-0.246,0.214
	C250.441,99.129,250.327,99.154,250.199,99.154z M250.158,97.842c-0.094,0-0.171,0.033-0.229,0.099
	c-0.058,0.066-0.094,0.158-0.11,0.276h0.655v-0.025c-0.007-0.115-0.038-0.202-0.092-0.26
	C250.328,97.871,250.253,97.842,250.158,97.842z"/>
<path d="M231.17,101.687c0,0.237-0.054,0.426-0.161,0.567c-0.108,0.141-0.252,0.211-0.433,0.211c-0.168,0-0.302-0.055-0.403-0.166
	v0.726h-0.344v-2.12h0.317l0.014,0.156c0.101-0.123,0.238-0.184,0.412-0.184c0.187,0,0.333,0.07,0.439,0.209
	c0.107,0.139,0.16,0.332,0.16,0.579V101.687z M230.827,101.658c0-0.153-0.031-0.274-0.092-0.364c-0.06-0.09-0.147-0.134-0.26-0.134
	c-0.141,0-0.242,0.058-0.303,0.174v0.679c0.062,0.119,0.164,0.178,0.306,0.178c0.109,0,0.195-0.044,0.256-0.132
	C230.796,101.971,230.827,101.837,230.827,101.658z"/>
<path d="M232.264,101.22c-0.045-0.008-0.092-0.011-0.14-0.011c-0.158,0-0.264,0.06-0.318,0.181v1.047h-0.344v-1.531h0.328
	l0.008,0.171c0.083-0.133,0.198-0.2,0.345-0.2c0.049,0,0.09,0.007,0.122,0.02L232.264,101.22z"/>
<path d="M232.366,101.658c0-0.15,0.03-0.285,0.089-0.405c0.059-0.121,0.143-0.213,0.25-0.277c0.108-0.065,0.231-0.098,0.371-0.098
	c0.207,0,0.374,0.067,0.502,0.2c0.129,0.133,0.199,0.309,0.209,0.529l0.001,0.081c0,0.151-0.029,0.286-0.088,0.405
	c-0.058,0.119-0.141,0.211-0.249,0.276c-0.108,0.065-0.232,0.098-0.374,0.098c-0.216,0-0.389-0.072-0.519-0.215
	c-0.129-0.144-0.194-0.336-0.194-0.576V101.658z M232.709,101.687c0,0.158,0.033,0.281,0.098,0.371
	c0.065,0.089,0.156,0.133,0.272,0.133s0.206-0.045,0.27-0.136c0.065-0.091,0.098-0.223,0.098-0.398c0-0.155-0.033-0.277-0.1-0.368
	c-0.066-0.091-0.156-0.136-0.27-0.136c-0.112,0-0.201,0.045-0.267,0.134C232.742,101.377,232.709,101.51,232.709,101.687z"/>
<path d="M234.511,100.534v0.372h0.27v0.255h-0.27v0.855c0,0.058,0.011,0.101,0.034,0.127c0.024,0.025,0.065,0.038,0.125,0.038
	c0.04,0,0.08-0.005,0.12-0.014v0.266c-0.078,0.022-0.154,0.033-0.226,0.033c-0.264,0-0.396-0.146-0.396-0.437v-0.867h-0.252v-0.255
	h0.252v-0.372H234.511z"/>
<path d="M234.938,101.658c0-0.15,0.03-0.285,0.089-0.405c0.059-0.121,0.143-0.213,0.25-0.277c0.108-0.065,0.231-0.098,0.371-0.098
	c0.207,0,0.374,0.067,0.502,0.2c0.129,0.133,0.199,0.309,0.209,0.529l0.001,0.081c0,0.151-0.029,0.286-0.088,0.405
	c-0.058,0.119-0.141,0.211-0.249,0.276c-0.108,0.065-0.232,0.098-0.374,0.098c-0.216,0-0.389-0.072-0.519-0.215
	c-0.129-0.144-0.194-0.336-0.194-0.576V101.658z M235.282,101.687c0,0.158,0.033,0.281,0.098,0.371
	c0.065,0.089,0.156,0.133,0.272,0.133c0.116,0,0.206-0.045,0.27-0.136c0.065-0.091,0.098-0.223,0.098-0.398
	c0-0.155-0.033-0.277-0.1-0.368c-0.066-0.091-0.156-0.136-0.27-0.136c-0.112,0-0.201,0.045-0.267,0.134
	C235.315,101.377,235.282,101.51,235.282,101.687z"/>
<path d="M237.282,102.191c0.086,0,0.157-0.025,0.214-0.075c0.057-0.05,0.087-0.112,0.091-0.185h0.324
	c-0.004,0.095-0.033,0.184-0.089,0.267c-0.056,0.082-0.131,0.147-0.226,0.195s-0.198,0.072-0.309,0.072
	c-0.214,0-0.384-0.069-0.509-0.208c-0.125-0.139-0.188-0.33-0.188-0.575v-0.035c0-0.233,0.062-0.419,0.187-0.559
	c0.125-0.141,0.294-0.211,0.509-0.211c0.182,0,0.33,0.053,0.444,0.16c0.115,0.106,0.175,0.245,0.181,0.417h-0.324
	c-0.004-0.088-0.034-0.16-0.091-0.217c-0.056-0.057-0.127-0.085-0.214-0.085c-0.111,0-0.197,0.041-0.258,0.122
	c-0.06,0.08-0.091,0.202-0.092,0.367v0.055c0,0.166,0.03,0.29,0.089,0.372C237.082,102.151,237.169,102.191,237.282,102.191z"/>
<path d="M238.105,101.658c0-0.15,0.03-0.285,0.089-0.405c0.059-0.121,0.143-0.213,0.25-0.277c0.108-0.065,0.231-0.098,0.371-0.098
	c0.207,0,0.374,0.067,0.502,0.2c0.129,0.133,0.199,0.309,0.209,0.529l0.001,0.081c0,0.151-0.029,0.286-0.088,0.405
	c-0.058,0.119-0.141,0.211-0.249,0.276c-0.108,0.065-0.232,0.098-0.374,0.098c-0.216,0-0.389-0.072-0.519-0.215
	c-0.129-0.144-0.194-0.336-0.194-0.576V101.658z M238.449,101.687c0,0.158,0.033,0.281,0.098,0.371
	c0.065,0.089,0.156,0.133,0.272,0.133c0.116,0,0.206-0.045,0.27-0.136c0.065-0.091,0.098-0.223,0.098-0.398
	c0-0.155-0.033-0.277-0.1-0.368c-0.066-0.091-0.156-0.136-0.27-0.136c-0.112,0-0.201,0.045-0.267,0.134
	C238.482,101.377,238.449,101.51,238.449,101.687z"/>
<path d="M240.186,102.437h-0.344v-2.174h0.344V102.437z"/>
</svg>
