<svg width="25" height="21" viewBox="0 0 25 21" fill="none" xmlns="http://www.w3.org/2000/svg">
  <path
    d="M24.6983 0.901834H7.52183C7.39242 0.901834 7.28653 1.00772 7.28653 1.13713V2.78419C7.28653 2.9136 7.39242 3.01948 7.52183 3.01948H24.6983C24.8277 3.01948 24.9336 2.9136 24.9336 2.78419V1.13713C24.9336 1.00772 24.8277 0.901834 24.6983 0.901834ZM24.6983 9.25478H7.52183C7.39242 9.25478 7.28653 9.36066 7.28653 9.49007V11.1371C7.28653 11.2665 7.39242 11.3724 7.52183 11.3724H24.6983C24.8277 11.3724 24.9336 11.2665 24.9336 11.1371V9.49007C24.9336 9.36066 24.8277 9.25478 24.6983 9.25478ZM24.6983 17.6077H7.52183C7.39242 17.6077 7.28653 17.7136 7.28653 17.843V19.4901C7.28653 19.6195 7.39242 19.7254 7.52183 19.7254H24.6983C24.8277 19.7254 24.9336 19.6195 24.9336 19.4901V17.843C24.9336 17.7136 24.8277 17.6077 24.6983 17.6077ZM0.933594 1.96066C0.933594 2.17695 0.976196 2.39113 1.05897 2.59096C1.14174 2.79079 1.26306 2.97236 1.41601 3.1253C1.56895 3.27825 1.75052 3.39957 1.95035 3.48234C2.15018 3.56511 2.36436 3.60772 2.58065 3.60772C2.79695 3.60772 3.01112 3.56511 3.21095 3.48234C3.41078 3.39957 3.59236 3.27825 3.7453 3.1253C3.89824 2.97236 4.01956 2.79079 4.10234 2.59096C4.18511 2.39113 4.22771 2.17695 4.22771 1.96066C4.22771 1.74436 4.18511 1.53019 4.10234 1.33036C4.01956 1.13053 3.89824 0.948955 3.7453 0.796011C3.59236 0.643068 3.41078 0.521746 3.21095 0.438973C3.01112 0.356201 2.79695 0.313599 2.58065 0.313599C2.36436 0.313599 2.15018 0.356201 1.95035 0.438973C1.75052 0.521746 1.56895 0.643068 1.41601 0.796011C1.26306 0.948955 1.14174 1.13053 1.05897 1.33036C0.976196 1.53019 0.933594 1.74436 0.933594 1.96066ZM0.933594 10.3136C0.933594 10.5299 0.976196 10.7441 1.05897 10.9439C1.14174 11.1437 1.26306 11.3253 1.41601 11.4782C1.56895 11.6312 1.75052 11.7525 1.95035 11.8353C2.15018 11.9181 2.36436 11.9607 2.58065 11.9607C2.79695 11.9607 3.01112 11.9181 3.21095 11.8353C3.41078 11.7525 3.59236 11.6312 3.7453 11.4782C3.89824 11.3253 4.01956 11.1437 4.10234 10.9439C4.18511 10.7441 4.22771 10.5299 4.22771 10.3136C4.22771 10.0973 4.18511 9.88313 4.10234 9.6833C4.01956 9.48347 3.89824 9.3019 3.7453 9.14895C3.59236 8.99601 3.41078 8.87469 3.21095 8.79191C3.01112 8.70914 2.79695 8.66654 2.58065 8.66654C2.36436 8.66654 2.15018 8.70914 1.95035 8.79191C1.75052 8.87469 1.56895 8.99601 1.41601 9.14895C1.26306 9.3019 1.14174 9.48347 1.05897 9.6833C0.976196 9.88313 0.933594 10.0973 0.933594 10.3136ZM0.933594 18.6665C0.933594 18.8828 0.976196 19.097 1.05897 19.2968C1.14174 19.4967 1.26306 19.6782 1.41601 19.8312C1.56895 19.9841 1.75052 20.1055 1.95035 20.1882C2.15018 20.271 2.36436 20.3136 2.58065 20.3136C2.79695 20.3136 3.01112 20.271 3.21095 20.1882C3.41078 20.1055 3.59236 19.9841 3.7453 19.8312C3.89824 19.6782 4.01956 19.4967 4.10234 19.2968C4.18511 19.097 4.22771 18.8828 4.22771 18.6665C4.22771 18.4502 4.18511 18.2361 4.10234 18.0362C4.01956 17.8364 3.89824 17.6548 3.7453 17.5019C3.59236 17.349 3.41078 17.2276 3.21095 17.1449C3.01112 17.0621 2.79695 17.0195 2.58065 17.0195C2.36436 17.0195 2.15018 17.0621 1.95035 17.1449C1.75052 17.2276 1.56895 17.349 1.41601 17.5019C1.26306 17.6548 1.14174 17.8364 1.05897 18.0362C0.976196 18.2361 0.933594 18.4502 0.933594 18.6665Z"
    fill="black"
  />
</svg>
