<svg width="741" height="104" viewBox="0 0 741 104" fill="none" xmlns="http://www.w3.org/2000/svg">
  <path
    d="M607.901 102.225C609.362 91.7262 594.397 83.0804 583.154 82.1927C577.796 81.7488 572.223 82.5787 567.137 80.8225C556.128 76.9628 551.744 62.9328 541.008 58.4556C532.98 55.0976 523.724 58.0889 515.949 61.9679C508.175 65.8469 500.478 70.7294 491.768 71.2698C484.208 71.7522 476.005 68.9733 469.38 72.64C464.45 75.3611 461.858 80.9962 457.318 84.2191C452.778 87.4419 447.069 88.0788 441.555 88.4454C436.04 88.8121 430.331 88.7928 425.304 91.07C420.277 93.3472 416.126 98.6157 417.159 104L607.901 102.225Z"
    fill="#FAFAFA"/>
  <path
    d="M735.615 44.3505C728.584 40.5062 725.351 43.7313 722.784 40.5062C720.218 37.2811 729.79 28.9475 710.646 20.6139C710.646 20.6139 709.363 2.55341 683.188 2.0116C657.013 1.46978 664.044 20.0721 657.038 24.4582C650.032 28.8443 648.082 21.8781 641.076 26.3932C634.071 30.9084 637.253 39.8612 631.504 41.1512C625.756 42.4413 618.083 35.3719 610.975 39.8612C603.866 44.3505 603.943 48.2206 600.71 48.2206C597.477 48.2206 591.138 45.6406 587.289 48.2206C583.44 50.8007 579 54 579 54H740.748C740.748 54 742.724 48.2206 735.615 44.3505Z"
    fill="#E0E0E0"/>
  <path
    d="M293.959 79.0845C280.763 71.9055 274.776 77.8844 269.97 71.9055C265.164 65.9265 283.166 50.3469 247.183 34.7673C247.183 34.7673 244.78 1.20796 195.686 0.0293079C146.593 -1.14934 159.703 33.5672 146.507 41.9464C133.311 50.3255 129.707 37.1675 116.468 45.5466C103.229 53.9257 109.28 70.7054 98.487 73.1056C87.6942 75.5057 73.2966 62.3906 60.1006 70.7054C46.9047 79.0202 46.9047 86.285 40.7895 86.285C34.6743 86.285 22.8086 81.4847 15.5991 86.285C8.38964 91.0853 0 97 0 97H303.572C303.572 97 307.09 86.285 293.959 79.0845Z"
    fill="#C4C4C4" fillOpacity="0.5"/>
</svg>
