<?xml version="1.0" encoding="utf-8"?>
<!-- Generator: Adobe Illustrator 17.0.0, SVG Export Plug-In . SVG Version: 6.00 Build 0)  -->
<!DOCTYPE svg PUBLIC "-//W3C//DTD SVG 1.1//EN" "http://www.w3.org/Graphics/SVG/1.1/DTD/svg11.dtd">
<svg version="1.1" id="Layer_1" xmlns="http://www.w3.org/2000/svg" xmlns:xlink="http://www.w3.org/1999/xlink" x="0px" y="0px"
	 width="703.668px" height="589.921px" viewBox="60.832 12.575 703.668 589.921"
	 enable-background="new 60.832 12.575 703.668 589.921" xml:space="preserve">
<g>
	<path fill="#EDEDED" d="M137.22,167.863c1.739-22.367,8.065-44.137,18.583-63.953c28.194-52.923,93.108-101.368,155.8-89.536
		c57.275,10.801,100.889,55.268,160.384,62.693c99.485,12.436,131.461-60.401,223.841-19.542
		c37.644,16.645,63.831,48.197,68.111,89.626c5.098,49.476-23.361,84.173-34.339,129.775
		c-12.667,52.584,15.579,100.497,23.912,151.003c4.796,29.153,1.225,59.816-14.835,85.095
		c-21.85,34.428-64.203,48.961-99.697,64.931H145.109c0,0-30.201-5.33-67.507-79.943c-37.307-74.614-7.106-129.686,39.084-184.758
		c23.823-28.423,25.547-60.756,21.638-96.038C136.346,200.84,135.978,184.311,137.22,167.863z"/>
	<path fill="#21B6B2" d="M665.396,584.933c-44.895-3.241-89.848-5.548-134.815-6.891c-63.67-1.913-127.384-1.913-191.068,0h-45.376
		l-1.402-21.199l-9.899-9.884l-2.818-9.884l-15.549-1.416c0,0,5.65-29.696,2.832-33.915c-0.365-0.584-0.847-1.066-1.402-1.46
		c-0.555-0.38-1.183-0.642-1.854-0.774c-0.657-0.146-1.343-0.131-2.015,0c-0.657,0.146-1.285,0.423-1.84,0.818l-61.1,50.165
		c-21.155-31.726-36.062-67.962-42.997-106.973l48.048-1.913l-48.72-1.927c-1.037-6.366-1.869-12.804-2.467-19.316l171.913-6.818
		l-172.877-6.862c-0.19-4.351-0.307-8.731-0.307-13.125c0-60.808,19.17-117.135,51.771-163.299l103.922-4.117l-98.038-3.884
		c21.403-28.163,47.946-52.209,78.255-70.707l76.912-3.051l-67.101-2.672c40.763-22.688,87.687-35.624,137.647-35.624
		c132.888,0,244.387,91.483,275.003,214.91l-1.387,0.058l-173.986,6.891l173.986,6.906l4.497,0.175
		c1.124,5.811,2.088,11.665,2.862,17.593l-96.768,3.84l97.658,3.869c0.978,9.577,1.489,19.286,1.489,29.112
		c0,66.488-22.907,127.617-61.261,175.957c-0.526,0.672-1.051,1.343-1.591,2c0.745,0.102,1.504,0.219,2.248,0.321
		c0.774,2.453,1.621,4.482,2.511,6.205C661.951,581.268,663.732,583.356,665.396,584.933z"/>
	<path fill="#21B6B2" d="M706.556,416.699c-0.853-5.703-1.901-11.353-3.091-16.93l-53.473,25.919L706.556,416.699z"/>
	<path fill="#F4F5FA" d="M590.606,208.546c26.001,0,47.077-21.078,47.077-47.077s-21.076-47.077-47.077-47.077
		c-26.001,0-47.077,21.078-47.077,47.077S564.605,208.546,590.606,208.546z"/>
	<path fill="none" stroke="#000000" stroke-miterlimit="10" d="M740.666,578.042h17.765"/>
	<polyline fill="none" stroke="#000000" stroke-miterlimit="10" points="726.453,578.042 660.316,578.042 530.581,578.042 
		339.513,578.042 294.137,578.042 172.505,578.042 156.197,578.042 	"/>
	<path stroke="#000000" stroke-miterlimit="10" d="M172.505,578.042c13.987-2.365,28.003-4.541,42.033-6.526
		c-5.46-6.76-10.614-13.768-15.447-21.024l61.1-50.165c0.555-0.394,1.183-0.672,1.84-0.818c0.672-0.131,1.358-0.146,2.015,0
		c0.672,0.131,1.299,0.394,1.854,0.774c0.555,0.394,1.037,0.876,1.402,1.46c2.818,4.219-2.832,33.915-2.832,33.915l15.549,1.416
		l2.818,9.884l9.899,9.884l1.402,21.199H172.505V578.042z"/>
	<path stroke="#000000" stroke-miterlimit="10" d="M214.538,571.516c-14.03,1.986-28.046,4.161-42.033,6.526h-6.979l33.565-27.55
		C203.924,557.748,209.078,564.756,214.538,571.516z"/>
	<path stroke="#000000" stroke-miterlimit="10" d="M87.78,574.755l60.775-43.808c0,0,9.896-1.405,8.474,8.474
		c-1.421,9.877-15.544,21.211-15.544,21.211l1.421,11.299l2.203,6.112h-71.45L87.78,574.755z"/>
	<path stroke="#000000" stroke-miterlimit="10" d="M677.252,602.029H355.106c0,0-18.951,2.38-27.243-3.562
		c0,0-11.505-8.205-6.453-19.841c1.007-2.336,2.686-4.803,5.271-7.388c15.403-15.403,26.046-11.841,31.988-26.061
		c5.928-14.206,11.826-40.252,55.655-55.655s87.628-2.365,108.944,13.023c21.33,15.388,60.414,26.061,81.73,23.696
		c21.316-2.365,47.377,18.936,50.924,37.887c0.365,1.971,0.774,3.752,1.226,5.387c0.204,0.818,0.423,1.577,0.657,2.321
		c2.219,7.037,5.037,10.687,7.592,13.096c1.825,1.723,3.504,2.832,4.745,4.073C673.689,592.554,677.252,602.029,677.252,602.029z"/>
	<path fill="none" stroke="#F4F5FA" stroke-miterlimit="10" d="M631.802,545.391c0,0,10.126,15.171,3.802,27.838
		c-6.324,12.667-17.765,12.649-17.765,12.649"/>
	<path fill="none" stroke="#F4F5FA" stroke-miterlimit="10" d="M612.828,578.291c0,0,0,5.046-17.765,11.388"/>
	<path fill="none" stroke="#F4F5FA" stroke-miterlimit="10" d="M446.441,594.706c-5.596,1.581-9.505,2.559-9.505,2.559"/>
	<path fill="none" stroke="#F4F5FA" stroke-miterlimit="10" d="M504.16,538.266c-5.863,4.904-12.188,11.548-14.089,18.511
		c-3.783,13.911,2.54,16.451-7.585,24.037c-5.633,4.228-19.081,8.883-29.899,12.097"/>
	<path fill="none" stroke="#F4F5FA" stroke-miterlimit="10" d="M515.386,530.201c0,0-2.415,1.421-5.773,3.819"/>
	<path fill="none" stroke="#F4F5FA" stroke-miterlimit="10" d="M460.972,574.49c0,0-17.765,11.388-32.901,16.451
		c-15.136,5.062-49.352-3.802-49.352-3.802"/>
	<path fill="none" stroke="#F4F5FA" stroke-miterlimit="10" d="M373.852,578.451c-6.149-2.873-11.451-7.293-15.384-12.826"/>
	<path fill="none" stroke="#F4F5FA" stroke-miterlimit="10" d="M391.369,583.337c-3.4-0.304-6.758-0.965-10.02-1.972"/>
	<path fill="none" stroke="#000000" stroke-width="0.5" stroke-miterlimit="10" d="M481.243,485.344
		c0.566,3.086,0.739,6.233,0.515,9.363"/>
	<path stroke="#000000" stroke-miterlimit="10" d="M184.798,232.872l-42.033-16.98c0,0,14.863-5.723,37.113-11.461
		C183.251,220.564,184.798,232.872,184.798,232.872z"/>
	<g>
		<g>
			<path fill="#38929F" d="M138.949,210.273c0.165,0.661,0.013-0.387,0.058,0.293c0.003,0.034-0.057,0.726,0.01,0.302
				c-0.035,0.22-0.107,0.432-0.178,0.642c0.145-0.428-0.369,0.512-0.104,0.18c0.517-0.213,1.032-0.428,1.549-0.641
				c0.248,0.057,0.244,0.054-0.012-0.006c0.209,0.107,0.2,0.098-0.026-0.023c0.169,0.149,0.161,0.137-0.023-0.036
				c0.282,0.273-0.042-0.127-0.089-0.228c-0.493-1.088-2.047-1.342-2.996-0.785c-1.108,0.648-1.279,1.91-0.785,2.996
				c0.375,0.825,1.073,1.496,1.859,1.933c0.996,0.552,2.794,0.923,3.621-0.111c1.321-1.651,1.857-3.594,1.339-5.678
				c-0.288-1.158-1.565-1.84-2.694-1.53C139.307,207.902,138.66,209.115,138.949,210.273L138.949,210.273z"/>
		</g>
	</g>
	<path fill="#263238" d="M184.798,232.872c-18.702,1.971-52.837,18.819-52.837,18.819c-11.884-31.682-59.027-75.919-59.027-75.919
		c20.644-17.578,34.631-26.455,41.405-30.28c10.424,18.469,28.543,53.129,28.426,70.401L184.798,232.872z"/>
	<path fill="#455A64" d="M258.615,90.815c0,0-63.568-17.301-150.013,41.478c-0.774,0.526-1.007,1.577-0.526,2.38
		c1.168,1.956,3.431,5.782,6.263,10.818c10.424,18.469,28.543,53.129,28.426,70.4c0,0,14.863-5.723,37.113-11.461
		c28.601-7.373,69.393-14.731,106.535-9.957L258.615,90.815z"/>
	<g>
		<path fill="#455A64" d="M295.833,253.512c0,0-12.222-4.989-20.576-2.619c-8.356,2.37-3.367,10.226,1.87,10.226
			c0,0-2.869,17.458,6.236,20.576c9.103,3.117,29.679-7.482,29.679-7.482l2.37-6.11l-7.856-11.223L295.833,253.512z"/>
		<path stroke="#000000" stroke-miterlimit="10" d="M257.039,85.313c-0.044,0.003-0.089,0.006-0.133,0.009
			c-2.918,0.203-4.958,2.978-4.281,5.824L363.942,559.34h6.771L261.986,88.977C261.464,86.704,259.366,85.152,257.039,85.313z"/>
		<path fill="#263238" d="M315.661,261.742l-3.616-1.996c0,0-7.233-11.972-12.719-11.597c-5.487,0.374-8.48,8.604-6.11,14.59
			c2.37,5.986,7.98-1.247,7.357-6.484c-0.623-5.237,14.839,11.846,14.839,11.846L315.661,261.742z"/>
	</g>
	<g>
		<path fill="#455A64" d="M468.189,243.435c-6.714-3.117-14.814-4.638-14.814-4.638l-8.147,10.807
			c-0.333,0.831,11.473,41.069,11.473,41.069s1.713,1.117,4.346,1.574C463.97,286.001,473.156,263.984,468.189,243.435z"/>
		<path fill="#263238" d="M476.798,251.1c-0.87-3.184-4.691-5.732-9.072-7.666c5.221,20.549-4.437,42.566-7.51,48.813
			c1.634,0.27,3.603,0.311,5.744-0.244C471.728,290.506,479.07,259.415,476.798,251.1z"/>
	</g>
	<path fill="#E2E2E2" d="M432.259,490.571c13.844-2.105,17.209-2.494,24.192-0.374c0,0,8.853-1.621,17.085,0.623
		c7.112,1.94,21.942,1.083,25.442-2.483c-1.815-6.567-8.649-9.148-15.342-7.618c-8.729,1.996-18.955-6.983-18.955-6.983
		s10.226-114.726,6.236-145.403c-1.441-11.078-4.541-21.212-7.913-29.641c-6.224-15.553-4.735-33.117,4.263-47.247
		c10.086-15.839,19.612-33.349,19.612-33.349c-4.739-4.489-10.725-3.243-10.725-3.243s-54.379,2.819-65.94,3.573
		c-0.222,0.664-14.563,41.245-16.696,90.039c-1.067,24.43-0.975,49.007,8.345,69.865c27.934,62.518,38.56,98.083,38.56,98.083
		s-10.899,6.186-20.376,5.687c-5.636-0.296-10.48,2.624-11.96,6.088C409.178,489.428,414.158,493.323,432.259,490.571z"/>
	<g>
		<g>
			<path id="SVGID_1_" fill="#455A64" d="M473.535,490.821c-8.23-2.244-17.085-0.623-17.085-0.623
				c-6.983-2.12-10.348-1.73-24.192,0.374c-18.099,2.752-23.081-0.821-24.173-2.061c-1.009,2.361-0.457,3.231,2.475,7.32h46.14
				h42.399c0.524-2.726,0.431-5.297-0.123-7.294C495.476,492.101,480.647,492.76,473.535,490.821z"/>
		</g>
		<g>
			<g>
				<g>
					<defs>
						<path id="SVGID_2_" d="M473.535,490.821c-8.23-2.244-17.085-0.623-17.085-0.623c-6.983-2.12-10.348-1.73-24.192,0.374
							c-18.099,2.752-23.081-0.821-24.173-2.061c-1.009,2.361-0.457,3.231,2.475,7.32h46.14h42.399
							c0.524-2.726,0.431-5.297-0.123-7.294C495.476,492.101,480.647,492.76,473.535,490.821z"/>
					</defs>
					<clipPath id="SVGID_4_">
						<use xlink:href="#SVGID_2_"  overflow="visible"/>
					</clipPath>
					<g clip-path="url(#SVGID_4_)">
						<g>
							<path fill="#4C606D" d="M397.447,417.099c1.238,1.174,2.565,2.245,3.961,3.227c0.669,0.47,1.661,0.123,2.047-0.537
								c0.438-0.749,0.128-1.58-0.537-2.047c-1.188-0.835-2.301-1.759-3.357-2.758C398.164,413.656,396.044,415.769,397.447,417.099
								L397.447,417.099z"/>
						</g>
					</g>
				</g>
			</g>
		</g>
		<g>
			<g>
				<g>
					<defs>
						<path id="SVGID_6_" d="M473.535,490.821c-8.23-2.244-17.085-0.623-17.085-0.623c-6.983-2.12-10.348-1.73-24.192,0.374
							c-18.099,2.752-23.081-0.821-24.173-2.061c-1.009,2.361-0.457,3.231,2.475,7.32h46.14h42.399
							c0.524-2.726,0.431-5.297-0.123-7.294C495.476,492.101,480.647,492.76,473.535,490.821z"/>
					</defs>
					<clipPath id="SVGID_7_">
						<use xlink:href="#SVGID_6_"  overflow="visible"/>
					</clipPath>
					<g clip-path="url(#SVGID_7_)">
						<g>
							<path fill="#4C606D" d="M411.536,487.145c-7.63,5.852,8.439,14.499,12.718,16.847c0.423,0.232,0.8-0.415,0.378-0.647
								c-3.208-1.761-19.102-10.659-12.716-15.555C412.29,487.501,411.918,486.851,411.536,487.145L411.536,487.145z"/>
						</g>
					</g>
				</g>
			</g>
		</g>
		<g>
			<g>
				<g>
					<defs>
						<path id="SVGID_8_" d="M473.535,490.821c-8.23-2.244-17.085-0.623-17.085-0.623c-6.983-2.12-10.348-1.73-24.192,0.374
							c-18.099,2.752-23.081-0.821-24.173-2.061c-1.009,2.361-0.457,3.231,2.475,7.32h46.14h42.399
							c0.524-2.726,0.431-5.297-0.123-7.294C495.476,492.101,480.647,492.76,473.535,490.821z"/>
					</defs>
					<clipPath id="SVGID_9_">
						<use xlink:href="#SVGID_8_"  overflow="visible"/>
					</clipPath>
					<g clip-path="url(#SVGID_9_)">
						<g>
							<path fill="#4C606D" d="M412.523,487.526c0.298,8.758,7.703,14.009,15.651,15.67c0.47,0.098,0.672-0.623,0.199-0.721
								c-7.595-1.587-14.814-6.493-15.101-14.949C413.254,487.044,412.507,487.042,412.523,487.526L412.523,487.526z"/>
						</g>
					</g>
				</g>
			</g>
		</g>
		<g>
			<g>
				<g>
					<defs>
						<path id="SVGID_10_" d="M473.535,490.821c-8.23-2.244-17.085-0.623-17.085-0.623c-6.983-2.12-10.348-1.73-24.192,0.374
							c-18.099,2.752-23.081-0.821-24.173-2.061c-1.009,2.361-0.457,3.231,2.475,7.32h46.14h42.399
							c0.524-2.726,0.431-5.297-0.123-7.294C495.476,492.101,480.647,492.76,473.535,490.821z"/>
					</defs>
					<clipPath id="SVGID_11_">
						<use xlink:href="#SVGID_10_"  overflow="visible"/>
					</clipPath>
					<g clip-path="url(#SVGID_11_)">
						<g>
							<path fill="#4C606D" d="M416.54,487.727c-1.04,3.095,1.59,6.297,3.427,8.599c2.59,3.246,5.603,5.939,9.116,8.147
								c0.41,0.257,0.785-0.39,0.378-0.647c-2.577-1.621-4.885-3.511-6.99-5.707c-2.021-2.107-6.316-6.894-5.208-10.195
								C417.416,487.467,416.694,487.273,416.54,487.727L416.54,487.727z"/>
						</g>
					</g>
				</g>
			</g>
		</g>
		<g>
			<g>
				<g>
					<defs>
						<path id="SVGID_12_" d="M473.535,490.821c-8.23-2.244-17.085-0.623-17.085-0.623c-6.983-2.12-10.348-1.73-24.192,0.374
							c-18.099,2.752-23.081-0.821-24.173-2.061c-1.009,2.361-0.457,3.231,2.475,7.32h46.14h42.399
							c0.524-2.726,0.431-5.297-0.123-7.294C495.476,492.101,480.647,492.76,473.535,490.821z"/>
					</defs>
					<clipPath id="SVGID_13_">
						<use xlink:href="#SVGID_12_"  overflow="visible"/>
					</clipPath>
					<g clip-path="url(#SVGID_13_)">
						<g>
							<path fill="#4C606D" d="M420.04,488.759c2.359,6.241,5.967,11.724,10.779,16.347c0.347,0.334,0.877-0.194,0.529-0.529
								c-4.722-4.535-8.271-9.894-10.586-16.016C420.592,488.112,419.869,488.307,420.04,488.759L420.04,488.759z"/>
						</g>
					</g>
				</g>
			</g>
		</g>
		<g>
			<g>
				<g>
					<defs>
						<path id="SVGID_14_" d="M473.535,490.821c-8.23-2.244-17.085-0.623-17.085-0.623c-6.983-2.12-10.348-1.73-24.192,0.374
							c-18.099,2.752-23.081-0.821-24.173-2.061c-1.009,2.361-0.457,3.231,2.475,7.32h46.14h42.399
							c0.524-2.726,0.431-5.297-0.123-7.294C495.476,492.101,480.647,492.76,473.535,490.821z"/>
					</defs>
					<clipPath id="SVGID_15_">
						<use xlink:href="#SVGID_14_"  overflow="visible"/>
					</clipPath>
					<g clip-path="url(#SVGID_15_)">
						<g>
							<path fill="#4C606D" d="M424.297,488.05c3.767,5.141,6.049,10.943,6.75,17.279c0.053,0.475,0.802,0.479,0.747,0
								c-0.717-6.484-2.996-12.394-6.852-17.656C424.662,487.288,424.013,487.66,424.297,488.05L424.297,488.05z"/>
						</g>
					</g>
				</g>
			</g>
		</g>
		<g>
			<g>
				<g>
					<defs>
						<path id="SVGID_16_" d="M473.535,490.821c-8.23-2.244-17.085-0.623-17.085-0.623c-6.983-2.12-10.348-1.73-24.192,0.374
							c-18.099,2.752-23.081-0.821-24.173-2.061c-1.009,2.361-0.457,3.231,2.475,7.32h46.14h42.399
							c0.524-2.726,0.431-5.297-0.123-7.294C495.476,492.101,480.647,492.76,473.535,490.821z"/>
					</defs>
					<clipPath id="SVGID_17_">
						<use xlink:href="#SVGID_16_"  overflow="visible"/>
					</clipPath>
					<g clip-path="url(#SVGID_17_)">
						<g>
							<path fill="#4C606D" d="M428.219,487.755c4.935,5.062,7.564,11.505,7.582,18.573c0.001,0.482,0.749,0.483,0.747,0
								c-0.019-7.256-2.736-13.906-7.802-19.101C428.41,486.879,427.882,487.409,428.219,487.755L428.219,487.755z"/>
						</g>
					</g>
				</g>
			</g>
		</g>
		<g>
			<g>
				<g>
					<defs>
						<path id="SVGID_18_" d="M473.535,490.821c-8.23-2.244-17.085-0.623-17.085-0.623c-6.983-2.12-10.348-1.73-24.192,0.374
							c-18.099,2.752-23.081-0.821-24.173-2.061c-1.009,2.361-0.457,3.231,2.475,7.32h46.14h42.399
							c0.524-2.726,0.431-5.297-0.123-7.294C495.476,492.101,480.647,492.76,473.535,490.821z"/>
					</defs>
					<clipPath id="SVGID_19_">
						<use xlink:href="#SVGID_18_"  overflow="visible"/>
					</clipPath>
					<g clip-path="url(#SVGID_19_)">
						<g>
							<path fill="#4C606D" d="M435.433,485.813c3.142,6.482,4.224,13.381,3.266,20.511c-0.064,0.477,0.685,0.472,0.748,0
								c0.978-7.279-0.166-14.286-3.368-20.889C435.868,485.001,435.222,485.381,435.433,485.813L435.433,485.813z"/>
						</g>
					</g>
				</g>
			</g>
		</g>
		<g>
			<g>
				<g>
					<defs>
						<path id="SVGID_20_" d="M473.535,490.821c-8.23-2.244-17.085-0.623-17.085-0.623c-6.983-2.12-10.348-1.73-24.192,0.374
							c-18.099,2.752-23.081-0.821-24.173-2.061c-1.009,2.361-0.457,3.231,2.475,7.32h46.14h42.399
							c0.524-2.726,0.431-5.297-0.123-7.294C495.476,492.101,480.647,492.76,473.535,490.821z"/>
					</defs>
					<clipPath id="SVGID_21_">
						<use xlink:href="#SVGID_20_"  overflow="visible"/>
					</clipPath>
					<g clip-path="url(#SVGID_21_)">
						<g>
							<path fill="#4C606D" d="M441.841,486.674c3.297,6.328,3.333,13.449,0.095,19.808c-0.219,0.429,0.426,0.807,0.647,0.378
								c3.359-6.596,3.327-13.998-0.093-20.564C442.264,485.868,441.619,486.247,441.841,486.674L441.841,486.674z"/>
						</g>
					</g>
				</g>
			</g>
		</g>
		<g>
			<g>
				<g>
					<defs>
						<path id="SVGID_22_" d="M473.535,490.821c-8.23-2.244-17.085-0.623-17.085-0.623c-6.983-2.12-10.348-1.73-24.192,0.374
							c-18.099,2.752-23.081-0.821-24.173-2.061c-1.009,2.361-0.457,3.231,2.475,7.32h46.14h42.399
							c0.524-2.726,0.431-5.297-0.123-7.294C495.476,492.101,480.647,492.76,473.535,490.821z"/>
					</defs>
					<clipPath id="SVGID_23_">
						<use xlink:href="#SVGID_22_"  overflow="visible"/>
					</clipPath>
					<g clip-path="url(#SVGID_23_)">
						<g>
							<path fill="#4C606D" d="M445.699,485.914c2.342,5.462,2.881,11.211,1.615,17.016c-0.102,0.47,0.619,0.67,0.721,0.199
								c1.313-6.021,0.737-11.931-1.691-17.593C446.156,485.093,445.511,485.474,445.699,485.914L445.699,485.914z"/>
						</g>
					</g>
				</g>
			</g>
		</g>
		<g>
			<g>
				<g>
					<defs>
						<path id="SVGID_24_" d="M473.535,490.821c-8.23-2.244-17.085-0.623-17.085-0.623c-6.983-2.12-10.348-1.73-24.192,0.374
							c-18.099,2.752-23.081-0.821-24.173-2.061c-1.009,2.361-0.457,3.231,2.475,7.32h46.14h42.399
							c0.524-2.726,0.431-5.297-0.123-7.294C495.476,492.101,480.647,492.76,473.535,490.821z"/>
					</defs>
					<clipPath id="SVGID_25_">
						<use xlink:href="#SVGID_24_"  overflow="visible"/>
					</clipPath>
					<g clip-path="url(#SVGID_25_)">
						<g>
							<path fill="#4C606D" d="M449.866,486.061c1.802,6.542,1.177,13.118,0.406,19.761c-0.055,0.479,0.694,0.473,0.747,0
								c0.778-6.71,1.383-13.366-0.432-19.959C450.46,485.397,449.738,485.595,449.866,486.061L449.866,486.061z"/>
						</g>
					</g>
				</g>
			</g>
		</g>
		<g>
			<g>
				<g>
					<defs>
						<path id="SVGID_26_" d="M473.535,490.821c-8.23-2.244-17.085-0.623-17.085-0.623c-6.983-2.12-10.348-1.73-24.192,0.374
							c-18.099,2.752-23.081-0.821-24.173-2.061c-1.009,2.361-0.457,3.231,2.475,7.32h46.14h42.399
							c0.524-2.726,0.431-5.297-0.123-7.294C495.476,492.101,480.647,492.76,473.535,490.821z"/>
					</defs>
					<clipPath id="SVGID_27_">
						<use xlink:href="#SVGID_26_"  overflow="visible"/>
					</clipPath>
					<g clip-path="url(#SVGID_27_)">
						<g>
							<path fill="#4C606D" d="M452.894,487.051c2.627,4.487,1.364,12.149,0.492,16.988c-0.085,0.472,0.637,0.673,0.721,0.199
								c0.939-5.211,2.248-12.753-0.568-17.564C453.297,486.258,452.65,486.635,452.894,487.051L452.894,487.051z"/>
						</g>
					</g>
				</g>
			</g>
		</g>
		<g>
			<g>
				<g>
					<defs>
						<path id="SVGID_28_" d="M473.535,490.821c-8.23-2.244-17.085-0.623-17.085-0.623c-6.983-2.12-10.348-1.73-24.192,0.374
							c-18.099,2.752-23.081-0.821-24.173-2.061c-1.009,2.361-0.457,3.231,2.475,7.32h46.14h42.399
							c0.524-2.726,0.431-5.297-0.123-7.294C495.476,492.101,480.647,492.76,473.535,490.821z"/>
					</defs>
					<clipPath id="SVGID_29_">
						<use xlink:href="#SVGID_28_"  overflow="visible"/>
					</clipPath>
					<g clip-path="url(#SVGID_29_)">
						<g>
							<path fill="#4C606D" d="M455.608,487.045c0.647,5.259,0.774,10.505,0.384,15.788c-0.035,0.482,0.712,0.479,0.747,0
								c0.39-5.284,0.263-10.529-0.384-15.788C456.297,486.572,455.55,486.566,455.608,487.045L455.608,487.045z"/>
						</g>
					</g>
				</g>
			</g>
		</g>
		<g>
			<g>
				<g>
					<defs>
						<path id="SVGID_30_" d="M473.535,490.821c-8.23-2.244-17.085-0.623-17.085-0.623c-6.983-2.12-10.348-1.73-24.192,0.374
							c-18.099,2.752-23.081-0.821-24.173-2.061c-1.009,2.361-0.457,3.231,2.475,7.32h46.14h42.399
							c0.524-2.726,0.431-5.297-0.123-7.294C495.476,492.101,480.647,492.76,473.535,490.821z"/>
					</defs>
					<clipPath id="SVGID_31_">
						<use xlink:href="#SVGID_30_"  overflow="visible"/>
					</clipPath>
					<g clip-path="url(#SVGID_31_)">
						<g>
							<path fill="#4C606D" d="M460.419,485.457c-1.063,7.204,0.428,14.143,4.403,20.249c0.263,0.403,0.91,0.028,0.647-0.378
								c-3.862-5.93-5.363-12.665-4.329-19.672C461.21,485.185,460.49,484.981,460.419,485.457L460.419,485.457z"/>
						</g>
					</g>
				</g>
			</g>
		</g>
		<g>
			<g>
				<g>
					<defs>
						<path id="SVGID_32_" d="M473.535,490.821c-8.23-2.244-17.085-0.623-17.085-0.623c-6.983-2.12-10.348-1.73-24.192,0.374
							c-18.099,2.752-23.081-0.821-24.173-2.061c-1.009,2.361-0.457,3.231,2.475,7.32h46.14h42.399
							c0.524-2.726,0.431-5.297-0.123-7.294C495.476,492.101,480.647,492.76,473.535,490.821z"/>
					</defs>
					<clipPath id="SVGID_33_">
						<use xlink:href="#SVGID_32_"  overflow="visible"/>
					</clipPath>
					<g clip-path="url(#SVGID_33_)">
						<g>
							<path fill="#4C606D" d="M463.343,486.2c0.508,6.967,1.883,13.955,7.395,18.735c0.362,0.314,0.895-0.213,0.529-0.529
								c-5.371-4.659-6.682-11.424-7.176-18.206C464.056,485.721,463.308,485.718,463.343,486.2L463.343,486.2z"/>
						</g>
					</g>
				</g>
			</g>
		</g>
		<g>
			<g>
				<g>
					<defs>
						<path id="SVGID_34_" d="M473.535,490.821c-8.23-2.244-17.085-0.623-17.085-0.623c-6.983-2.12-10.348-1.73-24.192,0.374
							c-18.099,2.752-23.081-0.821-24.173-2.061c-1.009,2.361-0.457,3.231,2.475,7.32h46.14h42.399
							c0.524-2.726,0.431-5.297-0.123-7.294C495.476,492.101,480.647,492.76,473.535,490.821z"/>
					</defs>
					<clipPath id="SVGID_35_">
						<use xlink:href="#SVGID_34_"  overflow="visible"/>
					</clipPath>
					<g clip-path="url(#SVGID_35_)">
						<g>
							<path fill="#4C606D" d="M468.211,486.298c-2.362,7.522,0.137,15,6.564,19.558c0.394,0.28,0.768-0.369,0.378-0.647
								c-6.151-4.362-8.48-11.519-6.221-18.714C469.077,486.035,468.355,485.839,468.211,486.298L468.211,486.298z"/>
						</g>
					</g>
				</g>
			</g>
		</g>
		<g>
			<g>
				<g>
					<defs>
						<path id="SVGID_36_" d="M473.535,490.821c-8.23-2.244-17.085-0.623-17.085-0.623c-6.983-2.12-10.348-1.73-24.192,0.374
							c-18.099,2.752-23.081-0.821-24.173-2.061c-1.009,2.361-0.457,3.231,2.475,7.32h46.14h42.399
							c0.524-2.726,0.431-5.297-0.123-7.294C495.476,492.101,480.647,492.76,473.535,490.821z"/>
					</defs>
					<clipPath id="SVGID_37_">
						<use xlink:href="#SVGID_36_"  overflow="visible"/>
					</clipPath>
					<g clip-path="url(#SVGID_37_)">
						<g>
							<path fill="#4C606D" d="M471.323,487.155c-1.168,7.874-0.46,16.691,7.104,21.087c0.418,0.242,0.794-0.404,0.378-0.647
								c-7.271-4.225-7.877-12.721-6.761-20.241C472.115,486.882,471.395,486.679,471.323,487.155L471.323,487.155z"/>
						</g>
					</g>
				</g>
			</g>
		</g>
		<g>
			<g>
				<g>
					<defs>
						<path id="SVGID_38_" d="M473.535,490.821c-8.23-2.244-17.085-0.623-17.085-0.623c-6.983-2.12-10.348-1.73-24.192,0.374
							c-18.099,2.752-23.081-0.821-24.173-2.061c-1.009,2.361-0.457,3.231,2.475,7.32h46.14h42.399
							c0.524-2.726,0.431-5.297-0.123-7.294C495.476,492.101,480.647,492.76,473.535,490.821z"/>
					</defs>
					<clipPath id="SVGID_39_">
						<use xlink:href="#SVGID_38_"  overflow="visible"/>
					</clipPath>
					<g clip-path="url(#SVGID_39_)">
						<g>
							<path fill="#4C606D" d="M477.055,487.901c-0.003-0.054-0.006-0.11-0.01-0.164c-0.01-0.181-0.109-0.298-0.274-0.361
								c-0.058-0.023-0.118-0.045-0.177-0.069c-0.117-0.045-0.282,0.006-0.364,0.096c-1.999,2.205-1.137,6.418-0.587,9.011
								c0.692,3.267,2.145,6.293,5.33,7.681c0.438,0.191,0.819-0.454,0.378-0.647c-2.778-1.21-3.957-3.536-4.758-6.31
								c-0.377-1.301-0.584-2.663-0.734-4.005c-0.203-1.806,0.553-3.465,0.45-5.236C476.334,488.38,477.083,488.383,477.055,487.901
								L477.055,487.901z"/>
						</g>
					</g>
				</g>
			</g>
		</g>
		<g>
			<g>
				<g>
					<defs>
						<path id="SVGID_40_" d="M473.535,490.821c-8.23-2.244-17.085-0.623-17.085-0.623c-6.983-2.12-10.348-1.73-24.192,0.374
							c-18.099,2.752-23.081-0.821-24.173-2.061c-1.009,2.361-0.457,3.231,2.475,7.32h46.14h42.399
							c0.524-2.726,0.431-5.297-0.123-7.294C495.476,492.101,480.647,492.76,473.535,490.821z"/>
					</defs>
					<clipPath id="SVGID_41_">
						<use xlink:href="#SVGID_40_"  overflow="visible"/>
					</clipPath>
					<g clip-path="url(#SVGID_41_)">
						<g>
							<path fill="#4C606D" d="M479.886,487.88c-0.458,1.045-0.565,2.116-0.32,3.213c0.083,0.937,0.311,1.929,0.491,2.851
								c0.434,2.224,0.981,4.424,1.685,6.577c0.891,2.724,2.546,4.974,4.86,6.631c0.393,0.282,0.766-0.368,0.378-0.647
								c-3.432-2.459-4.662-6.148-5.608-10.078c-0.648-2.692-0.383-6.122-1.339-8.579c-0.107-0.273-0.397-0.356-0.625-0.165
								c-0.041,0.035-0.082,0.069-0.123,0.104c-0.168,0.142-0.118,0.381,0,0.529c0.025,0.031,0.048,0.061,0.073,0.091
								C479.659,488.786,480.186,488.253,479.886,487.88L479.886,487.88z"/>
						</g>
					</g>
				</g>
			</g>
		</g>
		<g>
			<g>
				<g>
					<defs>
						<path id="SVGID_42_" d="M473.535,490.821c-8.23-2.244-17.085-0.623-17.085-0.623c-6.983-2.12-10.348-1.73-24.192,0.374
							c-18.099,2.752-23.081-0.821-24.173-2.061c-1.009,2.361-0.457,3.231,2.475,7.32h46.14h42.399
							c0.524-2.726,0.431-5.297-0.123-7.294C495.476,492.101,480.647,492.76,473.535,490.821z"/>
					</defs>
					<clipPath id="SVGID_43_">
						<use xlink:href="#SVGID_42_"  overflow="visible"/>
					</clipPath>
					<g clip-path="url(#SVGID_43_)">
						<g>
							<path fill="#4C606D" d="M483.285,488.076c2.53,4.701,3.117,12.03,0.399,16.756c-0.241,0.419,0.406,0.796,0.647,0.378
								c2.881-5.008,2.283-12.53-0.399-17.511C483.701,487.273,483.056,487.651,483.285,488.076L483.285,488.076z"/>
						</g>
					</g>
				</g>
			</g>
		</g>
		<g>
			<g>
				<g>
					<defs>
						<path id="SVGID_44_" d="M473.535,490.821c-8.23-2.244-17.085-0.623-17.085-0.623c-6.983-2.12-10.348-1.73-24.192,0.374
							c-18.099,2.752-23.081-0.821-24.173-2.061c-1.009,2.361-0.457,3.231,2.475,7.32h46.14h42.399
							c0.524-2.726,0.431-5.297-0.123-7.294C495.476,492.101,480.647,492.76,473.535,490.821z"/>
					</defs>
					<clipPath id="SVGID_45_">
						<use xlink:href="#SVGID_44_"  overflow="visible"/>
					</clipPath>
					<g clip-path="url(#SVGID_45_)">
						<g>
							<path fill="#4C606D" d="M489.525,489.511c3.253,5.053,2.724,11.094-1.403,15.483c-0.33,0.35,0.197,0.882,0.529,0.529
								c4.339-4.612,4.954-11.055,1.52-16.39C489.912,488.73,489.264,489.105,489.525,489.511L489.525,489.511z"/>
						</g>
					</g>
				</g>
			</g>
		</g>
		<g>
			<g>
				<g>
					<defs>
						<path id="SVGID_46_" d="M473.535,490.821c-8.23-2.244-17.085-0.623-17.085-0.623c-6.983-2.12-10.348-1.73-24.192,0.374
							c-18.099,2.752-23.081-0.821-24.173-2.061c-1.009,2.361-0.457,3.231,2.475,7.32h46.14h42.399
							c0.524-2.726,0.431-5.297-0.123-7.294C495.476,492.101,480.647,492.76,473.535,490.821z"/>
					</defs>
					<clipPath id="SVGID_47_">
						<use xlink:href="#SVGID_46_"  overflow="visible"/>
					</clipPath>
					<g clip-path="url(#SVGID_47_)">
						<g>
							<path fill="#4C606D" d="M492.965,488.204c4.063,5.754,1.949,12.449-0.473,18.393c-0.182,0.447,0.542,0.639,0.721,0.199
								c2.504-6.144,4.568-13.064,0.397-18.97C493.334,487.437,492.686,487.81,492.965,488.204L492.965,488.204z"/>
						</g>
					</g>
				</g>
			</g>
		</g>
		<g>
			<g>
				<g>
					<defs>
						<path id="SVGID_48_" d="M473.535,490.821c-8.23-2.244-17.085-0.623-17.085-0.623c-6.983-2.12-10.348-1.73-24.192,0.374
							c-18.099,2.752-23.081-0.821-24.173-2.061c-1.009,2.361-0.457,3.231,2.475,7.32h46.14h42.399
							c0.524-2.726,0.431-5.297-0.123-7.294C495.476,492.101,480.647,492.76,473.535,490.821z"/>
					</defs>
					<clipPath id="SVGID_49_">
						<use xlink:href="#SVGID_48_"  overflow="visible"/>
					</clipPath>
					<g clip-path="url(#SVGID_49_)">
						<g>
							<path fill="#4C606D" d="M486.564,488.647c1.92,5.528,2.597,11.191,2.035,17.015c-0.047,0.48,0.702,0.476,0.747,0
								c0.569-5.904-0.115-11.611-2.063-17.215C487.129,487.996,486.405,488.19,486.564,488.647L486.564,488.647z"/>
						</g>
					</g>
				</g>
			</g>
		</g>
		<g>
			<g>
				<g>
					<defs>
						<path id="SVGID_50_" d="M473.535,490.821c-8.23-2.244-17.085-0.623-17.085-0.623c-6.983-2.12-10.348-1.73-24.192,0.374
							c-18.099,2.752-23.081-0.821-24.173-2.061c-1.009,2.361-0.457,3.231,2.475,7.32h46.14h42.399
							c0.524-2.726,0.431-5.297-0.123-7.294C495.476,492.101,480.647,492.76,473.535,490.821z"/>
					</defs>
					<clipPath id="SVGID_51_">
						<use xlink:href="#SVGID_50_"  overflow="visible"/>
					</clipPath>
					<g clip-path="url(#SVGID_51_)">
						<g>
							<path fill="#4C606D" d="M496.117,487.891c3.208,6.577,3.437,13.752,0.718,20.536c-0.18,0.448,0.545,0.641,0.721,0.199
								c2.799-6.983,2.501-14.358-0.793-21.113C496.552,487.079,495.907,487.458,496.117,487.891L496.117,487.891z"/>
						</g>
					</g>
				</g>
			</g>
		</g>
	</g>
	<path fill="#E2E2E2" d="M465.732,302.741"/>
	<path fill="#E2E2E2" d="M409.314,224.331l0.956-5.529c0,0-30.635,40.196-98.223,40.944c0,0,0.25,14.466,0.997,14.466
		c0.748,0,46.14,11.972,89.786-10.475L409.314,224.331z"/>
	<path fill="#455A64" d="M467.674,310.875c0,0-50.38,26.687-75.071,10.725c0,0-0.997,10.475,0.25,13.966
		c0,0,52.376,12.969,83.301-17.209L467.674,310.875z"/>
	<ellipse fill="#455A64" cx="423.363" cy="331.741" rx="8.729" ry="9.477"/>
	<ellipse fill="#E2E2E2" cx="422.741" cy="331.738" rx="4.71" ry="5.113"/>
	<g>
		<g>
			<path id="SVGID_3_" fill="#455A64" d="M426.549,481.7c2.146,0.232,6.018,1.216,6.79,5.254c0,0,7.897,2.097,7.897-2.577
				c0-0.499-3.243-6.236-5.903-5.986c0,0-3.384,1.974-8.789,3C426.366,481.426,426.368,481.68,426.549,481.7z"/>
		</g>
		<g>
			<g>
				<g>
					<defs>
						<path id="SVGID_52_" d="M426.549,481.7c2.146,0.232,6.018,1.216,6.79,5.254c0,0,7.897,2.097,7.897-2.577
							c0-0.499-3.243-6.236-5.903-5.986c0,0-3.384,1.974-8.789,3C426.366,481.426,426.368,481.68,426.549,481.7z"/>
					</defs>
					<clipPath id="SVGID_53_">
						<use xlink:href="#SVGID_52_"  overflow="visible"/>
					</clipPath>
					<g clip-path="url(#SVGID_53_)">
						<g>
							<path fill="#E2E2E2" d="M423.642,456.828c0.587,0.422,1.19,0.812,1.818,1.171c1.678,0.961,3.184-1.625,1.511-2.584
								c-0.626-0.359-1.231-0.749-1.818-1.171c-0.663-0.477-1.664-0.117-2.047,0.537
								C422.662,455.536,422.982,456.352,423.642,456.828L423.642,456.828z"/>
						</g>
					</g>
				</g>
			</g>
		</g>
		<g>
			<g>
				<g>
					<defs>
						<path id="SVGID_54_" d="M426.549,481.7c2.146,0.232,6.018,1.216,6.79,5.254c0,0,7.897,2.097,7.897-2.577
							c0-0.499-3.243-6.236-5.903-5.986c0,0-3.384,1.974-8.789,3C426.366,481.426,426.368,481.68,426.549,481.7z"/>
					</defs>
					<clipPath id="SVGID_55_">
						<use xlink:href="#SVGID_54_"  overflow="visible"/>
					</clipPath>
					<g clip-path="url(#SVGID_55_)">
						<g>
							<path fill="#E2E2E2" d="M428.645,480.864c2.572,0.241,4.76,1.767,5.965,4.034c0.453,0.853,1.745,0.096,1.292-0.755
								c-1.466-2.756-4.164-4.485-7.258-4.776C427.683,479.278,427.692,480.775,428.645,480.864L428.645,480.864z"/>
						</g>
					</g>
				</g>
			</g>
		</g>
		<g>
			<g>
				<g>
					<defs>
						<path id="SVGID_56_" d="M426.549,481.7c2.146,0.232,6.018,1.216,6.79,5.254c0,0,7.897,2.097,7.897-2.577
							c0-0.499-3.243-6.236-5.903-5.986c0,0-3.384,1.974-8.789,3C426.366,481.426,426.368,481.68,426.549,481.7z"/>
					</defs>
					<clipPath id="SVGID_57_">
						<use xlink:href="#SVGID_56_"  overflow="visible"/>
					</clipPath>
					<g clip-path="url(#SVGID_57_)">
						<g>
							<path fill="#E2E2E2" d="M432.067,479.531c2.597,0.615,4.685,2.247,5.913,4.616c0.444,0.857,1.736,0.101,1.292-0.755
								c-1.394-2.689-3.86-4.608-6.808-5.304C431.527,477.866,431.129,479.309,432.067,479.531L432.067,479.531z"/>
						</g>
					</g>
				</g>
			</g>
		</g>
	</g>
	<g>
		<g>
			<path id="SVGID_5_" fill="#455A64" d="M481.114,480.702c-2.148,0.232-6.018,1.215-6.79,5.254c0,0-7.899,2.097-7.899-2.577
				c0-0.499,3.243-6.236,5.903-5.986c0,0,3.384,1.974,8.789,3C481.297,480.429,481.295,480.683,481.114,480.702z"/>
		</g>
		<g>
			<g>
				<g>
					<defs>
						<path id="SVGID_58_" d="M481.114,480.702c-2.148,0.232-6.018,1.215-6.79,5.254c0,0-7.899,2.097-7.899-2.577
							c0-0.499,3.243-6.236,5.903-5.986c0,0,3.384,1.974,8.789,3C481.297,480.429,481.295,480.683,481.114,480.702z"/>
					</defs>
					<clipPath id="SVGID_59_">
						<use xlink:href="#SVGID_58_"  overflow="visible"/>
					</clipPath>
					<g clip-path="url(#SVGID_59_)">
						<g>
							<path fill="#E2E2E2" d="M482.511,453.247c-0.587,0.422-1.19,0.812-1.818,1.171c-1.673,0.959-0.166,3.545,1.511,2.584
								c0.626-0.359,1.231-0.749,1.818-1.171c0.66-0.476,0.978-1.294,0.537-2.047C484.176,453.13,483.174,452.769,482.511,453.247
								L482.511,453.247z"/>
						</g>
					</g>
				</g>
			</g>
		</g>
		<g>
			<g>
				<g>
					<defs>
						<path id="SVGID_60_" d="M481.114,480.702c-2.148,0.232-6.018,1.215-6.79,5.254c0,0-7.899,2.097-7.899-2.577
							c0-0.499,3.243-6.236,5.903-5.986c0,0,3.384,1.974,8.789,3C481.297,480.429,481.295,480.683,481.114,480.702z"/>
					</defs>
					<clipPath id="SVGID_61_">
						<use xlink:href="#SVGID_60_"  overflow="visible"/>
					</clipPath>
					<g clip-path="url(#SVGID_61_)">
						<g>
							<path fill="#E2E2E2" d="M479.019,478.37c-3.092,0.289-5.792,2.019-7.258,4.776c-0.453,0.851,0.84,1.607,1.292,0.755
								c1.206-2.267,3.393-3.793,5.966-4.034C479.971,479.777,479.98,478.281,479.019,478.37L479.019,478.37z"/>
						</g>
					</g>
				</g>
			</g>
		</g>
		<g>
			<g>
				<g>
					<defs>
						<path id="SVGID_62_" d="M481.114,480.702c-2.148,0.232-6.018,1.215-6.79,5.254c0,0-7.899,2.097-7.899-2.577
							c0-0.499,3.243-6.236,5.903-5.986c0,0,3.384,1.974,8.789,3C481.297,480.429,481.295,480.683,481.114,480.702z"/>
					</defs>
					<clipPath id="SVGID_63_">
						<use xlink:href="#SVGID_62_"  overflow="visible"/>
					</clipPath>
					<g clip-path="url(#SVGID_63_)">
						<g>
							<path fill="#E2E2E2" d="M475.198,477.091c-2.948,0.696-5.414,2.615-6.808,5.304c-0.444,0.856,0.848,1.612,1.292,0.755
								c1.228-2.37,3.316-4.003,5.913-4.616C476.534,478.312,476.137,476.869,475.198,477.091L475.198,477.091z"/>
						</g>
					</g>
				</g>
			</g>
		</g>
	</g>
	<g>
		<path d="M418.291,417.246c0,0,8.979,7.233,22.695-2.993"/>
		<g>
			<path d="M416.743,418.794c7.703,5.995,18.256,2.393,25.35-2.65c2.282-1.622,0.096-5.422-2.21-3.781
				c-4.513,3.208-9.325,5.538-14.971,5.082c-1.359-0.109-2.78-0.587-4.005-1.172c-0.264-0.126-1.832-1.171-1.067-0.575
				C417.64,413.985,414.515,417.061,416.743,418.794L416.743,418.794z"/>
		</g>
	</g>
	<g>
		<g>
			<path fill="#5D778D" d="M339.961,277.64c3.872-6.963,2.916-15.325-2.482-21.13c-1.337-1.438-3.484,0.717-2.151,2.151
				c4.459,4.795,5.192,11.718,2.007,17.445C336.381,277.821,339.008,279.354,339.961,277.64L339.961,277.64z"/>
		</g>
	</g>
	<g>
		<path d="M422.283,428.408c0,0,8.585,6.684,21.698-2.765"/>
		<g>
			<path d="M421.177,430.3c7.177,5.392,17.421,1.685,23.909-2.765c2.313-1.587,0.126-5.384-2.21-3.781
				c-5.275,3.618-13.538,7.234-19.488,2.765C421.126,424.819,418.948,428.625,421.177,430.3L421.177,430.3z"/>
		</g>
	</g>
	<g>
		<path d="M470.167,414.211c0,0-14.048,8.026-29.181,0.042"/>
		<g>
			<path d="M469.062,412.32c-8.278,4.586-18.653,4.07-26.97,0.041c-2.53-1.226-4.752,2.551-2.21,3.781
				c9.772,4.733,21.668,5.345,31.391-0.042C473.744,414.734,471.535,410.951,469.062,412.32L469.062,412.32z"/>
		</g>
	</g>
	<g>
		<path d="M468.671,425.352c0,0-9.859,8.059-24.275,0.747"/>
		<g>
			<path d="M467.123,423.803c-5.208,4.127-14.854,3.606-21.621,0.406c-2.539-1.2-4.762,2.575-2.21,3.781
				c8.461,4,19.142,5.081,26.929-1.091C472.433,425.146,469.312,422.069,467.123,423.803L467.123,423.803z"/>
		</g>
	</g>
	<g>
		<path fill="#263238" d="M432.898,260.312c-3.716-0.437-19.016-0.219-19.016-0.219c-4.371,9.836-2.841,25.137-2.841,25.137
			c10.929,3.06,22.513,0,22.513,0C437.269,272.989,432.898,260.312,432.898,260.312z"/>
		<path fill="#E2E2E2" d="M430.164,263.876c-2.698-0.317-13.806-0.159-13.806-0.159c-3.174,7.141-2.063,18.248-2.063,18.248
			c7.934,2.221,16.343,0,16.343,0C433.336,273.079,430.164,263.876,430.164,263.876z"/>
		<path fill="#455A64" d="M435.739,257.471l-19.453-0.219l-2.405,2.841c0,0,15.301-0.219,19.016,0.219
			c0,0,4.371,12.677,0.656,24.918l2.841-1.967C439.674,272.772,435.739,257.471,435.739,257.471z"/>
	</g>
	<path fill="#263238" d="M426.73,269.058h-7.649c-0.845,0-1.539-0.692-1.539-1.537l0,0c0-0.845,0.692-1.537,1.539-1.537h7.649
		c0.845,0,1.537,0.692,1.537,1.537l0,0C428.267,268.366,427.575,269.058,426.73,269.058z"/>
	<ellipse fill="#263238" cx="417.793" cy="276.415" rx="1.996" ry="1.953"/>
	<ellipse fill="#263238" cx="425.889" cy="278.225" rx="5.44" ry="5.132"/>
	
		<ellipse transform="matrix(0.3816 0.9243 -0.9243 0.3816 549.6009 -260.6348)" fill="#455A64" cx="469.589" cy="280.434" rx="3.933" ry="4.17"/>
	<g>
		<g>
			<path id="XMLID_5_" fill="#C7C7C7" d="M422.115,278.869c1.711,14.033,9.856,29.882,24.964,33.107
				c9.507,2.029,20.724-0.753,27.381-8.014c7.247-7.904,5.675-17.724-0.902-25.434c-3.7-4.336-9.967,1.92-6.294,6.225
				c5.043,5.911,3.58,12.204-2.989,16.112c-6.109,3.635-14.274,4.132-20.47,0.451c-5.087-3.022-8.398-8.388-10.423-13.775
				c-0.815-2.167-1.461-4.406-1.955-6.666c-0.152-0.692-0.653-3.976-0.412-2.006C430.339,273.312,421.43,273.245,422.115,278.869
				L422.115,278.869z"/>
		</g>
		<g>
			<g>
				<g>
					<defs>
						<path id="SVGID_64_" d="M422.115,278.869c1.711,14.033,9.856,29.882,24.964,33.107c9.507,2.029,20.724-0.753,27.381-8.014
							c7.247-7.904,5.675-17.724-0.902-25.434c-3.7-4.336-9.967,1.92-6.294,6.225c5.043,5.911,3.58,12.204-2.989,16.112
							c-6.109,3.635-14.274,4.132-20.47,0.451c-5.087-3.022-8.398-8.388-10.423-13.775c-0.815-2.167-1.461-4.406-1.955-6.666
							c-0.152-0.692-0.653-3.976-0.412-2.006C430.339,273.312,421.43,273.245,422.115,278.869L422.115,278.869z"/>
					</defs>
					<clipPath id="SVGID_65_">
						<use xlink:href="#SVGID_64_"  overflow="visible"/>
					</clipPath>
					<g clip-path="url(#SVGID_65_)">
						<g>
							<path fill="#5D778D" d="M383.593,211.872c3.396,1.745,6.792,3.489,10.188,5.234c1.714,0.88,3.228-1.702,1.511-2.584
								c-3.396-1.745-6.792-3.489-10.188-5.234C383.39,208.407,381.875,210.988,383.593,211.872L383.593,211.872z"/>
						</g>
					</g>
				</g>
			</g>
		</g>
		<g>
			<g>
				<g>
					<defs>
						<path id="SVGID_66_" d="M422.115,278.869c1.711,14.033,9.856,29.882,24.964,33.107c9.507,2.029,20.724-0.753,27.381-8.014
							c7.247-7.904,5.675-17.724-0.902-25.434c-3.7-4.336-9.967,1.92-6.294,6.225c5.043,5.911,3.58,12.204-2.989,16.112
							c-6.109,3.635-14.274,4.132-20.47,0.451c-5.087-3.022-8.398-8.388-10.423-13.775c-0.815-2.167-1.461-4.406-1.955-6.666
							c-0.152-0.692-0.653-3.976-0.412-2.006C430.339,273.312,421.43,273.245,422.115,278.869L422.115,278.869z"/>
					</defs>
					<clipPath id="SVGID_67_">
						<use xlink:href="#SVGID_66_"  overflow="visible"/>
					</clipPath>
					<g clip-path="url(#SVGID_67_)">
						<g>
							<path fill="#5D778D" d="M421.468,285.281c-3.656-7.05,7.771-6.12,10.16-5.665c3.069,0.587,6.084,1.847,8.024,4.386
								c0.289,0.378,0.939,0.006,0.647-0.378c-3.088-4.038-8.683-5.317-13.553-5.17c-3.813,0.115-8.037,3.127-5.923,7.205
								C421.043,286.087,421.69,285.709,421.468,285.281L421.468,285.281z"/>
						</g>
					</g>
				</g>
			</g>
		</g>
		<g>
			<g>
				<g>
					<defs>
						<path id="SVGID_68_" d="M422.115,278.869c1.711,14.033,9.856,29.882,24.964,33.107c9.507,2.029,20.724-0.753,27.381-8.014
							c7.247-7.904,5.675-17.724-0.902-25.434c-3.7-4.336-9.967,1.92-6.294,6.225c5.043,5.911,3.58,12.204-2.989,16.112
							c-6.109,3.635-14.274,4.132-20.47,0.451c-5.087-3.022-8.398-8.388-10.423-13.775c-0.815-2.167-1.461-4.406-1.955-6.666
							c-0.152-0.692-0.653-3.976-0.412-2.006C430.339,273.312,421.43,273.245,422.115,278.869L422.115,278.869z"/>
					</defs>
					<clipPath id="SVGID_69_">
						<use xlink:href="#SVGID_68_"  overflow="visible"/>
					</clipPath>
					<g clip-path="url(#SVGID_69_)">
						<g>
							<path fill="#5D778D" d="M422.234,287.705c-0.13-5.16,6.458-5.132,9.652-4.656c2.808,0.418,5.431,1.667,7.811,3.159
								c0.41,0.257,0.785-0.39,0.378-0.647c-3.768-2.362-7.979-3.781-12.461-3.412c-3.082,0.254-6.211,2.248-6.128,5.555
								C421.499,288.186,422.248,288.186,422.234,287.705L422.234,287.705z"/>
						</g>
					</g>
				</g>
			</g>
		</g>
		<g>
			<g>
				<g>
					<defs>
						<path id="SVGID_70_" d="M422.115,278.869c1.711,14.033,9.856,29.882,24.964,33.107c9.507,2.029,20.724-0.753,27.381-8.014
							c7.247-7.904,5.675-17.724-0.902-25.434c-3.7-4.336-9.967,1.92-6.294,6.225c5.043,5.911,3.58,12.204-2.989,16.112
							c-6.109,3.635-14.274,4.132-20.47,0.451c-5.087-3.022-8.398-8.388-10.423-13.775c-0.815-2.167-1.461-4.406-1.955-6.666
							c-0.152-0.692-0.653-3.976-0.412-2.006C430.339,273.312,421.43,273.245,422.115,278.869L422.115,278.869z"/>
					</defs>
					<clipPath id="SVGID_71_">
						<use xlink:href="#SVGID_70_"  overflow="visible"/>
					</clipPath>
					<g clip-path="url(#SVGID_71_)">
						<g>
							<path fill="#5D778D" d="M421.893,290.356c5.376-6.545,13.868-4.708,20.494-1.362c0.429,0.218,0.809-0.429,0.378-0.647
								c-6.917-3.492-15.838-5.291-21.4,1.48C421.061,290.197,421.586,290.73,421.893,290.356L421.893,290.356z"/>
						</g>
					</g>
				</g>
			</g>
		</g>
		<g>
			<g>
				<g>
					<defs>
						<path id="SVGID_72_" d="M422.115,278.869c1.711,14.033,9.856,29.882,24.964,33.107c9.507,2.029,20.724-0.753,27.381-8.014
							c7.247-7.904,5.675-17.724-0.902-25.434c-3.7-4.336-9.967,1.92-6.294,6.225c5.043,5.911,3.58,12.204-2.989,16.112
							c-6.109,3.635-14.274,4.132-20.47,0.451c-5.087-3.022-8.398-8.388-10.423-13.775c-0.815-2.167-1.461-4.406-1.955-6.666
							c-0.152-0.692-0.653-3.976-0.412-2.006C430.339,273.312,421.43,273.245,422.115,278.869L422.115,278.869z"/>
					</defs>
					<clipPath id="SVGID_73_">
						<use xlink:href="#SVGID_72_"  overflow="visible"/>
					</clipPath>
					<g clip-path="url(#SVGID_73_)">
						<g>
							<path fill="#5D778D" d="M423.559,293.299c5.906-4.774,14.372-4.012,20.305,0.203c0.394,0.28,0.768-0.369,0.378-0.647
								c-6.233-4.43-15.066-5.054-21.212-0.086C422.653,293.074,423.186,293.6,423.559,293.299L423.559,293.299z"/>
						</g>
					</g>
				</g>
			</g>
		</g>
		<g>
			<g>
				<g>
					<defs>
						<path id="SVGID_74_" d="M422.115,278.869c1.711,14.033,9.856,29.882,24.964,33.107c9.507,2.029,20.724-0.753,27.381-8.014
							c7.247-7.904,5.675-17.724-0.902-25.434c-3.7-4.336-9.967,1.92-6.294,6.225c5.043,5.911,3.58,12.204-2.989,16.112
							c-6.109,3.635-14.274,4.132-20.47,0.451c-5.087-3.022-8.398-8.388-10.423-13.775c-0.815-2.167-1.461-4.406-1.955-6.666
							c-0.152-0.692-0.653-3.976-0.412-2.006C430.339,273.312,421.43,273.245,422.115,278.869L422.115,278.869z"/>
					</defs>
					<clipPath id="SVGID_75_">
						<use xlink:href="#SVGID_74_"  overflow="visible"/>
					</clipPath>
					<g clip-path="url(#SVGID_75_)">
						<g>
							<path fill="#5D778D" d="M425.673,298.266c2.818-7.996,15.052-5.398,19.908-0.968c0.356,0.324,0.886-0.203,0.529-0.529
								c-5.31-4.843-18.137-7.277-21.16,1.298C424.791,298.523,425.514,298.719,425.673,298.266L425.673,298.266z"/>
						</g>
					</g>
				</g>
			</g>
		</g>
		<g>
			<g>
				<g>
					<defs>
						<path id="SVGID_76_" d="M422.115,278.869c1.711,14.033,9.856,29.882,24.964,33.107c9.507,2.029,20.724-0.753,27.381-8.014
							c7.247-7.904,5.675-17.724-0.902-25.434c-3.7-4.336-9.967,1.92-6.294,6.225c5.043,5.911,3.58,12.204-2.989,16.112
							c-6.109,3.635-14.274,4.132-20.47,0.451c-5.087-3.022-8.398-8.388-10.423-13.775c-0.815-2.167-1.461-4.406-1.955-6.666
							c-0.152-0.692-0.653-3.976-0.412-2.006C430.339,273.312,421.43,273.245,422.115,278.869L422.115,278.869z"/>
					</defs>
					<clipPath id="SVGID_77_">
						<use xlink:href="#SVGID_76_"  overflow="visible"/>
					</clipPath>
					<g clip-path="url(#SVGID_77_)">
						<g>
							<path fill="#5D778D" d="M427.733,301.497c3.275-6.328,12.427-4.898,17.215-1.453c0.393,0.282,0.765-0.366,0.378-0.647
								c-5.123-3.688-14.798-4.923-18.238,1.721C426.865,301.548,427.511,301.926,427.733,301.497L427.733,301.497z"/>
						</g>
					</g>
				</g>
			</g>
		</g>
		<g>
			<g>
				<g>
					<defs>
						<path id="SVGID_78_" d="M422.115,278.869c1.711,14.033,9.856,29.882,24.964,33.107c9.507,2.029,20.724-0.753,27.381-8.014
							c7.247-7.904,5.675-17.724-0.902-25.434c-3.7-4.336-9.967,1.92-6.294,6.225c5.043,5.911,3.58,12.204-2.989,16.112
							c-6.109,3.635-14.274,4.132-20.47,0.451c-5.087-3.022-8.398-8.388-10.423-13.775c-0.815-2.167-1.461-4.406-1.955-6.666
							c-0.152-0.692-0.653-3.976-0.412-2.006C430.339,273.312,421.43,273.245,422.115,278.869L422.115,278.869z"/>
					</defs>
					<clipPath id="SVGID_79_">
						<use xlink:href="#SVGID_78_"  overflow="visible"/>
					</clipPath>
					<g clip-path="url(#SVGID_79_)">
						<g>
							<path fill="#5D778D" d="M432.025,305.251c0.788-4.536,7.202-4.971,10.664-4.908c3.362,0.061,6.555,1.425,9.291,3.279
								c0.4,0.272,0.775-0.377,0.378-0.647c-4.082-2.765-8.591-3.79-13.477-3.18c-3.161,0.396-6.974,1.788-7.577,5.256
								C431.222,305.522,431.943,305.725,432.025,305.251L432.025,305.251z"/>
						</g>
					</g>
				</g>
			</g>
		</g>
		<g>
			<g>
				<g>
					<defs>
						<path id="SVGID_80_" d="M422.115,278.869c1.711,14.033,9.856,29.882,24.964,33.107c9.507,2.029,20.724-0.753,27.381-8.014
							c7.247-7.904,5.675-17.724-0.902-25.434c-3.7-4.336-9.967,1.92-6.294,6.225c5.043,5.911,3.58,12.204-2.989,16.112
							c-6.109,3.635-14.274,4.132-20.47,0.451c-5.087-3.022-8.398-8.388-10.423-13.775c-0.815-2.167-1.461-4.406-1.955-6.666
							c-0.152-0.692-0.653-3.976-0.412-2.006C430.339,273.312,421.43,273.245,422.115,278.869L422.115,278.869z"/>
					</defs>
					<clipPath id="SVGID_81_">
						<use xlink:href="#SVGID_80_"  overflow="visible"/>
					</clipPath>
					<g clip-path="url(#SVGID_81_)">
						<g>
							<path fill="#5D778D" d="M435.182,309.556c1.622-5.044,13.417-11.367,18.047-6.783c0.343,0.34,0.872-0.19,0.529-0.529
								c-2.634-2.609-7.128-1.387-10.256-0.409c-3.666,1.146-7.817,3.72-9.04,7.523
								C434.311,309.818,435.034,310.013,435.182,309.556L435.182,309.556z"/>
						</g>
					</g>
				</g>
			</g>
		</g>
		<g>
			<g>
				<g>
					<defs>
						<path id="SVGID_82_" d="M422.115,278.869c1.711,14.033,9.856,29.882,24.964,33.107c9.507,2.029,20.724-0.753,27.381-8.014
							c7.247-7.904,5.675-17.724-0.902-25.434c-3.7-4.336-9.967,1.92-6.294,6.225c5.043,5.911,3.58,12.204-2.989,16.112
							c-6.109,3.635-14.274,4.132-20.47,0.451c-5.087-3.022-8.398-8.388-10.423-13.775c-0.815-2.167-1.461-4.406-1.955-6.666
							c-0.152-0.692-0.653-3.976-0.412-2.006C430.339,273.312,421.43,273.245,422.115,278.869L422.115,278.869z"/>
					</defs>
					<clipPath id="SVGID_83_">
						<use xlink:href="#SVGID_82_"  overflow="visible"/>
					</clipPath>
					<g clip-path="url(#SVGID_83_)">
						<g>
							<path fill="#5D778D" d="M441.728,313.389c1.483-5.925,4.393-14.658,12.226-13.378c0.472,0.077,0.675-0.644,0.199-0.721
								c-8.275-1.353-11.547,7.51-13.147,13.899C440.89,313.659,441.611,313.857,441.728,313.389L441.728,313.389z"/>
						</g>
					</g>
				</g>
			</g>
		</g>
		<g>
			<g>
				<g>
					<defs>
						<path id="SVGID_84_" d="M422.115,278.869c1.711,14.033,9.856,29.882,24.964,33.107c9.507,2.029,20.724-0.753,27.381-8.014
							c7.247-7.904,5.675-17.724-0.902-25.434c-3.7-4.336-9.967,1.92-6.294,6.225c5.043,5.911,3.58,12.204-2.989,16.112
							c-6.109,3.635-14.274,4.132-20.47,0.451c-5.087-3.022-8.398-8.388-10.423-13.775c-0.815-2.167-1.461-4.406-1.955-6.666
							c-0.152-0.692-0.653-3.976-0.412-2.006C430.339,273.312,421.43,273.245,422.115,278.869L422.115,278.869z"/>
					</defs>
					<clipPath id="SVGID_85_">
						<use xlink:href="#SVGID_84_"  overflow="visible"/>
					</clipPath>
					<g clip-path="url(#SVGID_85_)">
						<g>
							<path fill="#5D778D" d="M451.757,314.563c-4.453-2.451-3.228-11.497-2.683-15.747c0.061-0.477-0.688-0.472-0.747,0
								c-0.577,4.505-1.869,13.683,3.054,16.393C451.802,315.441,452.18,314.796,451.757,314.563L451.757,314.563z"/>
						</g>
					</g>
				</g>
			</g>
		</g>
		<g>
			<g>
				<g>
					<defs>
						<path id="SVGID_86_" d="M422.115,278.869c1.711,14.033,9.856,29.882,24.964,33.107c9.507,2.029,20.724-0.753,27.381-8.014
							c7.247-7.904,5.675-17.724-0.902-25.434c-3.7-4.336-9.967,1.92-6.294,6.225c5.043,5.911,3.58,12.204-2.989,16.112
							c-6.109,3.635-14.274,4.132-20.47,0.451c-5.087-3.022-8.398-8.388-10.423-13.775c-0.815-2.167-1.461-4.406-1.955-6.666
							c-0.152-0.692-0.653-3.976-0.412-2.006C430.339,273.312,421.43,273.245,422.115,278.869L422.115,278.869z"/>
					</defs>
					<clipPath id="SVGID_87_">
						<use xlink:href="#SVGID_86_"  overflow="visible"/>
					</clipPath>
					<g clip-path="url(#SVGID_87_)">
						<g>
							<path fill="#5D778D" d="M458.262,313.764c-7.836-2.022-7.344-10.204-6.069-16.517c0.095-0.472-0.626-0.672-0.721-0.199
								c-1.368,6.78-1.6,15.324,6.592,17.437C458.531,314.606,458.728,313.885,458.262,313.764L458.262,313.764z"/>
						</g>
					</g>
				</g>
			</g>
		</g>
		<g>
			<g>
				<g>
					<defs>
						<path id="SVGID_88_" d="M422.115,278.869c1.711,14.033,9.856,29.882,24.964,33.107c9.507,2.029,20.724-0.753,27.381-8.014
							c7.247-7.904,5.675-17.724-0.902-25.434c-3.7-4.336-9.967,1.92-6.294,6.225c5.043,5.911,3.58,12.204-2.989,16.112
							c-6.109,3.635-14.274,4.132-20.47,0.451c-5.087-3.022-8.398-8.388-10.423-13.775c-0.815-2.167-1.461-4.406-1.955-6.666
							c-0.152-0.692-0.653-3.976-0.412-2.006C430.339,273.312,421.43,273.245,422.115,278.869L422.115,278.869z"/>
					</defs>
					<clipPath id="SVGID_89_">
						<use xlink:href="#SVGID_88_"  overflow="visible"/>
					</clipPath>
					<g clip-path="url(#SVGID_89_)">
						<g>
							<path fill="#5D778D" d="M454.284,300.637c-0.438,3.847,2.311,7.901,4.491,10.856c1.807,2.45,4.308,4.127,7.402,4.157
								c0.483,0.004,0.482-0.743,0-0.747c-3.551-0.034-5.863-2.421-7.738-5.168c-1.742-2.551-3.765-5.954-3.408-9.096
								C455.087,300.158,454.338,300.164,454.284,300.637L454.284,300.637z"/>
						</g>
					</g>
				</g>
			</g>
		</g>
		<g>
			<g>
				<g>
					<defs>
						<path id="SVGID_90_" d="M422.115,278.869c1.711,14.033,9.856,29.882,24.964,33.107c9.507,2.029,20.724-0.753,27.381-8.014
							c7.247-7.904,5.675-17.724-0.902-25.434c-3.7-4.336-9.967,1.92-6.294,6.225c5.043,5.911,3.58,12.204-2.989,16.112
							c-6.109,3.635-14.274,4.132-20.47,0.451c-5.087-3.022-8.398-8.388-10.423-13.775c-0.815-2.167-1.461-4.406-1.955-6.666
							c-0.152-0.692-0.653-3.976-0.412-2.006C430.339,273.312,421.43,273.245,422.115,278.869L422.115,278.869z"/>
					</defs>
					<clipPath id="SVGID_91_">
						<use xlink:href="#SVGID_90_"  overflow="visible"/>
					</clipPath>
					<g clip-path="url(#SVGID_91_)">
						<g>
							<path fill="#5D778D" d="M458.552,300.29c-0.226,7.71,12.141,13.978,18.628,10.998c0.438-0.201,0.057-0.845-0.378-0.647
								c-5.929,2.724-17.71-3.289-17.502-10.353C459.314,299.806,458.566,299.808,458.552,300.29L458.552,300.29z"/>
						</g>
					</g>
				</g>
			</g>
		</g>
		<g>
			<g>
				<g>
					<defs>
						<path id="SVGID_92_" d="M422.115,278.869c1.711,14.033,9.856,29.882,24.964,33.107c9.507,2.029,20.724-0.753,27.381-8.014
							c7.247-7.904,5.675-17.724-0.902-25.434c-3.7-4.336-9.967,1.92-6.294,6.225c5.043,5.911,3.58,12.204-2.989,16.112
							c-6.109,3.635-14.274,4.132-20.47,0.451c-5.087-3.022-8.398-8.388-10.423-13.775c-0.815-2.167-1.461-4.406-1.955-6.666
							c-0.152-0.692-0.653-3.976-0.412-2.006C430.339,273.312,421.43,273.245,422.115,278.869L422.115,278.869z"/>
					</defs>
					<clipPath id="SVGID_93_">
						<use xlink:href="#SVGID_92_"  overflow="visible"/>
					</clipPath>
					<g clip-path="url(#SVGID_93_)">
						<g>
							<path fill="#5D778D" d="M460.927,300.034c4.373,5.314,17.127,13.22,22.62,5.254c0.274-0.399-0.374-0.772-0.647-0.378
								c-5.231,7.585-17.475-0.581-21.444-5.406C461.149,299.132,460.623,299.665,460.927,300.034L460.927,300.034z"/>
						</g>
					</g>
				</g>
			</g>
		</g>
		<g>
			<g>
				<g>
					<defs>
						<path id="SVGID_94_" d="M422.115,278.869c1.711,14.033,9.856,29.882,24.964,33.107c9.507,2.029,20.724-0.753,27.381-8.014
							c7.247-7.904,5.675-17.724-0.902-25.434c-3.7-4.336-9.967,1.92-6.294,6.225c5.043,5.911,3.58,12.204-2.989,16.112
							c-6.109,3.635-14.274,4.132-20.47,0.451c-5.087-3.022-8.398-8.388-10.423-13.775c-0.815-2.167-1.461-4.406-1.955-6.666
							c-0.152-0.692-0.653-3.976-0.412-2.006C430.339,273.312,421.43,273.245,422.115,278.869L422.115,278.869z"/>
					</defs>
					<clipPath id="SVGID_95_">
						<use xlink:href="#SVGID_94_"  overflow="visible"/>
					</clipPath>
					<g clip-path="url(#SVGID_95_)">
						<g>
							<path fill="#5D778D" d="M464.3,298.862c5.56,2.419,16.217,5.047,20.47-1.028c0.277-0.396-0.372-0.769-0.647-0.378
								c-3.964,5.663-14.298,3-19.447,0.759C464.24,298.025,463.857,298.671,464.3,298.862L464.3,298.862z"/>
						</g>
					</g>
				</g>
			</g>
		</g>
		<g>
			<g>
				<g>
					<defs>
						<path id="SVGID_96_" d="M422.115,278.869c1.711,14.033,9.856,29.882,24.964,33.107c9.507,2.029,20.724-0.753,27.381-8.014
							c7.247-7.904,5.675-17.724-0.902-25.434c-3.7-4.336-9.967,1.92-6.294,6.225c5.043,5.911,3.58,12.204-2.989,16.112
							c-6.109,3.635-14.274,4.132-20.47,0.451c-5.087-3.022-8.398-8.388-10.423-13.775c-0.815-2.167-1.461-4.406-1.955-6.666
							c-0.152-0.692-0.653-3.976-0.412-2.006C430.339,273.312,421.43,273.245,422.115,278.869L422.115,278.869z"/>
					</defs>
					<clipPath id="SVGID_97_">
						<use xlink:href="#SVGID_96_"  overflow="visible"/>
					</clipPath>
					<g clip-path="url(#SVGID_97_)">
						<g>
							<path fill="#5D778D" d="M466.449,295.053c4.852,3.995,11.122,4.392,16.45,1.035c0.407-0.257,0.032-0.904-0.378-0.647
								c-5.022,3.164-10.95,2.865-15.543-0.918C466.608,294.219,466.076,294.746,466.449,295.053L466.449,295.053z"/>
						</g>
					</g>
				</g>
			</g>
		</g>
		<g>
			<g>
				<g>
					<defs>
						<path id="SVGID_98_" d="M422.115,278.869c1.711,14.033,9.856,29.882,24.964,33.107c9.507,2.029,20.724-0.753,27.381-8.014
							c7.247-7.904,5.675-17.724-0.902-25.434c-3.7-4.336-9.967,1.92-6.294,6.225c5.043,5.911,3.58,12.204-2.989,16.112
							c-6.109,3.635-14.274,4.132-20.47,0.451c-5.087-3.022-8.398-8.388-10.423-13.775c-0.815-2.167-1.461-4.406-1.955-6.666
							c-0.152-0.692-0.653-3.976-0.412-2.006C430.339,273.312,421.43,273.245,422.115,278.869L422.115,278.869z"/>
					</defs>
					<clipPath id="SVGID_99_">
						<use xlink:href="#SVGID_98_"  overflow="visible"/>
					</clipPath>
					<g clip-path="url(#SVGID_99_)">
						<g>
							<path fill="#5D778D" d="M467.509,291.947c3.273,1.644,6.652,2.664,10.248,1.513c3.406-1.091,4.498-4.332,5.078-7.509
								c0.086-0.472-0.635-0.673-0.721-0.199c-0.512,2.809-1.27,5.212-3.914,6.707c-3.25,1.838-7.296,0.358-10.313-1.158
								C467.456,291.085,467.078,291.73,467.509,291.947L467.509,291.947z"/>
						</g>
					</g>
				</g>
			</g>
		</g>
		<g>
			<g>
				<g>
					<defs>
						<path id="SVGID_100_" d="M422.115,278.869c1.711,14.033,9.856,29.882,24.964,33.107c9.507,2.029,20.724-0.753,27.381-8.014
							c7.247-7.904,5.675-17.724-0.902-25.434c-3.7-4.336-9.967,1.92-6.294,6.225c5.043,5.911,3.58,12.204-2.989,16.112
							c-6.109,3.635-14.274,4.132-20.47,0.451c-5.087-3.022-8.398-8.388-10.423-13.775c-0.815-2.167-1.461-4.406-1.955-6.666
							c-0.152-0.692-0.653-3.976-0.412-2.006C430.339,273.312,421.43,273.245,422.115,278.869L422.115,278.869z"/>
					</defs>
					<clipPath id="SVGID_101_">
						<use xlink:href="#SVGID_100_"  overflow="visible"/>
					</clipPath>
					<g clip-path="url(#SVGID_101_)">
						<g>
							<path fill="#5D778D" d="M468.02,289.506c5.403,1.851,10.905-0.949,12.588-6.399c0.143-0.463-0.58-0.658-0.721-0.199
								c-1.568,5.073-6.65,7.596-11.668,5.876C467.761,288.629,467.566,289.352,468.02,289.506L468.02,289.506z"/>
						</g>
					</g>
				</g>
			</g>
		</g>
		<g>
			<g>
				<g>
					<defs>
						<path id="SVGID_102_" d="M422.115,278.869c1.711,14.033,9.856,29.882,24.964,33.107c9.507,2.029,20.724-0.753,27.381-8.014
							c7.247-7.904,5.675-17.724-0.902-25.434c-3.7-4.336-9.967,1.92-6.294,6.225c5.043,5.911,3.58,12.204-2.989,16.112
							c-6.109,3.635-14.274,4.132-20.47,0.451c-5.087-3.022-8.398-8.388-10.423-13.775c-0.815-2.167-1.461-4.406-1.955-6.666
							c-0.152-0.692-0.653-3.976-0.412-2.006C430.339,273.312,421.43,273.245,422.115,278.869L422.115,278.869z"/>
					</defs>
					<clipPath id="SVGID_103_">
						<use xlink:href="#SVGID_102_"  overflow="visible"/>
					</clipPath>
					<g clip-path="url(#SVGID_103_)">
						<g>
							<path fill="#5D778D" d="M468.1,288.153c4.427-0.651,8.217-3.057,10.735-6.75c0.273-0.4-0.375-0.774-0.647-0.378
								c-2.415,3.539-6.057,5.783-10.289,6.405C467.424,287.502,467.627,288.223,468.1,288.153L468.1,288.153z"/>
						</g>
					</g>
				</g>
			</g>
		</g>
		<g>
			<g>
				<g>
					<defs>
						<path id="SVGID_104_" d="M422.115,278.869c1.711,14.033,9.856,29.882,24.964,33.107c9.507,2.029,20.724-0.753,27.381-8.014
							c7.247-7.904,5.675-17.724-0.902-25.434c-3.7-4.336-9.967,1.92-6.294,6.225c5.043,5.911,3.58,12.204-2.989,16.112
							c-6.109,3.635-14.274,4.132-20.47,0.451c-5.087-3.022-8.398-8.388-10.423-13.775c-0.815-2.167-1.461-4.406-1.955-6.666
							c-0.152-0.692-0.653-3.976-0.412-2.006C430.339,273.312,421.43,273.245,422.115,278.869L422.115,278.869z"/>
					</defs>
					<clipPath id="SVGID_105_">
						<use xlink:href="#SVGID_104_"  overflow="visible"/>
					</clipPath>
					<g clip-path="url(#SVGID_105_)">
						<g>
							<path fill="#5D778D" d="M467.552,286.601c3.523-4.11,7.615-7.863,13.265-8.332c0.477-0.039,0.482-0.788,0-0.747
								c-5.862,0.486-10.118,4.263-13.794,8.551C466.711,286.436,467.238,286.967,467.552,286.601L467.552,286.601z"/>
						</g>
					</g>
				</g>
			</g>
		</g>
		<g>
			<g>
				<g>
					<defs>
						<path id="SVGID_106_" d="M422.115,278.869c1.711,14.033,9.856,29.882,24.964,33.107c9.507,2.029,20.724-0.753,27.381-8.014
							c7.247-7.904,5.675-17.724-0.902-25.434c-3.7-4.336-9.967,1.92-6.294,6.225c5.043,5.911,3.58,12.204-2.989,16.112
							c-6.109,3.635-14.274,4.132-20.47,0.451c-5.087-3.022-8.398-8.388-10.423-13.775c-0.815-2.167-1.461-4.406-1.955-6.666
							c-0.152-0.692-0.653-3.976-0.412-2.006C430.339,273.312,421.43,273.245,422.115,278.869L422.115,278.869z"/>
					</defs>
					<clipPath id="SVGID_107_">
						<use xlink:href="#SVGID_106_"  overflow="visible"/>
					</clipPath>
					<g clip-path="url(#SVGID_107_)">
						<g>
							<path fill="#5D778D" d="M466.65,287.516c0.061-6.989,6.782-11.356,13.2-8.723c0.447,0.182,0.639-0.542,0.199-0.721
								c-6.901-2.829-14.082,2.026-14.146,9.445C465.898,287.998,466.646,287.998,466.65,287.516L466.65,287.516z"/>
						</g>
					</g>
				</g>
			</g>
		</g>
	</g>
	<path opacity="0.12" fill="#5D5D5D" enable-background="new    " d="M471.801,215.081c-12.857,0.67-50.416,2.638-60.953,3.305
		c3.333,5.453,11.753,14.968,28.643,16.42c23.195,1.996-9.477,50.13,3.74,82.803c13.219,32.672,18.705,107.245,17.708,154.382
		c0,0-0.25,14.216,19.952,9.477c9.408-2.207,11.998,3.107,12.083,9.413c2.717-0.583,4.91-1.431,6.002-2.543
		c-1.815-6.567-8.649-9.148-15.342-7.618c-8.729,1.996-18.955-6.983-18.955-6.983s10.226-114.726,6.236-145.403
		c-1.441-11.078-4.541-21.212-7.913-29.641c-6.222-15.549-4.735-33.107,4.257-47.235
		C457.356,234.878,464.679,222.306,471.801,215.081z"/>
	<g>
		<path id="XMLID_6_" fill="#E2E2E2" d="M409.479,216.351c0,0-0.664,17.958,18.289,17.625c18.955-0.333,41.9-19.288,53.206-18.622
			l-2.993-4.656c0,0,18.622-27.934,16.295-47.553s-10.642-38.243-33.587-40.237s-47.22,10.309-53.206,38.574
			s6.983,50.546,6.983,50.546L409.479,216.351z"/>
	</g>
	<path fill="none" d="M409.479,216.351c0,0-0.664,17.958,18.289,17.625c18.955-0.333,41.9-19.288,53.206-18.622l-2.993-4.656
		c0,0,18.622-27.934,16.295-47.553s-10.642-38.243-33.587-40.237s-47.22,10.309-53.206,38.574s6.983,50.546,6.983,50.546
		L409.479,216.351z"/>
	<path opacity="0.29" fill="#5D5D5D" enable-background="new    " d="M456.367,495.56c0-2.205-27.553-125.092-29.207-125.092
		c-1.653,0-9.369-14.328-9.369-14.328s12.124,12.124,16.531,10.47L456.367,495.56z"/>
	<path opacity="0.12" fill="#5D5D5D" enable-background="new    " d="M479.34,214.755c-1.348-1.102-2.714-2.051-4.092-2.825
		c-1.091,0.899-2.266,1.951-3.447,3.151c2.736-0.143,4.354-0.226,4.354-0.226S477.466,214.587,479.34,214.755z"/>
	<path opacity="0.12" fill="#5D5D5D" enable-background="new    " d="M312.335,268.507c0.156,3.041,0.385,5.704,0.707,5.704
		c0.723,0,43.07,11.159,85.276-8.283c0,0,9.248-17.656,10.494-28.629C408.814,237.3,400.771,275.75,312.335,268.507z"/>
	<path opacity="0.12" fill="#5D5D5D" enable-background="new    " d="M443.089,489.073c-1.539,2.61-3.602,4.238-6.342,4.367
		l18.955-0.25l-0.639-3.393C451.132,488.73,448.151,488.546,443.089,489.073z"/>
	<path opacity="0.12" fill="#5D5D5D" enable-background="new    " d="M443.089,489.073c5.062-0.527,8.043-0.343,11.973,0.724
		l-9.337-49.482C445.726,440.936,450.519,476.469,443.089,489.073z"/>
	<g>
		<g>
			<path id="XMLID_1_" fill="#254267" d="M489.909,306.188l-2.026,9.97c-0.524,7.979-7.647,12.446-7.647,12.446
				s-5.749,3.847-9.741,4.209c-3.992,0.361-9.445-10.38-6.945-11.744c2.498-1.364,4.257-5.598,4.257-5.598s-4.5,3.478-6.99,2.222
				c-0.553-0.279-1.019-0.749-1.41-1.31c-1.686-2.422-0.999-5.779,1.362-7.548c1.913-1.434,4.272-3.076,5.825-3.719
				c2.997-1.237,11.846,0.288,11.846,0.288s3.87-1.235,4.244-1.234L489.909,306.188z"/>
		</g>
		<g>
			<g>
				<g>
					<defs>
						<path id="SVGID_108_" d="M489.909,306.188l-2.026,9.97c-0.524,7.979-7.647,12.446-7.647,12.446s-5.749,3.847-9.741,4.209
							c-3.992,0.361-9.445-10.38-6.945-11.744c2.498-1.364,4.257-5.598,4.257-5.598s-4.5,3.478-6.99,2.222
							c-0.553-0.279-1.019-0.749-1.41-1.31c-1.686-2.422-0.999-5.779,1.362-7.548c1.913-1.434,4.272-3.076,5.825-3.719
							c2.997-1.237,11.846,0.288,11.846,0.288s3.87-1.235,4.244-1.234L489.909,306.188z"/>
					</defs>
					<clipPath id="SVGID_109_">
						<use xlink:href="#SVGID_108_"  overflow="visible"/>
					</clipPath>
					<g clip-path="url(#SVGID_109_)">
						<g>
							<path fill="#35577C" d="M463.33,305.151c5.129,15.095,18.539,41.5,38.523,34.794c1.819-0.61,1.04-3.501-0.796-2.886
								c-17.975,6.033-30.232-19.135-34.841-32.704C465.599,302.54,462.707,303.319,463.33,305.151L463.33,305.151z"/>
						</g>
					</g>
				</g>
			</g>
		</g>
		<g>
			<g>
				<g>
					<defs>
						<path id="SVGID_110_" d="M489.909,306.188l-2.026,9.97c-0.524,7.979-7.647,12.446-7.647,12.446s-5.749,3.847-9.741,4.209
							c-3.992,0.361-9.445-10.38-6.945-11.744c2.498-1.364,4.257-5.598,4.257-5.598s-4.5,3.478-6.99,2.222
							c-0.553-0.279-1.019-0.749-1.41-1.31c-1.686-2.422-0.999-5.779,1.362-7.548c1.913-1.434,4.272-3.076,5.825-3.719
							c2.997-1.237,11.846,0.288,11.846,0.288s3.87-1.235,4.244-1.234L489.909,306.188z"/>
					</defs>
					<clipPath id="SVGID_111_">
						<use xlink:href="#SVGID_110_"  overflow="visible"/>
					</clipPath>
					<g clip-path="url(#SVGID_111_)">
						<g>
							<path fill="#35577C" d="M461.647,306.698c-0.756,5.243,3.735,10.938,6.415,15.127c3.027,4.73,6.408,9.448,11.854,11.417
								c0.266-0.962,0.53-1.924,0.796-2.886c-4.986-1.682-9.799-3.441-12.924-7.941c-2.393-3.447-3.175-7.939-5.285-11.594
								c-0.784,0.604-1.567,1.209-2.351,1.813c2.291,2.298,3.156,5.874,4.336,8.821c1.4,3.498,2.8,6.998,4.202,10.496
								c0.911-0.384,1.824-0.769,2.735-1.153c-4.44-7.614-11.156-13.972-12.624-22.99c-0.962,0.266-1.924,0.53-2.886,0.796
								c2.675,8.564,6.278,16.734,14.209,21.584c1.651,1.01,3.154-1.58,1.511-2.584c-7.25-4.434-10.398-11.998-12.833-19.796
								c-0.587-1.876-3.192-1.077-2.886,0.796c1.517,9.306,8.344,15.847,12.927,23.706c0.831,1.425,3.38,0.457,2.735-1.153
								c-1.634-4.082-3.267-8.164-4.901-12.245c-1.196-2.986-2.097-6.075-4.406-8.393c-1.207-1.212-3.202,0.339-2.351,1.813
								c2.743,4.754,3.72,10.118,7.408,14.322c3.107,3.542,8.287,5.138,12.589,6.587c1.842,0.622,2.589-2.238,0.796-2.886
								c-4.692-1.697-7.415-6.082-10.065-10.042c-2.035-3.04-6.658-9.055-6.114-12.822
								C464.805,305.607,461.921,304.794,461.647,306.698L461.647,306.698z"/>
						</g>
					</g>
				</g>
			</g>
		</g>
		<g>
			<g>
				<g>
					<defs>
						<path id="SVGID_112_" d="M489.909,306.188l-2.026,9.97c-0.524,7.979-7.647,12.446-7.647,12.446s-5.749,3.847-9.741,4.209
							c-3.992,0.361-9.445-10.38-6.945-11.744c2.498-1.364,4.257-5.598,4.257-5.598s-4.5,3.478-6.99,2.222
							c-0.553-0.279-1.019-0.749-1.41-1.31c-1.686-2.422-0.999-5.779,1.362-7.548c1.913-1.434,4.272-3.076,5.825-3.719
							c2.997-1.237,11.846,0.288,11.846,0.288s3.87-1.235,4.244-1.234L489.909,306.188z"/>
					</defs>
					<clipPath id="SVGID_113_">
						<use xlink:href="#SVGID_112_"  overflow="visible"/>
					</clipPath>
					<g clip-path="url(#SVGID_113_)">
						<g>
							<path fill="#35577C" d="M461.502,306.356c-1.072,2.553-1.223,4.59-0.858,7.291c0.228,1.691,2.984,1.259,2.939-0.397
								c-0.057-2.108-0.585-6.824-3.609-6.824c-3.199,0-2.736,3.656-1.507,5.396c0.298-0.733,0.596-1.466,0.895-2.199
								c-2.892,1.091-1.77,3.838,0.171,5.291c1.007,0.755,3.297,0.277,4.072-0.647c1.777-2.12,1.897-3.958,1.542-6.752
								c-0.93,0.251-1.859,0.504-2.789,0.755c0.806,1.891,1.384,3.713,1.878,5.691c0.472,1.886,3.263,1.079,2.886-0.796
								c-0.134-0.666-0.267-1.332-0.401-1.997c-0.962,0.266-1.924,0.53-2.886,0.796c0.726,2.9,1.786,5.446,3.314,8.007
								c1.92,3.215,5.333,5.323,6.674,8.89c0.48-0.631,0.962-1.263,1.442-1.894c-2.881-0.301-5.049-1.606-6.698-3.978
								c-0.784,0.604-1.567,1.209-2.351,1.813c2.584,2.44,5.167,4.879,7.751,7.32c0.604-0.784,1.209-1.567,1.813-2.351
								c-3.672-2.269-6.952-4.903-9.97-7.989c-1.352-1.384-3.444,0.718-2.117,2.117c2.875,3.027,5.773,5.955,9.064,8.532
								c1.476,1.156,3.574-0.783,2.116-2.117c-3.374-3.088-7.11-5.19-11.511-6.444c-1.003-0.286-2.281,0.752-1.841,1.841
								c1.04,2.57,6.379,10.445,10.144,7.866c4.177-2.86-3.536-7.389-5.771-8.627c-0.251,0.93-0.504,1.859-0.755,2.789
								c0.331,0.139,0.664,0.277,0.996,0.418c1.565,1.136,3.057-1.463,1.511-2.584c-1.004-0.729-1.273-0.759-2.507-0.825
								c-1.499-0.082-2.026,2.083-0.755,2.789c1.705,0.946,3.211,2.031,4.633,3.365c-1.786-1.675-3.66-3.638-4.609-5.984
								c-0.613,0.613-1.228,1.228-1.841,1.841c3.946,1.124,7.161,2.904,10.189,5.675c0.705-0.705,1.41-1.41,2.116-2.117
								c-3.292-2.577-6.189-5.507-9.064-8.532c-0.705,0.705-1.41,1.41-2.117,2.117c3.202,3.275,6.679,6.05,10.575,8.456
								c1.447,0.893,3.051-1.181,1.813-2.351c-2.584-2.44-5.167-4.879-7.751-7.32c-1.194-1.127-3.354,0.371-2.351,1.813
								c2.323,3.339,5.244,5.038,9.284,5.46c0.923,0.096,1.765-1.037,1.442-1.894c-0.766-2.037-1.859-3.6-3.301-5.221
								c-3.192-3.587-5.504-6.947-6.688-11.676c-0.472-1.886-3.263-1.079-2.886,0.796c0.134,0.666,0.267,1.332,0.401,1.997
								c0.962-0.266,1.924-0.53,2.886-0.796c-0.555-2.222-1.285-4.306-2.18-6.406c-0.571-1.34-2.973-0.692-2.789,0.755
								c0.667,1.994,0.003,3.66-1.994,4.996c0.829-0.312,1.498-1.345,0.895-2.199c-2.04-1.567-2.193-0.588-0.461,2.938
								c0.98-0.133,1.959-0.266,2.939-0.397c-0.366-2.048-0.08-3.949,0.858-5.7C465.135,305.373,462.238,304.604,461.502,306.356
								L461.502,306.356z"/>
						</g>
					</g>
				</g>
			</g>
		</g>
		<g>
			<g>
				<g>
					<defs>
						<path id="SVGID_114_" d="M489.909,306.188l-2.026,9.97c-0.524,7.979-7.647,12.446-7.647,12.446s-5.749,3.847-9.741,4.209
							c-3.992,0.361-9.445-10.38-6.945-11.744c2.498-1.364,4.257-5.598,4.257-5.598s-4.5,3.478-6.99,2.222
							c-0.553-0.279-1.019-0.749-1.41-1.31c-1.686-2.422-0.999-5.779,1.362-7.548c1.913-1.434,4.272-3.076,5.825-3.719
							c2.997-1.237,11.846,0.288,11.846,0.288s3.87-1.235,4.244-1.234L489.909,306.188z"/>
					</defs>
					<clipPath id="SVGID_115_">
						<use xlink:href="#SVGID_114_"  overflow="visible"/>
					</clipPath>
					<g clip-path="url(#SVGID_115_)">
						<g>
							<path fill="#35577C" d="M466.135,321.606c1.099,2.247,2.643,4.238,4.545,5.862c1.218,1.04,3.368-0.326,2.351-1.813
								c-1.336-1.951-2.743-3.846-4.211-5.698c-0.666-0.841-2.337-0.4-2.501,0.66c-0.153,0.994-0.146,1.907,0.169,2.873
								c0.597,1.826,3.488,1.044,2.886-0.796c-0.14-0.429-0.239-0.825-0.169-1.282c-0.834,0.22-1.667,0.441-2.501,0.66
								c1.308,1.653,2.551,3.354,3.742,5.092c0.784-0.604,1.567-1.209,2.351-1.813c-1.732-1.478-3.076-3.212-4.076-5.256
								C467.872,318.361,465.291,319.88,466.135,321.606L466.135,321.606z"/>
						</g>
					</g>
				</g>
			</g>
		</g>
	</g>
	<path fill="#E2E2E2" d="M467.424,251.266c0,0-6.733-28.931,19.453-33.171c0,0,38.16,31.924,27.684,68.338
		c0,0-12.969,19.952-26.687,29.68c0,0-3.74-10.475-9.477-10.725c0,0,17.209-17.708,18.456-29.928
		C496.854,275.46,483.636,252.265,467.424,251.266z"/>
	<g>
		<g>
			<path fill="#5D778D" d="M500.513,304.805c-2.834-6.011-9.433-9.215-15.88-8.427c-1.613,0.197-1.632,2.754,0,2.555
				c5.647-0.691,11.189,1.889,13.674,7.161C499.009,307.584,501.211,306.286,500.513,304.805L500.513,304.805z"/>
		</g>
	</g>
	<path opacity="0.12" fill="#5D5D5D" enable-background="new    " d="M514.562,286.433c10.475-36.413-27.684-68.338-27.684-68.338
		c-2.526-2.393-5.399-3.151-7.538-3.34c17.701,14.483,32.158,55.314,28.487,67.189c-3.3,10.675-17.171,23.009-23.161,27.956
		c2.037,2.933,3.209,6.212,3.209,6.212C501.593,306.385,514.562,286.433,514.562,286.433z"/>
	<path fill="#455A64" d="M467.424,251.266c0,0-6.11-2.37-6.485-15.838c-0.374-13.468,7.856-26.062,18.332-24.068
		c0,0,4.116,1.247,4.739,4.739c0,0-10.849-1.87-14.715,4.989C463.734,230.955,462.934,240.168,467.424,251.266z"/>
	<path fill="#455A64" d="M398.089,265.857c4.739-2.12,21.996-50.59,10.973-50.504c-2.372,0.019-1.247,6.36-1.247,6.36
		S410.684,235.055,398.089,265.857z"/>
	<path stroke="#000000" stroke-miterlimit="10" d="M467.214,137.507c0.076,1.275,0.127,2.558,0.127,3.856
		c0,29.477-19.727,53.373-44.062,53.373c-2.756,0-5.449-0.321-8.063-0.908c3.053,6.3,7.999,10.976,14.882,12.88
		c16.911,4.676,35.392-9.799,41.234-30.927C475.623,160.264,474.7,145.899,467.214,137.507z"/>
	<path stroke="#000000" stroke-miterlimit="10" d="M467.341,141.363c0-1.298-0.051-2.581-0.127-3.856
		c-1.364-1.529-2.942-2.86-4.751-3.962c-5.473,21.936-22.282,37.913-42.178,37.913c-2.916,0-5.761-0.352-8.518-1.006
		c-0.826,8.678,0.302,16.889,3.447,23.376c2.616,0.587,5.309,0.908,8.063,0.908C447.615,194.736,467.341,170.839,467.341,141.363z"
		/>
	<path stroke="#000000" stroke-miterlimit="10" d="M413.802,159.486c-1.016,3.678-1.691,7.361-2.034,10.966
		c2.756,0.654,5.603,1.006,8.518,1.006c19.895,0,36.704-15.977,42.178-37.913c-1.781-1.086-3.777-1.958-6.005-2.574
		C439.547,126.293,419.646,138.358,413.802,159.486z"/>
	<path stroke="#000000" stroke-miterlimit="10" d="M445.601,191.16c-15.391,0-28.353-12.566-32.301-29.692
		c-0.733,3.016-1.25,6.027-1.532,8.983c-0.826,8.678,0.302,16.889,3.447,23.376c3.053,6.3,7.999,10.976,14.882,12.88
		c16.54,4.574,34.574-9.177,40.824-29.55C464.771,185.732,455.712,191.16,445.601,191.16z"/>
	<path stroke="#000000" stroke-miterlimit="10" d="M450.389,190.594c-5.144,3.996-23.71,10.145-29.477,5.447
		c0.537,1.199,1.148,2.339,1.821,3.399c1.977,3.114,8.193,4.733,15.512,4.44c4.157-0.166,8.195-1.807,10.807-3.326
		c7.15-4.157,17.333-17.84,14.133-26.271C463.355,178.746,453.767,187.969,450.389,190.594z"/>
	
		<ellipse transform="matrix(-0.6609 0.7504 -0.7504 -0.6609 831.7348 -86.7726)" opacity="0.33" fill="#FFFFFF" enable-background="new    " cx="435.47" cy="144.51" rx="9.522" ry="6.837"/>
	
		<ellipse transform="matrix(-0.6609 0.7504 -0.7504 -0.6609 827.7304 -91.2444)" opacity="0.33" fill="#FFFFFF" enable-background="new    " cx="434.478" cy="141.37" rx="4.048" ry="2.907"/>
	
		<ellipse transform="matrix(-0.661 0.7504 -0.7504 -0.661 842.409 -98.7545)" opacity="0.71" fill="#FFFFFF" enable-background="new    " cx="443.512" cy="140.912" rx="2.066" ry="1.483"/>
	<g>
		<path opacity="0.69" fill="#FFFFFF" enable-background="new    " d="M677.252,500.919l-4.365,1.543
			c-0.437,0.155-0.761,0.527-0.851,0.981l-0.891,4.415l-1.942-4.327c-0.178-0.399-0.534-0.691-0.961-0.787l-4.218-0.958l4.138-1.892
			c0.361-0.165,0.625-0.485,0.718-0.87l1.07-4.393l1.778,4.19c0.168,0.396,0.507,0.694,0.921,0.81L677.252,500.919z"/>
		<path opacity="0.69" fill="#FFFFFF" enable-background="new    " d="M641.277,452.92l-4.365,1.543
			c-0.437,0.155-0.761,0.527-0.851,0.981l-0.891,4.415l-1.942-4.327c-0.178-0.399-0.534-0.691-0.961-0.787l-4.218-0.958l4.138-1.892
			c0.361-0.165,0.625-0.485,0.718-0.87l1.07-4.393l1.778,4.19c0.168,0.396,0.507,0.694,0.921,0.81L641.277,452.92z"/>
		<path opacity="0.69" fill="#FFFFFF" enable-background="new    " d="M556.501,243.146l-4.365,1.543
			c-0.437,0.155-0.761,0.527-0.851,0.981l-0.891,4.415l-1.942-4.327c-0.178-0.399-0.534-0.691-0.961-0.787l-4.218-0.958l4.138-1.892
			c0.361-0.165,0.625-0.486,0.718-0.87l1.07-4.393l1.778,4.19c0.168,0.396,0.507,0.693,0.921,0.81L556.501,243.146z"/>
		<path opacity="0.69" fill="#FFFFFF" enable-background="new    " d="M658.114,398.442l-4.365,1.543
			c-0.437,0.155-0.761,0.527-0.851,0.981l-0.891,4.415l-1.942-4.327c-0.178-0.399-0.534-0.691-0.961-0.787l-4.218-0.958l4.138-1.892
			c0.361-0.165,0.625-0.485,0.718-0.87l1.07-4.393l1.778,4.19c0.168,0.396,0.507,0.693,0.921,0.81L658.114,398.442z"/>
		<path opacity="0.69" fill="#FFFFFF" enable-background="new    " d="M660.681,255.537l-2.161,0.764
			c-0.216,0.076-0.377,0.261-0.422,0.485l-0.441,2.186l-0.961-2.142c-0.089-0.197-0.264-0.342-0.476-0.39l-2.088-0.473l2.047-0.936
			c0.178-0.082,0.31-0.241,0.356-0.431l0.53-2.174l0.88,2.073c0.083,0.196,0.251,0.343,0.456,0.4L660.681,255.537z"/>
		<path opacity="0.69" fill="#FFFFFF" enable-background="new    " d="M612.853,309.978l-2.161,0.764
			c-0.216,0.076-0.377,0.261-0.422,0.485l-0.441,2.186l-0.961-2.142c-0.089-0.197-0.264-0.342-0.476-0.39l-2.088-0.473l2.047-0.936
			c0.178-0.082,0.31-0.241,0.356-0.431l0.53-2.174l0.88,2.073c0.083,0.196,0.251,0.343,0.456,0.4L612.853,309.978z"/>
		<path opacity="0.69" fill="#FFFFFF" enable-background="new    " d="M666.078,328.792l-2.161,0.764
			c-0.216,0.076-0.377,0.261-0.422,0.485l-0.441,2.186l-0.961-2.142c-0.089-0.197-0.264-0.342-0.476-0.39l-2.088-0.473l2.047-0.936
			c0.178-0.082,0.31-0.241,0.356-0.431l0.53-2.174l0.88,2.073c0.083,0.196,0.251,0.343,0.456,0.401L666.078,328.792z"/>
		<path opacity="0.69" fill="#FFFFFF" enable-background="new    " d="M547.411,292.483l-2.161,0.764
			c-0.216,0.076-0.377,0.261-0.422,0.485l-0.441,2.186l-0.961-2.142c-0.089-0.197-0.264-0.342-0.476-0.39l-2.088-0.473l2.047-0.936
			c0.178-0.082,0.31-0.241,0.356-0.431l0.53-2.174l0.88,2.073c0.083,0.196,0.251,0.343,0.456,0.401L547.411,292.483z"/>
		<path opacity="0.69" fill="#FFFFFF" enable-background="new    " d="M603.798,480.839l-1.426,0.504
			c-0.143,0.051-0.248,0.172-0.279,0.32l-0.291,1.442l-0.634-1.413c-0.058-0.13-0.175-0.225-0.314-0.257l-1.378-0.312l1.352-0.618
			c0.118-0.054,0.204-0.159,0.235-0.285l0.349-1.435l0.581,1.368c0.055,0.13,0.165,0.226,0.301,0.264L603.798,480.839z"/>
		<path opacity="0.69" fill="#FFFFFF" enable-background="new    " d="M530.408,483.684l-1.426,0.504
			c-0.143,0.05-0.248,0.172-0.279,0.32l-0.291,1.442l-0.634-1.413c-0.058-0.13-0.175-0.225-0.314-0.257l-1.378-0.312l1.352-0.618
			c0.118-0.054,0.204-0.159,0.235-0.285l0.349-1.435l0.581,1.368c0.055,0.13,0.165,0.226,0.301,0.264L530.408,483.684z"/>
		<path opacity="0.69" fill="#FFFFFF" enable-background="new    " d="M664.639,411.424l-1.426,0.504
			c-0.143,0.05-0.248,0.172-0.279,0.32l-0.291,1.442l-0.634-1.413c-0.058-0.13-0.175-0.225-0.314-0.257l-1.378-0.312l1.352-0.618
			c0.118-0.054,0.204-0.159,0.235-0.285l0.35-1.435l0.581,1.368c0.055,0.13,0.165,0.226,0.301,0.264L664.639,411.424z"/>
		<path opacity="0.69" fill="#FFFFFF" enable-background="new    " d="M644.152,381.548l-1.426,0.504
			c-0.143,0.051-0.248,0.172-0.279,0.32l-0.291,1.442l-0.634-1.413c-0.058-0.13-0.175-0.225-0.314-0.257l-1.378-0.312l1.352-0.618
			c0.118-0.054,0.204-0.159,0.235-0.285l0.35-1.435l0.581,1.368c0.055,0.13,0.165,0.226,0.301,0.264L644.152,381.548z"/>
		<path opacity="0.69" fill="#FFFFFF" enable-background="new    " d="M599.624,341.06l-1.426,0.504
			c-0.143,0.051-0.248,0.172-0.279,0.32l-0.291,1.442l-0.634-1.413c-0.058-0.13-0.175-0.225-0.314-0.257l-1.378-0.312l1.352-0.618
			c0.118-0.054,0.204-0.159,0.235-0.285l0.349-1.435l0.581,1.368c0.055,0.13,0.165,0.226,0.301,0.264L599.624,341.06z"/>
		<path opacity="0.69" fill="#FFFFFF" enable-background="new    " d="M608.302,436.178l-1.426,0.504
			c-0.143,0.05-0.248,0.172-0.279,0.32l-0.291,1.442l-0.634-1.413c-0.058-0.13-0.175-0.225-0.314-0.257l-1.378-0.312l1.352-0.618
			c0.118-0.054,0.204-0.159,0.235-0.285l0.35-1.435l0.581,1.368c0.055,0.13,0.165,0.226,0.301,0.264L608.302,436.178z"/>
		<path opacity="0.69" fill="#FFFFFF" enable-background="new    " d="M663.071,467.892l-1.426,0.504
			c-0.143,0.05-0.248,0.172-0.277,0.32l-0.291,1.442l-0.634-1.413c-0.058-0.13-0.175-0.225-0.314-0.257l-1.378-0.312l1.352-0.618
			c0.118-0.054,0.204-0.159,0.235-0.285l0.349-1.435l0.581,1.368c0.055,0.13,0.165,0.226,0.301,0.264L663.071,467.892z"/>
		<path opacity="0.69" fill="#FFFFFF" enable-background="new    " d="M639.594,480.299l-1.426,0.504
			c-0.143,0.051-0.248,0.172-0.279,0.32l-0.291,1.442l-0.634-1.413c-0.058-0.13-0.175-0.225-0.314-0.257l-1.378-0.312l1.352-0.618
			c0.118-0.054,0.204-0.159,0.235-0.285l0.349-1.435l0.581,1.368c0.055,0.13,0.165,0.226,0.301,0.264L639.594,480.299z"/>
		<path opacity="0.69" fill="#FFFFFF" enable-background="new    " d="M534.607,267.729l-1.426,0.504
			c-0.143,0.051-0.248,0.172-0.277,0.32l-0.291,1.442l-0.634-1.413c-0.058-0.13-0.175-0.225-0.314-0.257l-1.378-0.312l1.352-0.618
			c0.118-0.054,0.204-0.159,0.235-0.285l0.349-1.435l0.581,1.368c0.055,0.13,0.165,0.226,0.301,0.264L534.607,267.729z"/>
		<path opacity="0.69" fill="#FFFFFF" enable-background="new    " d="M635.227,308.815l-4.616,0.343
			c-0.461,0.035-0.872,0.31-1.079,0.723l-2.018,4.027l-0.737-4.685c-0.069-0.432-0.334-0.806-0.721-1.012l-3.819-2.029l4.489-0.74
			c0.391-0.064,0.73-0.305,0.923-0.651l2.186-3.958l0.618,4.51c0.058,0.426,0.307,0.803,0.676,1.023L635.227,308.815z"/>
		<path fill="#FFFFFF" d="M215.052,326.279c0.032,2.514-53.392,5.228-55.906,5.259c-2.514,0.032-4.577-1.981-4.609-4.494
			c-0.032-2.514,1.981-4.577,4.494-4.609C161.545,322.403,215.02,323.766,215.052,326.279z"/>
		<path opacity="0.69" fill="#FFFFFF" enable-background="new    " d="M538.75,236.231l-2.161,0.764
			c-0.216,0.076-0.377,0.261-0.422,0.485l-0.441,2.186l-0.961-2.142c-0.089-0.197-0.264-0.342-0.476-0.39l-2.088-0.473l2.047-0.936
			c0.178-0.082,0.31-0.241,0.356-0.431l0.53-2.174l0.88,2.073c0.083,0.196,0.251,0.343,0.456,0.4L538.75,236.231z"/>
		<path opacity="0.69" fill="#FFFFFF" enable-background="new    " d="M575.578,254.925l-1.426,0.504
			c-0.143,0.051-0.248,0.172-0.277,0.32l-0.291,1.442l-0.634-1.413c-0.058-0.13-0.175-0.225-0.314-0.257l-1.378-0.312l1.352-0.618
			c0.118-0.054,0.204-0.159,0.235-0.285l0.349-1.435l0.581,1.368c0.055,0.13,0.165,0.226,0.301,0.264L575.578,254.925z"/>
		<path opacity="0.69" fill="#FFFFFF" enable-background="new    " d="M544.85,223.343l-1.426,0.504
			c-0.143,0.051-0.248,0.172-0.277,0.32l-0.291,1.442l-0.634-1.413c-0.058-0.13-0.175-0.225-0.314-0.257l-1.378-0.312l1.352-0.618
			c0.118-0.054,0.204-0.159,0.235-0.285l0.349-1.435l0.581,1.368c0.055,0.13,0.165,0.226,0.301,0.264L544.85,223.343z"/>
	</g>
	<path fill="#263238" d="M466.593,305.115c0,0,3.177,11.969,12.747,24.055c0,0,8.534-5.653,8.535-13.057
		c0,0-3.618-10.048-9.477-10.725C478.399,305.388,470.189,304.138,466.593,305.115z"/>
</g>
</svg>
