<svg width="61" height="62" viewBox="0 0 61 62" fill="none" xmlns="http://www.w3.org/2000/svg">
  <path
    d="M60.8136 30.8167C60.8136 36.3745 59.3434 41.5851 56.7729 46.0736C51.5518 55.1935 41.793 61.3293 30.6148 61.3293C19.4369 61.3293 9.6778 55.1935 4.45669 46.0736C1.88623 41.5851 0.416016 36.3745 0.416016 30.8167C0.416016 13.9645 13.9362 0.302979 30.6148 0.302979C47.2931 0.302979 60.8136 13.9645 60.8136 30.8167Z"
    fill="black"/>
  <path d="M49.7523 52.8351L49.7046 52.7295C49.7058 52.7648 49.7073 52.7998 49.7082 52.8351H49.7523Z" fill="white"/>
  <path
    d="M39.2412 8.48901C39.0715 8.48901 38.9295 8.93565 38.8883 9.54006C38.2902 9.58163 37.8481 9.72515 37.8481 9.89658C37.8481 10.068 38.2902 10.2115 38.8883 10.2531C38.9295 10.8575 39.0715 11.3041 39.2412 11.3041C39.4108 11.3041 39.5529 10.8575 39.594 10.2531C40.1922 10.2115 40.6342 10.068 40.6342 9.89658C40.6342 9.72515 40.1922 9.58163 39.594 9.54006C39.5532 8.93565 39.4108 8.48901 39.2412 8.48901Z"
    fill="white"/>
  <path
    d="M42.9126 17.2917C42.6351 17.2917 42.4024 18.0227 42.3351 19.0118C41.3562 19.0795 40.6328 19.3146 40.6328 19.5953C40.6328 19.876 41.3562 20.1108 42.3351 20.1788C42.4021 21.1679 42.6348 21.8989 42.9126 21.8989C43.1904 21.8989 43.4228 21.1679 43.4901 20.1788C44.469 20.1111 45.1924 19.876 45.1924 19.5953C45.1924 19.315 44.469 19.0798 43.4901 19.0118C43.4231 18.0227 43.1904 17.2917 42.9126 17.2917Z"
    fill="white"/>
  <path
    d="M19.7241 16.303C19.5544 16.303 19.4124 16.7496 19.3713 17.354C18.7731 17.3956 18.3311 17.5391 18.3311 17.7105C18.3311 17.882 18.7731 18.0255 19.3713 18.0671C19.4124 18.6715 19.5544 19.1181 19.7241 19.1181C19.8938 19.1181 20.0358 18.6715 20.0769 18.0671C20.6751 18.0255 21.1171 17.882 21.1171 17.7105C21.1171 17.5391 20.6751 17.3956 20.0769 17.354C20.0358 16.7496 19.8938 16.303 19.7241 16.303Z"
    fill="white"/>
  <path
    d="M13.2476 25.781C12.9701 25.781 12.7374 26.5119 12.6701 27.5011C11.6912 27.5688 10.9678 27.8039 10.9678 28.0846C10.9678 28.3649 11.6912 28.6001 12.6701 28.668C12.7371 29.6572 12.9698 30.3881 13.2476 30.3881C13.525 30.3881 13.7578 29.6572 13.825 28.668C14.804 28.6004 15.5273 28.3652 15.5273 28.0846C15.5273 27.8042 14.804 27.5691 13.825 27.5011C13.7578 26.5119 13.5253 25.781 13.2476 25.781Z"
    fill="white"/>
  <path d="M10.5593 53.6298L7.60059 50.5725C8.51616 51.6603 9.50501 52.6807 10.5593 53.6298Z" fill="#05979D"/>
  <path
    d="M30.6166 30.8169C19.4387 30.8169 9.6784 36.9539 4.4585 46.0738C5.37257 47.6692 6.42448 49.1747 7.59951 50.5702C8.35504 49.1444 9.84356 48.1756 11.5564 48.1756C13.3362 48.1756 14.8692 49.2224 15.5971 50.7386C16.0103 50.5768 16.4574 50.4855 16.9271 50.4855C17.5712 50.4855 18.1757 50.6524 18.703 50.9455C19.1672 50.4949 19.7954 50.2167 20.4894 50.2167C21.0389 50.2167 21.5464 50.3917 21.9647 50.687C22.0944 48.7442 23.6907 47.2083 25.6459 47.2083C26.3252 47.2083 26.9588 47.3964 27.5056 47.7186C27.6458 46.8214 28.4131 46.1335 29.3416 46.1335C29.4962 46.1335 29.6446 46.1587 29.7887 46.1945L30.6175 41.7288L31.4463 46.1945C31.5904 46.1587 31.7388 46.1335 31.8934 46.1335C32.8219 46.1335 33.5891 46.8214 33.7294 47.7186C34.2762 47.3967 34.9098 47.2083 35.5879 47.2083C37.5445 47.2083 39.1406 48.7442 39.2706 50.687C39.6889 50.3914 40.1964 50.2167 40.7459 50.2167C41.4396 50.2167 42.0678 50.4949 42.5308 50.9455C43.0593 50.6527 43.6641 50.4855 44.3079 50.4855C44.7776 50.4855 45.2247 50.5768 45.6379 50.7386C46.3658 49.2227 47.8991 48.1756 49.6786 48.1756C51.3902 48.1756 52.8772 49.1429 53.634 50.5674C54.809 49.172 55.8609 47.6692 56.7738 46.0738C51.5548 36.9539 41.7945 30.8169 30.6166 30.8169Z"
    fill="url(#paint0_linear)"
  />
  <path
    d="M37.7423 42.9767C36.7897 32.53 34.1241 23.9432 30.6122 19.5955C27.094 23.9523 24.4245 32.5621 23.4771 43.0368C23.4188 43.6725 23.3684 44.3145 23.3242 44.9629C23.5464 45.4799 23.9734 45.8847 24.5016 46.0746C25.3064 44.9259 26.1628 44.0068 27.0574 43.3481C27.6033 42.9461 28.164 42.642 28.7366 42.4412C28.9009 43.4073 29.7321 44.1434 30.735 44.1434C31.6383 44.1434 32.4028 43.5468 32.6662 42.7231C33.1527 42.9658 33.6295 43.2835 34.0953 43.6737C34.867 44.3196 35.6087 45.1619 36.3123 46.1793C37.0186 46.0962 37.6122 45.6456 37.9053 45.0227C37.8573 44.3336 37.8029 43.6506 37.7423 42.9767Z"
    fill="white"/>
  <path
    d="M30.6134 19.5976V44.141C29.6654 44.0834 28.8922 43.3673 28.7366 42.4422C28.1628 42.6436 27.6024 42.947 27.0571 43.35C26.1622 44.0084 25.3055 44.9259 24.5019 46.0756C23.9737 45.8857 23.5464 45.4806 23.3242 44.9642C23.3681 44.3155 23.4191 43.6722 23.4762 43.0369C24.4242 32.5619 27.0931 23.9526 30.6116 19.5952L30.6134 19.5976Z"
    fill="#E6E7E8"/>
  <path
    d="M30.616 33.5347C31.8714 33.5347 32.8891 32.5063 32.8891 31.2378C32.8891 29.9693 31.8714 28.9409 30.616 28.9409C29.3605 28.9409 28.3428 29.9693 28.3428 31.2378C28.3428 32.5063 29.3605 33.5347 30.616 33.5347Z"
    fill="black"/>
  <defs>
    <linearGradient id="paint0_linear" x1="30.6166" y1="30.8169" x2="30.6166" y2="50.9451"
                    gradientUnits="userSpaceOnUse">
      <stop stopColor="white"/>
      <stop offset="0.291" stopColor="#D8D9DA"/>
      <stop offset="0.5852" stopColor="#B8B9BC"/>
      <stop offset="0.8322" stopColor="#A4A6A9"/>
      <stop offset="1" stopColor="#9D9FA2"/>
    </linearGradient>
  </defs>
</svg>
