<svg width="244" height="58" viewBox="0 0 244 58" fill="none" xmlns="http://www.w3.org/2000/svg">
<path d="M28.5274 28.824C17.9685 28.824 8.74872 34.6211 3.81787 43.236C4.68133 44.743 5.67499 46.1652 6.78495 47.4834C7.49863 46.1366 8.90473 45.2214 10.5227 45.2214C12.204 45.2214 13.6521 46.2102 14.3396 47.6424C14.73 47.4897 15.1523 47.4034 15.596 47.4034C16.2044 47.4034 16.7754 47.561 17.2735 47.8379C17.7121 47.4123 18.3055 47.1495 18.961 47.1495C19.4801 47.1495 19.9595 47.3148 20.3546 47.5937C20.4772 45.7585 21.9851 44.3076 23.832 44.3076C24.4737 44.3076 25.0722 44.4853 25.5887 44.7897C25.7212 43.9422 26.4459 43.2924 27.323 43.2924C27.4691 43.2924 27.6092 43.3162 27.7454 43.3501L28.5283 39.1316L29.3112 43.3501C29.4473 43.3162 29.5875 43.2924 29.7335 43.2924C30.6106 43.2924 31.3354 43.9422 31.4678 44.7897C31.9844 44.4856 32.5829 44.3076 33.2234 44.3076C35.0717 44.3076 36.5794 45.7585 36.7022 47.5937C37.0973 47.3146 37.5767 47.1495 38.0958 47.1495C38.7511 47.1495 39.3445 47.4123 39.7819 47.8379C40.2811 47.5613 40.8524 47.4034 41.4606 47.4034C41.9042 47.4034 42.3266 47.4897 42.7169 47.6424C43.4045 46.2105 44.8529 45.2214 46.5338 45.2214C48.1507 45.2214 49.5554 46.1351 50.2702 47.4808C51.3801 46.1626 52.3738 44.743 53.2361 43.236C48.3061 34.6211 39.0864 28.824 28.5274 28.824Z" fill="url(#paint0_linear_728_4)"/>
<path d="M52.8022 42.9875L52.8021 42.9876C47.9547 51.4548 38.8975 57.1469 28.5265 57.1469C18.1558 57.1469 9.09829 51.4548 4.25084 42.9876L4.25081 42.9875C1.86498 38.8215 0.5 33.9848 0.5 28.824C0.5 13.1762 13.0525 0.5 28.5265 0.5C44.0002 0.5 56.553 13.1762 56.553 28.824C56.553 33.9848 55.188 38.8215 52.8022 42.9875Z" stroke="white"/>
<path d="M46.6027 49.6219L46.5583 49.5237C46.5594 49.5565 46.5608 49.5891 46.5617 49.6219H46.6027Z" fill="white"/>
<path d="M36.6742 7.73267C36.514 7.73267 36.3798 8.15457 36.3409 8.72551C35.7759 8.76478 35.3583 8.90035 35.3583 9.06229C35.3583 9.22423 35.7759 9.3598 36.3409 9.39906C36.3798 9.97 36.514 10.3919 36.6742 10.3919C36.8345 10.3919 36.9687 9.97 37.0075 9.39906C37.5726 9.3598 37.9901 9.22423 37.9901 9.06229C37.9901 8.90035 37.5726 8.76478 37.0075 8.72551C36.969 8.15457 36.8345 7.73267 36.6742 7.73267Z" fill="white"/>
<path d="M40.1437 16.0479C39.8816 16.0479 39.6618 16.7383 39.5982 17.6727C38.6735 17.7366 37.9902 17.9587 37.9902 18.2239C37.9902 18.489 38.6735 18.7108 39.5982 18.775C39.6615 19.7094 39.8813 20.3999 40.1437 20.3999C40.4061 20.3999 40.6257 19.7094 40.6892 18.775C41.6139 18.7111 42.2973 18.489 42.2973 18.2239C42.2973 17.959 41.6139 17.7369 40.6892 17.6727C40.6259 16.7383 40.4061 16.0479 40.1437 16.0479Z" fill="white"/>
<path d="M18.2386 15.114C18.0783 15.114 17.9441 15.5359 17.9053 16.1069C17.3402 16.1461 16.9227 16.2817 16.9227 16.4436C16.9227 16.6056 17.3402 16.7411 17.9053 16.7804C17.9441 17.3514 18.0783 17.7733 18.2386 17.7733C18.3988 17.7733 18.533 17.3514 18.5719 16.7804C19.1369 16.7411 19.5545 16.6056 19.5545 16.4436C19.5545 16.2817 19.1369 16.1461 18.5719 16.1069C18.533 15.5359 18.3988 15.114 18.2386 15.114Z" fill="white"/>
<path d="M12.1217 24.0674C11.8596 24.0674 11.6397 24.7578 11.5762 25.6922C10.6515 25.7561 9.96814 25.9783 9.96814 26.2434C9.96814 26.5082 10.6515 26.7304 11.5762 26.7946C11.6395 27.7289 11.8593 28.4194 12.1217 28.4194C12.3838 28.4194 12.6036 27.7289 12.6672 26.7946C13.5919 26.7306 14.2752 26.5085 14.2752 26.2434C14.2752 25.9786 13.5919 25.7564 12.6672 25.6922C12.6036 24.7578 12.3841 24.0674 12.1217 24.0674Z" fill="white"/>
<path d="M9.58109 50.3741L6.78619 47.4861C7.65107 48.5136 8.58516 49.4775 9.58109 50.3741Z" fill="#05979D"/>
<path d="M35.2595 40.3109C34.3597 30.4426 31.8417 22.3313 28.5243 18.2244C25.201 22.3399 22.6792 30.473 21.7843 40.3676C21.7292 40.9681 21.6816 41.5746 21.6399 42.1871C21.8498 42.6755 22.2532 43.0578 22.7521 43.2372C23.5123 42.1521 24.3213 41.2839 25.1663 40.6617C25.682 40.2819 26.2116 39.9947 26.7526 39.805C26.9077 40.7176 27.6929 41.4129 28.6403 41.4129C29.4936 41.4129 30.2158 40.8494 30.4645 40.0712C30.9241 40.3005 31.3745 40.6006 31.8145 40.9692C32.5435 41.5794 33.2441 42.3751 33.9087 43.3361C34.5759 43.2576 35.1367 42.8319 35.4135 42.2435C35.3682 41.5926 35.3168 40.9474 35.2595 40.3109Z" fill="white"/>
<path d="M28.5254 18.2254V41.4097C27.6299 41.3552 26.8995 40.6788 26.7526 39.8049C26.2105 39.9952 25.6812 40.2818 25.1661 40.6625C24.3208 41.2844 23.5115 42.1512 22.7524 43.2371C22.2534 43.0577 21.8498 42.6751 21.6399 42.1873C21.6813 41.5745 21.7295 40.9668 21.7834 40.3667C22.6789 30.4718 25.2001 22.3393 28.5237 18.2231L28.5254 18.2254Z" fill="#E6E7E8"/>
<path d="M28.5272 31.3916C29.7132 31.3916 30.6745 30.4202 30.6745 29.2219C30.6745 28.0237 29.7132 27.0522 28.5272 27.0522C27.3413 27.0522 26.3799 28.0237 26.3799 29.2219C26.3799 30.4202 27.3413 31.3916 28.5272 31.3916Z" fill="black"/>
<path d="M69.9291 12.675V13.5263V31.4431L64.8354 36.6283V13.5263V12.675H69.9291Z" fill="white"/>
<path d="M85.2484 38.4473V43.6328H64.8354L69.9291 38.4473H85.2484Z" fill="#B1B3B6"/>
<path d="M96.255 38.4472L93.6507 43.6327H87.9826L103.302 12.675L113.527 33.3391H107.782L103.302 24.2452L98.7824 33.3391L96.255 38.4472Z" fill="white"/>
<path d="M118.621 43.6326H112.915L110.387 38.4858H116.055L118.621 43.6326Z" fill="#B1B3B6"/>
<path d="M147.095 30.7463C147.095 34.3064 145.87 37.3637 143.342 39.8788C140.853 42.3942 137.789 43.6327 134.304 43.6327C130.819 43.6327 127.793 42.3945 125.304 39.8788C122.815 37.3637 121.589 34.268 121.589 30.7463V12.675H126.683V30.7466C126.683 32.875 127.41 34.6939 128.866 36.1643C130.359 37.7123 132.198 38.4474 134.304 38.4474C136.41 38.4474 138.21 37.6736 139.704 36.1643C141.197 34.6552 142.002 32.8366 142.002 30.7466H147.095V30.7463Z" fill="white"/>
<path d="M179.379 12.675V43.5553V43.594V43.6327L153.911 20.4917V12.675L174.286 31.2109V12.675H179.379Z" fill="white"/>
<path d="M147.32 12.675H142.227V25.5806H147.32V12.675Z" fill="#B1B3B6"/>
<path d="M243.88 12.675H238.787V20.4146H243.88V12.675Z" fill="#B1B3B6"/>
<path d="M223.466 35.8928H218.373V43.6324H223.466V35.8928Z" fill="white"/>
<path d="M223.465 43.6335H218.373V43.6708H223.465V43.6335Z" fill="white"/>
<path d="M223.467 23.063H223.465V12.7107H218.374V23.063H218.373V30.8026H223.467V30.7822H238.785V30.8034H238.786V38.5424V43.6697H243.879V38.5424V30.8034V30.8026V25.5976H223.467V23.063Z" fill="white"/>
<path d="M153.911 43.5555V25.5808L159.005 30.2085V43.5555H153.911Z" fill="#B1B3B6"/>
<path d="M189.346 28.0778C189.346 25.2099 190.492 22.6177 192.352 20.7332C194.215 18.8461 196.793 17.677 199.642 17.677C203.089 17.677 206.14 19.3893 208.008 22.0187C208.013 22.0241 208.018 22.0293 208.021 22.0347L211.617 18.4007C208.81 14.8515 204.49 12.5801 199.642 12.5801C195.401 12.5801 191.563 14.319 188.787 17.131C186.015 19.9353 184.304 23.8052 184.304 28.0778C184.304 32.9337 186.513 37.2648 189.971 40.1034L193.578 36.4854C191.012 34.5929 189.346 31.5315 189.346 28.0778Z" fill="white"/>
<path d="M199.644 38.4811C198.959 38.4811 198.293 38.4149 197.648 38.2851L193.611 42.3298C195.463 43.1304 197.501 43.5758 199.644 43.5758C203.873 43.5758 207.702 41.8449 210.478 39.0461L206.913 35.4438C205.048 37.3229 202.482 38.4811 199.644 38.4811Z" fill="#B1B3B6"/>
<path d="M211.618 18.4009L208.021 22.0349C208.019 22.0295 208.013 22.0243 208.008 22.0189L211.618 18.4009Z" fill="#21B6B2"/>
<defs>
<linearGradient id="paint0_linear_728_4" x1="28.5274" y1="28.824" x2="28.5274" y2="47.8376" gradientUnits="userSpaceOnUse">
<stop stop-color="white"/>
<stop offset="0.291" stop-color="#D8D9DA"/>
<stop offset="0.5852" stop-color="#B8B9BC"/>
<stop offset="0.8322" stop-color="#A4A6A9"/>
<stop offset="1" stop-color="#9D9FA2"/>
</linearGradient>
</defs>
</svg>
