<svg width="820" height="468" viewBox="0 0 820 468" fill="none" xmlns="http://www.w3.org/2000/svg">
<g opacity="0.35">
<g opacity="0.35">
<path opacity="0.35" d="M37.49 464.864C37.49 464.864 -18.2585 380.513 42.4566 281.273C103.172 182.032 184.717 231.94 180.771 116.432C176.825 0.9252 349.3 -10.2769 410.25 23.2156C471.201 56.708 525.017 37.5215 597.817 39.8577C715.887 43.6468 748.938 160.158 716.203 216.859C669.758 297.309 861.706 306.769 751.215 464.864H37.49V464.864Z" fill="#E0E0E0"/>
</g>
</g>
<path d="M129.807 283.077C124.318 262.948 156.811 251.175 156.811 251.175C156.811 251.175 194.547 269.891 200.76 267.217C206.974 264.543 171.621 244.915 171.621 244.915C182.201 237.246 218.853 234.22 218.853 234.22C218.853 234.22 237.852 270.743 243.217 266.622C248.581 262.501 224.743 235.141 224.743 235.141C237.509 232.027 255.071 238.746 255.071 238.746C279.838 251.939 261.62 283.063 261.62 283.063C261.62 283.063 268.478 295.578 284.357 305.231L284.358 305.231C284.358 305.231 287.601 306.83 291.943 310.236L288.984 311.973C288.277 311.321 287.56 310.71 286.833 310.147C286.83 310.141 286.826 310.138 286.82 310.137C286.809 310.129 286.798 310.121 286.788 310.113C286.317 309.775 285.644 309.295 284.815 308.715C284.814 308.714 284.813 308.713 284.812 308.713C284.811 308.711 284.809 308.712 284.808 308.71C282.865 307.47 281.487 306.521 280.547 305.804C280.544 305.802 280.541 305.8 280.539 305.797C274.57 301.831 266.419 296.882 262.925 296.891C262.925 296.891 262.982 296.238 262.762 295.162C262.814 295.713 262.868 296.288 262.925 296.891C264.23 310.72 239.964 327.394 224.155 332.78C208.345 338.168 212.16 330.577 215.968 319.658C219.775 308.738 236.694 301.098 239.912 295.804C243.129 290.511 234.768 292.012 225.785 298.257C216.803 304.502 217.62 316.671 203.273 327.037C188.926 337.403 160.573 315.613 160.573 315.613C172.977 312.711 188.394 295.879 186.994 291.836C185.595 287.793 157.947 304.506 152.968 305.968C147.99 307.431 135.295 303.207 129.807 283.077Z" fill="#21B4B0"/>
<g opacity="0.5">
<path opacity="0.5" d="M245.903 223.497C245.903 223.497 220.121 196.636 191.713 190.427C187.938 189.602 185.215 193.993 187.606 197.03C187.646 197.08 187.686 197.131 187.728 197.182C191.894 202.3 225.577 211.741 245.903 223.497Z" fill="#21B4B0"/>
</g>
<g opacity="0.5">
<path opacity="0.5" d="M254.114 230.562C254.114 230.562 211.221 205.033 173.175 208.13C170.855 208.319 169.001 210.283 169.104 212.609C169.17 214.123 170.038 215.914 172.642 217.767C179.587 222.71 224.768 222.901 254.114 230.562Z" fill="#21B4B0"/>
</g>
<g opacity="0.5">
<path opacity="0.5" d="M556.262 289.679C556.262 289.679 562.383 251.403 583.001 229.237C585.741 226.292 590.676 228.433 590.432 232.449C590.427 232.516 590.423 232.583 590.418 232.652C589.89 239.502 566.676 267.562 556.262 289.679Z" fill="#21B4B0"/>
</g>
<g opacity="0.5">
<path opacity="0.5" d="M553.43 300.594C553.43 300.594 574.978 253.306 609.362 233.381C611.458 232.166 614.209 232.747 615.501 234.797C616.342 236.132 616.663 238.179 615.534 241.31C612.526 249.658 573.989 276.629 553.43 300.594Z" fill="#21B4B0"/>
</g>
<path d="M569.906 177.164L579.229 176.141C580.006 176.063 580.76 176.427 581.183 177.083C581.72 177.922 582.295 178.744 582.91 179.55C584.052 181.047 585.275 182.431 586.589 183.681C587.203 184.268 587.405 185.157 587.088 185.939L583.488 195.057C583.095 196.026 583.521 197.142 584.473 197.614L592.492 201.614C593.402 202.065 594.495 201.759 595.047 200.913L599.924 193.318C600.382 192.569 601.29 192.224 602.164 192.459C605.85 193.444 609.689 193.837 613.529 193.623C614.456 193.573 615.317 194.178 615.592 195.062L617.223 200.305C617.542 201.298 618.554 201.916 619.588 201.719L628.314 199.98C628.494 199.946 628.661 199.895 628.818 199.814C629.574 199.456 630.042 198.635 629.939 197.774L629.183 190.809L628.995 189.111C630.447 188.299 631.873 187.366 633.232 186.33C635.062 184.933 636.73 183.391 638.207 181.749C638.773 181.124 639.657 180.9 640.44 181.217L647.781 184.126C648.787 184.517 649.925 184.086 650.398 183.12L653.457 176.989L654.329 175.229C654.809 174.272 654.492 173.097 653.591 172.523L647.247 168.442C646.507 167.977 646.144 167.096 646.358 166.263C646.957 163.758 647.295 161.197 647.348 158.634C647.37 158.411 647.369 158.206 647.369 157.987C647.365 157.913 647.374 157.842 647.384 157.77C647.465 156.948 648.039 156.266 648.831 156.022L657.338 153.356C657.436 153.332 657.53 153.287 657.615 153.247C658.443 152.847 658.919 151.918 658.744 150.996L657.023 142.295C656.814 141.244 655.844 140.53 654.77 140.641L645.047 141.712C644.222 141.813 643.433 141.386 643.042 140.654C642.17 139.054 641.161 137.495 640.012 135.989C639.404 135.191 638.77 134.427 638.109 133.695C637.576 133.098 637.42 132.252 637.716 131.51L641.174 122.746C641.559 121.783 641.139 120.675 640.202 120.205L632.263 116.26C631.305 115.781 630.139 116.091 629.549 117.005L625.688 123.013C625.171 123.82 624.183 124.161 623.282 123.858C619.753 122.624 616.054 121.958 612.321 121.857C611.439 121.848 610.657 121.26 610.392 120.407L607.992 112.738C607.671 111.709 606.622 111.093 605.565 111.294L596.895 113.005C595.853 113.208 595.144 114.186 595.267 115.225L595.308 115.632L596.19 123.724C596.285 124.591 595.84 125.407 595.063 125.807L595.055 125.813C593.196 126.768 591.394 127.898 589.669 129.214C588.749 129.915 587.883 130.653 587.042 131.424C586.466 131.966 585.634 132.125 584.899 131.836L577.447 128.884C576.428 128.476 575.265 128.926 574.784 129.898L570.851 137.803C570.74 138.029 570.679 138.269 570.648 138.498C570.568 139.254 570.916 140.031 571.581 140.464L576.657 143.71C577.274 144.115 577.632 144.82 577.601 145.539C577.59 145.727 577.557 145.92 577.495 146.109C575.935 150.645 575.305 155.438 575.624 160.227C575.69 161.039 575.238 161.796 574.531 162.168C574.429 162.22 574.32 162.264 574.206 162.3L567.316 164.454C566.318 164.765 565.714 165.779 565.91 166.813L565.949 167.016L567.619 175.499C567.839 176.565 568.824 177.282 569.906 177.164ZM629.607 150.865C630.135 152.199 630.562 153.637 630.86 155.174C631.422 158.104 630.815 162.725 629.484 165.401C629.342 165.689 629.196 165.969 629.048 166.248C619.881 183.153 595.986 179.718 592.103 160.604C591.6 158.105 591.929 154.469 592.829 151.684C593.047 151.041 593.282 150.437 593.548 149.926C594.772 147.498 596.287 145.468 598.013 143.816C607.857 134.414 624.251 137.548 629.607 150.865Z" fill="#E0E0E0"/>
<path d="M245.863 172.111L255.186 171.087C255.963 171.009 256.717 171.373 257.14 172.029C257.677 172.868 258.253 173.69 258.867 174.496C260.009 175.993 261.232 177.377 262.546 178.627C263.16 179.214 263.362 180.103 263.046 180.885L259.446 190.003C259.052 190.972 259.479 192.088 260.43 192.559L268.45 196.56C269.36 197.011 270.453 196.705 271.004 195.859L275.881 188.264C276.34 187.515 277.248 187.17 278.122 187.405C281.808 188.39 285.647 188.782 289.487 188.569C290.414 188.518 291.274 189.124 291.549 190.008L293.18 195.251C293.5 196.243 294.512 196.862 295.546 196.665L304.271 194.926C304.451 194.892 304.619 194.841 304.775 194.76C305.532 194.402 306 193.581 305.897 192.72L305.14 185.754L304.952 184.057C306.405 183.245 307.83 182.312 309.189 181.276C311.02 179.879 312.688 178.337 314.164 176.695C314.73 176.07 315.615 175.846 316.397 176.163L323.738 179.071C324.744 179.463 325.882 179.032 326.355 178.066L329.415 171.935L330.287 170.175C330.766 169.218 330.449 168.043 329.548 167.469L323.205 163.388C322.464 162.923 322.101 162.042 322.315 161.209C322.915 158.704 323.252 156.143 323.306 153.58C323.328 153.357 323.326 153.152 323.326 152.933C323.322 152.859 323.332 152.788 323.341 152.716C323.423 151.895 323.996 151.212 324.789 150.968L333.296 148.302C333.394 148.278 333.487 148.232 333.573 148.193C334.401 147.793 334.876 146.864 334.701 145.942L332.98 137.241C332.772 136.19 331.801 135.475 330.728 135.586L321.004 136.658C320.18 136.759 319.391 136.331 319 135.6C318.127 134 317.118 132.44 315.97 130.935C315.362 130.137 314.727 129.373 314.066 128.641C313.533 128.044 313.377 127.198 313.674 126.456L317.132 117.692C317.517 116.729 317.096 115.621 316.159 115.151L308.22 111.206C307.263 110.727 306.097 111.037 305.506 111.951L301.646 117.959C301.128 118.766 300.141 119.107 299.239 118.804C295.711 117.569 292.011 116.903 288.279 116.803C287.397 116.794 286.614 116.206 286.349 115.353L283.95 107.684C283.628 106.655 282.579 106.039 281.523 106.24L272.852 107.95C271.811 108.153 271.102 109.131 271.225 110.17L271.265 110.578L272.148 118.67C272.243 119.537 271.797 120.353 271.02 120.753L271.013 120.759C269.154 121.714 267.351 122.844 265.626 124.16C264.707 124.861 263.841 125.599 263 126.37C262.423 126.912 261.591 127.071 260.856 126.782L253.405 123.829C252.386 123.422 251.223 123.872 250.742 124.844L246.809 132.748C246.698 132.974 246.637 133.215 246.605 133.444C246.526 134.2 246.874 134.977 247.538 135.41L252.614 138.656C253.232 139.061 253.589 139.766 253.558 140.485C253.548 140.673 253.514 140.866 253.453 141.054C251.893 145.591 251.262 150.384 251.582 155.173C251.648 155.985 251.195 156.742 250.488 157.114C250.386 157.166 250.278 157.21 250.164 157.246L243.273 159.4C242.275 159.711 241.671 160.725 241.868 161.759L241.906 161.962L243.576 170.445C243.797 171.511 244.781 172.228 245.863 172.111ZM305.564 145.811C306.093 147.145 306.52 148.583 306.817 150.12C307.379 153.051 306.773 157.671 305.441 160.347C305.3 160.635 305.153 160.915 305.006 161.194C295.839 178.099 271.943 174.664 268.061 155.55C267.558 153.051 267.886 149.415 268.787 146.63C269.005 145.987 269.239 145.384 269.505 144.872C270.73 142.445 272.244 140.414 273.971 138.762C283.814 129.361 300.208 132.494 305.564 145.811Z" fill="#E0E0E0"/>
<path d="M515.546 120.214L521.913 118.078C522.445 117.905 523.028 118.045 523.424 118.439C523.927 118.944 524.455 119.432 525.008 119.902C526.035 120.776 527.101 121.558 528.211 122.232C528.73 122.549 529.007 123.14 528.904 123.736L527.774 130.664C527.646 131.402 528.115 132.118 528.853 132.303L535.072 133.88C535.778 134.057 536.496 133.676 536.753 133.001L539.009 126.944C539.216 126.35 539.798 125.97 540.445 126.001C543.174 126.129 545.92 125.819 548.574 125.085C549.215 124.908 549.909 125.201 550.237 125.777L552.177 129.198C552.551 129.843 553.353 130.122 554.047 129.826L559.887 127.28C560.007 127.229 560.117 127.168 560.214 127.087C560.689 126.721 560.891 126.076 560.688 125.489L559.098 120.731L558.708 119.572C559.601 118.782 560.456 117.912 561.249 116.98C562.317 115.724 563.249 114.391 564.032 113.017C564.333 112.494 564.918 112.203 565.514 112.305L571.093 113.222C571.856 113.342 572.587 112.867 572.771 112.119L573.978 107.364L574.32 106C574.509 105.257 574.109 104.483 573.391 104.219L568.331 102.33C567.742 102.118 567.354 101.556 567.377 100.941C567.415 99.0976 567.261 97.2542 566.908 95.4527C566.889 95.2931 566.857 95.1501 566.824 94.9966C566.81 94.9456 566.805 94.894 566.801 94.8425C566.733 94.2553 567.031 93.6906 567.548 93.3993L573.094 90.2378C573.159 90.2065 573.217 90.1604 573.271 90.1194C573.79 89.7137 573.981 88.9912 573.718 88.3731L571.189 82.5468C570.882 81.8437 570.095 81.4914 569.361 81.7327L562.721 83.9638C562.159 84.1602 561.542 83.9811 561.157 83.5287C560.303 82.5422 559.359 81.6049 558.327 80.7264C557.78 80.261 557.22 79.8228 556.646 79.4116C556.182 79.0748 555.943 78.5065 556.038 77.9427L557.122 71.284C557.245 70.5515 556.782 69.8403 556.055 69.6546L549.899 68.1034C549.157 67.914 548.388 68.3088 548.114 69.038L546.328 73.8299C546.089 74.4732 545.45 74.8625 544.773 74.7872C542.116 74.461 539.426 74.5587 536.8 75.057C536.181 75.185 535.544 74.8931 535.229 74.3363L532.382 69.3362C532 68.6653 531.172 68.3941 530.464 68.6957L524.658 71.213C523.959 71.5137 523.613 72.3057 523.857 73.0139L523.947 73.2928L525.797 78.8202C525.996 79.4126 525.808 80.0516 525.326 80.4491L525.321 80.4546C524.165 81.4055 523.077 82.4709 522.07 83.6543C521.534 84.2852 521.04 84.933 520.569 85.6003C520.248 86.0682 519.691 86.3055 519.132 86.2154L513.469 85.2847C512.694 85.1548 511.949 85.6467 511.76 86.4002L510.212 92.5299C510.169 92.705 510.163 92.8822 510.176 93.0476C510.235 93.5886 510.597 94.0793 511.128 94.2808L515.174 95.7789C515.668 95.9676 516.025 96.4067 516.113 96.9143C516.134 97.0478 516.14 97.1877 516.126 97.3294C515.726 100.741 516.014 104.19 516.967 107.493C517.137 108.051 516.936 108.649 516.498 109.017C516.434 109.069 516.365 109.117 516.291 109.159L511.798 111.716C511.147 112.085 510.879 112.886 511.174 113.58L511.231 113.716L513.691 119.397C514.009 120.109 514.807 120.461 515.546 120.214ZM553.311 92.719C553.884 93.572 554.402 94.5129 554.844 95.5428C555.684 97.5079 555.963 100.833 555.439 102.908C555.384 103.131 555.324 103.349 555.263 103.567C551.424 116.791 534.183 118.027 528.555 105.246C527.822 103.574 527.498 100.98 527.704 98.894C527.759 98.4115 527.831 97.9533 527.939 97.5546C528.426 95.6696 529.176 94.0183 530.133 92.5997C535.589 84.5225 547.536 84.2175 553.311 92.719Z" stroke="#B1B3B6" stroke-miterlimit="10"/>
<path d="M58.8337 464.307H86.2838C87.7547 463.059 85.2658 460.226 82.6652 460.035C81.5356 459.95 80.1075 460.186 78.4754 460.531C78.098 455.513 75.9407 432.957 67.8107 433.863C58.6695 434.878 67.8107 443.796 70.3949 449.077C72.3091 452.988 74.3284 458.597 75.251 461.244C74.5089 461.404 73.7406 461.562 72.956 461.707C71.7442 457.986 67.2361 445.471 61.5031 446.2C54.7719 447.054 57.4774 452.072 62.2486 455.05C65.7487 457.24 70.0469 460.354 72.0895 461.857C70.3591 462.14 68.5532 462.331 66.7209 462.288C62.0186 462.176 59.7236 463.562 58.8337 464.307Z" fill="#21B4B0"/>
<path d="M732.024 463.64H700.983C699.32 462.229 702.134 459.025 705.075 458.809C706.352 458.713 707.967 458.98 709.813 459.371C710.239 453.696 712.679 428.19 721.872 429.215C732.209 430.362 721.872 440.447 718.95 446.418C716.785 450.841 714.502 457.183 713.459 460.176C714.297 460.358 715.167 460.536 716.054 460.7C717.424 456.493 722.522 442.341 729.005 443.166C736.617 444.131 733.557 449.805 728.162 453.173C724.204 455.649 719.344 459.17 717.034 460.87C718.991 461.19 721.033 461.405 723.105 461.357C728.422 461.231 731.017 462.798 732.024 463.64Z" fill="#21B4B0"/>
<path d="M387.638 274.307L372.624 452.847C372.624 452.847 371.05 463.67 379.1 463.689C392.335 463.72 444.976 463.689 444.976 463.689C444.976 463.689 435.015 461.436 435.135 456.367C435.278 450.392 452.684 272.617 452.684 272.617L387.638 274.307Z" fill="#455A64"/>
<path d="M449.932 460.521C447.329 460.528 396.366 460.615 383.477 460.45C377.86 460.38 376.875 455.455 376.829 452.267C376.805 450.739 376.999 449.609 376.999 449.609L377.389 444.969L378.385 433.141L379.264 422.692L380.393 409.264L381.345 397.931L392.013 271.066L457.059 269.378C457.059 269.378 449.728 343.775 444.543 397.93C443.964 403.964 443.413 409.75 442.904 415.151C442.739 416.875 442.581 418.56 442.426 420.202C441.945 425.326 441.505 430.031 441.123 434.185C440.921 436.375 440.735 438.41 440.567 440.274C439.905 447.577 439.517 452.241 439.512 453.127C439.51 453.644 439.554 454.125 439.639 454.573C440.706 460.263 448.955 460.521 449.932 460.521Z" fill="#E0E0E0"/>
<path d="M229.67 177.153L266.242 324.069L271.25 344.189L288.284 412.619H604.74L541.957 177.153H229.67Z" fill="#E0E0E0"/>
<path d="M229.67 177.152L224.601 178.842L281.545 417.73L288.284 412.619L229.67 177.152Z" fill="#455A64"/>
<path d="M281.545 417.73H596.054L604.739 412.619H288.284L281.545 417.73Z" fill="#B1B3B6"/>
<path d="M460.087 460.521H391.991V463.757H460.087V460.521Z" fill="#E0E0E0"/>
<path d="M442.777 417.729L442.425 420.203L378.384 433.141L379.263 422.692L379.682 417.729H442.777Z" fill="#455A64"/>
<g opacity="0.5">
<path opacity="0.5" d="M449.932 460.521C447.329 460.528 396.366 460.615 383.477 460.45C377.86 460.38 376.875 455.455 376.829 452.267L440.567 440.275C439.905 447.578 439.517 452.242 439.512 453.128C439.509 453.645 439.553 454.126 439.639 454.573C440.706 460.263 448.955 460.521 449.932 460.521Z" fill="#B1B3B6"/>
</g>
<path d="M229.67 177.152H541.957L592.626 366.393H276.777L229.67 177.152Z" fill="#B1B3B6"/>
<path d="M577.897 358.192H285.501L275.052 316.565L271.01 300.458L269.362 293.889L258.622 251.11L258.066 248.883L252.389 226.27L249.85 216.153L247.683 207.522L242.604 187.29H530.786L536.364 207.522L538.742 216.153L541.53 226.27L559.904 292.926V292.929L561.462 298.576L562.186 301.198L574.872 347.216L577.897 358.192Z" fill="white"/>
<path d="M395.423 366.393L288.39 413.171L276.777 366.393H395.423Z" fill="#B1B3B6"/>
<path d="M431.922 311.249C412.83 311.249 394.72 295.714 391.554 276.62C388.387 257.525 401.345 241.991 420.437 241.991C439.53 241.991 457.64 257.525 460.806 276.62C463.973 295.715 451.016 311.249 431.922 311.249ZM421.428 247.962C405.627 247.962 394.903 260.818 397.524 276.62C400.145 292.422 415.132 305.279 430.932 305.279C446.733 305.279 457.457 292.422 454.836 276.62C452.215 260.818 437.229 247.962 421.428 247.962Z" fill="#B1B3B6"/>
<path d="M431.935 311.327C412.798 311.327 394.648 295.757 391.474 276.619C388.3 257.481 401.287 241.911 420.423 241.911C430.819 241.911 441.342 246.514 449.297 254.54C455.435 260.734 459.55 268.575 460.884 276.619C461.165 278.311 460.021 279.683 458.328 279.683C456.636 279.683 455.037 278.311 454.756 276.619C453.658 269.995 450.27 263.539 445.217 258.441C438.666 251.83 429.999 248.039 421.44 248.039C405.682 248.039 394.989 260.86 397.602 276.619C400.215 292.377 415.161 305.198 430.919 305.198C432.611 305.198 434.21 306.57 434.491 308.262C434.771 309.955 433.627 311.327 431.935 311.327Z" fill="#E0E0E0"/>
<path d="M497.632 337.916L498.181 341.228C498.481 343.034 497.248 344.512 495.441 344.512H379.434C377.628 344.512 375.905 343.034 375.605 341.228L375.056 337.916C374.756 336.109 375.989 334.631 377.796 334.631H493.803C495.61 334.631 497.332 336.109 497.632 337.916Z" fill="#E0E0E0"/>
<path d="M460.155 334.631L461.794 344.512H379.434C377.628 344.512 375.905 343.034 375.605 341.228L375.056 337.916C374.756 336.109 375.989 334.631 377.796 334.631H460.155Z" fill="#E0E0E0"/>
<path d="M443.063 334.631L435.589 344.512H418.539L426.013 334.631H443.063Z" fill="#21B4B0"/>
<path d="M460.155 334.631L461.794 344.512H445.991L453.466 334.631H460.155Z" fill="#21B4B0"/>
<path d="M415.611 334.631L408.137 344.512H391.086L398.561 334.631H415.611Z" fill="#21B4B0"/>
<path d="M388.158 334.631L380.684 344.512H379.434C377.628 344.512 375.905 343.034 375.605 341.228L375.056 337.916C374.756 336.109 375.989 334.631 377.796 334.631H388.158Z" fill="#21B4B0"/>
<path d="M413.276 272.026H406.81L406.482 270.041H415.518L415.802 271.75L411.847 282.901H409.312L413.276 272.026Z" fill="#21B4B0"/>
<path d="M418.164 276.471C417.555 272.797 419.302 269.821 422.682 269.821C426.043 269.821 428.753 272.76 429.368 276.471C429.977 280.145 428.23 283.122 424.85 283.122C421.471 283.122 418.779 280.182 418.164 276.471ZM427.036 276.471C426.616 273.936 424.967 271.86 422.983 271.86C421 271.86 420.067 273.881 420.497 276.471C420.917 279.006 422.547 281.082 424.549 281.082C426.552 281.082 427.462 279.043 427.036 276.471Z" fill="#21B4B0"/>
<path d="M430.752 273.183C430.457 271.401 431.437 269.895 433.256 269.895C435.056 269.895 436.515 271.383 436.814 273.183C437.109 274.965 436.128 276.471 434.31 276.471C432.509 276.471 431.051 274.983 430.752 273.183ZM435.179 273.183C435.008 272.154 434.28 271.309 433.454 271.309C432.59 271.309 432.216 272.154 432.387 273.183C432.56 274.23 433.285 275.057 434.112 275.057C434.975 275.057 435.349 274.211 435.179 273.183ZM440.94 270.041H442.758L435.486 282.901H433.668L440.94 270.041ZM439.612 279.76C439.317 277.978 440.298 276.471 442.116 276.471C443.916 276.471 445.375 277.959 445.674 279.76C445.969 281.542 444.988 283.048 443.17 283.048C441.37 283.048 439.911 281.56 439.612 279.76ZM444.039 279.76C443.868 278.731 443.141 277.886 442.314 277.886C441.451 277.886 441.076 278.731 441.247 279.76C441.421 280.807 442.146 281.633 442.972 281.633C443.835 281.633 444.21 280.788 444.039 279.76Z" fill="#21B4B0"/>
<path d="M422.928 326.822H423.624L424.176 330.151H426.26L426.365 330.785H423.585L422.928 326.822Z" fill="#B1B3B6"/>
<path d="M426.543 329.296C426.401 328.441 426.963 327.733 427.88 327.733C428.797 327.733 429.586 328.43 429.73 329.296C429.871 330.146 429.309 330.853 428.386 330.853C427.475 330.853 426.686 330.157 426.543 329.296ZM429.045 329.296C428.958 328.77 428.506 328.333 427.968 328.333C427.419 328.333 427.14 328.763 427.228 329.296C427.314 329.817 427.767 330.258 428.299 330.258C428.854 330.258 429.132 329.823 429.045 329.296Z" fill="#B1B3B6"/>
<path d="M432.502 330.785L432.441 330.417C432.278 330.661 431.997 330.847 431.544 330.847C430.978 330.847 430.426 330.525 430.325 329.913C430.215 329.25 430.678 328.934 431.374 328.934C431.736 328.934 431.977 328.985 432.221 329.058L432.212 329.002C432.144 328.588 431.846 328.362 431.37 328.362C431.036 328.362 430.799 328.435 430.546 328.549L430.268 327.999C430.572 327.852 430.878 327.75 431.364 327.75C432.248 327.75 432.755 328.215 432.887 329.013L433.181 330.785H432.502ZM432.311 329.534C432.125 329.466 431.873 329.415 431.607 329.415C431.176 329.415 430.951 329.591 431.001 329.89C431.048 330.173 431.329 330.332 431.651 330.332C432.104 330.332 432.402 330.078 432.34 329.704L432.311 329.534Z" fill="#B1B3B6"/>
<path d="M433.595 329.285C433.43 328.294 434.011 327.734 434.724 327.734C435.217 327.734 435.57 327.982 435.831 328.26L435.564 326.652H436.249L436.935 330.785H436.25L436.167 330.287C435.998 330.598 435.728 330.847 435.241 330.847C434.539 330.847 433.761 330.287 433.595 329.285ZM436.012 329.285C435.917 328.707 435.446 328.328 434.987 328.328C434.517 328.328 434.187 328.69 434.287 329.296C434.383 329.874 434.842 330.253 435.307 330.253C435.765 330.253 436.109 329.868 436.012 329.285Z" fill="#B1B3B6"/>
<path d="M437.121 326.686H437.857L437.965 327.337H437.229L437.121 326.686ZM437.333 327.795H438.018L438.514 330.785H437.829L437.333 327.795Z" fill="#B1B3B6"/>
<path d="M438.913 327.795H439.598L439.675 328.26C439.821 327.977 440.058 327.734 440.522 327.734C441.196 327.734 441.661 328.186 441.777 328.883L442.092 330.786H441.408L441.126 329.087C441.049 328.622 440.772 328.356 440.365 328.356C439.968 328.356 439.737 328.634 439.814 329.098L440.094 330.785H439.409L438.913 327.795Z" fill="#B1B3B6"/>
<path d="M443.006 331.346L443.175 330.83C443.525 331.029 443.885 331.148 444.292 331.148C444.904 331.148 445.185 330.83 445.086 330.23L445.047 329.998C444.851 330.321 444.578 330.547 444.085 330.547C443.383 330.547 442.64 330.026 442.493 329.137C442.346 328.254 442.922 327.733 443.619 327.733C444.122 327.733 444.472 327.965 444.75 328.242L444.676 327.795H445.361L445.756 330.174C445.839 330.678 445.771 331.051 445.563 331.3C445.336 331.572 444.939 331.702 444.401 331.702C443.909 331.703 443.43 331.578 443.006 331.346ZM444.91 329.138C444.828 328.645 444.371 328.311 443.895 328.311C443.42 328.311 443.101 328.639 443.184 329.143C443.266 329.636 443.7 329.97 444.171 329.97C444.646 329.97 444.992 329.63 444.91 329.138Z" fill="#B1B3B6"/>
<path d="M656.001 257.779C656.001 257.779 673.019 275.093 673.889 282.281C674.759 289.469 665.066 300.69 665.066 300.69L656.001 257.779Z" fill="#263238"/>
<path d="M646.278 453.922C646.278 453.922 645.628 464.053 643.668 464.194C643.407 464.212 633.727 464.191 633.727 464.191L621.37 464.093C621.37 464.093 621.457 461.115 625.07 460.493C628.684 459.872 634.735 457.346 636.933 452.576C639.247 447.558 646.278 453.922 646.278 453.922Z" fill="#0E2644"/>
<path d="M673.802 453.982C673.802 453.982 673.151 464.112 671.191 464.253C670.931 464.272 661.25 464.251 661.25 464.251L648.893 464.152C648.893 464.152 648.98 461.175 652.594 460.553C656.207 459.932 662.259 457.406 664.457 452.636C666.77 447.618 673.802 453.982 673.802 453.982Z" fill="#0E2644"/>
<path d="M632.829 345.005C632.829 345.005 636.016 365.684 647.993 402.407C659.97 439.129 661.578 455.023 661.578 455.023L674.512 454.688C674.512 454.688 674.71 414.584 669.194 396.119C663.677 377.654 668.139 329.591 668.139 329.591L632.829 345.005Z" fill="#B1B3B6"/>
<path d="M626.567 330.633C626.567 330.633 626.041 361.783 631.347 400.044C636.654 438.304 634.792 454.536 634.792 454.536L647.698 454.993C647.698 454.993 655.495 416.747 653.325 397.598C651.155 378.449 664.031 331.929 664.031 331.929L626.567 330.633Z" fill="#E0E0E0"/>
<path d="M651.712 257.789L644.825 262.283L634.89 260.409C635.029 259.607 635.693 256.283 636.297 253.272C636.333 253.094 636.37 252.917 636.404 252.743C636.921 250.181 637.368 247.981 637.368 247.981L646.66 243.904L650.124 242.385C650.115 242.439 649.85 245.229 649.813 245.636C649.148 252.869 651.712 257.789 651.712 257.789Z" fill="#FFB27D"/>
<path d="M637.446 255.483C637.64 255.402 649.423 251.952 650.701 252.377C651.979 252.803 652.731 255.28 652.731 255.28L633.46 259.593C633.46 259.593 634.984 256.513 637.446 255.483Z" fill="#B1B3B6"/>
<path d="M668.985 334.571C666.969 343.673 633.747 344.681 625.202 336.396C624.23 335.452 624.191 331.068 624.572 325.158C625.315 313.612 627.66 296.246 627.769 287.371C627.823 283.085 628.421 278.703 629.214 274.724C630.901 266.244 633.461 259.592 633.461 259.592C633.461 259.592 649.698 254.381 652.731 255.28C667.349 259.609 671 325.469 668.985 334.571Z" fill="#455A64"/>
<path d="M624.572 325.158C625.315 313.611 627.66 296.246 627.769 287.371C627.823 283.085 628.421 278.703 629.214 274.724L638.978 273.022C638.978 273.022 649.742 314.392 624.572 325.158Z" fill="#263238"/>
<path d="M629.892 309.073C629.892 309.073 630.554 310.665 629.154 311.73C627.755 312.795 626.845 314.523 627.162 315.788C627.48 317.053 630.54 319.122 631.603 318.792C632.666 318.462 634.833 316.801 634.601 316.134C634.37 315.466 636.068 310.285 633.482 308.282C630.896 306.281 629.892 309.073 629.892 309.073Z" fill="#FFB27D"/>
<path d="M640.653 257.812C640.653 257.812 631.396 259.032 623.786 270.195C616.177 281.357 611.169 289.657 612.557 293.689C613.946 297.721 626.651 311.723 628.847 311.727C631.043 311.732 634.589 310.143 634.797 306.55C634.797 306.55 626.746 292.256 628.517 290.247C629.274 289.389 639.292 281.408 640.837 285.403C643.396 292.014 640.653 257.812 640.653 257.812Z" fill="#455A64"/>
<path d="M649.116 245.762C647.07 249.211 639.467 252.181 636.297 253.272C636.333 253.094 636.369 252.917 636.404 252.743C636.921 250.181 637.368 247.98 637.368 247.98L646.66 243.904C648.712 243.881 649.96 244.343 649.116 245.762Z" fill="#FCA56B"/>
<path d="M633.87 247.408C633.87 247.408 648.813 252.106 651.595 242.754C654.377 233.402 658.179 227.71 648.756 224.316C639.333 220.921 636.41 223.936 634.722 226.831C633.034 229.727 630.055 245.945 633.87 247.408Z" fill="#FFB27D"/>
<path d="M635.311 225.931C635.311 225.931 636.241 236.822 638.493 236.355C640.746 235.887 642.789 235.541 642.452 238.822C642.115 242.104 638.985 245.888 645.923 246.483C652.861 247.079 662.876 229.202 660.977 225.81C655.498 216.02 627.386 213.986 635.311 225.931Z" fill="black"/>
<path d="M812.353 465.971H8.14817C7.63691 465.971 7.21881 465.552 7.21881 465.041V464.686C7.21881 464.175 7.63691 463.757 8.14817 463.757H812.353C812.864 463.757 813.283 464.175 813.283 464.686V465.041C813.283 465.552 812.864 465.971 812.353 465.971Z" fill="#2E3552"/>
<path d="M263.76 202.526C263.954 203.129 263.964 203.719 263.792 204.222C263.618 204.725 263.267 205.117 262.783 205.349C262.301 205.58 261.707 205.642 261.078 205.525C260.45 205.408 259.815 205.118 259.252 204.691C258.691 204.265 258.228 203.722 257.925 203.131C257.62 202.539 257.487 201.925 257.541 201.369C257.597 200.812 257.838 200.337 258.235 200.004C258.632 199.671 259.166 199.494 259.77 199.497C260.573 199.497 261.445 199.815 262.194 200.384C262.942 200.952 263.506 201.723 263.76 202.526Z" fill="#E0E0E0"/>
<path d="M270.942 205.57C272.623 205.57 273.553 204.207 273.019 202.527C272.486 200.846 270.693 199.485 269.011 199.485C267.331 199.485 266.401 200.847 266.934 202.527C267.467 204.207 269.262 205.57 270.942 205.57Z" fill="#B1B3B6"/>
<path d="M282.279 202.527C282.472 203.129 282.483 203.72 282.31 204.221C282.135 204.723 281.786 205.116 281.304 205.348C280.822 205.581 280.229 205.643 279.601 205.526C278.974 205.41 278.338 205.122 277.777 204.696C277.216 204.272 276.752 203.73 276.447 203.138C276.141 202.548 276.006 201.935 276.059 201.378C276.112 200.821 276.352 200.346 276.746 200.01C277.14 199.675 277.672 199.497 278.275 199.497C279.079 199.497 279.952 199.816 280.704 200.384C281.453 200.951 282.02 201.722 282.279 202.527Z" fill="#21B4B0"/>
<path d="M210.548 285.64C210.548 285.64 211.28 277.662 202.367 277.662C202.367 277.662 205.068 278.395 206.465 279.86C206.465 279.86 200.78 276.522 194.593 281.651C188.407 286.78 192.251 299.643 190.37 302.085C188.488 304.527 181.162 305.016 182.057 312.913C182.953 320.81 205.309 330.7 203.873 337.234C203.873 337.234 212.634 324.354 206.37 318.476C206.37 318.476 209.423 321.352 209.734 324.772C209.734 324.772 210.563 318.096 206.315 315.961C202.556 314.071 199.477 307.161 199.803 305.926C200.129 304.69 210.548 285.64 210.548 285.64Z" fill="black"/>
<path d="M201.774 323.946C201.774 323.946 208.433 351.497 214.969 357.004C218.898 360.314 230.581 367.912 230.581 367.912L225.721 369.675C225.721 369.675 209.518 364.202 205.89 359.937C202.262 355.671 192.33 334.297 192.33 334.297L201.774 323.946Z" fill="#FFB27D"/>
<path d="M318.804 363.924H241.813V442.381H318.803V363.924H318.804Z" fill="#263238"/>
<path d="M314.947 360.985H234.818V443.981H314.947V360.985Z" fill="#455A64"/>
<path d="M311.917 359.294H228.927V442.29H311.917V359.294Z" fill="#263238"/>
<path d="M304.717 357.765L222.847 357.466L222.545 440.162L304.414 440.463L304.717 357.765Z" fill="#E0E0E0"/>
<path opacity="0.3" d="M298.093 433.59C298.082 433.477 298.082 433.364 298.093 433.251C298.093 433.005 298.093 432.693 298.093 432.29C298.093 431.405 298.093 430.17 298.093 428.57C298.093 425.293 298.093 420.546 298.093 414.525C298.093 402.443 298.093 385.238 298.093 364.587L298.418 364.938L229.252 364.742C229.161 364.833 229.993 363.975 229.642 364.353V369.022C229.642 370.582 229.642 372.143 229.642 373.69C229.642 376.785 229.642 379.867 229.642 382.898C229.642 388.966 229.642 394.91 229.642 400.727C229.578 412.301 229.525 423.251 229.486 433.33L229.148 432.966L279.16 433.33L293.256 433.473L297.001 433.538H297.976H298.314H298.015H297.079H293.399H279.368H228.628V433.187C228.628 423.109 228.628 412.158 228.719 400.571C228.719 394.783 228.719 388.867 228.719 382.754C228.719 379.712 228.719 376.643 228.719 373.547C228.719 372 228.719 370.439 228.719 368.879V364.184L229.122 363.767L298.275 364.079H298.614V364.431C298.47 385.174 298.34 402.456 298.262 414.591C298.197 420.573 298.158 425.293 298.119 428.558C298.119 430.131 298.119 431.34 298.119 432.212C298.119 432.603 298.119 432.901 298.119 433.136C298.127 433.287 298.117 433.439 298.093 433.59Z" fill="black"/>
<path d="M240.012 377.982L238.447 374.106C236.769 369.951 232.736 367.23 228.255 367.23H199.388V385.549V463.757H318.804V385.549H251.228C246.297 385.548 241.859 382.554 240.012 377.982Z" fill="#455A64"/>
<path d="M139.19 372.348C139.248 372.453 139.31 372.562 139.373 372.671C140.83 375.204 144.173 381.411 147.855 388.203C149.596 391.425 151.42 394.78 153.149 397.936C156.13 403.383 158.841 408.234 160.423 410.798C162.032 413.405 163.217 415.236 163.696 415.969C163.7 415.973 163.7 415.973 163.7 415.973C163.844 416.199 163.875 416.464 163.856 416.728C163.688 419.027 163.735 421.311 163.961 423.559C166.182 445.656 181.08 457.497 181.08 457.497L185.51 458.152C185.51 458.152 179.241 434.925 177.395 421.794C177.083 419.569 176.947 417.765 177.056 416.589C177.383 413.168 176.775 408.145 175.626 402.378C173.581 392.131 169.829 379.553 166.568 369.485C166.361 368.842 160.131 346.305 160.131 346.305C154.903 350.875 135.831 352.761 135.831 352.761C135.831 352.761 132.597 360.624 139.19 372.348Z" fill="#B1B3B6"/>
<path d="M194.808 463.757H176.319C176.319 463.757 175.876 460.939 176.842 458.801C177.767 456.75 179.086 456.684 177.01 453.469C178.185 454.678 181.961 455.179 184.634 454.819C184.962 455.35 186.746 458.913 187.839 459.698C189.048 460.567 194.435 460.257 194.808 463.757Z" fill="black"/>
<path d="M139.19 372.348C139.248 372.453 139.31 372.562 139.373 372.671C140.83 375.204 148.71 389.761 152.392 396.552C148.126 378.999 151.093 361.445 151.093 361.445L139.19 372.348Z" fill="black"/>
<path d="M208.027 284.518C208.148 284.032 197.467 289.346 196.926 289.947C191.917 295.503 193.345 302.755 196.211 302.824C198.05 302.869 197.693 305.926 197.693 305.926L218.172 297.262C218.171 297.261 215.706 282.882 208.027 284.518Z" fill="black"/>
<path d="M201.145 319.808C201.145 319.808 204.262 326.034 203.873 331.087C203.873 331.087 200.115 337.019 190.37 338.521C190.369 338.521 198.748 319.803 201.145 319.808Z" fill="#E0E0E0"/>
<path d="M153.603 354.137L153.666 350.679C146.776 351.548 129.91 342.445 129.91 342.445C129.91 342.445 122.703 347.24 121.716 360.932C121.235 367.614 118.188 395.876 117.851 404.316C117.728 407.375 117.687 409.558 117.673 410.43C117.675 410.434 117.674 410.436 117.674 410.438C117.67 410.704 117.545 410.939 117.381 411.15C115.956 412.962 114.719 414.882 113.648 416.873C103.135 436.434 108.633 463.014 108.633 463.014L111.074 462.393C111.074 462.393 119.963 434.839 125.773 422.92C126.759 420.899 127.655 419.326 128.404 418.416C130.589 415.763 132.892 411.256 135.162 405.834C139.454 395.581 153.603 354.137 153.603 354.137Z" fill="#B1B3B6"/>
<path d="M123.335 463.757H104.847C104.847 463.757 104.404 460.939 105.369 458.801C106.295 456.75 107.744 455.817 107.397 453.335C108.572 454.545 110.487 455.899 113.159 455.54C113.487 456.071 115.274 458.913 116.367 459.699C117.575 460.567 122.963 460.257 123.335 463.757Z" fill="black"/>
<path d="M189.121 342.491C186.638 342.915 189.527 344.889 186.111 345.261C181.25 345.791 176.231 346.154 173.601 347.203C172.642 347.586 172.001 348.058 171.8 348.662C170.661 352.089 163.443 357.979 163.443 357.979C131.249 356.513 129.176 342.163 129.176 342.163C150.07 321.869 167.845 310.807 182.536 309.438C186.111 309.105 190.931 309.552 193.192 310.559C198.33 312.847 201.146 319.808 201.146 319.808C201.146 319.808 198.557 340.882 189.121 342.491Z" fill="#E0E0E0"/>
<path d="M186.111 345.261C181.25 345.791 176.23 346.154 173.601 347.203C166 332.053 180.103 319.067 180.103 319.067C180.103 319.067 185.046 339.184 186.111 345.261Z" fill="#E0E0E0"/>
<path d="M190.305 316.349C190.305 316.349 178.08 315.682 175.908 323.358C173.735 331.034 179.983 361.674 181.33 364.836C183.781 370.593 196.141 387.741 196.141 387.741L200.103 385.688C200.103 385.688 192.146 360.585 190.37 358.101C187.58 354.202 193.965 319.689 190.305 316.349Z" fill="#FFB27D"/>
<path d="M200.103 385.689C200.103 385.689 201.125 386.578 201.948 387.582C202.77 388.587 202.047 388.95 204.408 393.5C204.408 393.5 204.288 394.132 203.774 394.016C203.261 393.901 201.479 392.137 200.565 392.263C200.565 392.263 199.912 392.801 199.84 394.585C199.773 396.252 199.768 399.943 199.478 400.637C199.187 401.33 197.066 397.73 196.022 395.129C195.106 392.848 195.998 385.154 195.998 385.154L200.103 385.689Z" fill="#FFB27D"/>
<path d="M173.497 333.622C173.528 333.802 185.066 335.745 192.282 332.082C192.282 332.082 198.31 313.195 189.695 314.098C181.08 315.002 175.979 317.716 175.762 321.84C175.545 325.965 173.497 333.622 173.497 333.622Z" fill="#E0E0E0"/>
<path d="M192.916 311.882C193.042 313.41 193.237 315.201 195.237 317.261C196.769 318.839 198.984 320.07 200.539 318.515C201.333 317.722 202.403 316.54 202.945 315.608C204.289 313.298 205.891 310.937 205.891 310.937L198.971 304.874L198.559 304.511C196.746 307.676 194.964 309.197 193.404 310.361C192.932 310.712 192.868 311.296 192.916 311.882Z" fill="#FFB27D"/>
<path d="M205.89 310.939C205.89 310.939 204.291 313.295 202.946 315.608C198.645 312.957 198.64 307.632 198.972 304.873L205.89 310.939Z" fill="#ED985F"/>
<path d="M206.082 313.976C206.082 313.976 195.639 308.165 199.358 301.717C203.076 295.269 204.233 290.177 211.058 293.614C217.882 297.052 217.747 300.253 217.029 302.707C216.312 305.162 208.894 315.322 206.082 313.976Z" fill="#FFB27D"/>
<path d="M218.794 298.946C218.315 296.083 216.861 295.81 215.847 296.001C211.991 289.623 205.69 292.112 205.69 292.112C202.325 296.336 197.459 297.056 197.459 297.056C197.459 297.056 198.672 299.312 203.664 300.707C205.189 301.133 206.921 300.876 208.59 300.314C205.126 302.245 201.503 302.985 201.503 302.985C208.083 303.587 214.343 297.571 214.992 296.928C215.296 297.86 215.828 299.812 215.51 301.239C215.076 303.178 213.355 306.69 214.406 307.145C214.406 307.145 219.511 303.24 218.794 298.946Z" fill="black"/>
<path d="M233.234 445.169L251.452 411.226L266.177 433.02L275.217 421.505L288.509 445.367L233.234 445.169Z" fill="#E0E0E0"/>
<path d="M285.467 413.298C285.422 414.218 285.108 415.105 284.564 415.849C284.02 416.592 283.269 417.16 282.406 417.482C281.541 417.803 280.602 417.864 279.705 417.655C278.807 417.448 277.99 416.982 277.355 416.314C276.72 415.646 276.294 414.807 276.131 413.899C275.968 412.993 276.075 412.058 276.439 411.211C276.802 410.365 277.407 409.643 278.177 409.136C278.947 408.629 279.848 408.359 280.769 408.36C281.402 408.375 282.026 408.515 282.605 408.771C283.183 409.027 283.706 409.395 284.142 409.854C284.578 410.313 284.921 410.853 285.148 411.443C285.375 412.035 285.483 412.665 285.467 413.298Z" fill="#E0E0E0"/>
<path d="M348.331 248.672H290.146L291.021 251.6H349.206L348.331 248.672Z" fill="#21B4B0"/>
<path d="M372.299 261.226C372.348 261.387 354.915 261.526 333.372 261.526C311.829 261.526 294.302 261.387 294.254 261.226C294.206 261.065 311.628 260.892 333.206 260.892C354.783 260.892 372.251 261.064 372.299 261.226Z" fill="#B1B3B6"/>
<path d="M374.738 269.388C374.786 269.549 357.354 269.686 335.811 269.686C314.267 269.686 296.741 269.549 296.693 269.388C296.645 269.226 314.077 269.087 335.632 269.087C357.186 269.087 374.686 269.214 374.738 269.388Z" fill="#B1B3B6"/>
<path d="M377.177 277.549C377.225 277.71 359.793 277.849 338.249 277.849C316.706 277.849 299.18 277.71 299.131 277.549C299.083 277.387 316.516 277.25 338.07 277.25C359.625 277.249 377.125 277.376 377.177 277.549Z" fill="#B1B3B6"/>
<path d="M379.616 285.711C379.664 285.872 362.231 286.01 340.688 286.01C319.145 286.01 301.619 285.872 301.57 285.711C301.522 285.549 318.954 285.41 340.509 285.41C362.063 285.41 379.564 285.537 379.616 285.711Z" fill="#B1B3B6"/>
<path d="M382.054 293.871C382.102 294.032 364.67 294.171 343.127 294.171C321.584 294.171 304.057 294.032 304.009 293.871C303.961 293.71 321.393 293.572 342.948 293.572C364.502 293.572 382.002 293.699 382.054 293.871Z" fill="#B1B3B6"/>
<path d="M346.325 301.365C346.374 301.526 337.447 301.664 326.382 301.664C315.316 301.664 306.296 301.526 306.248 301.365C306.2 301.204 315.126 301.065 326.203 301.065C337.279 301.065 346.287 301.237 346.325 301.365Z" fill="#B1B3B6"/>
<path d="M463.157 113.857H388.111V163.199H463.157V113.857Z" fill="#E0E0E0"/>
<path d="M460.504 115.874H390.719V160.998H460.504V115.874Z" fill="#FAFAFA"/>
<path d="M436.997 132.327H414.234V144.745H436.997V132.327Z" fill="#E0E0E0"/>
<path d="M374.055 69.9592H328.59V99.8501H374.055V69.9592Z" fill="#E0E0E0"/>
<path d="M372.444 71.1787H330.17V98.5153H372.444V71.1787Z" fill="#FAFAFA"/>
<path d="M358.202 81.1425H344.412V88.6665H358.202V81.1425Z" fill="#E0E0E0"/>
<path d="M535.231 259.084C535.82 258.879 536.477 258.808 537.16 258.879L536.996 259.084L536.904 258.696C536.876 258.578 536.847 258.459 536.815 258.324C536.784 258.19 536.708 257.873 536.707 257.7C536.662 257.344 536.656 257.123 536.72 257.123C536.783 257.123 536.875 257.344 536.999 257.7C537.041 257.873 537.091 258.087 537.195 258.324L537.383 259.115L537.226 259.321C536.582 259.371 535.904 259.29 535.231 259.084Z" fill="#263238"/>
<path d="M526.762 259.084C527.399 258.879 528.103 258.808 528.832 258.879C529.526 258.808 530.261 258.878 530.993 259.084C530.356 259.285 529.656 259.355 528.93 259.29C528.232 259.354 527.496 259.285 526.762 259.084Z" fill="#263238"/>
<path d="M518.299 259.084C519.631 258.809 521.068 258.809 522.53 259.084C521.198 259.358 519.761 259.358 518.299 259.084Z" fill="#263238"/>
<path d="M509.86 259.084C510.495 258.878 511.196 258.808 511.924 258.879C512.62 258.809 513.357 258.879 514.092 259.084C513.453 259.285 512.75 259.354 512.022 259.29C511.326 259.355 510.592 259.285 509.86 259.084Z" fill="#263238"/>
<path d="M501.367 259.084C502.004 258.879 502.707 258.808 503.437 258.879C504.131 258.808 504.865 258.878 505.597 259.084C504.962 259.285 504.261 259.355 503.535 259.29C502.837 259.354 502.101 259.285 501.367 259.084Z" fill="#263238"/>
<path d="M492.904 259.084C494.236 258.809 495.673 258.809 497.135 259.084C495.803 259.358 494.366 259.358 492.904 259.084Z" fill="#263238"/>
<path d="M484.441 259.084C485.076 258.878 485.777 258.808 486.505 258.879C487.201 258.809 487.938 258.879 488.673 259.084C488.034 259.285 487.331 259.354 486.602 259.29C485.907 259.355 485.174 259.285 484.441 259.084Z" fill="#263238"/>
<path d="M477.756 257.106C478.117 257.743 478.35 258.417 478.439 259.084L478.184 258.879H478.58H478.952L479.586 258.918C479.951 258.958 480.183 259.005 480.198 259.068C480.213 259.131 480.002 259.171 479.655 259.211L479.042 259.258H478.251C478.134 259.163 478.498 259.463 477.988 259.052C477.78 258.395 477.7 257.734 477.756 257.106Z" fill="#263238"/>
<path d="M475.816 248.936C476.421 250.281 476.751 251.671 476.785 253.017C476.191 251.671 475.862 250.283 475.816 248.936Z" fill="#263238"/>
<path d="M473.877 240.765C474.481 242.11 474.812 243.501 474.846 244.847C474.252 243.5 473.922 242.112 473.877 240.765Z" fill="#263238"/>
<path d="M471.937 232.595C472.542 233.941 472.872 235.331 472.906 236.676C472.312 235.329 471.983 233.942 471.937 232.595Z" fill="#263238"/>
<path d="M469.998 224.424C470.602 225.77 470.933 227.16 470.967 228.506C470.373 227.159 470.043 225.771 469.998 224.424Z" fill="#263238"/>
<path d="M468.059 216.254C468.663 217.599 468.993 218.989 469.028 220.335C468.433 218.989 468.104 217.601 468.059 216.254Z" fill="#263238"/>
<path d="M466.119 208.083C466.724 209.429 467.054 210.819 467.088 212.165C466.494 210.818 466.165 209.43 466.119 208.083Z" fill="#263238"/>
<path d="M466.656 202.017C466.066 202.218 465.41 202.288 464.728 202.222C465.041 201.811 464.82 202.111 464.893 202.017L464.981 202.388L465.069 202.76C465.126 202.997 465.176 203.211 465.18 203.393C465.225 203.749 465.23 203.971 465.167 203.971C465.104 203.971 465.011 203.749 464.888 203.393C464.845 203.211 464.794 202.998 464.69 202.76L464.514 202.017L464.634 201.827C465.283 201.757 465.971 201.821 466.656 202.017Z" fill="#263238"/>
<path d="M475.127 202.017C474.487 202.218 473.785 202.287 473.056 202.222C472.361 202.287 471.628 202.218 470.895 202.017C471.532 201.815 472.232 201.746 472.958 201.811C473.656 201.746 474.392 201.816 475.127 202.017Z" fill="#263238"/>
<path d="M483.589 202.016C482.257 202.291 480.82 202.291 479.358 202.016C480.69 201.743 482.127 201.743 483.589 202.016Z" fill="#263238"/>
<path d="M492.051 202.017C491.415 202.218 490.715 202.287 489.989 202.222C489.291 202.287 488.555 202.218 487.821 202.017C488.46 201.816 489.162 201.746 489.891 201.811C490.586 201.746 491.32 201.815 492.051 202.017Z" fill="#263238"/>
<path d="M500.522 202.017C499.882 202.218 499.18 202.287 498.451 202.222C497.756 202.287 497.023 202.218 496.29 202.017C496.927 201.815 497.627 201.746 498.353 201.811C499.051 201.746 499.787 201.816 500.522 202.017Z" fill="#263238"/>
<path d="M508.968 202.016C507.636 202.291 506.2 202.291 504.737 202.016C506.07 201.743 507.506 201.743 508.968 202.016Z" fill="#263238"/>
<path d="M517.447 202.017C516.811 202.218 516.11 202.287 515.384 202.222C514.686 202.287 513.951 202.218 513.216 202.017C513.855 201.816 514.558 201.746 515.286 201.811C515.981 201.746 516.715 201.815 517.447 202.017Z" fill="#263238"/>
<path d="M524.133 203.994C523.771 203.357 523.538 202.683 523.45 202.016L523.704 202.222H523.308H522.936C522.699 202.222 522.485 202.222 522.301 202.175C521.945 202.175 521.702 202.088 521.689 202.032C521.676 201.977 521.885 201.922 522.233 201.89C522.406 201.89 522.611 201.85 522.846 201.843H523.637C523.755 201.938 523.39 201.637 523.899 202.049C524.109 202.706 524.187 203.367 524.133 203.994Z" fill="#263238"/>
<path d="M526.072 212.165C525.468 210.819 525.138 209.429 525.103 208.083C525.697 209.43 526.027 210.818 526.072 212.165Z" fill="#263238"/>
<path d="M528.011 220.335C527.407 218.99 527.077 217.6 527.042 216.254C527.637 217.601 527.966 218.989 528.011 220.335Z" fill="#263238"/>
<path d="M529.951 228.506C529.346 227.16 529.016 225.77 528.982 224.424C529.576 225.771 529.905 227.159 529.951 228.506Z" fill="#263238"/>
<path d="M531.89 236.676C531.286 235.331 530.956 233.941 530.922 232.595C531.515 233.942 531.845 235.329 531.89 236.676Z" fill="#263238"/>
<path d="M533.83 244.847C533.225 243.501 532.895 242.11 532.861 240.765C533.455 242.112 533.784 243.5 533.83 244.847Z" fill="#263238"/>
<path d="M535.769 253.017C535.165 251.672 534.834 250.282 534.8 248.936C535.394 250.283 535.724 251.671 535.769 253.017Z" fill="#263238"/>
</svg>
