<svg width="408" height="179" viewBox="0 0 408 179" fill="none" xmlns="http://www.w3.org/2000/svg">
  <path
    d="M141.748 112.164C142.476 106.881 135.017 102.529 129.413 102.083C126.742 101.859 123.964 102.277 121.429 101.393C115.941 99.4504 113.756 92.3894 108.404 90.1361C104.403 88.4461 99.7894 89.9516 95.9141 91.9038C92.0388 93.856 88.2024 96.3133 83.8609 96.5852C80.0924 96.8281 76.0034 95.4295 72.7012 97.2748C70.2439 98.6443 68.9522 101.48 66.6891 103.102C64.4261 104.724 61.5803 105.045 58.8317 105.229C56.0831 105.414 53.2373 105.404 50.7314 106.55C48.2256 107.696 46.1568 110.348 46.6716 113.058L141.748 112.164Z"
    fill="#FAFAFA"/>
  <path
    d="M160.017 61.5365C160.307 49.0775 164.285 36.9843 171.448 26.7866C178.612 16.5889 188.639 8.74484 200.261 4.24676C211.883 -0.251315 224.579 -1.20137 236.741 1.51681C248.903 4.23499 259.986 10.4993 268.588 19.5172C277.189 28.5352 282.923 39.9016 285.064 52.1787C287.204 64.4559 285.656 77.092 280.613 88.4889C275.571 99.8857 267.262 109.531 256.738 116.205C246.213 122.879 233.945 126.281 221.487 125.982C204.791 125.581 188.939 118.567 177.412 106.483C165.886 94.3984 159.629 78.232 160.017 61.5365Z"
    fill="#B1B3B6"/>
  <path
    d="M243.003 38.724C243.058 36.5494 243.756 34.4398 245.01 32.6619C246.263 30.8839 248.015 29.5176 250.045 28.7355C252.075 27.9534 254.291 27.7908 256.414 28.268C258.536 28.7453 260.469 29.8412 261.969 31.417C263.468 32.9928 264.467 34.9779 264.838 37.1213C265.21 39.2646 264.938 41.47 264.056 43.4586C263.174 45.4472 261.723 47.1297 259.885 48.2935C258.047 49.4572 255.905 50.05 253.731 49.9967C252.286 49.9613 250.863 49.6417 249.541 49.0559C248.22 48.4702 247.028 47.6299 246.031 46.583C245.035 45.5361 244.255 44.3033 243.736 42.9548C243.216 41.6063 242.967 40.1686 243.003 38.724Z"
    fill="#F5F5F5"/>
  <path
    d="M265.001 62.9276C265.015 61.9359 265.324 60.9709 265.888 60.1553C266.452 59.3396 267.247 58.7102 268.169 58.3471C269.092 57.984 270.102 57.9036 271.071 58.1161C272.04 58.3286 272.924 58.8244 273.61 59.5405C274.296 60.2566 274.754 61.1605 274.925 62.1375C275.096 63.1144 274.973 64.1201 274.571 65.0268C274.169 65.9335 273.506 66.7001 272.667 67.2291C271.828 67.7582 270.851 68.0259 269.86 67.998C268.546 67.9611 267.299 67.4084 266.39 66.4595C265.481 65.5106 264.981 64.2418 265.001 62.9276Z"
    fill="#F5F5F5"/>
  <path
    d="M256.02 81C256.152 80.9997 256.282 81.065 256.404 81.1917C256.525 81.3185 256.635 81.5042 256.727 81.7377C256.818 81.9712 256.889 82.2477 256.936 82.5505C256.983 82.8534 257.004 83.1763 256.999 83.5C256.999 83.8283 256.973 84.1534 256.922 84.4567C256.87 84.76 256.795 85.0356 256.701 85.2678C256.606 85.4999 256.494 85.6841 256.37 85.8097C256.247 85.9353 256.114 86 255.98 86C255.847 85.9876 255.715 85.9106 255.593 85.7734C255.472 85.6362 255.362 85.4414 255.271 85.2003C255.18 84.9592 255.11 84.6764 255.063 84.3682C255.017 84.0599 254.996 83.7322 255.001 83.4038C255.011 82.7576 255.123 82.1461 255.313 81.6979C255.503 81.2497 255.756 80.9995 256.02 81Z"
    fill="#F5F5F5"/>
  <path
    d="M405.308 148.175C401.792 146.253 400.175 147.866 398.892 146.253C397.609 144.641 402.395 140.474 392.823 136.307C392.823 136.307 392.182 127.277 379.094 127.006C366.006 126.735 369.522 136.036 366.019 138.229C362.516 140.422 361.541 136.939 358.038 139.197C354.535 141.454 356.126 145.931 353.252 146.576C350.378 147.221 346.542 143.686 342.987 145.931C339.433 148.175 339.472 150.11 337.855 150.11C336.238 150.11 333.069 148.82 331.144 150.11C329.22 151.4 327 153 327 153H407.874C407.874 153 408.862 150.11 405.308 148.175Z"
    fill="#E0E0E0"/>
  <path
    d="M357.325 130.062C355.11 128.884 354.106 129.872 353.307 128.884C352.509 127.896 355.522 125.313 349.443 122.742C349.443 122.742 349.031 117.195 340.776 117.005C332.521 116.815 334.736 122.539 332.521 123.932C330.306 125.325 329.713 123.134 327.498 124.527C325.283 125.92 326.288 128.681 324.472 129.074C322.656 129.467 320.248 127.301 318.032 128.681C315.817 130.062 315.817 131.214 314.813 131.214C313.808 131.214 311.786 130.429 310.576 131.214C309.365 131.999 308 133 308 133H358.935C359.074 132.402 358.988 131.774 358.692 131.233C358.396 130.693 357.91 130.277 357.325 130.062Z"
    fill="#E0E0E0"/>
  <path
    d="M175.989 168.288C168.088 163.995 164.504 167.57 161.627 163.995C158.749 160.42 169.527 151.104 147.985 141.789C147.985 141.789 146.546 121.722 117.154 121.018C87.763 120.313 95.6119 141.071 87.7117 146.081C79.8115 151.092 77.6533 143.224 69.7274 148.234C61.8015 153.244 65.4241 163.277 58.9626 164.713C52.5011 166.148 43.8815 158.306 35.9813 163.277C28.0811 168.249 28.0811 172.593 24.42 172.593C20.7589 172.593 13.6552 169.723 9.33896 172.593C5.02274 175.463 0 179 0 179H181.743C181.743 179 183.85 172.593 175.989 168.288Z"
    fill="white"/>
</svg>
