<svg width="636" height="293" viewBox="0 0 636 293" fill="none" xmlns="http://www.w3.org/2000/svg">
<path d="M259.797 225.198H504.252C522.085 225.198 534.353 210.741 531.656 192.908L519.533 112.766L507.41 32.624C504.713 14.791 488.069 0.333984 470.236 0.333984H293.811C275.978 0.333984 259.334 14.791 256.637 32.624L232.39 192.908C229.693 210.74 241.964 225.198 259.797 225.198Z" fill="#2E262A"/>
<path d="M379.316 0.333008C396.726 2.15001 401.936 16.403 403.878 33.021C405.817 49.642 417.268 63.247 437.897 64.485C458.529 65.723 457.297 91.778 483.594 91.912C509.894 92.043 519.533 112.766 519.533 112.766L507.41 32.624C504.713 14.791 488.069 0.334007 470.236 0.334007H379.316V0.333008Z" fill="#42393D"/>
<path d="M28.7151 225.198H151.453C169.286 225.198 185.93 210.741 188.63 192.908L202.363 102.125L204.89 85.422L212.877 32.624C215.574 14.791 203.303 0.333984 185.47 0.333984H62.7281C44.8951 0.333984 28.2511 14.791 25.5541 32.624L2.95206 182.05L1.30806 192.907C-1.38894 210.74 10.8821 225.198 28.7151 225.198Z" fill="#2E262A"/>
<path d="M2.95203 182.05C17.04 186.462 35.214 179.265 39.68 170.117C45.642 157.909 46.494 143.145 66.936 152.298C87.378 161.449 98.298 135.237 103.684 116.203C109.07 97.169 136.497 106.518 153.305 114.627C170.113 122.736 173.407 106.234 184.039 100.303C194.672 94.375 201.174 105.547 201.174 105.547L202.364 102.123L204.891 85.42L212.878 32.622C215.575 14.789 203.304 0.332031 185.471 0.332031H62.728C44.895 0.332031 28.251 14.789 25.554 32.622L2.95203 182.05Z" fill="#42393D"/>
<path d="M76.2731 109.291C101.663 109.291 122.246 88.7081 122.246 63.318C122.246 37.9278 101.663 17.345 76.2731 17.345C50.8829 17.345 30.3 37.9278 30.3 63.318C30.3 88.7081 50.8829 109.291 76.2731 109.291Z" fill="#21B6B2"/>
<path d="M24.4221 40.1101C27.8771 40.9341 31.4541 41.8191 35.1401 42.7621C35.0861 42.8701 35.0351 42.9781 34.9841 43.0861C34.9361 43.1851 34.8871 43.2821 34.8451 43.3781C34.8391 43.3871 34.8371 43.3981 34.8311 43.4061C34.7881 43.4881 34.7491 43.5731 34.7091 43.6611C34.7091 43.6641 34.7061 43.6641 34.7061 43.6671C34.6721 43.7321 34.6441 43.8001 34.6121 43.8691C34.5811 43.9341 34.5501 44.0021 34.5181 44.0711C34.5121 44.0881 34.5041 44.1051 34.4951 44.1221C34.4721 44.1701 34.4521 44.2191 34.4301 44.2671C34.3851 44.3611 34.3421 44.4571 34.2991 44.5541C34.2281 44.7101 34.1601 44.8661 34.0921 45.0251C34.0691 45.0821 34.0411 45.1411 34.0181 45.2011C33.9931 45.2581 33.9671 45.3151 33.9441 45.3741C30.5061 44.4851 27.1841 43.6531 24.0011 42.8841L24.4221 40.1101ZM21.8581 57.0571C24.5981 58.0791 27.4481 59.1181 30.3961 60.1741H30.3991C42.1111 64.3671 55.3811 68.7821 69.5061 73.1381C72.3851 74.0271 75.2391 74.8931 78.0551 75.7331C91.8111 79.8471 104.743 83.3991 116.137 86.2351H116.14C142.377 92.7741 160.412 95.5111 161.32 92.5691C162.157 89.8611 148.24 82.9441 126.185 74.5321C124.592 73.9221 122.96 73.3081 121.284 72.6871H121.281C121.315 72.5141 121.352 72.3411 121.386 72.1701C121.397 72.1221 121.406 72.0741 121.417 72.0221C121.42 72.0051 121.423 71.9911 121.425 71.9741C121.431 71.9431 121.436 71.9091 121.442 71.8781C121.45 71.8411 121.459 71.8071 121.465 71.7731C121.471 71.7471 121.474 71.7251 121.479 71.7021C121.49 71.6421 121.499 71.5861 121.507 71.5291C121.527 71.4301 121.547 71.3301 121.564 71.2311C121.572 71.1831 121.578 71.1341 121.587 71.0861C121.604 70.9921 121.621 70.8991 121.635 70.8081C121.643 70.7601 121.652 70.7121 121.66 70.6631C121.683 70.5241 121.706 70.3851 121.728 70.2431C121.734 70.1971 121.739 70.1551 121.745 70.1121C121.748 70.0981 121.748 70.0861 121.751 70.0751C121.754 70.0491 121.757 70.0271 121.76 70.0011C121.763 69.9871 121.766 69.9731 121.768 69.9591C121.771 69.9331 121.776 69.9081 121.779 69.8801H121.782C125.845 71.3991 129.723 72.8951 133.389 74.3571C157.326 83.9051 172.275 92.0081 171.159 95.6111C169.864 99.8101 146.983 96.7551 114.588 88.7521H114.585C100.999 85.3931 85.733 81.1661 69.6861 76.2341C69.34 76.1291 68.9961 76.0271 68.6491 75.9191C54.9441 71.6911 41.9891 67.3641 30.2891 63.1541H30.2881C27.2471 62.0581 24.2921 60.9741 21.4301 59.8971L21.8581 57.0571Z" fill="#F4F5FA"/>
<path d="M105.442 54.9651C108.955 54.9651 111.802 52.1176 111.802 48.6051C111.802 45.0926 108.955 42.2451 105.442 42.2451C101.93 42.2451 99.082 45.0926 99.082 48.6051C99.082 52.1176 101.93 54.9651 105.442 54.9651Z" fill="#2AD3CB"/>
<path d="M63.216 31.4711C64.4349 31.4711 65.423 30.483 65.423 29.2641C65.423 28.0452 64.4349 27.0571 63.216 27.0571C61.9971 27.0571 61.009 28.0452 61.009 29.2641C61.009 30.483 61.9971 31.4711 63.216 31.4711Z" fill="#2AD3CB"/>
<path d="M61.313 53.0191C63.5835 53.0191 65.424 51.1786 65.424 48.9081C65.424 46.6377 63.5835 44.7971 61.313 44.7971C59.0426 44.7971 57.202 46.6377 57.202 48.9081C57.202 51.1786 59.0426 53.0191 61.313 53.0191Z" fill="#2AD3CB"/>
<path d="M80.753 69.1451C84.1595 69.1451 86.921 66.3836 86.921 62.9771C86.921 59.5706 84.1595 56.8091 80.753 56.8091C77.3465 56.8091 74.585 59.5706 74.585 62.9771C74.585 66.3836 77.3465 69.1451 80.753 69.1451Z" fill="#2AD3CB"/>
<path d="M79.5419 100.305C81.3474 100.305 82.8109 98.8415 82.8109 97.0361C82.8109 95.2307 81.3474 93.7671 79.5419 93.7671C77.7365 93.7671 76.2729 95.2307 76.2729 97.0361C76.2729 98.8415 77.7365 100.305 79.5419 100.305Z" fill="#2AD3CB"/>
<path d="M51.481 79.783C52.4884 79.783 53.305 78.9664 53.305 77.959C53.305 76.9516 52.4884 76.135 51.481 76.135C50.4736 76.135 49.657 76.9516 49.657 77.959C49.657 78.9664 50.4736 79.783 51.481 79.783Z" fill="#2AD3CB"/>
<path d="M357.408 26.325C348.567 22.168 334.219 16.332 316.078 12.139L316.122 11.95C350.873 19.981 373.736 32.054 373.949 32.196L373.938 32.215C374.329 32.426 374.607 32.8249 374.642 33.3009C374.696 34.0429 374.138 34.688 373.396 34.742C373.095 34.764 372.811 34.684 372.575 34.533L372.574 34.534C372.572 34.5319 372.554 34.52 372.528 34.504C372.525 34.502 372.521 34.4999 372.518 34.4969C371.929 34.1119 366.486 30.594 357.408 26.325Z" fill="#F4F5FA"/>
<path d="M320.293 24.01C314.418 21.247 304.883 17.369 292.828 14.583L292.857 14.458C315.95 19.795 331.144 27.818 331.285 27.912L331.277 27.925C331.537 28.066 331.722 28.331 331.745 28.647C331.781 29.14 331.41 29.569 330.917 29.605C330.717 29.62 330.528 29.566 330.371 29.466C330.369 29.465 330.357 29.457 330.34 29.446C330.338 29.444 330.336 29.443 330.333 29.442C329.943 29.185 326.326 26.847 320.293 24.01Z" fill="#F4F5FA"/>
<path d="M27.944 141.687C27.944 141.952 27.959 142.213 27.985 142.471C28.068 143.219 28.263 143.932 28.556 144.592C28.849 145.255 29.241 145.867 29.714 146.407C31.029 147.917 32.968 148.873 35.131 148.873C35.506 148.873 35.874 148.845 36.234 148.789C36.485 148.751 36.732 148.698 36.973 148.633C37.827 148.408 38.617 148.029 39.314 147.53C40.25 146.86 41.018 145.97 41.542 144.938C41.707 144.612 41.848 144.275 41.962 143.922C42.193 143.219 42.318 142.466 42.318 141.687C42.318 141.538 42.313 141.389 42.303 141.242C42.234 140.076 41.884 138.984 41.321 138.033C40.07 135.917 37.766 134.5 35.131 134.5C34.843 134.5 34.558 134.516 34.279 134.55C33.247 134.673 32.281 135.013 31.429 135.526C30.724 135.949 30.101 136.49 29.579 137.122C29.515 137.2 29.452 137.279 29.39 137.36C28.484 138.564 27.944 140.063 27.944 141.687Z" fill="#F4F5FA"/>
<path d="M31.4301 135.526C33.5061 137.04 34.3021 140.227 36.9401 140.227C38.9701 140.227 40.7751 140.932 42.3051 141.243C42.2361 140.077 41.8861 138.985 41.3231 138.034C38.1831 138.094 35.7751 136.199 34.2811 134.55C33.2481 134.672 32.2821 135.013 31.4301 135.526Z" fill="#2AD3CB"/>
<path d="M27.944 141.687C27.944 141.952 27.959 142.213 27.985 142.471C29.206 143.358 30.546 144.676 31.866 144.914C34.016 145.299 35.451 145.079 37.381 146.677C37.965 147.162 38.648 147.413 39.315 147.529C40.251 146.859 41.019 145.969 41.543 144.937C41.708 144.611 41.849 144.274 41.963 143.921C41.084 143.789 39.827 143.502 38.539 142.872C36.167 141.714 33.355 142.267 31.812 140.667C31.033 139.86 30.112 138.503 29.392 137.358C28.484 138.564 27.944 140.063 27.944 141.687Z" fill="#2AD3CB"/>
<path d="M29.714 146.407C31.029 147.917 32.968 148.873 35.131 148.873C35.506 148.873 35.874 148.845 36.234 148.789C36.485 148.751 36.732 148.698 36.973 148.633C35.617 146.972 33.268 146.635 31.699 146.734C31.081 146.772 30.373 146.62 29.714 146.407Z" fill="#2AD3CB"/>
<path d="M53.92 121.477C55.1322 121.477 56.115 120.494 56.115 119.282C56.115 118.07 55.1322 117.087 53.92 117.087C52.7077 117.087 51.725 118.07 51.725 119.282C51.725 120.494 52.7077 121.477 53.92 121.477Z" fill="#F4F5FA"/>
<path d="M177.506 122.504C178.179 122.504 178.725 121.958 178.725 121.285C178.725 120.612 178.179 120.066 177.506 120.066C176.833 120.066 176.287 120.612 176.287 121.285C176.287 121.958 176.833 122.504 177.506 122.504Z" fill="#F4F5FA"/>
<path d="M160.03 109.9C160.9 109.9 161.605 109.195 161.605 108.325C161.605 107.455 160.9 106.75 160.03 106.75C159.16 106.75 158.455 107.455 158.455 108.325C158.455 109.195 159.16 109.9 160.03 109.9Z" fill="#F4F5FA"/>
<path d="M138.544 54.722C139.259 54.722 139.838 54.1427 139.838 53.428C139.838 52.7134 139.259 52.134 138.544 52.134C137.829 52.134 137.25 52.7134 137.25 53.428C137.25 54.1427 137.829 54.722 138.544 54.722Z" fill="#F4F5FA"/>
<path d="M178.804 54.7221C179.206 54.7221 179.532 54.3962 179.532 53.9941C179.532 53.592 179.206 53.2661 178.804 53.2661C178.402 53.2661 178.076 53.592 178.076 53.9941C178.076 54.3962 178.402 54.7221 178.804 54.7221Z" fill="#F4F5FA"/>
<path d="M152.088 36.3901C153.011 36.3901 153.76 35.6416 153.76 34.7181C153.76 33.7947 153.011 33.0461 152.088 33.0461C151.165 33.0461 150.416 33.7947 150.416 34.7181C150.416 35.6416 151.165 36.3901 152.088 36.3901Z" fill="#F4F5FA"/>
<path d="M398.366 43.7101C399.081 43.7101 399.66 43.1307 399.66 42.4161C399.66 41.7014 399.081 41.1221 398.366 41.1221C397.651 41.1221 397.072 41.7014 397.072 42.4161C397.072 43.1307 397.651 43.7101 398.366 43.7101Z" fill="#F4F5FA"/>
<path d="M438.625 43.7099C439.027 43.7099 439.353 43.384 439.353 42.9819C439.353 42.5798 439.027 42.2539 438.625 42.2539C438.223 42.2539 437.897 42.5798 437.897 42.9819C437.897 43.384 438.223 43.7099 438.625 43.7099Z" fill="#F4F5FA"/>
<path d="M411.909 25.377C412.832 25.377 413.581 24.6284 413.581 23.705C413.581 22.7815 412.832 22.033 411.909 22.033C410.986 22.033 410.237 22.7815 410.237 23.705C410.237 24.6284 410.986 25.377 411.909 25.377Z" fill="#F4F5FA"/>
<path d="M339.367 123.061C340.047 123.061 340.599 122.509 340.599 121.829C340.599 121.149 340.047 120.597 339.367 120.597C338.687 120.597 338.135 121.149 338.135 121.829C338.135 122.509 338.687 123.061 339.367 123.061Z" fill="#F4F5FA"/>
<path d="M306.876 142.845C307.259 142.845 307.569 142.535 307.569 142.152C307.569 141.769 307.259 141.459 306.876 141.459C306.493 141.459 306.183 141.769 306.183 142.152C306.183 142.535 306.493 142.845 306.876 142.845Z" fill="#F4F5FA"/>
<path d="M338.19 145.374C339.069 145.374 339.782 144.661 339.782 143.782C339.782 142.903 339.069 142.19 338.19 142.19C337.311 142.19 336.598 142.903 336.598 143.782C336.598 144.661 337.311 145.374 338.19 145.374Z" fill="#F4F5FA"/>
<path d="M78.993 164.622C84.3303 164.622 88.657 160.295 88.657 154.958C88.657 149.621 84.3303 145.294 78.993 145.294C73.6557 145.294 69.329 149.621 69.329 154.958C69.329 160.295 73.6557 164.622 78.993 164.622Z" fill="#F4F5FA"/>
<path d="M85.125 153.203C85.8634 153.203 86.462 152.604 86.462 151.866C86.462 151.128 85.8634 150.529 85.125 150.529C84.3866 150.529 83.788 151.128 83.788 151.866C83.788 152.604 84.3866 153.203 85.125 153.203Z" fill="#DBD6DC"/>
<path d="M76.249 148.264C76.5053 148.264 76.713 148.056 76.713 147.8C76.713 147.544 76.5053 147.336 76.249 147.336C75.9928 147.336 75.785 147.544 75.785 147.8C75.785 148.056 75.9928 148.264 76.249 148.264Z" fill="#DBD6DC"/>
<path d="M75.848 152.793C76.3252 152.793 76.712 152.406 76.712 151.929C76.712 151.452 76.3252 151.065 75.848 151.065C75.3708 151.065 74.984 151.452 74.984 151.929C74.984 152.406 75.3708 152.793 75.848 152.793Z" fill="#DBD6DC"/>
<path d="M79.935 156.183C80.6508 156.183 81.231 155.603 81.231 154.887C81.231 154.171 80.6508 153.591 79.935 153.591C79.2193 153.591 78.639 154.171 78.639 154.887C78.639 155.603 79.2193 156.183 79.935 156.183Z" fill="#DBD6DC"/>
<path d="M79.68 162.733C80.0595 162.733 80.367 162.426 80.367 162.046C80.367 161.667 80.0595 161.359 79.68 161.359C79.3006 161.359 78.993 161.667 78.993 162.046C78.993 162.426 79.3006 162.733 79.68 162.733Z" fill="#DBD6DC"/>
<path d="M73.782 158.419C73.9936 158.419 74.165 158.248 74.165 158.036C74.165 157.825 73.9936 157.653 73.782 157.653C73.5705 157.653 73.399 157.825 73.399 158.036C73.399 158.248 73.5705 158.419 73.782 158.419Z" fill="#DBD6DC"/>
<path d="M459.814 50.931C466.379 50.931 471.701 45.609 471.701 39.044C471.701 32.479 466.379 27.157 459.814 27.157C453.249 27.157 447.927 32.479 447.927 39.044C447.927 45.609 453.249 50.931 459.814 50.931Z" fill="#21B6B2"/>
<path d="M467.356 36.883C468.264 36.883 469 36.1469 469 35.239C469 34.331 468.264 33.595 467.356 33.595C466.448 33.595 465.712 34.331 465.712 35.239C465.712 36.1469 466.448 36.883 467.356 36.883Z" fill="#2AD3CB"/>
<path d="M456.438 30.809C456.753 30.809 457.009 30.5533 457.009 30.238C457.009 29.9226 456.753 29.667 456.438 29.667C456.123 29.667 455.867 29.9226 455.867 30.238C455.867 30.5533 456.123 30.809 456.438 30.809Z" fill="#2AD3CB"/>
<path d="M455.946 36.3811C456.533 36.3811 457.009 35.9052 457.009 35.3181C457.009 34.731 456.533 34.2551 455.946 34.2551C455.359 34.2551 454.883 34.731 454.883 35.3181C454.883 35.9052 455.359 36.3811 455.946 36.3811Z" fill="#2AD3CB"/>
<path d="M460.973 40.5501C461.854 40.5501 462.568 39.836 462.568 38.9551C462.568 38.0742 461.854 37.3601 460.973 37.3601C460.092 37.3601 459.378 38.0742 459.378 38.9551C459.378 39.836 460.092 40.5501 460.973 40.5501Z" fill="#2AD3CB"/>
<path d="M460.659 48.607C461.126 48.607 461.504 48.2287 461.504 47.762C461.504 47.2953 461.126 46.917 460.659 46.917C460.192 46.917 459.814 47.2953 459.814 47.762C459.814 48.2287 460.192 48.607 460.659 48.607Z" fill="#2AD3CB"/>
<path d="M453.404 43.3019C453.665 43.3019 453.876 43.0906 453.876 42.8299C453.876 42.5692 453.665 42.3579 453.404 42.3579C453.143 42.3579 452.932 42.5692 452.932 42.8299C452.932 43.0906 453.143 43.3019 453.404 43.3019Z" fill="#2AD3CB"/>
<path d="M488.228 70.5C489.908 70.5 491.27 69.1381 491.27 67.458C491.27 65.778 489.908 64.416 488.228 64.416C486.548 64.416 485.186 65.778 485.186 67.458C485.186 69.1381 486.548 70.5 488.228 70.5Z" fill="#21B6B2"/>
<path d="M490.158 66.905C490.391 66.905 490.579 66.7165 490.579 66.484C490.579 66.2515 490.391 66.063 490.158 66.063C489.926 66.063 489.737 66.2515 489.737 66.484C489.737 66.7165 489.926 66.905 490.158 66.905Z" fill="#2AD3CB"/>
<path d="M487.365 65.3511C487.446 65.3511 487.511 65.2857 487.511 65.2051C487.511 65.1244 487.446 65.0591 487.365 65.0591C487.284 65.0591 487.219 65.1244 487.219 65.2051C487.219 65.2857 487.284 65.3511 487.365 65.3511Z" fill="#2AD3CB"/>
<path d="M487.239 66.7769C487.389 66.7769 487.511 66.6551 487.511 66.5049C487.511 66.3547 487.389 66.2329 487.239 66.2329C487.089 66.2329 486.967 66.3547 486.967 66.5049C486.967 66.6551 487.089 66.7769 487.239 66.7769Z" fill="#2AD3CB"/>
<path d="M488.525 67.8431C488.75 67.8431 488.933 67.6604 488.933 67.4351C488.933 67.2098 488.75 67.0271 488.525 67.0271C488.3 67.0271 488.117 67.2098 488.117 67.4351C488.117 67.6604 488.3 67.8431 488.525 67.8431Z" fill="#2AD3CB"/>
<path d="M488.445 69.9051C488.564 69.9051 488.661 69.8084 488.661 69.6891C488.661 69.5698 488.564 69.4731 488.445 69.4731C488.326 69.4731 488.229 69.5698 488.229 69.6891C488.229 69.8084 488.326 69.9051 488.445 69.9051Z" fill="#2AD3CB"/>
<path d="M486.588 68.5482C486.655 68.5482 486.709 68.494 486.709 68.4272C486.709 68.3603 486.655 68.3062 486.588 68.3062C486.521 68.3062 486.467 68.3603 486.467 68.4272C486.467 68.494 486.521 68.5482 486.588 68.5482Z" fill="#2AD3CB"/>
<path d="M371.849 107.495L383.086 107.319L382.772 106.897L371.535 107.073L371.849 107.495Z" fill="#DDE7FE"/>
<path d="M377.548 108.378L383.802 108.279L383.487 107.858L377.235 107.956L377.548 108.378Z" fill="#DDE7FE"/>
<path d="M370.381 108.49L376.634 108.392L376.32 107.97L370.067 108.069L370.381 108.49Z" fill="#DDE7FE"/>
<path d="M364.942 107.604L371.041 107.508L370.727 107.086L364.628 107.182L364.942 107.604Z" fill="#DDE7FE"/>
<path d="M374.936 111.641L386.173 111.464L385.859 111.042L374.622 111.219L374.936 111.641Z" fill="#DDE7FE"/>
<path d="M380.635 112.523L386.888 112.425L386.574 112.003L380.321 112.101L380.635 112.523Z" fill="#DDE7FE"/>
<path d="M373.467 112.636L379.72 112.538L379.406 112.116L373.153 112.214L373.467 112.636Z" fill="#DDE7FE"/>
<path d="M368.029 111.749L374.128 111.653L373.813 111.232L367.715 111.328L368.029 111.749Z" fill="#DDE7FE"/>
<path d="M378.413 116.311L389.65 116.134L389.336 115.712L378.099 115.889L378.413 116.311Z" fill="#DDE7FE"/>
<path d="M384.112 117.193L390.365 117.094L390.051 116.673L383.798 116.771L384.112 117.193Z" fill="#DDE7FE"/>
<path d="M376.944 117.305L383.197 117.207L382.883 116.785L376.63 116.884L376.944 117.305Z" fill="#DDE7FE"/>
<path d="M371.506 116.419L377.604 116.323L377.29 115.901L371.192 115.997L371.506 116.419Z" fill="#DDE7FE"/>
<path d="M381.999 121.127L393.236 120.951L392.922 120.529L381.685 120.705L381.999 121.127Z" fill="#DDE7FE"/>
<path d="M387.698 122.01L393.951 121.912L393.637 121.49L387.384 121.588L387.698 122.01Z" fill="#DDE7FE"/>
<path d="M380.531 122.122L386.784 122.024L386.47 121.602L380.216 121.7L380.531 122.122Z" fill="#DDE7FE"/>
<path d="M375.092 121.236L381.191 121.14L380.877 120.718L374.778 120.814L375.092 121.236Z" fill="#DDE7FE"/>
<path opacity="0.5" d="M356.223 135.522H400.429C402.895 135.522 404.372 132.78 403.015 130.721L386.144 105.12C385.571 104.251 384.599 103.727 383.558 103.727H339.352C336.886 103.727 335.409 106.469 336.766 108.528L353.637 134.129C354.21 134.999 355.182 135.522 356.223 135.522Z" fill="#DDE7FE"/>
<path d="M349.225 107.495L360.461 107.319L360.148 106.897L348.911 107.073L349.225 107.495Z" fill="#DDE7FE"/>
<path d="M354.924 108.378L361.177 108.279L360.863 107.858L354.61 107.956L354.924 108.378Z" fill="#DDE7FE"/>
<path d="M347.756 108.49L354.009 108.392L353.695 107.97L347.442 108.069L347.756 108.49Z" fill="#DDE7FE"/>
<path d="M342.318 107.604L348.416 107.508L348.102 107.086L342.004 107.182L342.318 107.604Z" fill="#DDE7FE"/>
<path d="M352.312 111.641L363.548 111.464L363.234 111.042L351.997 111.219L352.312 111.641Z" fill="#DDE7FE"/>
<path d="M358.011 112.523L364.264 112.425L363.95 112.003L357.696 112.101L358.011 112.523Z" fill="#DDE7FE"/>
<path d="M350.843 112.636L357.096 112.538L356.782 112.116L350.529 112.214L350.843 112.636Z" fill="#DDE7FE"/>
<path d="M345.404 111.749L351.503 111.653L351.189 111.232L345.09 111.328L345.404 111.749Z" fill="#DDE7FE"/>
<path d="M355.788 116.311L367.025 116.134L366.711 115.712L355.474 115.889L355.788 116.311Z" fill="#DDE7FE"/>
<path d="M361.487 117.193L367.74 117.094L367.426 116.673L361.173 116.771L361.487 117.193Z" fill="#DDE7FE"/>
<path d="M354.32 117.305L360.573 117.207L360.258 116.785L354.005 116.884L354.32 117.305Z" fill="#DDE7FE"/>
<path d="M348.881 116.419L354.98 116.323L354.665 115.901L348.567 115.997L348.881 116.419Z" fill="#DDE7FE"/>
<path d="M359.375 121.127L370.611 120.951L370.297 120.529L359.061 120.705L359.375 121.127Z" fill="#DDE7FE"/>
<path d="M365.074 122.01L371.327 121.912L371.013 121.49L364.76 121.588L365.074 122.01Z" fill="#DDE7FE"/>
<path d="M357.906 122.122L364.159 122.024L363.845 121.602L357.592 121.7L357.906 122.122Z" fill="#DDE7FE"/>
<path d="M352.467 121.236L358.566 121.14L358.252 120.718L352.153 120.814L352.467 121.236Z" fill="#DDE7FE"/>
<path opacity="0.5" d="M383.377 99.7379H392.255C393.358 99.7379 394.253 98.8429 394.253 97.7399V80.0839C394.253 78.9799 393.358 78.0859 392.255 78.0859H383.377C382.273 78.0859 381.379 78.9809 381.379 80.0839V97.7399C381.379 98.8439 382.274 99.7379 383.377 99.7379Z" fill="#DDE7FE"/>
<path d="M392.706 80.2471H388.131V80.7901H392.706V80.2471Z" fill="#DDE7FE"/>
<path d="M392.707 81.4829H390.161V82.0259H392.707V81.4829Z" fill="#DDE7FE"/>
<path d="M389.788 81.4829H387.242V82.0259H389.788V81.4829Z" fill="#DDE7FE"/>
<path d="M387.802 80.2471H385.319V80.7901H387.802V80.2471Z" fill="#DDE7FE"/>
<path d="M392.706 84.458H388.131V85.001H392.706V84.458Z" fill="#DDE7FE"/>
<path d="M392.707 85.6941H390.161V86.2371H392.707V85.6941Z" fill="#DDE7FE"/>
<path d="M389.788 85.6941H387.242V86.2371H389.788V85.6941Z" fill="#DDE7FE"/>
<path d="M387.802 84.458H385.319V85.001H387.802V84.458Z" fill="#DDE7FE"/>
<path d="M392.706 90.0161H388.131V90.5591H392.706V90.0161Z" fill="#DDE7FE"/>
<path d="M392.707 91.2529H390.161V91.7959H392.707V91.2529Z" fill="#DDE7FE"/>
<path d="M389.788 91.2529H387.242V91.7959H389.788V91.2529Z" fill="#DDE7FE"/>
<path d="M387.802 90.0161H385.319V90.5591H387.802V90.0161Z" fill="#DDE7FE"/>
<path d="M392.706 94.844H388.131V95.387H392.706V94.844Z" fill="#DDE7FE"/>
<path d="M392.707 96.0811H390.161V96.6241H392.707V96.0811Z" fill="#DDE7FE"/>
<path d="M389.788 96.0811H387.242V96.6241H389.788V96.0811Z" fill="#DDE7FE"/>
<path d="M387.802 94.844H385.319V95.387H387.802V94.844Z" fill="#DDE7FE"/>
<path opacity="0.5" d="M329.13 99.7379H345.159C346.261 99.7379 347.155 98.8439 347.155 97.7419V80.0819C347.155 78.9799 346.261 78.0859 345.159 78.0859H329.13C328.028 78.0859 327.134 78.9799 327.134 80.0819V97.7419C327.134 98.8449 328.028 99.7379 329.13 99.7379Z" fill="#DDE7FE"/>
<path d="M337.614 94.7881H329.554V95.3311H337.614V94.7881Z" fill="#DDE7FE"/>
<path d="M334.039 96.0249H329.554V96.5679H334.039V96.0249Z" fill="#DDE7FE"/>
<path d="M339.181 96.0249H334.696V96.5679H339.181V96.0249Z" fill="#DDE7FE"/>
<path d="M342.569 94.7881H338.195V95.3311H342.569V94.7881Z" fill="#DDE7FE"/>
<path d="M339.896 90.842C342.485 90.842 344.583 88.7436 344.583 86.155C344.583 83.5665 342.485 81.468 339.896 81.468C337.307 81.468 335.209 83.5665 335.209 86.155C335.209 88.7436 337.307 90.842 339.896 90.842Z" fill="#F4F5FA"/>
<path d="M336.922 85.3031C337.28 85.3031 337.57 85.013 337.57 84.6551C337.57 84.2972 337.28 84.0071 336.922 84.0071C336.564 84.0071 336.274 84.2972 336.274 84.6551C336.274 85.013 336.564 85.3031 336.922 85.3031Z" fill="#DBD6DC"/>
<path d="M341.227 82.908C341.351 82.908 341.452 82.8073 341.452 82.683C341.452 82.5587 341.351 82.458 341.227 82.458C341.103 82.458 341.002 82.5587 341.002 82.683C341.002 82.8073 341.103 82.908 341.227 82.908Z" fill="#DBD6DC"/>
<path d="M341.421 85.1051C341.652 85.1051 341.84 84.9175 341.84 84.6861C341.84 84.4547 341.652 84.2671 341.421 84.2671C341.19 84.2671 341.002 84.4547 341.002 84.6861C341.002 84.9175 341.19 85.1051 341.421 85.1051Z" fill="#DBD6DC"/>
<path d="M339.439 86.749C339.786 86.749 340.068 86.4674 340.068 86.12C340.068 85.7726 339.786 85.491 339.439 85.491C339.092 85.491 338.81 85.7726 338.81 86.12C338.81 86.4674 339.092 86.749 339.439 86.749Z" fill="#DBD6DC"/>
<path d="M339.563 89.925C339.747 89.925 339.896 89.7759 339.896 89.592C339.896 89.4081 339.747 89.259 339.563 89.259C339.379 89.259 339.23 89.4081 339.23 89.592C339.23 89.7759 339.379 89.925 339.563 89.925Z" fill="#DBD6DC"/>
<path d="M342.423 87.8339C342.526 87.8339 342.609 87.7506 342.609 87.6479C342.609 87.5452 342.526 87.4619 342.423 87.4619C342.32 87.4619 342.237 87.5452 342.237 87.6479C342.237 87.7506 342.32 87.8339 342.423 87.8339Z" fill="#DBD6DC"/>
<path d="M335.54 81.632C335.761 81.632 335.94 81.4529 335.94 81.232C335.94 81.0111 335.761 80.832 335.54 80.832C335.319 80.832 335.14 81.0111 335.14 81.232C335.14 81.4529 335.319 81.632 335.54 81.632Z" fill="#DDE7FE"/>
<path opacity="0.5" d="M352.789 99.738H376.848C377.82 99.738 378.608 98.95 378.608 97.978V79.845C378.608 78.873 377.82 78.085 376.848 78.085H352.789C351.817 78.085 351.029 78.873 351.029 79.845V97.978C351.03 98.951 351.818 99.738 352.789 99.738Z" fill="#DDE7FE"/>
<path d="M367.252 85.1649C367.252 82.5079 369.414 80.3459 372.071 80.3459C374.728 80.3459 376.89 82.5079 376.89 85.1649C376.89 87.8219 374.728 89.9839 372.071 89.9839C369.414 89.9839 367.252 87.8219 367.252 85.1649ZM367.517 85.1649C367.517 87.6759 369.56 89.7189 372.071 89.7189C374.582 89.7189 376.625 87.6759 376.625 85.1649C376.625 82.6539 374.582 80.6109 372.071 80.6109C369.56 80.6109 367.517 82.6539 367.517 85.1649Z" fill="#DDE7FE"/>
<path d="M369.297 85.1211C369.297 83.6161 370.522 82.3911 372.027 82.3911C373.532 82.3911 374.757 83.6161 374.757 85.1211C374.757 86.6261 373.532 87.8511 372.027 87.8511C370.522 87.8511 369.297 86.6261 369.297 85.1211ZM369.447 85.1211C369.447 86.5431 370.604 87.7011 372.027 87.7011C373.449 87.7011 374.607 86.5441 374.607 85.1211C374.607 83.6981 373.45 82.5411 372.027 82.5411C370.604 82.5411 369.447 83.6981 369.447 85.1211Z" fill="#DDE7FE"/>
<path d="M374.779 81.7939C375.072 81.7939 375.31 81.5562 375.31 81.2629C375.31 80.9697 375.072 80.7319 374.779 80.7319C374.486 80.7319 374.248 80.9697 374.248 81.2629C374.248 81.5562 374.486 81.7939 374.779 81.7939Z" fill="#DDE7FE"/>
<path d="M367.584 86.7341C367.877 86.7341 368.114 86.4968 368.114 86.2041C368.114 85.9114 367.877 85.6741 367.584 85.6741C367.291 85.6741 367.054 85.9114 367.054 86.2041C367.054 86.4968 367.291 86.7341 367.584 86.7341Z" fill="#DDE7FE"/>
<path d="M356.914 93.525C356.914 92.122 358.056 90.98 359.459 90.98C360.862 90.98 362.004 92.122 362.004 93.525C362.004 94.928 360.862 96.07 359.459 96.07C358.056 96.07 356.914 94.928 356.914 93.525ZM357.054 93.525C357.054 94.851 358.133 95.93 359.459 95.93C360.785 95.93 361.864 94.851 361.864 93.525C361.864 92.199 360.785 91.12 359.459 91.12C358.133 91.12 357.054 92.199 357.054 93.525Z" fill="#DDE7FE"/>
<path d="M357.994 93.5011C357.994 92.7061 358.641 92.0591 359.435 92.0591C360.23 92.0591 360.876 92.7061 360.876 93.5011C360.876 94.2961 360.229 94.9431 359.435 94.9431C358.64 94.9431 357.994 94.2961 357.994 93.5011ZM358.073 93.5011C358.073 94.2521 358.684 94.8631 359.435 94.8631C360.186 94.8631 360.797 94.2521 360.797 93.5011C360.797 92.7501 360.186 92.1391 359.435 92.1391C358.684 92.1391 358.073 92.7501 358.073 93.5011Z" fill="#DDE7FE"/>
<path d="M360.889 91.7441C361.044 91.7441 361.169 91.6187 361.169 91.4641C361.169 91.3094 361.044 91.1841 360.889 91.1841C360.734 91.1841 360.609 91.3094 360.609 91.4641C360.609 91.6187 360.734 91.7441 360.889 91.7441Z" fill="#DDE7FE"/>
<path d="M357.089 94.353C357.244 94.353 357.369 94.2276 357.369 94.073C357.369 93.9183 357.244 93.793 357.089 93.793C356.934 93.793 356.809 93.9183 356.809 94.073C356.809 94.2276 356.934 94.353 357.089 94.353Z" fill="#DDE7FE"/>
<path d="M376.418 91.564H369.676V91.877H376.418V91.564Z" fill="#DDE7FE"/>
<path d="M376.418 92.2761H372.666V92.5891H376.418V92.2761Z" fill="#DDE7FE"/>
<path d="M372.118 92.2761H368.366V92.5891H372.118V92.2761Z" fill="#DDE7FE"/>
<path d="M369.191 91.564H365.532V91.877H369.191V91.564Z" fill="#DDE7FE"/>
<path d="M376.418 93.9102H369.676V94.2232H376.418V93.9102Z" fill="#DDE7FE"/>
<path d="M376.418 94.6221H372.666V94.9351H376.418V94.6221Z" fill="#DDE7FE"/>
<path d="M372.118 94.6221H368.366V94.9351H372.118V94.6221Z" fill="#DDE7FE"/>
<path d="M369.191 93.9102H365.532V94.2232H369.191V93.9102Z" fill="#DDE7FE"/>
<path d="M376.497 96.0471H369.755V96.3601H376.497V96.0471Z" fill="#DDE7FE"/>
<path d="M376.496 96.759H372.745V97.072H376.496V96.759Z" fill="#DDE7FE"/>
<path d="M372.196 96.759H368.444V97.072H372.196V96.759Z" fill="#DDE7FE"/>
<path d="M369.27 96.0471H365.611V96.3601H369.27V96.0471Z" fill="#DDE7FE"/>
<path d="M364.871 80.728H358.129V81.041H364.871V80.728Z" fill="#DDE7FE"/>
<path d="M364.871 81.4399H361.119V81.7529H364.871V81.4399Z" fill="#DDE7FE"/>
<path d="M360.571 81.4399H356.819V81.7529H360.571V81.4399Z" fill="#DDE7FE"/>
<path d="M357.644 80.728H353.985V81.041H357.644V80.728Z" fill="#DDE7FE"/>
<path d="M364.871 83.073H358.129V83.386H364.871V83.073Z" fill="#DDE7FE"/>
<path d="M364.871 83.7861H361.119V84.0991H364.871V83.7861Z" fill="#DDE7FE"/>
<path d="M360.571 83.7861H356.819V84.0991H360.571V83.7861Z" fill="#DDE7FE"/>
<path d="M357.644 83.073H353.985V83.386H357.644V83.073Z" fill="#DDE7FE"/>
<path d="M364.949 85.21H358.207V85.5229H364.949V85.21Z" fill="#DDE7FE"/>
<path d="M364.949 85.9231H361.197V86.2361H364.949V85.9231Z" fill="#DDE7FE"/>
<path d="M360.648 85.9231H356.897V86.2361H360.648V85.9231Z" fill="#DDE7FE"/>
<path d="M357.722 85.21H354.063V85.5229H357.722V85.21Z" fill="#DDE7FE"/>
<path d="M610.766 282.56V277.093C610.766 273.945 609.197 271.066 606.711 269.651L489.371 202.862C488.343 202.277 487.208 201.972 486.058 201.972H413.142C409.073 201.972 405.774 205.702 405.774 210.304C405.774 214.905 409.073 218.635 413.142 218.635H483.583C484.826 218.635 486.049 218.991 487.138 219.669L599.843 289.858C604.753 292.916 610.766 288.899 610.766 282.56Z" fill="#455A64"/>
<path d="M478.016 213.41H249.819V289.87H478.016V213.41Z" fill="#455A64"/>
<path d="M525.49 228.174H360.116V243.598H525.49V228.174Z" fill="#DBD6DC"/>
<path d="M501.688 213.41H333.001V228.834H501.688V213.41Z" fill="#F4F5FA"/>
<path d="M550.409 243.598H386.376V259.022H550.409V243.598Z" fill="#F4F5FA"/>
<path d="M575.921 259.023H417.222V274.447H575.921V259.023Z" fill="#DBD6DC"/>
<path d="M603.566 274.447H439.466V289.871H603.566V274.447Z" fill="#F4F5FA"/>
<path d="M351.627 213.41C351.992 213.41 352.305 213.125 352.367 212.737L355.994 189.927L361.211 157.122L362.67 147.949L358.954 147.831L358.309 153.156L353.782 190.579L351.098 212.761C351.058 213.105 351.305 213.41 351.627 213.41Z" fill="#455A64"/>
<path d="M358.309 153.156C360.717 154.334 361.211 157.122 361.211 157.122L362.67 147.949L358.954 147.831L358.309 153.156Z" fill="#455A64"/>
<path d="M467.591 213.41C467.226 213.41 466.913 213.125 466.851 212.737L463.224 189.927L458.007 157.122L456.548 147.949L460.264 147.831L460.909 153.156L465.436 190.579L468.12 212.761C468.16 213.105 467.913 213.41 467.591 213.41Z" fill="#455A64"/>
<path d="M460.908 153.156C458.501 154.334 458.006 157.122 458.006 157.122L456.547 147.949L460.263 147.831L460.908 153.156Z" fill="#455A64"/>
<path d="M351.508 151.216H476.704C477.804 151.216 478.704 150.316 478.704 149.216V147.346C478.704 146.246 477.804 145.346 476.704 145.346H351.508C350.408 145.346 349.508 146.246 349.508 147.346V149.217C349.508 150.316 350.408 151.216 351.508 151.216Z" fill="#455A64"/>
<path d="M372.87 142.056C372.87 142.056 367.097 140.714 365.621 142.056C364.144 143.399 363.674 145.345 363.674 145.345H372.87V142.056Z" fill="#DE9C85"/>
<path d="M435.088 120.287C435.088 120.287 443.352 127.02 444.963 136.954C446.574 146.888 426.834 145.277 426.834 145.277L435.088 120.287Z" fill="#455A64"/>
<path d="M394.411 213.39H408.429C409.393 213.302 409.48 208.002 409.48 206.688C409.48 206.513 409.48 206.425 409.48 206.425C409.48 206.425 405.45 203.139 404.136 206.206C404.048 206.381 404.004 206.556 403.873 206.687C402.471 209.316 399.317 210.718 397.389 211.068C397.083 211.112 396.82 211.199 396.557 211.331C395.375 211.901 394.674 212.952 394.411 213.39Z" fill="#A45A3F"/>
<path d="M382.583 213.39H396.032C396.251 212.952 396.426 212.207 396.557 211.331C396.82 209.754 396.995 207.695 397.039 206.687C397.083 206.294 397.083 206.03 397.083 206.03C397.083 206.03 393.096 203.008 391.739 206.293C391.695 206.424 391.607 206.555 391.52 206.686C390.206 209.49 386.964 211.023 384.993 211.417C383.59 211.682 382.89 212.733 382.583 213.39Z" fill="#B2644B"/>
<path d="M436.274 159.374C436.593 159.642 440.211 169.711 439.998 176.424H412.335C412.335 176.424 401.336 175.639 401.124 177.567C400.911 179.495 401.249 191.914 397.632 206.681L391.487 206.691C391.487 206.691 385.509 176.839 390.274 169.119C391.788 166.666 413.913 160.869 419.592 160.18C425.269 159.491 436.274 159.374 436.274 159.374Z" fill="#F4F5FA"/>
<path d="M442.278 159.374C442.597 159.642 446.305 170.517 441.607 176.424H424.315C424.315 176.424 415.394 178.018 415.181 179.946C414.968 181.874 413.506 191.924 409.889 206.691H403.501C403.501 206.691 401.161 171.446 402.864 169.119C404.566 166.792 425.893 160.869 431.571 160.18C437.249 159.491 442.278 159.374 442.278 159.374Z" fill="#F4F5FA"/>
<path d="M425.03 118.552L420.881 121.272L414.885 120.154C414.968 119.67 415.364 117.664 415.724 115.847C415.746 115.74 415.768 115.633 415.788 115.528C416.097 113.982 416.363 112.654 416.363 112.654L421.963 110.183L424.051 109.262C424.045 109.295 423.889 110.978 423.867 111.224C423.477 115.588 425.03 118.552 425.03 118.552Z" fill="#DE9C85"/>
<path d="M414.253 112.314C414.253 112.314 423.274 115.128 424.939 109.483C426.605 103.839 428.891 100.4 423.202 98.3651C417.513 96.3301 415.753 98.1521 414.739 99.9011C413.726 101.649 411.95 111.436 414.253 112.314Z" fill="#DE9C85"/>
<path d="M415.094 99.357C415.094 99.357 415.669 105.925 417.028 105.64C418.386 105.355 419.618 105.143 419.419 107.123C419.22 109.103 417.336 111.389 421.523 111.74C425.709 112.09 431.727 101.294 430.577 99.25C427.259 93.352 410.298 92.162 415.094 99.357Z" fill="#263238"/>
<path d="M416.421 117.179C416.537 117.13 423.136 114.17 423.908 114.425C424.68 114.68 425.642 117.037 425.642 117.037L414.023 119.664C414.022 119.664 414.937 117.805 416.421 117.179Z" fill="#DBD6DC"/>
<path d="M406.16 125.926C406.16 125.926 406.583 130.855 407.216 140.443C407.25 140.965 407.284 141.51 407.318 142.073C407.721 148.541 408.17 157.282 409.427 163.097C410.057 166.016 410.892 168.196 412.025 168.983C415.617 171.476 440.857 171.811 443.529 168.012C446.203 164.213 437.249 123.891 436.266 121.483C435.281 119.072 425.642 117.037 425.642 117.037C425.642 117.037 418.22 118.715 414.021 119.663C409.825 120.614 406.16 125.926 406.16 125.926Z" fill="#F4F5FA"/>
<path d="M402.758 186.627H444.989C446.469 186.627 447.68 185.416 447.68 183.936V179.116C447.68 177.636 446.469 176.425 444.989 176.425H402.758C401.278 176.425 400.067 177.636 400.067 179.116V183.936C400.067 185.416 401.278 186.627 402.758 186.627Z" fill="#21B6B2"/>
<path d="M427.043 186.627H423.971V212.398H427.043V186.627Z" fill="#F4F5FA"/>
<path d="M414.022 119.664C414.022 119.664 407.473 120.375 403.78 126.483C401.496 130.26 394.955 138.901 390.659 139.169C386.363 139.437 372.871 142.055 372.871 142.055V145.374L393.44 145.938C393.692 145.945 393.941 145.926 394.189 145.879C396.387 145.464 407.559 143.239 409.253 140.578C411.132 137.626 414.022 119.664 414.022 119.664Z" fill="#F4F5FA"/>
<path d="M440.101 212.076H412.415V213.39H440.101V212.076Z" fill="#F4F5FA"/>
<path d="M412.334 176.424L419.832 126.531C419.832 126.531 420.324 123.657 421.601 118.936C422.491 115.644 428.385 114.409 435.945 114.409C452.182 114.409 454.926 117.445 454.642 122.555C454.358 127.666 447.681 179.114 447.681 179.114L412.334 176.424Z" fill="#21B6B2"/>
<path d="M407.318 142.073C407.721 148.541 408.17 157.282 409.427 163.097C411.344 162.941 410.634 160.601 410.205 158.614C409.773 156.626 411.108 145.176 412.334 142.073C413.561 138.972 413.095 138.172 412.334 138.93C411.574 139.685 407.318 142.073 407.318 142.073Z" fill="#DBD6DC"/>
<path d="M431.574 186.627H419.436V189.965H431.574V186.627Z" fill="#F4F5FA"/>
<path d="M115.515 0.333031C115.515 0.333031 132.794 18.532 155.743 25.377C178.692 32.222 164.732 67.079 184.249 66.736C203.766 66.392 204.887 85.426 204.887 85.426L204.89 85.42L212.877 32.622C215.574 14.789 203.303 0.332031 185.47 0.332031H115.515V0.333031Z" fill="#2E262A"/>
<path d="M303.9 122.695C303.9 122.695 302.82 125.536 304.48 129.382L307.529 128.914C307.529 128.914 306.653 124.055 307.722 122.465C308.793 120.874 303.9 122.695 303.9 122.695Z" fill="#455A64"/>
<path d="M307.874 148.676C307.874 148.676 308.658 150.694 309.111 150.545C309.564 150.397 309.677 148.558 309.347 148.213C309.016 147.868 307.832 147.891 307.874 148.676Z" fill="#455A64"/>
<path d="M310.015 148.318C310.011 148.83 310.006 149.119 310.006 149.119C308.602 150.58 307.429 148.928 307.429 148.928C307.429 148.928 302.946 136.306 302.548 132.153C302.15 127.999 303.696 126.228 307.04 126.748C307.07 126.753 307.097 126.758 307.125 126.767C310.002 127.537 310.043 144.415 310.015 148.318Z" fill="#2AD3CB"/>
<path d="M310.015 148.318C309.237 146.095 305.637 135.666 305.283 131.963C305.012 129.135 305.641 127.412 307.125 126.767C310.002 127.537 310.043 144.415 310.015 148.318Z" fill="#21B6B2"/>
<path d="M310.428 149.718C310.428 149.718 312.607 150.766 312.77 151.353C312.932 151.941 310.573 150.809 310.283 150.296C309.992 149.785 310.428 149.718 310.428 149.718Z" fill="#455A64"/>
<path d="M310.41 149.721C310.41 149.721 308.464 150.027 307.842 150.672C307.22 151.316 307.54 154.103 308.468 154.585C309.396 155.068 311.808 154.036 312.054 153.758C312.299 153.48 312.512 151.994 310.41 149.721Z" fill="#2AD3CB"/>
<path d="M301.04 125.089C301.04 125.089 290.537 98.2991 296.279 95.6601C299.566 94.1491 308.84 113.89 308.494 119.195C308.148 124.5 302.391 130.205 301.04 125.089Z" fill="#DBD6DC"/>
<path d="M291.369 171.459C291.369 171.459 292.832 176.724 292.306 178.273C291.78 179.822 291.061 184.445 291.061 184.445C291.061 184.445 298.468 180.465 298.753 179.53C299.037 178.595 298.959 172.4 296.941 170.505C294.923 168.609 291.369 171.459 291.369 171.459Z" fill="#455A64"/>
<path d="M295.567 210.539C295.567 210.539 296.492 213.987 297.207 214.111C297.922 214.235 299.774 213.963 299.33 213.472C297.201 211.12 297.334 207.97 297.334 207.97L295.567 210.539Z" fill="#A1BACE"/>
<path d="M300.18 177.592C300.681 179.743 300.044 190.415 298.947 199.252C298.104 206.051 296.99 211.765 295.911 211.677C293.431 211.477 290.025 187.159 290.598 183.068C290.598 183.068 291.503 182.103 292.759 180.922C295.396 178.441 299.58 175.012 300.18 177.592Z" fill="#2AD3CB"/>
<path d="M294.643 215.804C294.643 215.804 295.875 212.674 297.333 212.236C298.791 211.798 301.665 213.884 302.368 213.995C303.071 214.106 305.56 214.425 305.295 215.763L294.643 215.804Z" fill="#455A64"/>
<path d="M300.18 177.592C300.681 179.743 300.044 190.415 298.947 199.252C295.647 194.683 293.606 185.462 292.759 180.922C295.396 178.441 299.58 175.012 300.18 177.592Z" fill="#21B6B2"/>
<path d="M298.913 135.092C302.227 146.28 300.291 163.829 299.264 168.897C299.258 168.931 299.25 168.965 299.243 168.998C298.12 174.423 296.886 175.353 293.452 174.289C290.019 173.223 276.649 144.732 283.235 134.527C286.22 129.903 289.477 128.933 292.15 129.258C292.673 129.321 293.178 129.435 293.665 129.597C296.173 130.426 298.143 132.493 298.913 135.092Z" fill="#2AD3CB"/>
<path d="M298.913 135.092C302.227 146.28 300.291 163.829 299.264 168.897C294.31 161.139 286.294 140.481 291.693 132.114C292.34 131.11 293 130.28 293.664 129.597C296.173 130.426 298.143 132.493 298.913 135.092Z" fill="#2AD3CB"/>
<path d="M290.099 145.836C293.512 145.836 296.278 143.07 296.278 139.657C296.278 136.244 293.512 133.478 290.099 133.478C286.686 133.478 283.92 136.244 283.92 139.657C283.92 143.07 286.686 145.836 290.099 145.836Z" fill="#2AD3CB"/>
<path d="M289.719 145.493C292.954 145.493 295.577 142.87 295.577 139.635C295.577 136.4 292.954 133.777 289.719 133.777C286.484 133.777 283.861 136.4 283.861 139.635C283.861 142.87 286.484 145.493 289.719 145.493Z" fill="#2AD3CB"/>
<path d="M284.755 96.0491C284.772 96.0321 286.473 94.3681 286.598 93.2111C286.641 92.8111 286.746 90.1021 286.701 88.7301L286.915 88.7261C286.92 88.8891 287.046 92.7271 286.989 93.2541C286.849 94.5511 284.829 95.9771 284.755 96.0491Z" fill="#455A64"/>
<path d="M290.444 95.66L290.286 95.532C290.296 95.519 291.308 94.261 291.477 93.477C291.612 92.853 290.907 91.106 290.561 90.566L290.729 90.563C290.865 90.776 292.055 92.666 291.863 93.56C291.674 94.436 290.488 95.605 290.444 95.66Z" fill="#455A64"/>
<path d="M280.833 119.822C280.833 119.822 287.057 132.087 287.164 143.407L296.583 138.354C296.583 138.354 298.617 133.177 300.558 122.084C301.29 117.908 280.833 119.822 280.833 119.822Z" fill="#455A64"/>
<path d="M287.004 90.0781C287.004 90.0781 288.052 93.9391 286.07 96.6861L290.089 95.7521C290.089 95.7521 291.02 91.5021 290.317 89.9511C289.614 88.4011 287.004 90.0781 287.004 90.0781Z" fill="#21B6B2"/>
<path d="M294.016 90.968C294.016 90.968 294.015 90.968 294.013 90.968C293.985 90.973 293.807 91.005 293.521 91.041C291.747 91.272 285.776 91.713 285.046 87.407C284.935 86.753 284.81 86.1309 284.692 85.54C284.692 85.54 284.692 85.54 284.692 85.538C283.916 81.72 283.283 79.202 287.143 78.093C287.32 78.043 287.508 77.994 287.704 77.949C287.805 77.925 287.903 77.905 288.002 77.884C288.445 77.789 288.858 77.717 289.244 77.668C293.128 77.153 294.258 78.712 294.881 80.157C295.578 81.779 296.104 90.446 294.016 90.968Z" fill="#DBD6DC"/>
<path d="M294.016 90.9679C294.016 90.9679 294.015 90.9679 294.013 90.9679C292.07 90.5509 290.184 89.4199 289.787 86.6889C289.674 85.9109 289.547 85.1719 289.426 84.4709C289.426 84.4709 289.426 84.4709 289.426 84.4689C288.919 81.5489 288.472 79.2689 289.243 77.6689C293.127 77.1539 294.257 78.7129 294.88 80.1579C295.578 81.7789 296.104 90.4459 294.016 90.9679Z" fill="#F4F5FA"/>
<path d="M286.848 83.277C285.583 83.761 284.726 85.471 284.691 85.539C283.915 81.721 283.282 79.203 287.142 78.094V78.096C287.142 78.096 285.917 78.637 286.573 79.916C287.232 81.195 288.138 82.783 286.848 83.277Z" fill="#21B6B2"/>
<path d="M279.263 171.067C279.263 171.067 280.343 176.424 279.708 177.931C279.073 179.438 278.023 183.998 278.023 183.998C278.023 183.998 285.697 180.561 286.048 179.648C286.399 178.735 286.766 172.551 284.889 170.516C283.012 168.48 279.263 171.067 279.263 171.067Z" fill="#455A64"/>
<path d="M280.642 210.347C280.642 210.347 281.317 213.853 282.021 214.028C282.725 214.202 284.592 214.065 284.184 213.543C282.23 211.044 282.589 207.911 282.589 207.911L280.642 210.347Z" fill="#A1BACE"/>
<path d="M287.61 177.817C287.955 179.998 286.553 190.596 284.824 199.332C283.495 206.053 281.973 211.672 280.903 211.507C278.444 211.13 276.795 186.629 277.66 182.59C277.66 182.59 278.631 181.692 279.969 180.604C282.778 178.32 287.197 175.201 287.61 177.817Z" fill="#2AD3CB"/>
<path d="M279.434 215.843C279.434 215.843 280.711 212.732 282.175 212.314C283.64 211.897 286.483 214.024 287.185 214.146C287.887 214.267 290.37 214.622 290.086 215.956L279.434 215.843Z" fill="#455A64"/>
<path d="M287.61 177.817C287.955 179.998 286.553 190.596 284.824 199.332C281.861 194.538 280.488 185.193 279.969 180.605C282.778 178.32 287.197 175.201 287.61 177.817Z" fill="#21B6B2"/>
<path d="M296.823 138.108C296.808 149.777 289.947 166.044 287.517 170.609C287.501 170.64 287.484 170.671 287.468 170.7C284.844 175.579 283.396 176.119 280.408 174.119C277.422 172.118 272.733 140.997 281.956 133.095C286.136 129.514 289.535 129.514 292.004 130.587C292.487 130.796 292.939 131.05 293.359 131.344C295.528 132.854 296.826 135.398 296.823 138.108Z" fill="#21B6B2"/>
<path d="M296.823 138.108C296.808 149.777 289.947 166.044 287.517 170.609C284.981 161.76 283.191 139.674 290.752 133.194C291.659 132.416 292.528 131.809 293.359 131.344C295.528 132.854 296.826 135.398 296.823 138.108Z" fill="#21B6B2"/>
<path d="M287.074 146.149C290.487 146.149 293.253 143.383 293.253 139.97C293.253 136.557 290.487 133.791 287.074 133.791C283.661 133.791 280.895 136.557 280.895 139.97C280.895 143.383 283.661 146.149 287.074 146.149Z" fill="#2AD3CB"/>
<path d="M286.715 145.698C289.95 145.698 292.573 143.075 292.573 139.84C292.573 136.605 289.95 133.982 286.715 133.982C283.48 133.982 280.857 136.605 280.857 139.84C280.857 143.075 283.48 145.698 286.715 145.698Z" fill="#2AD3CB"/>
<path d="M302.705 123.108C302.033 127.46 299.378 122.867 297.849 123.969C296.759 124.757 295.245 125.408 293.53 125.905C289.259 127.144 283.749 127.428 280.467 126.468C279.362 126.146 278.743 121.284 278.49 118.1C278.393 116.867 278.351 115.886 278.357 115.516C278.407 112.589 278.925 106.989 279.697 102.53C280.318 98.943 281.107 96.093 281.952 95.973C281.952 95.973 296.108 93.674 299.063 96.637C302.017 99.6 303.379 118.757 302.705 123.108Z" fill="#F4F5FA"/>
<path d="M293.53 125.906C289.259 127.145 283.749 127.429 280.467 126.469C279.362 126.147 278.743 121.285 278.49 118.101C278.296 112.458 277.151 110.825 280.588 103.733C280.588 103.733 294.664 101.39 295.744 110.797C296.389 116.388 296.272 122.181 293.53 125.906Z" fill="#DBD6DC"/>
<path d="M296.276 97.3171C296.276 97.3171 290.525 97.2401 290.064 97.4341C289.603 97.6281 296.33 102.929 297.162 102.809C297.995 102.688 297.329 97.7901 296.276 97.3171Z" fill="#2AD3CB"/>
<path d="M271.075 120.113C271.075 120.113 269.578 122.758 270.637 126.811L273.722 126.81C273.722 126.81 273.59 121.875 274.889 120.464C276.186 119.054 271.075 120.113 271.075 120.113Z" fill="#455A64"/>
<path d="M271.073 146.397C271.073 146.397 271.543 148.51 272.013 148.432C272.483 148.353 272.873 146.553 272.599 146.162C272.325 145.77 271.151 145.615 271.073 146.397Z" fill="#455A64"/>
<path d="M273.244 146.366C273.163 146.872 273.115 147.157 273.115 147.157C271.506 148.389 270.596 146.579 270.596 146.579C270.596 146.579 268.074 133.424 268.308 129.259C268.543 125.092 270.339 123.576 273.565 124.596C273.593 124.605 273.62 124.615 273.646 124.627C276.374 125.823 273.863 142.513 273.244 146.366Z" fill="#2AD3CB"/>
<path d="M273.244 146.366C272.811 144.051 270.83 133.197 271.039 129.484C271.199 126.648 272.081 125.04 273.646 124.626C276.374 125.823 273.863 142.513 273.244 146.366Z" fill="#21B6B2"/>
<path d="M273.441 147.813C273.441 147.813 275.437 149.178 275.508 149.784C275.58 150.39 273.419 148.913 273.209 148.363C273 147.813 273.441 147.813 273.441 147.813Z" fill="#455A64"/>
<path d="M273.423 147.813C273.423 147.813 271.452 147.822 270.74 148.364C270.028 148.907 269.922 151.71 270.767 152.327C271.611 152.944 274.152 152.289 274.437 152.051C274.721 151.814 275.157 150.378 273.423 147.813Z" fill="#2AD3CB"/>
<path d="M267.098 120.592C267.098 120.592 275.654 96.522 281.954 96.019C288.254 95.517 280.221 116.841 276.6 120.734C272.979 124.627 264.912 125.41 267.098 120.592Z" fill="#F4F5FA"/>
<path opacity="0.5" d="M148.997 205.125H107.474C105.797 205.125 104.437 203.765 104.437 202.088V170.792C104.437 169.115 105.797 167.755 107.474 167.755H148.997C150.674 167.755 152.033 169.114 152.033 170.791V202.087C152.034 203.765 150.674 205.125 148.997 205.125Z" fill="#DDE7FE"/>
<path d="M115.72 188.291C111.134 188.291 107.403 184.56 107.403 179.974C107.403 175.388 111.134 171.657 115.72 171.657C120.306 171.657 124.037 175.388 124.037 179.974C124.037 184.56 120.306 188.291 115.72 188.291ZM115.72 172.114C111.386 172.114 107.86 175.64 107.86 179.974C107.86 184.308 111.386 187.834 115.72 187.834C120.054 187.834 123.58 184.308 123.58 179.974C123.579 175.64 120.053 172.114 115.72 172.114Z" fill="#DDE7FE"/>
<path d="M115.796 184.609C113.198 184.609 111.084 182.495 111.084 179.897C111.084 177.299 113.198 175.185 115.796 175.185C118.394 175.185 120.508 177.299 120.508 179.897C120.508 182.495 118.394 184.609 115.796 184.609ZM115.796 175.445C113.341 175.445 111.344 177.442 111.344 179.897C111.344 182.352 113.341 184.349 115.796 184.349C118.251 184.349 120.248 182.352 120.248 179.897C120.248 177.442 118.251 175.445 115.796 175.445Z" fill="#DDE7FE"/>
<path d="M111.046 174.155C111.552 174.155 111.962 173.745 111.962 173.239C111.962 172.733 111.552 172.323 111.046 172.323C110.54 172.323 110.13 172.733 110.13 173.239C110.13 173.745 110.54 174.155 111.046 174.155Z" fill="#DDE7FE"/>
<path d="M123.465 182.682C123.971 182.682 124.381 182.272 124.381 181.766C124.381 181.26 123.971 180.85 123.465 180.85C122.959 180.85 122.549 181.26 122.549 181.766C122.549 182.272 122.959 182.682 123.465 182.682Z" fill="#DDE7FE"/>
<path d="M137.487 198.793C135.065 198.793 133.095 196.823 133.095 194.401C133.095 191.979 135.065 190.009 137.487 190.009C139.909 190.009 141.879 191.979 141.879 194.401C141.88 196.823 139.909 198.793 137.487 198.793ZM137.487 190.25C135.199 190.25 133.337 192.112 133.337 194.4C133.337 196.689 135.199 198.55 137.487 198.55C139.776 198.55 141.637 196.688 141.637 194.4C141.638 192.112 139.776 190.25 137.487 190.25Z" fill="#DDE7FE"/>
<path d="M137.528 196.849C136.156 196.849 135.04 195.733 135.04 194.361C135.04 192.989 136.156 191.873 137.528 191.873C138.9 191.873 140.016 192.989 140.016 194.361C140.016 195.732 138.9 196.849 137.528 196.849ZM137.528 192.009C136.231 192.009 135.177 193.064 135.177 194.36C135.177 195.657 136.232 196.711 137.528 196.711C138.824 196.711 139.879 195.656 139.879 194.36C139.879 193.064 138.824 192.009 137.528 192.009Z" fill="#DDE7FE"/>
<path d="M135.019 191.328C135.286 191.328 135.502 191.112 135.502 190.845C135.502 190.578 135.286 190.362 135.019 190.362C134.752 190.362 134.536 190.578 134.536 190.845C134.536 191.112 134.752 191.328 135.019 191.328Z" fill="#DDE7FE"/>
<path d="M141.577 195.832C141.844 195.832 142.061 195.615 142.061 195.348C142.061 195.081 141.844 194.864 141.577 194.864C141.31 194.864 141.093 195.081 141.093 195.348C141.093 195.615 141.31 195.832 141.577 195.832Z" fill="#DDE7FE"/>
<path d="M119.853 191.017H108.218V191.557H119.853V191.017Z" fill="#DDE7FE"/>
<path d="M114.693 192.246H108.218V192.786H114.693V192.246Z" fill="#DDE7FE"/>
<path d="M122.115 192.246H115.64V192.786H122.115V192.246Z" fill="#DDE7FE"/>
<path d="M127.005 191.017H120.69V191.557H127.005V191.017Z" fill="#DDE7FE"/>
<path d="M119.853 195.065H108.218V195.605H119.853V195.065Z" fill="#DDE7FE"/>
<path d="M114.693 196.295H108.218V196.835H114.693V196.295Z" fill="#DDE7FE"/>
<path d="M122.115 196.295H115.64V196.835H122.115V196.295Z" fill="#DDE7FE"/>
<path d="M127.005 195.065H120.69V195.605H127.005V195.065Z" fill="#DDE7FE"/>
<path d="M119.718 198.754H108.083V199.294H119.718V198.754Z" fill="#DDE7FE"/>
<path d="M114.558 199.983H108.083V200.523H114.558V199.983Z" fill="#DDE7FE"/>
<path d="M121.98 199.983H115.505V200.523H121.98V199.983Z" fill="#DDE7FE"/>
<path d="M126.871 198.754H120.556V199.294H126.871V198.754Z" fill="#DDE7FE"/>
<path d="M139.782 172.315H128.147V172.855H139.782V172.315Z" fill="#DDE7FE"/>
<path d="M134.622 173.544H128.147V174.084H134.622V173.544Z" fill="#DDE7FE"/>
<path d="M142.044 173.544H135.569V174.084H142.044V173.544Z" fill="#DDE7FE"/>
<path d="M146.934 172.315H140.619V172.855H146.934V172.315Z" fill="#DDE7FE"/>
<path d="M139.782 176.363H128.147V176.903H139.782V176.363Z" fill="#DDE7FE"/>
<path d="M134.622 177.592H128.147V178.132H134.622V177.592Z" fill="#DDE7FE"/>
<path d="M142.044 177.592H135.569V178.132H142.044V177.592Z" fill="#DDE7FE"/>
<path d="M146.934 176.363H140.619V176.903H146.934V176.363Z" fill="#DDE7FE"/>
<path d="M139.647 180.052H128.012V180.592H139.647V180.052Z" fill="#DDE7FE"/>
<path d="M134.487 181.281H128.012V181.821H134.487V181.281Z" fill="#DDE7FE"/>
<path d="M141.909 181.281H135.434V181.821H141.909V181.281Z" fill="#DDE7FE"/>
<path d="M146.799 180.052H140.484V180.592H146.799V180.052Z" fill="#DDE7FE"/>
<path d="M96.343 289.871C96.708 289.871 97.021 289.586 97.083 289.198L100.71 266.388L105.927 233.583L107.386 224.41L103.67 224.292L103.025 229.617L98.498 267.04L95.814 289.222C95.773 289.566 96.021 289.871 96.343 289.871Z" fill="#455A64"/>
<path d="M103.025 229.617C105.433 230.796 105.927 233.583 105.927 233.583L107.386 224.41L103.67 224.292L103.025 229.617Z" fill="#455A64"/>
<path d="M212.306 289.871C211.941 289.871 211.628 289.586 211.566 289.198L207.939 266.388L202.722 233.583L201.263 224.41L204.979 224.292L205.624 229.617L210.151 267.04L212.835 289.222C212.876 289.566 212.628 289.871 212.306 289.871Z" fill="#455A64"/>
<path d="M205.624 229.617C203.217 230.796 202.722 233.583 202.722 233.583L201.263 224.41L204.979 224.292L205.624 229.617Z" fill="#455A64"/>
<path d="M96.224 227.676H221.42C222.52 227.676 223.42 226.776 223.42 225.676V223.806C223.42 222.706 222.52 221.806 221.42 221.806H96.224C95.124 221.806 94.224 222.706 94.224 223.806V225.677C94.224 226.776 95.124 227.676 96.224 227.676Z" fill="#455A64"/>
<path d="M117.586 218.516C117.586 218.516 111.813 217.173 110.337 218.516C108.86 219.859 108.39 221.805 108.39 221.805H117.586V218.516Z" fill="#DE9C85"/>
<path d="M179.803 196.748C179.803 196.748 188.067 203.481 189.678 213.415C191.289 223.349 171.548 221.738 171.548 221.738L179.803 196.748Z" fill="#455A64"/>
<path d="M154.186 282.96C154.186 282.96 153.813 290.11 152.696 290.201C152.547 290.213 147.027 290.201 147.027 290.201L139.596 290.209C139.596 290.209 140.031 288.229 142.091 287.829C144.152 287.429 147.603 285.808 148.858 282.746C150.177 279.526 154.186 282.96 154.186 282.96Z" fill="#2E262A"/>
<path d="M141.835 282.484C141.835 282.484 141.462 290.114 140.344 290.205C140.195 290.217 134.675 290.205 134.675 290.205L127.374 290.214C127.374 290.214 127.679 288.233 129.739 287.834C131.8 287.434 135.251 285.813 136.505 282.751C137.826 279.529 141.835 282.484 141.835 282.484Z" fill="#42393D"/>
<path d="M180.989 235.834C181.308 236.102 184.926 246.171 184.713 252.884H157.049C157.049 252.884 146.051 252.099 145.838 254.027C145.625 255.955 145.963 268.374 142.346 283.141L136.201 283.151C136.201 283.151 130.223 253.299 134.988 245.579C136.502 243.126 158.627 237.329 164.305 236.64C169.985 235.951 180.989 235.834 180.989 235.834Z" fill="#F4F5FA"/>
<path d="M186.993 235.834C187.312 236.102 191.021 246.977 186.322 252.884H169.03C169.03 252.884 160.109 254.478 159.896 256.406C159.683 258.334 158.221 268.384 154.604 283.151H148.216C148.216 283.151 145.876 247.906 147.579 245.579C149.281 243.252 170.608 237.329 176.286 236.64C181.965 235.951 186.993 235.834 186.993 235.834Z" fill="#F4F5FA"/>
<path d="M169.746 195.012L165.597 197.732L159.601 196.614C159.684 196.13 160.08 194.124 160.44 192.307C160.462 192.2 160.483 192.093 160.504 191.988C160.813 190.442 161.08 189.114 161.08 189.114L166.68 186.643L168.768 185.722C168.762 185.755 168.606 187.438 168.584 187.684C168.192 192.048 169.746 195.012 169.746 195.012Z" fill="#DE9C85"/>
<path d="M158.969 188.774C158.969 188.774 167.989 191.588 169.655 185.943C171.321 180.298 173.607 176.86 167.918 174.825C162.229 172.79 160.469 174.612 159.455 176.361C158.441 178.11 156.665 187.897 158.969 188.774Z" fill="#DE9C85"/>
<path d="M159.81 175.817C159.81 175.817 160.385 182.385 161.744 182.1C163.102 181.815 164.334 181.603 164.136 183.583C163.937 185.563 162.053 187.849 166.24 188.2C170.426 188.55 176.444 177.754 175.294 175.71C171.975 169.812 155.014 168.622 159.81 175.817Z" fill="#263238"/>
<path d="M161.137 193.64C161.253 193.591 167.852 190.631 168.624 190.886C169.396 191.141 170.358 193.498 170.358 193.498L158.738 196.125C158.738 196.124 159.652 194.265 161.137 193.64Z" fill="#EAC5A4"/>
<path d="M150.876 202.386C150.876 202.386 151.299 207.315 151.932 216.903C151.966 217.425 152 217.97 152.034 218.533C152.437 225.001 152.886 233.742 154.143 239.557C154.774 242.475 155.608 244.656 156.741 245.443C160.333 247.936 185.573 248.271 188.245 244.472C190.92 240.673 181.965 200.351 180.983 197.943C179.998 195.532 170.359 193.497 170.359 193.497C170.359 193.497 162.938 195.175 158.738 196.123C154.541 197.074 150.876 202.386 150.876 202.386Z" fill="#F4F5FA"/>
<path d="M147.474 263.087H189.705C191.185 263.087 192.396 261.876 192.396 260.396V255.576C192.396 254.096 191.185 252.885 189.705 252.885H147.474C145.994 252.885 144.783 254.096 144.783 255.576V260.396C144.783 261.876 145.994 263.087 147.474 263.087Z" fill="#21B6B2"/>
<path d="M171.758 263.087H168.686V288.858H171.758V263.087Z" fill="#42393D"/>
<path d="M158.738 196.124C158.738 196.124 152.189 196.835 148.496 202.943C146.212 206.721 139.67 215.361 135.375 215.63C131.079 215.898 117.587 218.516 117.587 218.516V221.835L138.157 222.399C138.409 222.406 138.658 222.387 138.906 222.34C141.104 221.925 152.276 219.7 153.969 217.039C155.848 214.086 158.738 196.124 158.738 196.124Z" fill="#F4F5FA"/>
<path d="M184.807 288.522H157.125V289.871H184.807V288.522Z" fill="#42393D"/>
<path d="M157.05 252.884L164.548 202.991C164.548 202.991 165.04 200.117 166.317 195.396C167.207 192.104 173.101 190.869 180.661 190.869C196.898 190.869 199.642 193.905 199.358 199.015C199.074 204.126 192.397 255.574 192.397 255.574L157.05 252.884Z" fill="#21B6B2"/>
<path d="M152.034 218.533C152.437 225.001 152.886 233.742 154.143 239.557C156.06 239.401 155.35 237.061 154.921 235.074C154.489 233.087 155.824 221.636 157.05 218.533C158.277 215.432 157.811 214.632 157.05 215.39C156.29 216.145 152.034 218.533 152.034 218.533Z" fill="#DBD6DC"/>
<path d="M176.289 263.087H164.151V264.967H176.289V263.087Z" fill="#42393D"/>
<path d="M271.358 282.62C273.194 282.62 274.682 281.132 274.682 279.296C274.682 277.46 273.194 275.972 271.358 275.972C269.522 275.972 268.034 277.46 268.034 279.296C268.034 281.132 269.522 282.62 271.358 282.62Z" fill="#E9E9E9"/>
<path d="M297.562 282.62C299.398 282.62 300.886 281.132 300.886 279.296C300.886 277.46 299.398 275.972 297.562 275.972C295.726 275.972 294.238 277.46 294.238 279.296C294.238 281.132 295.726 282.62 297.562 282.62Z" fill="#E9E9E9"/>
<path d="M326.715 282.62C328.551 282.62 330.039 281.132 330.039 279.296C330.039 277.46 328.551 275.972 326.715 275.972C324.879 275.972 323.391 277.46 323.391 279.296C323.391 281.132 324.879 282.62 326.715 282.62Z" fill="#E9E9E9"/>
<path d="M361.586 282.62C363.422 282.62 364.91 281.132 364.91 279.296C364.91 277.46 363.422 275.972 361.586 275.972C359.75 275.972 358.262 277.46 358.262 279.296C358.262 281.132 359.75 282.62 361.586 282.62Z" fill="#E9E9E9"/>
<path d="M396.277 282.62C398.113 282.62 399.601 281.132 399.601 279.296C399.601 277.46 398.113 275.972 396.277 275.972C394.441 275.972 392.953 277.46 392.953 279.296C392.953 281.132 394.441 282.62 396.277 282.62Z" fill="#E9E9E9"/>
<path d="M443.432 282.56V277.093C443.432 273.945 441.863 271.066 439.377 269.651L322.036 202.862C321.008 202.277 319.874 201.972 318.723 201.972H245.807C241.738 201.972 238.439 205.702 238.439 210.304C238.439 214.905 241.738 218.635 245.807 218.635H316.248C317.491 218.635 318.714 218.991 319.803 219.669L432.508 289.858C437.42 292.916 443.432 288.899 443.432 282.56Z" fill="#E9E9E9"/>
<path d="M433.837 281.142C434.421 281.142 434.986 280.787 435.279 280.163C435.702 279.263 435.4 278.146 434.604 277.667L319.376 208.374C319.14 208.232 318.877 208.158 318.61 208.158H249.819C248.918 208.158 248.187 208.984 248.187 210.003C248.187 211.022 248.918 211.848 249.819 211.848H318.203L433.072 280.925C433.316 281.073 433.578 281.142 433.837 281.142Z" fill="#455A64"/>
<path d="M74.757 274.149L80.967 283.291C82.679 285.812 81.327 289.825 78.765 289.825H67.718C65.323 289.825 63.919 286.259 65.292 283.663L70.129 274.521C71.222 272.456 73.483 272.274 74.757 274.149Z" fill="#21B6B2"/>
<path d="M67.356 272.856H72.716V276.278H68.481L67.356 272.856Z" fill="#21B6B2"/>
<path d="M69.507 274.149L75.244 283.291C76.826 285.812 75.577 289.825 73.209 289.825H63.003C60.79 289.825 59.493 286.259 60.762 283.663L65.231 274.521C66.24 272.456 68.33 272.274 69.507 274.149Z" fill="#2AD3CB"/>
<path d="M51.112 242.281C51.8609 242.281 52.468 241.674 52.468 240.925C52.468 240.176 51.8609 239.569 51.112 239.569C50.3631 239.569 49.756 240.176 49.756 240.925C49.756 241.674 50.3631 242.281 51.112 242.281Z" fill="#263238"/>
<path d="M51.112 240.404C51.219 240.404 51.307 240.316 51.307 240.209V234.721C51.307 234.614 51.219 234.526 51.112 234.526C51.005 234.526 50.917 234.614 50.917 234.721V240.209C50.918 240.316 51.005 240.404 51.112 240.404Z" fill="#263238"/>
<path d="M66.883 242.281C67.6319 242.281 68.239 241.674 68.239 240.925C68.239 240.176 67.6319 239.569 66.883 239.569C66.1341 239.569 65.527 240.176 65.527 240.925C65.527 241.674 66.1341 242.281 66.883 242.281Z" fill="#263238"/>
<path d="M88.986 269.348C89.014 269.577 88.934 269.816 88.749 269.982C88.449 270.252 87.987 270.227 87.718 269.927C87.444 269.625 86.546 268.839 85.707 268.84C85.311 268.84 84.956 269.02 84.622 269.39C83.336 270.813 85.164 272.912 85.183 272.933C85.45 273.235 85.422 273.697 85.12 273.964C84.818 274.231 84.356 274.203 84.089 273.901C83.145 272.835 81.815 270.315 83.538 268.41C84.15 267.734 84.902 267.378 85.714 267.379C86.431 267.38 87.173 267.65 87.92 268.18C88.439 268.549 88.77 268.911 88.806 268.951C88.908 269.066 88.969 269.205 88.986 269.348Z" fill="#2E262A"/>
<path d="M84.3071 269.025C84.3071 269.151 84.2621 269.278 84.1711 269.38C83.9751 269.598 83.6391 269.616 83.4211 269.42L81.7211 267.89C81.5031 267.694 81.4851 267.358 81.6811 267.139C81.8781 266.921 82.2131 266.903 82.4321 267.099L84.1321 268.629C84.2481 268.735 84.3071 268.88 84.3071 269.025Z" fill="#2E262A"/>
<path d="M82.6361 268.567L82.4911 268.663C82.3251 268.774 82.1521 268.867 81.9741 268.944C81.9731 268.944 81.9701 268.946 81.9681 268.946C80.7991 269.442 79.4201 269.19 78.4921 268.265C76.5741 266.358 74.0361 265.033 70.9131 264.316C70.7921 264.288 70.6741 264.263 70.5541 264.238C69.3731 263.988 68.2801 263.864 67.3791 263.808C65.9861 263.719 64.8601 262.636 64.7351 261.246L64.7261 261.15L64.6821 260.668C64.5691 259.458 65.5401 258.423 66.7541 258.457C67.9411 258.49 69.5101 258.613 71.2601 258.954C72.4321 259.182 73.6841 259.507 74.9601 259.969C77.7601 260.982 80.668 262.647 83.062 265.371C83.9151 266.342 83.7121 267.847 82.6361 268.567Z" fill="#21B6B2"/>
<path d="M81.968 268.946C80.799 269.442 79.42 269.19 78.492 268.265C76.574 266.358 74.036 265.033 70.913 264.316C70.792 264.288 70.674 264.263 70.554 264.238C70.829 261.655 71.114 259.032 71.114 259.032L71.259 258.954C72.431 259.182 73.683 259.507 74.959 259.969C74.959 259.969 74.37 262.568 76.506 263.827C78.643 265.085 80.398 269.483 81.968 268.946Z" fill="#2AD3CB"/>
<path d="M48.932 257.152C47.841 256.173 48.236 254.525 48.253 254.455L49.294 254.751L48.773 254.603L49.294 254.748C49.291 254.758 49.06 255.766 49.624 256.272L48.932 257.152Z" fill="#21B6B2"/>
<path d="M63.588 257.152C64.679 256.173 64.285 254.525 64.267 254.455L63.226 254.751L63.747 254.603L63.225 254.748C63.228 254.758 63.459 255.766 62.895 256.272L63.588 257.152Z" fill="#21B6B2"/>
<path d="M65.0599 255.04H43.6069C42.1429 255.04 40.9449 253.842 40.9449 252.378V243.272C40.9449 241.808 42.1429 240.61 43.6069 240.61H65.0599C66.5239 240.61 67.7219 241.808 67.7219 243.272V252.378C67.7219 253.842 66.5239 255.04 65.0599 255.04Z" fill="#263238"/>
<path d="M70.715 255.04H48.939C47.563 255.04 46.438 253.915 46.438 252.539V243.11C46.438 241.735 47.563 240.609 48.939 240.609H70.715C72.091 240.609 73.216 241.734 73.216 243.11V252.538C73.216 253.914 72.09 255.04 70.715 255.04Z" fill="#455A64"/>
<path d="M65.52 285.101H41.31C40.303 285.101 39.479 284.277 39.479 283.27V257.99C39.479 256.983 40.303 256.159 41.31 256.159H65.521C66.528 256.159 67.352 256.983 67.352 257.99V283.27C67.351 284.277 66.527 285.101 65.52 285.101Z" fill="#263238"/>
<path d="M45.89 257.99V283.27C45.89 284.276 46.714 285.1 47.721 285.1H71.931C72.939 285.1 73.763 284.276 73.763 283.27V257.99C73.763 256.983 72.939 256.159 71.931 256.159H47.721C46.714 256.158 45.89 256.982 45.89 257.99Z" fill="#455A64"/>
<path d="M62.265 255.04H53.415V256.159H62.265V255.04Z" fill="#2AD3CB"/>
<path d="M55.026 255.04H49.908V256.159H55.026V255.04Z" fill="#2E262A"/>
<path d="M71.227 258.967L69.933 260.57C69.712 260.844 69.295 260.844 69.074 260.57L68.557 259.929L67.73 258.905C67.558 258.693 67.71 258.376 67.982 258.376H70.944C71.249 258.375 71.419 258.729 71.227 258.967Z" fill="#21B6B2"/>
<path d="M71.227 258.967L69.933 260.57C69.712 260.844 69.295 260.844 69.074 260.57L68.557 259.929C69.688 259.655 70.122 258.852 70.283 258.376H70.944C71.249 258.375 71.419 258.729 71.227 258.967Z" fill="#2AD3CB"/>
<path d="M44.103 259.913C44.103 259.913 44.104 259.915 44.104 259.916L44.247 260.451L44.276 260.557C44.693 262.106 43.913 263.72 42.445 264.371C41.402 264.832 40.139 265.474 38.84 266.325C35.76 268.341 33.551 270.778 32.244 273.597C31.514 275.172 29.783 276.022 28.094 275.617L27.897 275.569C27.174 275.394 26.608 274.922 26.29 274.319C25.971 273.718 25.902 272.987 26.168 272.293C29.363 263.986 37.015 259.95 40.99 258.355C42.286 257.837 43.743 258.564 44.103 259.913Z" fill="#21B6B2"/>
<path d="M44.104 259.916L44.247 260.451L44.276 260.557C44.693 262.106 43.913 263.72 42.445 264.371C41.402 264.832 40.139 265.474 38.84 266.325C35.76 268.341 33.551 270.778 32.244 273.597C31.514 275.172 29.783 276.022 28.094 275.617L27.897 275.569C27.174 275.394 26.608 274.922 26.29 274.319C27.889 274.794 29.771 274.841 30.686 272.977C32.448 269.386 37.181 265.671 40.926 263.746C44.588 261.866 44.126 259.999 44.104 259.916Z" fill="#2AD3CB"/>
<path d="M27.973 283.007C27.728 283.108 27.439 283.091 27.199 282.937C26.809 282.686 26.697 282.167 26.948 281.777C27.199 281.382 27.798 280.148 27.543 279.219C27.422 278.78 27.116 278.442 26.605 278.184C24.638 277.19 22.868 279.853 22.85 279.88C22.597 280.268 22.076 280.377 21.689 280.123C21.301 279.869 21.192 279.349 21.446 278.961C22.341 277.592 24.729 275.354 27.363 276.685C28.297 277.157 28.921 277.883 29.165 278.783C29.381 279.578 29.308 280.482 28.947 281.469C28.696 282.156 28.395 282.633 28.361 282.685C28.262 282.836 28.126 282.944 27.973 283.007Z" fill="#2E262A"/>
<path d="M26.9111 277.726C26.7711 277.764 26.6171 277.753 26.4771 277.682C26.1761 277.531 26.0541 277.164 26.2061 276.863L27.3851 274.516C27.5361 274.215 27.9031 274.093 28.2051 274.245C28.5061 274.396 28.6281 274.763 28.4771 275.065L27.2981 277.412C27.2151 277.572 27.0731 277.682 26.9111 277.726Z" fill="#2E262A"/>
<path d="M70.997 243.434H47.917V248.492H70.997V243.434Z" fill="#2AD3CB"/>
<path d="M67.049 245.549H66.522V246.076H67.049V245.549Z" fill="#EBF3FA"/>
<path d="M67.716 245.549H67.189V246.076H67.716V245.549Z" fill="#EBF3FA"/>
<path d="M67.716 246.237H67.189V246.764H67.716V246.237Z" fill="#EBF3FA"/>
<path d="M68.4051 245.549H67.8781V246.076H68.4051V245.549Z" fill="#EBF3FA"/>
<path d="M66.38 245.549H65.853V246.076H66.38V245.549Z" fill="#EBF3FA"/>
<path d="M66.38 246.237H65.853V246.764H66.38V246.237Z" fill="#EBF3FA"/>
<path d="M65.711 245.549H65.184V246.076H65.711V245.549Z" fill="#EBF3FA"/>
<path d="M67.049 244.868H66.522V245.395H67.049V244.868Z" fill="#EBF3FA"/>
<path d="M67.049 244.236H66.522V244.763H67.049V244.236Z" fill="#EBF3FA"/>
<path d="M66.38 244.868H65.853V245.395H66.38V244.868Z" fill="#EBF3FA"/>
<path d="M67.716 244.868H67.189V245.395H67.716V244.868Z" fill="#EBF3FA"/>
<path d="M67.049 246.237H66.522V246.764H67.049V246.237Z" fill="#EBF3FA"/>
<path d="M67.049 246.93H66.522V247.457H67.049V246.93Z" fill="#EBF3FA"/>
<path d="M52.9781 245.549H52.451V246.076H52.9781V245.549Z" fill="#EBF3FA"/>
<path d="M53.6439 245.549H53.1169V246.076H53.6439V245.549Z" fill="#EBF3FA"/>
<path d="M53.6439 246.237H53.1169V246.764H53.6439V246.237Z" fill="#EBF3FA"/>
<path d="M54.334 245.549H53.807V246.076H54.334V245.549Z" fill="#EBF3FA"/>
<path d="M52.308 245.549H51.782V246.076H52.308V245.549Z" fill="#EBF3FA"/>
<path d="M52.308 246.237H51.782V246.764H52.308V246.237Z" fill="#EBF3FA"/>
<path d="M51.6391 245.549H51.1121V246.076H51.6391V245.549Z" fill="#EBF3FA"/>
<path d="M52.9781 244.868H52.451V245.395H52.9781V244.868Z" fill="#EBF3FA"/>
<path d="M52.9781 244.236H52.451V244.763H52.9781V244.236Z" fill="#EBF3FA"/>
<path d="M52.308 244.868H51.782V245.395H52.308V244.868Z" fill="#EBF3FA"/>
<path d="M53.6439 244.868H53.1169V245.395H53.6439V244.868Z" fill="#EBF3FA"/>
<path d="M52.9781 246.237H52.451V246.764H52.9781V246.237Z" fill="#EBF3FA"/>
<path d="M52.9781 246.93H52.451V247.457H52.9781V246.93Z" fill="#EBF3FA"/>
<path d="M66.883 240.404C66.99 240.404 67.078 240.316 67.078 240.209V234.721C67.078 234.614 66.99 234.526 66.883 234.526C66.776 234.526 66.688 234.614 66.688 234.721V240.209C66.688 240.316 66.776 240.404 66.883 240.404Z" fill="#263238"/>
<path d="M52.082 258.2C52.2907 258.2 52.46 258.031 52.46 257.822C52.46 257.613 52.2907 257.444 52.082 257.444C51.8732 257.444 51.704 257.613 51.704 257.822C51.704 258.031 51.8732 258.2 52.082 258.2Z" fill="white"/>
<path d="M50.464 258.199C50.6722 258.199 50.841 258.03 50.841 257.822C50.841 257.614 50.6722 257.445 50.464 257.445C50.2558 257.445 50.087 257.614 50.087 257.822C50.087 258.03 50.2558 258.199 50.464 258.199Z" fill="white"/>
<path d="M48.862 258.199C49.0702 258.199 49.239 258.03 49.239 257.822C49.239 257.614 49.0702 257.445 48.862 257.445C48.6538 257.445 48.485 257.614 48.485 257.822C48.485 258.03 48.6538 258.199 48.862 258.199Z" fill="white"/>
<path d="M46.67 274.149L52.88 283.291C54.592 285.812 53.24 289.825 50.678 289.825H39.631C37.236 289.825 35.832 286.259 37.205 283.663L42.042 274.521C43.134 272.456 45.396 272.274 46.67 274.149Z" fill="#21B6B2"/>
<path d="M39.269 272.856H44.629V276.278H40.394L39.269 272.856Z" fill="#21B6B2"/>
<path d="M41.419 274.149L47.156 283.291C48.738 285.812 47.488 289.825 45.121 289.825H34.916C32.703 289.825 31.406 286.259 32.675 283.663L37.144 274.521C38.153 272.456 40.243 272.274 41.419 274.149Z" fill="#2AD3CB"/>
<path d="M43.291 287.878C44.3205 287.878 45.155 286.802 45.155 285.474C45.155 284.146 44.3205 283.07 43.291 283.07C42.2615 283.07 41.427 284.146 41.427 285.474C41.427 286.802 42.2615 287.878 43.291 287.878Z" fill="#21B6B2"/>
<path d="M36.665 287.878C37.6945 287.878 38.529 286.802 38.529 285.474C38.529 284.146 37.6945 283.07 36.665 283.07C35.6356 283.07 34.801 284.146 34.801 285.474C34.801 286.802 35.6356 287.878 36.665 287.878Z" fill="#21B6B2"/>
<path d="M40.019 281.338C41.0485 281.338 41.883 280.262 41.883 278.934C41.883 277.606 41.0485 276.53 40.019 276.53C38.9896 276.53 38.155 277.606 38.155 278.934C38.155 280.262 38.9896 281.338 40.019 281.338Z" fill="#21B6B2"/>
<path d="M0.981001 293H634.396C634.936 293 635.377 292.559 635.377 292.019V290.852C635.377 290.312 634.936 289.871 634.396 289.871H0.981001C0.441001 289.871 0 290.312 0 290.852V292.019C0 292.559 0.441001 293 0.981001 293Z" fill="#2E262A"/>
</svg>
