<svg width="494" height="422" viewBox="0 0 494 422" fill="none" xmlns="http://www.w3.org/2000/svg">
<g opacity="0.35">
<path opacity="0.35" d="M457.113 296.883C450.503 263.077 471.518 261.772 471.98 218.211C472.169 200.394 465.322 182.249 448.848 173.926C440.752 169.836 432.681 167.024 425.477 160.521C409.061 145.698 409.357 117.496 404.879 93.455C395.044 40.6493 317.995 -1.33228 279.68 0.0323492C252.06 1.01509 239.318 19.9927 214.136 53.4134C196.906 76.2812 166.549 74.2075 175.395 133.29C183.274 185.915 164.686 182.007 147.664 201.435C130.679 220.823 118.24 243.949 125 270.197C132.457 299.139 86.8242 315.75 78.6863 353.269C73.1667 378.717 102.162 380.867 121.894 380.867C141.627 380.867 310.459 378.703 381.869 381.713C401.089 382.524 462.412 389.986 471.087 355.831C476.991 332.584 461.73 320.492 457.113 296.883Z" fill="#E0E0E0"/>
</g>
<path d="M481.843 286.354C461.5 333.699 422.307 372.339 375.324 393.288" stroke="#21B4B0" stroke-width="1.393" stroke-miterlimit="10"/>
<path d="M475.872 298.949C482.976 293.036 487.838 284.492 489.293 275.365C489.649 273.128 489.722 270.58 488.218 268.885C487.805 268.419 487.259 268.034 486.639 267.971C485.641 267.871 484.762 268.605 484.096 269.354C480.563 273.326 479.337 278.817 478.73 284.099C478.124 289.379 476.968 293.253 475.872 298.949Z" fill="#21B4B0"/>
<path d="M466.211 315.078C470.388 306.832 471.462 297.06 469.178 288.104C468.618 285.909 467.675 283.54 465.622 282.581C465.058 282.318 464.403 282.18 463.809 282.369C462.853 282.672 462.339 283.694 462.023 284.646C460.354 289.693 461.407 295.222 462.943 300.31C464.484 305.399 464.958 309.414 466.211 315.078Z" fill="#21B4B0"/>
<path d="M451.997 334.919C457.15 327.245 459.412 317.679 458.24 308.509C457.953 306.263 457.305 303.797 455.386 302.594C454.857 302.263 454.225 302.048 453.612 302.162C452.627 302.346 451.99 303.298 451.561 304.204C449.288 309.01 449.657 314.625 450.561 319.863C451.465 325.101 451.446 329.144 451.997 334.919Z" fill="#21B4B0"/>
<path d="M435.661 352.304C440.814 344.63 443.076 335.064 441.903 325.894C441.616 323.648 440.969 321.182 439.049 319.979C438.521 319.648 437.888 319.433 437.276 319.546C436.29 319.731 435.654 320.682 435.225 321.588C432.952 326.393 433.321 332.009 434.225 337.247C435.129 342.486 435.11 346.529 435.661 352.304Z" fill="#21B4B0"/>
<path d="M392.021 385.182C397.844 378.862 401.605 370.046 402.402 360.849C402.596 358.595 402.531 356.046 401.152 354.444C400.772 354.003 400.282 353.65 399.745 353.624C398.881 353.582 398.16 354.366 397.624 355.153C394.779 359.324 393.997 364.879 393.74 370.186C393.481 375.496 392.679 379.432 392.021 385.182Z" fill="#21B4B0"/>
<path d="M461.372 322.18C470.748 323.725 480.862 321.785 489.291 316.823C491.357 315.608 493.499 313.964 493.936 311.673C494.056 311.043 494.026 310.364 493.684 309.843C493.133 309.006 491.972 308.816 490.932 308.801C485.423 308.718 480.127 311.433 475.399 314.486C470.672 317.539 466.752 319.229 461.372 322.18Z" fill="#21B4B0"/>
<path d="M449.886 337.193C458.622 340.932 468.906 341.463 478.276 338.657C480.573 337.97 483.045 336.885 484.016 334.765C484.284 334.182 484.416 333.515 484.208 332.928C483.874 331.982 482.79 331.522 481.785 331.259C476.453 329.864 470.664 331.236 465.344 333.071C460.024 334.906 455.815 335.612 449.886 337.193Z" fill="#21B4B0"/>
<path d="M432.728 354.702C440.539 360.113 450.509 362.69 460.251 361.815C462.639 361.601 465.277 361.032 466.654 359.15C467.032 358.632 467.296 358.005 467.209 357.388C467.07 356.395 466.101 355.727 465.168 355.267C460.224 352.833 454.277 353.02 448.697 353.754C443.119 354.489 438.853 354.338 432.728 354.702Z" fill="#21B4B0"/>
<path d="M408.725 374.919C417.541 378.463 427.835 378.765 437.14 375.751C439.421 375.012 441.868 373.873 442.792 371.731C443.047 371.142 443.164 370.473 442.942 369.89C442.586 368.952 441.494 368.516 440.482 368.274C435.121 366.999 429.363 368.499 424.086 370.453C418.81 372.408 414.617 373.207 408.725 374.919Z" fill="#21B4B0"/>
<path d="M389.318 386.507C395.595 393.641 404.651 398.543 414.317 400.042C416.686 400.408 419.383 400.494 421.173 398.996C421.664 398.585 422.072 398.041 422.137 397.421C422.241 396.423 421.462 395.542 420.666 394.871C416.454 391.318 410.637 390.065 405.046 389.434C399.453 388.805 395.349 387.63 389.318 386.507Z" fill="#21B4B0"/>
<path d="M366.814 186.755C366.565 186.743 366.359 186.544 366.341 186.289L366.163 183.757C366.142 183.481 366.351 183.241 366.629 183.222C366.902 183.195 367.144 183.41 367.164 183.687L367.343 186.219C367.363 186.496 367.154 186.736 366.877 186.755C366.855 186.757 366.835 186.757 366.814 186.755Z" fill="#B1B3B6"/>
<path d="M378.188 301.824L371.496 302.293L364.051 194.398L367.396 194.164L370.741 193.929L378.188 301.824Z" fill="#E0E0E0"/>
<path d="M367.447 185.205L366.094 185.299L364.051 194.398L370.741 193.929L367.447 185.205Z" fill="#E0E0E0"/>
<path d="M40.0151 212.056C51.9149 277.086 97.2533 335.068 157.495 362.298" stroke="#21B4B0" stroke-width="1.393" stroke-miterlimit="10"/>
<path d="M43.0284 225.665C37.4209 218.316 34.586 208.904 35.2034 199.681C35.3549 197.42 35.8514 194.92 37.6959 193.604C38.2026 193.242 38.8212 192.988 39.4399 193.066C40.4354 193.19 41.1279 194.102 41.6103 194.98C44.169 199.639 44.141 205.267 43.5542 210.55C42.9673 215.834 43.2295 219.868 43.0284 225.665Z" fill="#21B4B0"/>
<path d="M48.8484 243.543C46.6156 234.574 47.746 224.809 51.9697 216.586C53.0047 214.571 54.4533 212.473 56.6683 211.996C57.2768 211.865 57.9451 211.878 58.4823 212.193C59.3466 212.703 59.6203 213.813 59.7158 214.812C60.2174 220.104 57.9591 225.258 55.3253 229.876C52.6915 234.493 51.3332 238.301 48.8484 243.543Z" fill="#21B4B0"/>
<path d="M58.2812 266.053C54.9689 257.424 54.8976 247.594 58.0839 238.917C58.8642 236.791 60.0455 234.532 62.1854 233.787C62.7735 233.582 63.4393 233.513 64.0096 233.761C64.9299 234.161 65.3373 235.23 65.5537 236.209C66.6981 241.401 65.0865 246.793 63.0383 251.698C60.9901 256.601 60.1066 260.546 58.2812 266.053Z" fill="#21B4B0"/>
<path d="M70.3313 286.642C67.019 278.013 66.9465 268.183 70.134 259.506C70.9144 257.38 72.0957 255.121 74.2356 254.376C74.8237 254.171 75.4882 254.102 76.0597 254.351C76.9801 254.749 77.3874 255.82 77.6039 256.798C78.7483 261.99 77.1367 267.382 75.0885 272.287C73.039 277.19 72.1555 281.137 70.3313 286.642Z" fill="#21B4B0"/>
<path d="M89.711 311.656C85.5229 303.416 84.4333 293.646 86.7043 284.687C87.2606 282.491 88.2013 280.122 90.2521 279.16C90.816 278.895 91.4703 278.757 92.0648 278.945C93.0208 279.246 93.5376 280.267 93.8546 281.219C95.5311 286.264 94.486 291.794 92.9559 296.885C91.4257 301.975 90.956 305.99 89.711 311.656Z" fill="#21B4B0"/>
<path d="M105.542 328.424C101.273 320.964 99.574 311.533 100.848 302.389C101.16 300.148 101.793 297.679 103.495 296.424C103.963 296.079 104.52 295.845 105.049 295.939C105.902 296.09 106.428 297.016 106.775 297.903C108.619 302.604 108.141 308.194 107.209 313.424C106.278 318.656 106.182 322.671 105.542 328.424Z" fill="#21B4B0"/>
<path d="M51.9825 251.545C42.4988 250.961 33.0724 246.815 25.9616 240.098C24.2189 238.452 22.4978 236.374 22.5818 234.041C22.6047 233.401 22.7855 232.746 23.2361 232.314C23.9604 231.62 25.1341 231.695 26.1512 231.912C31.541 233.06 36.097 236.887 40.0254 240.917C43.9526 244.947 47.396 247.469 51.9825 251.545Z" fill="#21B4B0"/>
<path d="M59.833 268.74C50.4842 270.437 40.3399 268.661 31.8313 263.837C29.7461 262.654 27.5782 261.046 27.1034 258.763C26.9736 258.135 26.9927 257.455 27.3262 256.93C27.8634 256.082 29.0218 255.876 30.0606 255.842C35.5687 255.671 40.9063 258.299 45.6825 261.276C50.46 264.25 54.4063 265.877 59.833 268.74Z" fill="#21B4B0"/>
<path d="M72.6545 289.634C63.834 293.167 53.5394 293.456 44.2378 290.431C41.9579 289.69 39.5125 288.548 38.5908 286.404C38.3375 285.815 38.2204 285.145 38.4419 284.563C38.7983 283.625 39.8918 283.191 40.9038 282.952C46.2669 281.683 52.022 283.19 57.2972 285.149C62.5725 287.109 66.7657 287.914 72.6545 289.634Z" fill="#21B4B0"/>
<path d="M91.5454 314.695C82.161 316.184 72.0587 314.182 63.6596 309.17C61.6012 307.942 59.4702 306.286 59.0463 303.992C58.9305 303.361 58.9648 302.682 59.3098 302.164C59.8661 301.329 61.0283 301.147 62.0684 301.138C67.5791 301.089 72.8568 303.835 77.5656 306.916C82.2743 309.998 86.1836 311.712 91.5454 314.695Z" fill="#21B4B0"/>
<path d="M107.88 330.318C100.171 335.872 90.2495 338.633 80.4934 337.938C78.1015 337.768 75.4537 337.248 74.0419 335.391C73.6537 334.88 73.38 334.258 73.4538 333.641C73.5748 332.645 74.5308 331.959 75.4549 331.483C80.3534 328.959 86.3033 329.035 91.8942 329.666C97.4877 330.298 101.75 330.069 107.88 330.318Z" fill="#21B4B0"/>
<path d="M191.534 330.804C181.969 321.859 168.456 317.295 155.425 318.612C146.599 319.503 136.975 324.218 135.033 332.874C134.107 336.996 134.432 342.465 130.53 344.084C126.711 345.669 123.024 341.735 119.103 340.42C112.577 338.231 105.131 345.692 107.332 352.213C108.332 355.178 110.841 357.762 110.634 360.885C110.35 365.138 105.094 367.354 100.883 366.695C96.6716 366.034 92.9545 363.576 88.8237 362.524C84.6929 361.473 79.3438 362.527 77.8939 366.534C76.5942 370.127 78.8372 374.952 76.0162 377.528C74.8082 378.631 73.0591 378.859 71.4297 379.013C35.6667 382.408 -3.72058 388.824 0.281669 395.178C1.37516 396.914 4.1719 396.361 6.22394 396.33C82.3442 395.138 151.49 394.003 227.585 396.337" fill="#E0E0E0"/>
<path d="M345.502 211.236L368.068 299.723L363.776 300.818L335.855 213.695" fill="#E0E0E0"/>
<path d="M347.215 214.583L339.441 184.161L339.393 184.167C339.291 183.67 339.206 183.173 339.078 182.674C335.528 168.75 323.263 159.814 311.741 162.752C300.218 165.69 293.731 179.409 297.281 193.333C300.832 207.257 313.097 216.193 324.62 213.255C324.724 213.228 324.822 213.185 324.925 213.157C329.526 212.047 332.08 212.732 333.34 214.52C334.163 215.69 334.575 217.807 334.575 217.807C335.463 221.293 339.022 223.404 342.508 222.516C345.992 221.627 348.105 218.068 347.215 214.583ZM305.024 191.358C302.562 181.704 306.461 172.344 313.714 170.494C320.968 168.645 328.873 174.994 331.335 184.647C333.797 194.302 329.898 203.662 322.644 205.511C315.392 207.362 307.486 201.013 305.024 191.358Z" fill="#B1B3B6"/>
<path d="M348.824 210.434L348.89 301.752L353.32 301.75L358.779 210.426" fill="#E0E0E0"/>
<path d="M369.517 155.096C357.625 155.105 347.958 166.803 347.969 181.171C347.969 181.685 348.01 182.188 348.034 182.696L347.986 182.702L347.993 214.101C347.996 217.699 350.924 220.623 354.521 220.62C358.118 220.618 361.042 217.69 361.04 214.093C361.04 214.093 360.914 211.939 361.422 210.602C362.198 208.558 364.504 207.26 369.235 207.197C369.344 207.198 369.448 207.216 369.556 207.216C381.448 207.207 391.115 195.51 391.104 181.14C391.092 166.771 381.409 155.087 369.517 155.096ZM369.55 199.224C362.065 199.229 355.967 191.128 355.96 181.164C355.952 171.201 362.038 163.091 369.523 163.086C377.008 163.08 383.106 171.182 383.113 181.144C383.121 191.109 377.035 199.219 369.55 199.224Z" fill="#B1B3B6"/>
<path d="M387.268 285.598L375.784 283.525L393.623 184.747C393.769 183.937 394.543 183.4 395.353 183.546L403.908 185.092C404.717 185.238 405.254 186.012 405.108 186.822L387.268 285.598Z" fill="#E0E0E0"/>
<path d="M403.393 196.313L391.908 194.239L393.623 184.747C393.77 183.937 394.544 183.4 395.353 183.546L403.908 185.092C404.716 185.238 405.254 186.012 405.108 186.82L403.393 196.313Z" fill="#B1B3B6"/>
<g opacity="0.35">
<g opacity="0.35">
<g opacity="0.35">
<path opacity="0.35" d="M403.415 196.312L391.928 194.238L391.308 197.676L402.794 199.751L403.415 196.312Z" fill="#E0E0E0"/>
</g>
</g>
</g>
<path d="M436.206 206.843L417.464 199.455L377.495 300.853L396.237 308.241L436.206 206.843Z" fill="#E0E0E0"/>
<path d="M428.754 207.709L434.931 210.143" stroke="#455A64" stroke-miterlimit="10"/>
<path d="M426.677 212.975L432.855 215.41" stroke="#455A64" stroke-miterlimit="10"/>
<path d="M424.601 218.243L430.779 220.678" stroke="#455A64" stroke-miterlimit="10"/>
<path d="M419.504 222.319L428.703 225.944" stroke="#455A64" stroke-miterlimit="10"/>
<path d="M420.45 228.776L426.627 231.212" stroke="#455A64" stroke-miterlimit="10"/>
<path d="M418.374 234.044L424.552 236.478" stroke="#455A64" stroke-miterlimit="10"/>
<path d="M416.297 239.31L422.475 241.746" stroke="#455A64" stroke-miterlimit="10"/>
<path d="M411.199 243.386L420.399 247.013" stroke="#455A64" stroke-miterlimit="10"/>
<path d="M412.145 249.845L418.323 252.279" stroke="#455A64" stroke-miterlimit="10"/>
<path d="M410.07 255.112L416.247 257.547" stroke="#455A64" stroke-miterlimit="10"/>
<path d="M407.994 260.379L414.17 262.815" stroke="#455A64" stroke-miterlimit="10"/>
<path d="M402.896 264.455L412.095 268.081" stroke="#455A64" stroke-miterlimit="10"/>
<path d="M403.842 270.913L410.019 273.348" stroke="#455A64" stroke-miterlimit="10"/>
<path d="M401.765 276.181L407.943 278.615" stroke="#455A64" stroke-miterlimit="10"/>
<path d="M399.69 281.447L405.867 283.882" stroke="#455A64" stroke-miterlimit="10"/>
<path d="M394.592 285.523L403.79 289.15" stroke="#455A64" stroke-miterlimit="10"/>
<path d="M395.538 291.982L401.714 294.416" stroke="#455A64" stroke-miterlimit="10"/>
<path d="M393.462 297.249L399.639 299.684" stroke="#455A64" stroke-miterlimit="10"/>
<path d="M391.385 302.516L397.563 304.95" stroke="#455A64" stroke-miterlimit="10"/>
<path d="M409.962 400.823H316.502L300.804 259.441C300.604 257.644 302.012 256.072 303.821 256.072H422.643C424.452 256.072 425.859 257.644 425.659 259.441L409.962 400.823Z" fill="#21B4B0"/>
<path opacity="0.35" d="M292.766 406.984C349.059 407.751 405.351 408.518 461.645 409.285C463.534 409.31 469.489 407.468 459.227 400.851C450.537 395.248 423.07 400.289 423.07 400.289C423.07 400.289 429.464 397.725 429.433 394.418C429.404 391.109 426.896 388.202 423.886 386.829C420.875 385.457 417.447 385.358 414.144 385.546C407.422 385.931 400.766 387.42 394.522 389.937C397.171 388.307 397.979 384.313 396.172 381.782C394.364 379.251 390.322 378.721 387.923 380.697C392.141 374.984 398.664 349.662 378.619 338.503C353.492 324.516 334.411 336.026 330.34 344.444C328.275 336.181 318.794 329.925 312.55 328.374C298.309 324.838 289.031 325.887 275.736 332.095C271.033 334.291 264.735 341.793 261.609 345.936C256.712 352.426 255.948 361.057 255.679 369.182C255.477 375.281 255.449 381.385 255.597 387.485" fill="#E0E0E0"/>
<path opacity="0.35" d="M199.024 421.267C268.964 421.267 325.661 418.902 325.661 415.983C325.661 413.065 268.964 410.699 199.024 410.699C129.084 410.699 72.3871 413.065 72.3871 415.983C72.3871 418.902 129.084 421.267 199.024 421.267Z" fill="#E0E0E0"/>
<path d="M201.435 47.3846C194.416 47.3846 188.727 53.0748 188.727 60.0928V76.3805H214.145C214.145 76.3805 214.145 63.4445 214.145 60.0928C214.145 53.0748 208.454 47.3846 201.435 47.3846ZM201.435 67.3869C197.498 67.3869 194.305 64.1943 194.305 60.257C194.305 56.3196 197.498 53.127 201.435 53.127C205.373 53.127 208.565 56.3196 208.565 60.257C208.565 64.1943 205.374 67.3869 201.435 67.3869Z" fill="#B1B3B6"/>
<path d="M208.565 60.257C208.565 56.3196 205.373 53.127 201.435 53.127C201.069 53.127 200.716 53.1817 200.365 53.2352C201.435 52.8215 201.489 52.5427 203.258 52.5427C207.195 52.5427 210.388 55.7353 210.388 59.6727C210.388 63.2434 208.566 65.1783 205.814 65.8848C207.342 64.5762 208.565 62.4261 208.565 60.257ZM192.608 74.7549V58.4672C192.608 54.0474 194.527 50.1571 197.951 47.8798C192.628 49.3959 188.726 54.2841 188.726 60.0927V76.3805H214.143C214.143 76.3805 214.143 75.7453 214.143 74.7549H192.608Z" fill="#B1B3B6"/>
<path d="M306.394 415.925H91.6536C84.8049 415.925 79.2522 410.373 79.2522 403.523V89.6373C79.2522 82.7887 84.8037 77.2359 91.6536 77.2359H306.394C313.242 77.2359 318.795 82.7887 318.795 89.6373V403.523C318.795 410.372 313.242 415.925 306.394 415.925Z" fill="#455A64"/>
<path d="M304.91 90.5195H93.1365V402.641H304.91V90.5195Z" fill="#E0E0E0"/>
<path d="M296.769 100.055H101.28V393.105H296.769V100.055Z" fill="white"/>
<path d="M276.069 82.8434V95.5732H121.975V82.8434C121.975 81.9141 122.115 81.0231 122.382 80.1829C123.515 76.5422 126.914 73.9071 130.911 73.9071H267.132C272.071 73.9071 276.069 77.9043 276.069 82.8434Z" fill="#B1B3B6"/>
<path d="M276.069 92.3908V95.5732H121.975V86.3568C121.975 83.8873 122.115 81.8505 122.382 80.1829C123.515 76.5422 126.914 73.9071 130.911 73.9071H132.006C129.651 76.173 127.932 79.6355 127.932 83.1744V92.3908H276.069Z" fill="#B1B3B6"/>
<g opacity="0.15">
<path opacity="0.15" d="M155.492 203.985H187.247" stroke="#455A64" stroke-width="3.2" stroke-miterlimit="10"/>
<path opacity="0.15" d="M258.508 214.109H282.652" stroke="#455A64" stroke-width="3.2" stroke-miterlimit="10"/>
<path opacity="0.15" d="M155.492 214.109H248.045" stroke="#455A64" stroke-width="3.2" stroke-miterlimit="10"/>
<path opacity="0.15" d="M155.492 224.233H282.652" stroke="#455A64" stroke-width="3.2" stroke-miterlimit="10"/>
<path opacity="0.15" d="M242.234 234.356H282.652" stroke="#455A64" stroke-width="3.2" stroke-miterlimit="10"/>
<path opacity="0.15" d="M155.492 234.356H232.174" stroke="#455A64" stroke-width="3.2" stroke-miterlimit="10"/>
<path opacity="0.15" d="M197.667 203.985H282.652" stroke="#455A64" stroke-width="3.2" stroke-miterlimit="10"/>
</g>
<g opacity="0.15">
<path opacity="0.15" d="M155.492 274.215H187.247" stroke="#455A64" stroke-width="3.2" stroke-miterlimit="10"/>
<path opacity="0.15" d="M258.508 284.338H282.652" stroke="#455A64" stroke-width="3.2" stroke-miterlimit="10"/>
<path opacity="0.15" d="M155.492 284.338H248.045" stroke="#455A64" stroke-width="3.2" stroke-miterlimit="10"/>
<path opacity="0.15" d="M155.492 294.462H282.652" stroke="#455A64" stroke-width="3.2" stroke-miterlimit="10"/>
<path opacity="0.15" d="M242.234 304.586H282.652" stroke="#455A64" stroke-width="3.2" stroke-miterlimit="10"/>
<path opacity="0.15" d="M155.492 304.586H232.174" stroke="#455A64" stroke-width="3.2" stroke-miterlimit="10"/>
<path opacity="0.15" d="M197.667 274.215H282.652" stroke="#455A64" stroke-width="3.2" stroke-miterlimit="10"/>
</g>
<g opacity="0.15">
<path opacity="0.15" d="M155.492 345.717H187.247" stroke="#455A64" stroke-width="3.2" stroke-miterlimit="10"/>
<path opacity="0.15" d="M258.508 355.841H282.652" stroke="#455A64" stroke-width="3.2" stroke-miterlimit="10"/>
<path opacity="0.15" d="M155.492 355.841H248.045" stroke="#455A64" stroke-width="3.2" stroke-miterlimit="10"/>
<path opacity="0.15" d="M155.492 365.965H282.652" stroke="#455A64" stroke-width="3.2" stroke-miterlimit="10"/>
<path opacity="0.15" d="M242.234 376.089H282.652" stroke="#455A64" stroke-width="3.2" stroke-miterlimit="10"/>
<path opacity="0.15" d="M155.492 376.089H232.174" stroke="#455A64" stroke-width="3.2" stroke-miterlimit="10"/>
<path opacity="0.15" d="M197.667 345.717H282.652" stroke="#455A64" stroke-width="3.2" stroke-miterlimit="10"/>
</g>
<path d="M142.095 158.539H118.335C116.158 158.539 114.386 156.767 114.386 154.59V130.83C114.386 128.653 116.158 126.881 118.335 126.881H142.094C144.271 126.881 146.043 128.653 146.043 130.83V154.59C146.044 156.767 144.272 158.539 142.095 158.539ZM118.335 129.427C117.561 129.427 116.932 130.056 116.932 130.83V154.59C116.932 155.364 117.561 155.993 118.335 155.993H142.095C142.869 155.993 143.498 155.364 143.498 154.59V130.83C143.498 130.056 142.869 129.427 142.095 129.427H118.335Z" fill="#B1B3B6"/>
<path d="M142.095 231.078H118.336C116.16 231.078 114.388 229.306 114.388 227.129V203.369C114.388 201.192 116.16 199.42 118.336 199.42H142.095C144.272 199.42 146.044 201.192 146.044 203.369V227.129C146.044 229.306 144.272 231.078 142.095 231.078ZM118.335 201.966C117.561 201.966 116.932 202.595 116.932 203.369V227.129C116.932 227.903 117.561 228.532 118.335 228.532H142.094C142.868 228.532 143.497 227.903 143.497 227.129V203.369C143.497 202.595 142.868 201.966 142.094 201.966H118.335Z" fill="#B1B3B6"/>
<path d="M142.095 303.617H118.336C116.16 303.617 114.388 301.845 114.388 299.669V275.908C114.388 273.732 116.16 271.96 118.336 271.96H142.095C144.272 271.96 146.044 273.732 146.044 275.908V299.669C146.044 301.845 144.272 303.617 142.095 303.617ZM118.335 274.506C117.561 274.506 116.932 275.134 116.932 275.908V299.669C116.932 300.441 117.561 301.071 118.335 301.071H142.094C142.868 301.071 143.497 300.443 143.497 299.669V275.908C143.497 275.136 142.868 274.506 142.094 274.506H118.335Z" fill="#B1B3B6"/>
<path d="M142.095 376.157H118.335C116.158 376.157 114.386 374.385 114.386 372.207V348.448C114.386 346.271 116.158 344.499 118.335 344.499H142.094C144.271 344.499 146.043 346.271 146.043 348.448V372.207C146.044 374.385 144.272 376.157 142.095 376.157ZM118.335 347.046C117.561 347.046 116.932 347.675 116.932 348.449V372.208C116.932 372.982 117.561 373.612 118.335 373.612H142.095C142.868 373.612 143.498 372.983 143.498 372.208V348.449C143.498 347.676 142.869 347.046 142.095 347.046H118.335Z" fill="#B1B3B6"/>
<path d="M130.215 153.044C129.559 153.044 128.935 152.753 128.514 152.245L117.541 138.993C116.763 138.054 116.894 136.661 117.834 135.883C118.773 135.106 120.166 135.235 120.943 136.176L129.978 147.086L149.463 116.341C150.116 115.309 151.484 115.006 152.511 115.657C153.542 116.31 153.847 117.675 153.194 118.704L132.082 152.017C131.704 152.614 131.062 152.995 130.357 153.039C130.309 153.043 130.262 153.044 130.215 153.044Z" fill="#21B4B0"/>
<path d="M130.215 224.98C129.559 224.98 128.935 224.689 128.514 224.181L117.541 210.929C116.763 209.99 116.894 208.597 117.834 207.819C118.773 207.042 120.166 207.171 120.943 208.112L129.978 219.022L149.463 188.277C150.116 187.245 151.484 186.942 152.511 187.593C153.542 188.246 153.847 189.611 153.194 190.641L132.082 223.953C131.704 224.55 131.062 224.931 130.357 224.975C130.309 224.979 130.262 224.98 130.215 224.98Z" fill="#21B4B0"/>
<path d="M38.3349 230.644C38.3349 230.644 38.8823 234.277 39.2285 234.594C39.2285 234.594 38.881 235.2 37.8435 235.257" fill="#FFB392"/>
<path opacity="0.35" d="M35.1906 419.005C51.9611 419.005 65.5562 417.781 65.5562 416.271C65.5562 414.761 51.9611 413.536 35.1906 413.536C18.4201 413.536 4.82495 414.761 4.82495 416.271C4.82495 417.781 18.4201 419.005 35.1906 419.005Z" fill="#E0E0E0"/>
<path d="M49.0635 247.602L42.3524 277.08C42.169 277.883 42.7113 278.672 43.5273 278.789L64.4156 281.788C65.1425 281.893 65.8286 281.422 65.9916 280.705L72.7027 251.228C72.886 250.425 72.3437 249.635 71.5278 249.518L50.6394 246.519C49.9126 246.416 49.2264 246.887 49.0635 247.602Z" fill="#455A64"/>
<path d="M50.3695 248.553L43.9448 276.777L64.6842 279.754L71.1102 251.532L50.3695 248.553Z" fill="white"/>
<path d="M68.9132 253.976C68.8954 253.976 68.8788 253.975 68.8597 253.972L51.2353 251.442C51.0355 251.414 50.8967 251.228 50.926 251.028C50.954 250.829 51.1386 250.695 51.3397 250.719L68.9641 253.249C69.164 253.277 69.3027 253.463 69.2735 253.663C69.248 253.845 69.0914 253.976 68.9132 253.976Z" fill="#E0E0E0"/>
<path d="M68.3201 256.644C68.3022 256.644 68.2857 256.643 68.2666 256.641L50.6422 254.11C50.4424 254.082 50.3036 253.896 50.3329 253.696C50.3609 253.498 50.5442 253.359 50.7466 253.387L68.371 255.918C68.5708 255.946 68.7096 256.131 68.6803 256.331C68.6549 256.513 68.4983 256.644 68.3201 256.644Z" fill="#E0E0E0"/>
<path d="M60.9826 258.856C60.9647 258.856 60.9482 258.854 60.9291 258.852L49.9153 257.269C49.7154 257.241 49.5767 257.056 49.606 256.856C49.634 256.657 49.8173 256.52 50.0197 256.546L61.0335 258.129C61.2333 258.157 61.3721 258.343 61.3428 258.542C61.3174 258.725 61.1608 258.856 60.9826 258.856Z" fill="#E0E0E0"/>
<path d="M60.1996 261.148C60.1818 261.148 60.1652 261.147 60.1461 261.144L49.1323 259.563C48.9325 259.535 48.7937 259.35 48.823 259.15C48.851 258.951 49.0343 258.814 49.2367 258.84L60.2505 260.421C60.4504 260.449 60.5891 260.635 60.5599 260.835C60.5344 261.017 60.3778 261.148 60.1996 261.148Z" fill="#E0E0E0"/>
<path d="M59.4168 263.441C59.3989 263.441 59.3824 263.44 59.3633 263.437L48.3495 261.856C48.1496 261.828 48.0109 261.642 48.0402 261.442C48.0682 261.244 48.2502 261.108 48.4539 261.133L59.4677 262.714C59.6675 262.742 59.8063 262.928 59.777 263.128C59.7516 263.31 59.595 263.441 59.4168 263.441Z" fill="#E0E0E0"/>
<path d="M63.456 276.112C63.4381 276.112 63.4216 276.111 63.4025 276.108L52.3887 274.527C52.1888 274.499 52.0501 274.313 52.0793 274.114C52.1073 273.915 52.2919 273.777 52.4931 273.804L63.5069 275.385C63.7067 275.413 63.8455 275.599 63.8162 275.799C63.7907 275.981 63.6342 276.112 63.456 276.112Z" fill="#E0E0E0"/>
<path d="M41.0246 277.432C42.2072 276.875 43.0869 275.844 43.9283 274.842C44.7583 273.854 45.5883 272.866 46.4183 271.878C46.7454 271.489 47.0891 271.062 47.126 270.554C45.7347 270.441 44.8385 272.249 43.4471 272.356C44.0951 270.064 45.0256 267.854 46.2108 265.788C46.4997 265.284 46.8142 264.697 46.6092 264.154C45.1058 264.728 43.8392 265.797 42.7432 266.977C41.973 267.806 41.2716 268.698 40.6478 269.642C38.8109 272.42 37.6742 275.611 36.8989 278.85" fill="#F2A181"/>
<path d="M35.0388 301.176L20.1246 288.592C20.1246 288.592 13.183 298.006 15.7977 307.089C17.0835 311.554 18.6976 313.769 19.399 315.889C20.0533 317.868 24.5431 345.892 24.2083 347.94C23.8735 349.989 21.4625 355.722 20.5434 361.75C19.4372 369.001 19.6243 392.624 18.7663 398.888C17.9083 405.151 23.6928 406.212 24.011 404.092C26.7301 385.98 33.9109 357.756 34.9153 348.701C35.9197 339.645 35.5111 323.063 35.0388 301.176Z" fill="#FFBE9D"/>
<path d="M35.081 319.023L28.5952 333.907C31.3296 338.526 32.9106 343.978 33.1207 349.507C33.2289 352.379 32.9755 355.256 33.0557 358.128C33.0608 358.331 33.0901 358.549 33.1436 358.751C34.013 354.495 34.661 350.985 34.9143 348.7C35.6246 342.303 35.6284 332.135 35.4031 319.006C35.2949 319.012 35.1892 319.005 35.081 319.023Z" fill="#F2A181"/>
<path d="M25.0143 398.274C25.0143 398.274 23.6255 404.845 23.9998 405.682C24.3728 406.52 25.717 408.954 27.0931 409.835C28.5367 410.758 31.7344 411.856 31.9903 412.256C32.2461 412.657 32.2627 413.24 31.807 413.598C30.6295 414.523 28.5851 414.974 27.2472 414.754C22.9114 414.038 22.4633 412.121 19.9377 411.814C19.5023 411.761 18.694 412.406 17.4872 411.789C16.2804 411.171 15.6949 410.056 15.798 409.007C15.9775 407.197 16.9933 405.705 17.7176 404.366C18.442 403.027 18.9511 396.9 18.9511 396.9" fill="#FFBE9D"/>
<path d="M32.1431 413.916C32.4588 413.375 32.5403 412.556 32.2462 412.356C31.8389 412.079 30.3877 411.119 29.5475 410.732C28.7061 410.345 27.3733 410.004 27.843 410.257C28.3127 410.511 27.4484 411.46 26.6604 411.412C23.9426 411.245 21.9389 409.44 20.391 409.052C18.1569 408.493 17.2213 405.855 17.1233 405.428C16.7006 405.696 15.7179 407.82 15.5193 408.488C15.3398 409.091 15.0165 410.195 15.1883 410.824C15.3067 411.258 15.5702 412.132 15.4366 413.051C15.4366 413.051 15.877 413.39 17.043 413.631C17.7814 413.783 18.7718 413.656 18.7718 413.656L18.964 412.253C18.964 412.253 19.5725 412.229 20.3464 412.39C21.1204 412.55 22.3832 413.286 22.4583 413.375C22.7689 413.745 23.0171 414.42 23.427 414.627C24.5129 415.175 25.6077 415.436 26.9914 415.516C29.9027 415.685 31.6034 414.84 32.1431 413.916Z" fill="#263238"/>
<path d="M55.4029 413.642C55.0821 413.288 51.6272 412.726 50.0067 412.05C48.4626 411.404 46.5926 409.331 46.2285 408.451C45.8644 407.571 45.9484 403.112 45.9943 401.24C46.3176 388.343 48.7006 356.827 49.0456 349.279C49.6452 336.161 47.9419 322.62 42.8946 301.56L24.1003 287.136C24.1003 287.136 18.8366 296.921 20.5996 306.277C21.6218 311.705 26.1244 312.54 26.8856 314.649C27.6468 316.758 39.0171 350.771 39.0171 350.771C39.0171 350.771 36.8046 358.124 36.6761 366.18C36.5666 373.057 39.6854 393.801 40.2633 401.704C40.3308 403.248 40.5968 406.945 40.1424 408.122C39.5848 409.565 38.1629 411.259 38.2355 413.078C38.2762 414.132 39.0387 415.139 40.3703 415.553C41.7018 415.965 42.4452 415.196 42.9022 415.177C45.5513 415.068 46.2858 416.89 50.8609 416.888C52.2713 416.888 54.317 416.108 55.4016 415C55.8229 414.57 55.7236 413.996 55.4029 413.642Z" fill="#FFBE9D"/>
<path d="M55.7962 415.258C56.0457 414.671 56.0126 413.85 55.6816 413.699C55.2221 413.492 53.5901 412.779 52.6672 412.535C51.7443 412.289 50.3211 412.171 50.8418 412.344C51.3624 412.517 50.6037 413.598 49.7852 413.678C46.9579 413.958 44.6347 412.499 42.9824 412.37C40.5981 412.183 39.7223 409.729 39.5606 409.322C39.1622 409.656 37.9847 411.916 37.8739 412.61C37.7734 413.236 37.5964 414.379 37.8625 414.974C38.0471 415.384 38.4417 416.205 38.4328 417.135C38.4328 417.135 38.9343 417.397 40.1717 417.445C40.9546 417.475 41.9602 417.186 41.9602 417.186V415.767C41.9602 415.767 42.584 415.645 43.405 415.675C44.2261 415.707 45.2407 416.126 45.7359 416.499C46.1241 416.791 46.5327 417.284 46.9923 417.399C48.3149 417.731 49.2658 417.826 50.7043 417.679C53.7353 417.373 55.3698 416.259 55.7962 415.258Z" fill="#263238"/>
<path d="M20.5168 287.009C19.2413 288.409 14.6955 295.985 14.6471 302.15C14.5987 308.315 16.5642 312.325 16.9894 313.555C18.1542 316.924 20.3182 319.938 20.3182 320.554C20.3182 321.17 23.7069 321.597 30.8967 321.145C44.1802 320.309 49.0608 317.816 49.0608 317.816C49.0608 317.816 49.4949 312.29 48.1328 300.3C47.4861 294.606 42.6374 285.589 42.6374 285.589" fill="#263238"/>
<path d="M8.39685 262.375C8.39685 262.375 10.5367 273.006 11.0981 274.898C11.6595 276.789 14.4359 288.801 17.0658 288.592C19.6971 288.384 34.1059 276.354 34.1059 276.354L32.0653 272.273L19.3814 278.319C19.3814 278.319 18.2357 264.589 17.2313 261.319" fill="#FFBE9D"/>
<path d="M13.3004 268.92C14.6421 273.665 17.3943 278.667 18.2179 282.347C18.3834 283.087 27.1657 279.893 27.1861 276.595" fill="#F2A181"/>
<path d="M16.9895 247.641C16.9895 247.641 12.7836 248.089 10.6514 249.721C5.21321 253.881 9.42167 268.985 9.42167 268.985C9.42167 268.985 9.15308 269.79 12.804 269.586C16.4549 269.381 19.3815 268.342 19.3815 268.342L18.3262 255.967" fill="#B1B3B6"/>
<path d="M12.1751 256.191C12.1751 256.191 11.7143 265.07 13.3208 269.551C14.9108 269.519 16.2996 269.16 16.2996 269.16L12.1751 256.191Z" fill="#455A64"/>
<path d="M37.0898 219.776C39.6243 223.062 39.1228 227.684 38.4978 231.786C38.1821 233.859 37.8664 235.934 37.5494 238.008C37.3992 238.993 37.1993 240.07 36.4317 240.705C35.6577 241.347 34.5503 241.336 33.5459 241.292C33.5561 243.008 33.5662 244.726 33.5764 246.443C30.6397 246.514 27.7016 246.526 24.7649 246.478C24.7636 245.277 24.5014 244.075 24.0036 242.982C22.5664 242.954 21.6066 241.513 21.044 240.19C20.3947 238.665 19.9225 237.071 19.4667 235.479C18.8608 233.364 18.2765 231.217 18.2218 229.017C18.167 226.819 18.6889 224.532 20.0854 222.833C21.0376 221.674 22.336 220.852 23.665 220.158C25.4866 219.207 27.6749 218.458 29.5538 219.29" fill="#FFBE9D"/>
<path d="M34.0512 235.429C33.7037 233.703 33.7291 232.73 34.2943 231.581C34.4815 231.2 34.7284 230.841 35.0658 230.604C35.5228 230.284 36.13 230.221 36.6354 230.441C36.9663 230.585 37.2375 230.854 37.4246 231.177C38.0229 228.859 38.1489 226.388 37.9758 223.981C37.7021 220.163 35.4006 217.213 32.0399 215.831C25.8189 213.275 16.88 215.801 14.3544 221.907C12.4462 226.519 13.4137 233.177 17.0671 237.043C20.3018 240.466 24.9532 240.969 29.247 240.264C31.4442 239.904 34.8341 240.119 35.9709 237.132C36.0587 236.902 35.8614 236.671 35.6272 236.689C34.7348 236.758 34.1149 235.748 34.0512 235.429Z" fill="#263238"/>
<path d="M34.5286 227.309C34.7603 227.671 34.7056 228.158 34.922 228.529C35.286 229.152 35.771 229.377 36.4254 229.682C37.4807 230.17 37.2337 231.708 37.2031 232.396C38 231.866 38.1286 230.424 38.3221 229.692C38.5385 228.869 38.676 228.025 38.9153 227.209C39.1483 226.416 39.5518 225.668 39.6269 224.833C39.8853 221.948 38.0751 218.558 35.8882 216.939C34.2957 215.76 31.8655 215.809 30.0668 217.008C29.3094 217.513 28.7391 218.276 28.4043 219.122C28.2605 219.485 28.1612 219.909 28.3394 220.256" fill="#263238"/>
<path d="M20.3909 247.68C20.5398 246.674 20.8122 245.502 21.7479 245.105C22.0076 244.994 22.2927 244.961 22.574 244.929C25.4395 244.612 28.3241 244.476 31.2061 244.522C32.3989 244.541 33.6324 244.602 34.6991 245.134C36.3718 245.97 37.2922 247.773 38.1005 249.46" fill="#455A64"/>
<path d="M44.6628 284.539C44.2618 283.946 43.3377 283.238 43.0054 282.585C42.2098 281.021 41.5135 274.43 41.7872 272.748C42.08 270.943 43.6775 269.973 44.3981 265.956C45.3261 260.783 43.2053 256.762 42.0189 255.039C40.3423 252.604 41.3365 252.618 40.7624 249.634C40.6593 249.097 40.5384 248.523 40.1705 248.149C39.8077 247.779 37.3088 246.638 36.8187 246.561C32.1596 245.839 29.4202 246.403 24.7114 246.61C22.3806 246.711 20.0549 246.984 17.7673 247.488C15.2354 248.047 13.0293 248.718 12.5087 252.153C11.7029 257.468 12.3801 262.84 13.9955 267.881C15.0661 271.221 21.4603 282.78 19.8754 285.017C19.5139 285.528 18.6075 286.498 18.498 287.136C18.097 289.472 23.3748 290.293 25.6343 290.479C29.0752 290.762 33.0253 290.572 36.475 290.41C39.0885 290.288 44.8054 289.375 45.2115 286.146C45.2904 285.513 44.9773 285.003 44.6628 284.539Z" fill="#B1B3B6"/>
<path d="M43.6686 266.956C43.6699 267.895 43.1442 269.155 42.9748 269.65C42.3193 269.988 39.7198 270.547 38.2279 269.866C37.9008 266.761 36.0817 260.783 36.0817 260.783C36.0817 260.783 43.6686 266.087 43.6686 266.956Z" fill="#455A64"/>
<path d="M40.3309 264.79C40.3309 264.79 48.9375 285.589 52.6725 285.589C55.389 285.589 62.0492 266.389 62.0492 266.389L57.8407 264.397L53.1473 272.438L48.3953 257.44" fill="#FFBE9D"/>
<path d="M57.0057 265.828C57.0057 265.828 58.4009 263.63 58.2991 262.072C58.2596 261.478 57.907 258.651 58.2023 258.094C58.4977 257.538 59.2054 255.719 59.609 255.365C60.0138 255.011 61.5083 254.442 61.8736 254.695C62.239 254.949 62.6947 253.785 63.3006 253.887C63.9065 253.988 64.4119 254.493 64.4119 255.049C64.4119 255.606 65.2203 255.706 65.3221 256.111C65.4227 256.516 65.373 256.87 65.5245 257.173C65.676 257.476 66.1228 257.325 66.2819 258.083C66.4283 258.775 66.231 258.842 66.2819 259.194C66.3329 259.548 66.6358 259.515 66.5352 260.188C66.4347 260.862 65.9726 261.736 65.5691 262.494C65.1655 263.252 64.3305 264.201 63.2217 264.87C62.6743 265.201 62.3752 265.779 61.8532 266.761" fill="#FFBE9D"/>
<path d="M59.3174 249.756C59.2105 249.591 58.9177 249.315 58.5753 249.555C58.2316 249.797 58.3359 250.213 58.4098 250.381C58.4836 250.549 60.9545 256.14 60.9545 256.14C60.9545 256.14 61.1607 256.377 61.554 256.03C61.9818 255.653 61.8443 255.466 61.8443 255.466C61.8443 255.466 59.4243 249.922 59.3174 249.756Z" fill="#263238"/>
<path d="M61.9983 255.095C61.5146 255.96 60.9532 256.237 60.4478 256.712C60.052 257.085 60.1003 257.324 59.6637 257.707C60.4288 257.65 60.2976 257.198 61.2906 256.483C61.7501 256.152 62.2249 255.793 62.3153 255.228C62.3459 255.035 62.1167 254.93 61.9983 255.095Z" fill="#F2A181"/>
<path d="M32.4155 246.242C34.6572 246.357 41.1825 245.213 44.808 249.005C47.8453 252.183 49.5867 260.513 50.8088 263.891C47.7651 266.994 44.8334 269.495 40.2227 268.488C40.0483 268.358 37.7608 261.158 36.0957 260.518" fill="#B1B3B6"/>
<path d="M49.0724 312.29C49.0724 312.29 50.5529 347.875 50.2831 350.469C50.0132 353.065 47.1261 402.194 47.1261 402.194C47.1261 402.194 41.1978 403.232 37.6475 402.194C37.6475 402.194 33.0673 363.934 37.6475 352.012L35.612 340.588C35.612 340.588 35.9149 349.086 35.612 350.816C35.309 352.546 26.1474 400.984 26.1474 400.984C26.1474 400.984 20.0855 400.823 17.318 398.394C17.318 398.394 16.4549 364.741 22.7689 350.585L16.9908 313.556L20.3197 304.133L49.0724 312.29Z" fill="#263238"/>
<path d="M35.6119 340.588C34.7654 335.116 29.5436 315.704 29.3209 315.237C26.4656 313.025 23.8572 311.074 22.9076 309.23C24.467 313.911 27.4712 314.153 28.5953 316.575C31.3716 322.555 29.2508 321.237 35.7341 341.275" fill="#B1B3B6"/>
<path d="M10.1154 246.005C9.98176 247.898 10.3687 249.789 10.3993 251.687C10.4298 253.585 10.0225 255.632 8.62858 256.921C7.23467 258.209 4.64797 258.26 3.65759 256.641C4.65943 258.733 6.81713 260.141 9.10085 260.556C11.3846 260.971 13.765 260.479 15.8744 259.512C21.4793 256.944 25.2129 251.069 25.0398 244.888C24.8972 239.808 21.0388 234.898 15.6503 237.569C12.4908 239.133 10.3624 242.516 10.1154 246.005Z" fill="#263238"/>
<g opacity="0.15">
<path opacity="0.15" d="M155.492 131.209H187.247" stroke="#455A64" stroke-width="3.2" stroke-miterlimit="10"/>
<path opacity="0.15" d="M258.508 141.333H282.652" stroke="#455A64" stroke-width="3.2" stroke-miterlimit="10"/>
<path opacity="0.15" d="M155.492 141.333H248.045" stroke="#455A64" stroke-width="3.2" stroke-miterlimit="10"/>
<path opacity="0.15" d="M155.492 151.457H282.652" stroke="#455A64" stroke-width="3.2" stroke-miterlimit="10"/>
<path opacity="0.15" d="M242.234 161.581H282.652" stroke="#455A64" stroke-width="3.2" stroke-miterlimit="10"/>
<path opacity="0.15" d="M155.492 161.581H232.174" stroke="#455A64" stroke-width="3.2" stroke-miterlimit="10"/>
<path opacity="0.15" d="M197.667 131.209H282.652" stroke="#455A64" stroke-width="3.2" stroke-miterlimit="10"/>
</g>
<path d="M270.663 131.265C270.663 131.408 245.213 131.53 213.837 131.53C182.46 131.53 157 131.408 157 131.265C157 131.122 182.44 131 213.837 131C245.234 131 270.663 131.112 270.663 131.265Z" fill="#263238"/>
<path d="M270.663 138.854C270.663 139.007 245.213 139.12 213.837 139.12C182.46 139.12 157 139.007 157 138.854C157 138.701 182.44 138.589 213.837 138.589C245.234 138.589 270.663 138.712 270.663 138.854Z" fill="#263238"/>
<path d="M270.663 146.454C270.663 146.596 245.213 146.719 213.837 146.719C182.46 146.719 157 146.596 157 146.454C157 146.311 182.44 146.188 213.837 146.188C245.234 146.188 270.663 146.311 270.663 146.454Z" fill="#263238"/>
<path d="M270.663 154.053C270.663 154.196 245.213 154.318 213.837 154.318C182.46 154.318 157 154.196 157 154.053C157 153.91 182.44 153.788 213.837 153.788C245.234 153.788 270.663 153.89 270.663 154.053Z" fill="#263238"/>
<path d="M270.663 203.265C270.663 203.408 245.213 203.53 213.837 203.53C182.46 203.53 157 203.408 157 203.265C157 203.122 182.44 203 213.837 203C245.234 203 270.663 203.112 270.663 203.265Z" fill="#263238"/>
<path d="M270.663 210.854C270.663 211.007 245.213 211.12 213.837 211.12C182.46 211.12 157 211.007 157 210.854C157 210.701 182.44 210.589 213.837 210.589C245.234 210.589 270.663 210.712 270.663 210.854Z" fill="#263238"/>
<path d="M270.663 218.454C270.663 218.596 245.213 218.719 213.837 218.719C182.46 218.719 157 218.596 157 218.454C157 218.311 182.44 218.188 213.837 218.188C245.234 218.188 270.663 218.311 270.663 218.454Z" fill="#263238"/>
<path d="M270.663 226.053C270.663 226.196 245.213 226.318 213.837 226.318C182.46 226.318 157 226.196 157 226.053C157 225.91 182.44 225.788 213.837 225.788C245.234 225.788 270.663 225.89 270.663 226.053Z" fill="#263238"/>
<path d="M270.663 276.265C270.663 276.408 245.213 276.53 213.837 276.53C182.46 276.53 157 276.408 157 276.265C157 276.122 182.44 276 213.837 276C245.234 276 270.663 276.112 270.663 276.265Z" fill="#263238"/>
<path d="M270.663 283.854C270.663 284.007 245.213 284.12 213.837 284.12C182.46 284.12 157 284.007 157 283.854C157 283.701 182.44 283.589 213.837 283.589C245.234 283.589 270.663 283.712 270.663 283.854Z" fill="#263238"/>
<path d="M270.663 291.454C270.663 291.596 245.213 291.719 213.837 291.719C182.46 291.719 157 291.596 157 291.454C157 291.311 182.44 291.188 213.837 291.188C245.234 291.188 270.663 291.311 270.663 291.454Z" fill="#263238"/>
<path d="M270.663 299.053C270.663 299.196 245.213 299.318 213.837 299.318C182.46 299.318 157 299.196 157 299.053C157 298.91 182.44 298.788 213.837 298.788C245.234 298.788 270.663 298.89 270.663 299.053Z" fill="#263238"/>
<path d="M270.663 350.265C270.663 350.408 245.213 350.53 213.837 350.53C182.46 350.53 157 350.408 157 350.265C157 350.122 182.44 350 213.837 350C245.234 350 270.663 350.112 270.663 350.265Z" fill="#263238"/>
<path d="M270.663 357.854C270.663 358.007 245.213 358.12 213.837 358.12C182.46 358.12 157 358.007 157 357.854C157 357.701 182.44 357.589 213.837 357.589C245.234 357.589 270.663 357.712 270.663 357.854Z" fill="#263238"/>
<path d="M270.663 365.454C270.663 365.596 245.213 365.719 213.837 365.719C182.46 365.719 157 365.596 157 365.454C157 365.311 182.44 365.188 213.837 365.188C245.234 365.188 270.663 365.311 270.663 365.454Z" fill="#263238"/>
<path d="M270.663 373.053C270.663 373.196 245.213 373.318 213.837 373.318C182.46 373.318 157 373.196 157 373.053C157 372.91 182.44 372.788 213.837 372.788C245.234 372.788 270.663 372.89 270.663 373.053Z" fill="#263238"/>
</svg>
