<svg width="54" height="54" viewBox="0 0 54 54" fill="none" xmlns="http://www.w3.org/2000/svg">
  <path
    d="M27 0C21.6599 0 16.4397 1.58352 11.9996 4.55032C7.55949 7.51712 4.09883 11.7339 2.05526 16.6675C0.0116986 21.6011 -0.522991 27.0299 0.518809 32.2674C1.56061 37.5049 4.13211 42.3159 7.90813 46.0919C11.6841 49.8679 16.4951 52.4394 21.7326 53.4812C26.9701 54.523 32.3988 53.9883 37.3325 51.9447C42.2661 49.9012 46.4829 46.4405 49.4497 42.0004C52.4165 37.5603 54 32.3401 54 27C54 19.8391 51.1554 12.9716 46.0919 7.90812C41.0284 2.84463 34.1608 0 27 0ZM44.6344 17.9381L22.4606 40.095L9.36563 27C8.91808 26.5524 8.66665 25.9454 8.66665 25.3125C8.66665 24.6796 8.91808 24.0725 9.36563 23.625C9.81319 23.1774 10.4202 22.926 11.0531 22.926C11.6861 22.926 12.2931 23.1774 12.7406 23.625L22.4944 33.3787L41.2931 14.5969C41.5147 14.3753 41.7778 14.1995 42.0674 14.0795C42.3569 13.9596 42.6672 13.8979 42.9806 13.8979C43.294 13.8979 43.6044 13.9596 43.8939 14.0795C44.1834 14.1995 44.4465 14.3753 44.6681 14.5969C44.8897 14.8185 45.0655 15.0816 45.1855 15.3711C45.3054 15.6606 45.3671 15.971 45.3671 16.2844C45.3671 16.5978 45.3054 16.9081 45.1855 17.1976C45.0655 17.4872 44.8897 17.7503 44.6681 17.9719L44.6344 17.9381Z"
    fill="black"
  />
</svg>
