<svg width="14" height="13" viewBox="0 0 14 13" fill="none" xmlns="http://www.w3.org/2000/svg">
  <path
    d="M4.90374 2.91307H6.2869V9.15947C6.2869 9.24071 6.35428 9.30718 6.43663 9.30718H7.55963C7.64198 9.30718 7.70936 9.24071 7.70936 9.15947V2.91307H9.09626C9.22166 2.91307 9.29091 2.7709 9.21417 2.67488L7.11791 0.0566753C7.10391 0.0390204 7.08601 0.0247421 7.06558 0.0149226C7.04515 0.00510314 7.02273 0 7 0C6.97727 0 6.95485 0.00510314 6.93442 0.0149226C6.91399 0.0247421 6.89609 0.0390204 6.88209 0.0566753L4.78583 2.67304C4.70909 2.7709 4.77834 2.91307 4.90374 2.91307ZM13.8503 8.60555H12.7273C12.6449 8.60555 12.5775 8.67202 12.5775 8.75326V11.5967H1.42246V8.75326C1.42246 8.67202 1.35508 8.60555 1.27273 8.60555H0.149733C0.0673797 8.60555 0 8.67202 0 8.75326V12.4091C0 12.736 0.267647 13 0.59893 13H13.4011C13.7324 13 14 12.736 14 12.4091V8.75326C14 8.67202 13.9326 8.60555 13.8503 8.60555Z"
    fill="black"/>
</svg>
