<svg width="12" height="12" viewBox="0 0 12 12" fill="none" xmlns="http://www.w3.org/2000/svg">
  <path
    d="M7.90903 6L11.6046 9.69559C12.1318 10.2228 12.1318 11.0775 11.6046 11.6046C11.0774 12.1318 10.2228 12.1318 9.69559 11.6046L6 7.90903L2.30441 11.6046C1.77724 12.1318 0.922547 12.1318 0.395377 11.6046C-0.131792 11.0775 -0.131792 10.2228 0.395377 9.69559L4.09097 6L0.395377 2.30441C-0.131792 1.77724 -0.131792 0.922547 0.395377 0.395377C0.658962 0.13182 1.00442 0 1.34988 0C1.69534 0 2.04083 0.131792 2.30438 0.395377L6 4.09097L9.69559 0.395377C9.95917 0.13182 10.3046 0 10.6501 0C10.9956 0 11.341 0.131792 11.6046 0.395377C12.1318 0.922547 12.1318 1.77724 11.6046 2.30441L7.90903 6Z"
    fill="black"/>
</svg>
